<svg xmlns="http://www.w3.org/2000/svg" viewBox="0 0 4304.94 1181.74"><defs><style>.cls-1{fill:#fff;}</style></defs><g id="Layer_2" data-name="Layer 2"><g id="LOGOS_CONTORNEADOS" data-name="LOGOS CONTORNEADOS"><path class="cls-1" d="M774.22,271.54h71.22L978,498.58l134.24-227h69.93V576.28h-55.25V342.33l-135.54,234H965L829.47,342.33v234H774.22Zm472.64,0h254.67v46.62h-196.4V399.3h195.1v46.62h-195.1v83.74h196.4v46.62H1246.86Zm308.62,0h163.6c83.3,0,145,28.49,170.49,87.19,8.21,18.56,13,40.14,13,65.18s-4.31,46.61-13,65.61c-26.33,58.27-87.19,86.76-170.49,86.76h-163.6Zm159.28,255.53c58.27,0,99.28-19,117-57.41,5.62-13,8.64-28.49,8.64-45.75s-3-32.81-8.64-45.76c-17.69-38.41-58.7-57.41-117-57.41h-101V527.07Zm523.58-35a84.82,84.82,0,0,1-6.91,34.53c-16.4,35.82-59.56,49.64-111.36,49.64h-170.5V271.54h167.91c47.91,0,83.74,13.38,98,44,4.32,9.49,6.48,20.28,6.48,32.8,0,13.38-2.16,25-6.48,34.53-7.77,16.84-22,28.06-43.16,34.53,29.35,4.75,49.64,17.27,59.57,39.71C2236.18,467.07,2238.34,478.29,2238.34,492.11Zm-230.5-92.81h84.61c33.66,0,57.84-5.61,66-24.17,2.59-4.75,3.45-10.36,3.45-17.26a38.3,38.3,0,0,0-3.45-16.41c-9.07-19-34.53-24.17-66-24.17h-84.61Zm168.34,88.92c0-6.9-.86-12.08-3-16.83-9.49-20.72-36.25-26.33-68.2-26.33h-97.12v85.46h97.56c32.37,0,58.7-6,67.33-25A42.42,42.42,0,0,0,2176.18,488.22ZM2288,271.54h58.27V576.28H2288Zm119.56,220.13c-9.06-19.85-13.81-42.73-13.81-67.76a166.26,166.26,0,0,1,13.38-66.48c26.33-59.13,91.08-94.52,184.74-94.52,94.1,0,158,35,183.88,92.8a166.26,166.26,0,0,1,14.68,68.2,164.31,164.31,0,0,1-15.11,69.49c-26.76,57.84-90.65,91.51-183.88,91.51S2433.87,550.81,2407.54,491.67Zm310.35-20.28a123.4,123.4,0,0,0,0-95c-18.56-41-63.88-63.45-126-63.45-61.72,0-107,22.44-125.61,63.45a123.52,123.52,0,0,0,0,95c18.56,41,63.89,63.45,125.61,63.45C2654,534.84,2699.33,512.39,2717.89,471.39ZM774.22,686.58h58.27V991.32H774.22Zm123,0h67.34L1168.3,927.44V686.58h57.84V991.32h-69.49L955.07,753.92v237.4H897.23Zm393.65,0H1502v47.91h-152.8v81.15h151.93v47.91H1349.16V991.32h-58.28Zm253.81,220.14c-9.06-19.86-13.81-42.74-13.81-67.77a166.17,166.17,0,0,1,13.38-66.47C1570.59,713.34,1635.34,678,1729,678c94.1,0,158,35,183.88,92.8a166.13,166.13,0,0,1,14.68,68.2,164.09,164.09,0,0,1-15.11,69.49c-26.76,57.84-90.64,91.51-183.88,91.51S1571,965.85,1544.69,906.72ZM1855,886.43a123.4,123.4,0,0,0,0-95c-18.56-41-63.88-63.45-126-63.45-61.72,0-107,22.44-125.6,63.45a123.4,123.4,0,0,0,0,95c18.56,41,63.88,63.45,125.6,63.45C1791.16,949.88,1836.48,927.44,1855,886.43Zm226.19-12.09h-48.34v117h-58.28V686.58h175.68c52.23,0,91.94,16,107.48,51.37,5.18,11.22,7.77,24.17,7.77,39.27,0,17.27-3,32.38-8.63,45.33-15.11,33.66-50.5,50.93-99.28,51.79l130.79,117h-79.86Zm-48.34-46.61h103.59c34.53,0,57.41-5.18,66-25,3-6.47,4.32-13.81,4.32-23.31q0-12.3-3.89-20.72c-8.63-19.85-32.37-25.46-66.47-25.46H2032.89Zm291.78-141.15h71.22l132.51,227,134.24-227h69.93V991.32h-55.25v-234l-135.54,234h-26.33l-135.53-234v234h-55.25Zm725.15,230.06H2861.63l-36.26,74.68h-63.45l153.23-304.74h80.28l153.24,304.74h-62.59Zm-24.17-49.2-69.93-143.31h-.86l-69.49,143.31Zm187.76-131.65H3107.66V686.58h268.91v49.21H3271.25V991.32h-57.84Zm200.28-49.21H3472V991.32h-58.27Zm119.13,218.84c-8.64-19.85-13.38-41.87-13.38-66.47s4.74-47.05,13.38-66.47c26.76-59.14,92.8-94.53,184.74-94.53,60,0,113.52,16,148.48,47,24.61,22.87,38.85,52.66,41,87.62h-61.29c-3-22.45-13-39.71-27.63-52.66C3794.82,738.38,3759,728,3718.42,728c-62.15,0-108.34,22.44-126.9,63.88A118.92,118.92,0,0,0,3582,839c0,17.7,3,32.8,9.07,46.62,19.42,43.16,66.9,64.31,126.9,64.31,41.87,0,79.42-10.36,102.73-31.94,14.68-13.38,24.17-30.65,25.9-52.66h60.86c-2.16,36.69-16.4,66-41,88.05-34.54,31.08-88.06,46.62-149.35,46.62C3623.89,1000,3559.15,965.42,3532.82,905.42Zm413.94,26.76a107.07,107.07,0,0,1-8.2-42.3h60a65.7,65.7,0,0,0,5.18,23.31c13.38,30.22,52.22,40.58,99.7,40.58,40.15,0,79.86-7.77,90.65-30.22a37.31,37.31,0,0,0,2.59-13.81,31.46,31.46,0,0,0-2.59-13c-12.95-28.06-71.65-31.08-122.59-38.85-55.25-9.06-102.73-23.74-119.13-59.57-3.45-8.2-5.18-17.26-5.18-28a75.62,75.62,0,0,1,6-30.22c19-42.73,79.43-62.15,143.74-62.15,66,0,123.88,20.72,144.17,66,5.18,11.22,7.77,24.17,7.77,38.41h-60.43A59.17,59.17,0,0,0,4183.3,760c-12.09-26.76-44.46-36.69-85.9-36.69-38,0-76.4,8.63-85.9,30.21a26.22,26.22,0,0,0-2.15,10.36,30.11,30.11,0,0,0,2.15,10.79c11.23,24.61,63.46,28.92,112.23,37.13,58.7,9.49,112.23,23.3,129.93,63,3.88,8.63,6,18.56,6,30.64a80.06,80.06,0,0,1-6.91,33.24c-19.85,44-80.28,61.29-149.78,61.29C4028.77,1000,3968.34,980.53,3946.76,932.18ZM765.84,1095.58h45c22.91,0,39.88,7.83,46.88,24a43.93,43.93,0,0,1,3.56,17.92,43,43,0,0,1-3.56,18c-7.24,16-24,23.86-46.88,23.86h-45Zm43.79,70.26c16,0,27.3-5.22,32.17-15.79a34.57,34.57,0,0,0,0-25.16c-4.87-10.56-16.14-15.78-32.17-15.78H781.86v56.73Zm128.19-7H886.07l-10,20.53H858.65l42.14-83.79h22.07L965,1179.37H947.78Zm-6.65-13.53-19.23-39.41h-.24l-19.1,39.41Zm51.63-36.2H953.72v-13.53h73.94v13.53h-29v70.26H982.8Zm112.75,49.73H1043.8l-10,20.53h-17.44l42.13-83.79h22.07l42.14,83.79h-17.21Zm-6.65-13.53-19.23-39.41h-.23l-19.11,39.41Zm69.2-49.73h58v13.17h-42v22.31h41.78v13.18h-41.78v35.13h-16Zm69.79,60.53a44.56,44.56,0,0,1-3.8-18.64,45.53,45.53,0,0,1,3.68-18.27c7.24-16.26,25-26,50.79-26s43.44,9.62,50.56,25.52a45.59,45.59,0,0,1,4,18.75,45,45,0,0,1-4.16,19.11c-7.35,15.9-24.92,25.16-50.55,25.16S1235.13,1172.37,1227.89,1156.11Zm85.33-5.58a34,34,0,0,0,0-26.11c-5.1-11.28-17.56-17.45-34.66-17.45s-29.43,6.17-34.53,17.45a34,34,0,0,0,0,26.11c5.1,11.27,17.56,17.44,34.53,17.44S1308.12,1161.8,1313.22,1150.53Zm62.2-3.33h-13.3v32.17h-16v-83.79h48.3c14.36,0,25.28,4.39,29.56,14.12a25.51,25.51,0,0,1,2.13,10.8,31.15,31.15,0,0,1-2.37,12.46c-4.15,9.26-13.89,14-27.3,14.24l36,32.17h-22Zm-13.3-12.81h28.49c9.49,0,15.78-1.43,18.15-6.89a14.74,14.74,0,0,0,1.19-6.41,13.56,13.56,0,0,0-1.07-5.69c-2.37-5.46-8.9-7-18.27-7h-28.49Zm128-25.28H1461v-13.53h73.94v13.53h-29v70.26h-15.9Zm50.56,47a44.56,44.56,0,0,1-3.8-18.64,45.53,45.53,0,0,1,3.68-18.27c7.24-16.26,25-26,50.79-26s43.44,9.62,50.56,25.52a45.75,45.75,0,0,1,4,18.75,45.19,45.19,0,0,1-4.16,19.11c-7.35,15.9-24.92,25.16-50.56,25.16S1547.87,1172.37,1540.63,1156.11Zm85.33-5.58a34,34,0,0,0,0-26.11c-5.1-11.28-17.57-17.45-34.66-17.45s-29.43,6.17-34.53,17.45a34,34,0,0,0,0,26.11c5.1,11.27,17.56,17.44,34.53,17.44S1620.86,1161.8,1626,1150.53Zm32.88-55h19.58l36.44,62.42,36.91-62.42H1771v83.79h-15.2V1115l-37.26,64.33h-7.24L1674,1115v64.33h-15.19Zm129,60.53a44.72,44.72,0,0,1-3.8-18.64,45.7,45.7,0,0,1,3.68-18.27c7.24-16.26,25-26,50.8-26s43.44,9.62,50.56,25.52a45.75,45.75,0,0,1,4,18.75,45.19,45.19,0,0,1-4.15,19.11c-7.36,15.9-24.92,25.16-50.56,25.16S1795.09,1172.37,1787.85,1156.11Zm85.33-5.58a33.84,33.84,0,0,0,0-26.11c-5.1-11.28-17.56-17.45-34.65-17.45s-29.43,6.17-34.54,17.45a34,34,0,0,0,0,26.11c5.11,11.27,17.57,17.44,34.54,17.44S1868.08,1161.8,1873.18,1150.53Zm62.2-3.33h-13.29v32.17h-16v-83.79h48.3c14.36,0,25.28,4.39,29.55,14.12a25.5,25.5,0,0,1,2.14,10.8,31,31,0,0,1-2.38,12.46c-4.15,9.26-13.88,14-27.29,14.24l36,32.17h-22Zm-13.29-12.81h28.48c9.5,0,15.79-1.43,18.16-6.89a14.74,14.74,0,0,0,1.19-6.41,13.56,13.56,0,0,0-1.07-5.69c-2.38-5.46-8.9-7-18.28-7h-28.48Zm109.54,12.81h-13.29v32.17h-16v-83.79h48.3c14.36,0,25.28,4.39,29.55,14.12a25.35,25.35,0,0,1,2.14,10.8,31.15,31.15,0,0,1-2.37,12.46c-4.16,9.26-13.89,14-27.3,14.24l36,32.17h-22Zm-13.29-12.81h28.48c9.5,0,15.79-1.43,18.16-6.89a14.74,14.74,0,0,0,1.19-6.41,13.56,13.56,0,0,0-1.07-5.69c-2.37-5.46-8.9-7-18.28-7h-28.48Zm76.55,21.72a44.71,44.71,0,0,1-3.79-18.64,45.7,45.7,0,0,1,3.67-18.27c7.24-16.26,25.05-26,50.8-26s43.44,9.62,50.56,25.52a45.75,45.75,0,0,1,4,18.75,45.19,45.19,0,0,1-4.16,19.11c-7.36,15.9-24.92,25.16-50.56,25.16S2102.13,1172.37,2094.89,1156.11Zm85.34-5.58a34,34,0,0,0,0-26.11c-5.11-11.28-17.57-17.45-34.66-17.45s-29.43,6.17-34.54,17.45a34,34,0,0,0,0,26.11c5.11,11.27,17.57,17.44,34.54,17.44S2175.12,1161.8,2180.23,1150.53Zm172.57-55-33.59,83.79h-16.73L2277,1114l-25.52,65.4h-16.73l-33.59-83.79h17.68l24.81,63.61,24.68-63.61h17.33l24.57,63.49,24.81-63.49Zm1911-413.27h-6.51V678h18.15v4.3h-6.5v14.22h-5.14Zm13.67-4.3h6l7.76,13,7.88-13h5.8v18.52h-4.78V684.05l-7.53,12.48h-2.8l-7.59-12.48v12.48h-4.78ZM1061.69,15.41s-5.39.74-15.49,1.93l-8.39,1.09c-3.07.41-6.41.76-10,1.31l-11.63,1.58L1003,23.27c-4.61.7-9.45,1.56-14.52,2.34l-15.81,2.8c-11,2.09-22.7,4.48-35.08,7.38-24.73,5.89-52.07,13.69-80,25.16a408,408,0,0,0-42,20l-5.19,3-2.6,1.49L805.29,87l-5.18,3.11L795,93.37c-6.79,4.45-13.58,9.06-20.17,14.09-3.35,2.44-6.56,5.12-9.85,7.7s-6.49,5.33-9.64,8.17C749,128.9,742.7,134.75,736.64,141s-12,12.61-17.81,19.36-11.4,13.79-16.9,21.07a560,560,0,0,0-31.34,46.7c-9.94,16.52-19.51,33.83-28.85,51.78-18.69,35.89-36.64,74.19-56.19,113s-40.85,78.08-66.17,115.27a580.26,580.26,0,0,1-41,53.56q-11.06,12.74-22.83,24.65t-24.3,22.75c-8.32,7.25-16.9,14.08-25.57,20.58s-17.59,12.51-26.52,18.22-18,10.88-27.14,15.73-18.24,9.29-27.41,13.25-18.25,7.66-27.29,11l-6.79,2.36c-2.25.77-4.48,1.58-6.74,2.28-4.5,1.42-8.93,2.9-13.39,4.12a479.77,479.77,0,0,1-51.72,12c-16.64,2.91-32.61,4.85-47.76,6.12l-11.22.79-2.75.2-2.74.12-5.41.23c-7.15.38-14.09.43-20.8.56a644.1,644.1,0,0,1-69-3.36c-9.48-.91-17.9-2.11-25.2-3.06-7.31-1.13-13.5-2.07-18.5-3C5.3,705.38,0,704.28,0,704.28s5.38-1,15.38-2.53l18.38-3,11.59-2c4.12-.65,8.48-1.52,13.08-2.34,18.4-3.35,40.57-7.73,65.46-13.73l9.45-2.4c1.59-.4,3.2-.77,4.81-1.21l4.87-1.32,4.93-1.33,2.48-.67,2.49-.71L163,670.12c13.59-4.07,27.69-8.67,42.06-14s29-11.38,43.69-18.3l2.76-1.29c.92-.44,1.83-.9,2.74-1.36l5.51-2.71c1.85-.88,3.66-1.87,5.49-2.81l5.51-2.87c7.26-4,14.61-8,21.8-12.53s14.35-9.12,21.44-14c3.51-2.51,7.06-5,10.51-7.61s6.92-5.29,10.38-8c1.72-1.35,3.4-2.78,5.11-4.16l2.55-2.09,2.51-2.16c1.68-1.44,3.38-2.86,5-4.32l5-4.46c1.68-1.47,3.28-3,4.92-4.55l2.46-2.3c.81-.77,1.6-1.57,2.41-2.35,1.6-1.58,3.23-3.13,4.83-4.73l4.75-4.85c25.31-26.05,48-56.5,68.8-89.94q15.6-25.12,30.07-52.22c9.73-18,19.22-36.53,28.72-55.37,19.05-37.64,38.2-76.57,60.1-114.59,10.94-19,22.6-37.78,35.19-55.92a536.41,536.41,0,0,1,40.91-51.95q11-12.24,22.79-23.56c7.84-7.53,16-14.66,24.26-21.43,2.1-1.66,4.15-3.36,6.26-5l6.33-4.84c2.12-1.58,4.29-3.1,6.42-4.64s4.29-3,6.46-4.5c4.29-3,8.71-5.74,13.05-8.51,2.2-1.35,4.42-2.65,6.62-4s4.42-2.56,6.64-3.8l3.32-1.86q1.65-.93,3.33-1.8l6.66-3.49c2.22-1.16,4.48-2.21,6.7-3.29s4.45-2.15,6.7-3.13l6.68-3,6.69-2.8,3.32-1.37c1.11-.45,2.24-.85,3.35-1.28l6.65-2.5c2.21-.8,4.43-1.54,6.63-2.31s4.38-1.54,6.59-2.21c4.39-1.38,8.73-2.76,13.08-3.93l6.47-1.79,6.43-1.61c4.25-1.12,8.51-2,12.7-2.89A447.73,447.73,0,0,1,933.82,0,538.74,538.74,0,0,1,1003,4.52l13.39,1.89,11.74,1.95c7.28,1.28,13.45,2.55,18.42,3.55C1056.42,14.12,1061.69,15.41,1061.69,15.41Z"/></g></g></svg>