<?xml version="1.0" encoding="utf-8"?>
<!-- Generator: Adobe Illustrator 26.2.1, SVG Export Plug-In . SVG Version: 6.00 Build 0)  -->
<svg version="1.1" xmlns="http://www.w3.org/2000/svg" xmlns:xlink="http://www.w3.org/1999/xlink" x="0px" y="0px"
	 viewBox="0 0 760 760" style="enable-background:new 0 0 760 760;" xml:space="preserve">
<style type="text/css">
	.st0{display:none;}
	.st1{display:inline;fill:none;stroke:url(#SVGID_1_);stroke-width:8;stroke-linecap:round;stroke-miterlimit:10;}
	
		.st2{display:inline;fill:none;stroke:url(#SVGID_00000121969306690552443350000000065260975520408707_);stroke-width:8;stroke-linecap:round;stroke-miterlimit:10;}
	
		.st3{display:inline;fill:none;stroke:url(#SVGID_00000163031711475123186890000005629832441841275327_);stroke-width:8;stroke-linecap:round;stroke-miterlimit:10;}
	
		.st4{display:inline;fill:none;stroke:url(#SVGID_00000007391044058146869690000004089432022747063215_);stroke-width:8;stroke-linecap:round;stroke-miterlimit:10;}
	
		.st5{display:inline;fill:none;stroke:url(#SVGID_00000005981146683081540680000013829077377712096156_);stroke-width:8;stroke-linecap:round;stroke-miterlimit:10;}
	
		.st6{display:inline;fill:none;stroke:url(#SVGID_00000085939249619556328880000002854635770219187840_);stroke-width:8;stroke-linecap:round;stroke-miterlimit:10;}
	
		.st7{display:inline;fill:none;stroke:url(#SVGID_00000162317363340375470070000001425422922469440660_);stroke-width:8;stroke-linecap:round;stroke-miterlimit:10;}
	
		.st8{display:inline;fill:none;stroke:url(#SVGID_00000101080758179254349940000005290469361904782721_);stroke-width:8;stroke-linecap:round;stroke-miterlimit:10;}
	
		.st9{display:inline;fill:none;stroke:url(#SVGID_00000087377211625153271580000012429179295084193719_);stroke-width:8;stroke-linecap:round;stroke-miterlimit:10;}
	
		.st10{display:inline;fill:none;stroke:url(#SVGID_00000151528865285682236330000000099966268572656781_);stroke-width:8;stroke-linecap:round;stroke-miterlimit:10;}
	
		.st11{display:inline;fill:none;stroke:url(#SVGID_00000016760533272682878390000018350939630227543721_);stroke-width:8;stroke-linecap:round;stroke-miterlimit:10;}
	.st12{fill:url(#SVGID_00000111869698540280103480000011150185411725574847_);}
	.st13{fill:url(#SVGID_00000018917200952601393920000010511562302445444028_);}
</style>
<g id="Camada_1" class="st0">
	
		<linearGradient id="SVGID_1_" gradientUnits="userSpaceOnUse" x1="284.14" y1="416.4488" x2="621.5048" y2="416.4488" gradientTransform="matrix(1 0 0 -1 0 762)">
		<stop  offset="0.14" style="stop-color:#679980"/>
		<stop  offset="0.83" style="stop-color:#0F1958"/>
	</linearGradient>
	<path class="st1" d="M288.1,203c7.4-7.5,16.2-13.2,24.4-19.7c3.8-3.1,7.4-6.6,12-8.7c3.3-1.4,6.4-2.6,9.3-5.2
		c3.1-2.7,8.1-1.5,12.1-0.9c6.6,0.9,13.2,1.4,19.8,2.3s13.2,1.4,19.8,2.1l28.4,2.9c8.2,0.8,16.5,1.6,24.8,2.5
		c0.7,0.2,1.4,0.4,2.1,0.8c9.4,3.6,18.7,7.4,27.3,12.7c17,10.6,34.1,20.9,51.1,31.4c1.7,0.9,3.2,2,4.5,3.3c2.8,3.2,6.3,4.1,10.4,4.5
		c26.2,2.7,46.5,15.4,61,37.1c8.1,12.2,12.6,26.5,13,41.1c0.5,12.1,1.1,24.2,1.7,36.3c0.5,12,1.1,23.9,1.7,35.9s1.1,23.9,1.7,35.9
		s1.1,23.9,1.7,35.9s0.9,23.9,1.8,35.9c0.5,7.3,0,14.6,0.9,21.9c0.7,4.9-1,6.2-6.1,6.7c-6.6,0.6-13.2,0-20.2,0.5v5.2"/>
	
		<linearGradient id="SVGID_00000140705862937638813200000017743381804798639032_" gradientUnits="userSpaceOnUse" x1="126.2032" y1="398.1374" x2="335.05" y2="398.1374" gradientTransform="matrix(1 0 0 -1 0 762)">
		<stop  offset="0.14" style="stop-color:#679980"/>
		<stop  offset="0.83" style="stop-color:#0F1958"/>
	</linearGradient>
	
		<path style="display:inline;fill:none;stroke:url(#SVGID_00000140705862937638813200000017743381804798639032_);stroke-width:8;stroke-linecap:round;stroke-miterlimit:10;" d="
		M331,350.6c-5.4-3.3-7.6-8.6-9.1-14.4c-7-27.8-14.1-55.5-21-83.3c-3.7-14.7-7.2-29.4-10.8-44.1c-1.5-6.1-2.2-6.8-8.7-6.6
		c-8.4,0.3-16.8-0.7-25.2-0.9c-16.3-0.3-30.3,5.8-42.4,15.8c-13.8,11.2-23.8,26.5-28.5,43.6c-3.1,11.4-5.3,23.1-7.9,34.6
		c-6.2,26.8-12.4,53.6-18.6,80.4c-5.1,22-10.2,44-15.3,66c-0.1,0.3-0.4,0.6-0.4,0.8c2.1,6.9-3.2,12-4.2,18.1s-2.7,12.3-4.1,18.5
		s-2.4,12.5-4.2,18.5c-1.2,4.1-0.6,7.1,2.6,10c6.1,5.7,13.4,9.3,21.1,12.4c11.9,4.9,24.8,7,37.6,6.1c5.2-0.4,10.3-1.9,14.9-4.5
		c2.5-1.4,3.2-3.7,3.7-6.2c5.1-23.9,10.3-47.8,15.2-71.7c1.4-6.7,3.8-12.5,9.6-16.5"/>
	
		<linearGradient id="SVGID_00000175293024906124937290000007161115941871935365_" gradientUnits="userSpaceOnUse" x1="397.3854" y1="479.825" x2="451.42" y2="479.825" gradientTransform="matrix(1 0 0 -1 0 762)">
		<stop  offset="0.14" style="stop-color:#679980"/>
		<stop  offset="0.83" style="stop-color:#0F1958"/>
	</linearGradient>
	
		<path style="display:inline;fill:none;stroke:url(#SVGID_00000175293024906124937290000007161115941871935365_);stroke-width:8;stroke-linecap:round;stroke-miterlimit:10;" d="
		M447.4,182.8c-4.5,10.7-6.2,22.2-9,33.4c-6.1,24.7-11.9,49.4-17.8,74.2c-6.1,25.4-12,50.9-18.2,76.2c-1.2,5.1-1.8,10,0.9,14.9"/>
	
		<linearGradient id="SVGID_00000142144874608604786270000007977481891592905653_" gradientUnits="userSpaceOnUse" x1="231.685" y1="425.9118" x2="341.5516" y2="425.9118" gradientTransform="matrix(1 0 0 -1 0 762)">
		<stop  offset="0.14" style="stop-color:#679980"/>
		<stop  offset="0.83" style="stop-color:#0F1958"/>
	</linearGradient>
	
		<path style="display:inline;fill:none;stroke:url(#SVGID_00000142144874608604786270000007977481891592905653_);stroke-width:8;stroke-linecap:round;stroke-miterlimit:10;" d="
		M330.6,173.4c2,3.5,2.4,7.2,2.5,11.1c0.5,16.4,0.3,32.7,1,49.1c0.5,12.8-0.2,25.6,0.7,38.3c1,14.2,0.1,28.3,0.9,42.5
		c0.4,7.6,0.4,15.1,0.7,22.7c0.2,3.7-0.9,7.3-3,10.3c-1.7,2.2-2.3,5.2-1.6,7.9c2.4,12.3,3.5,24.7,4.9,37.1c1.2,8.9,1,17.9-0.3,26.8
		c0,0.3,0,0.5,0,0.8c0.6,10.6-0.5,21.2-1.1,31.7c-0.5,8,0.3,16-1.3,24c-1.1,4.9-3.2,9.6-6.3,13.6c-0.7,0.9-2,1.5-2.4,2.5
		c-3.3,8.6-10.8,7.4-17.4,6.9c-14.5-1.1-28.9-2.8-43.3-4.5c-7.6-0.9-15.1-1.8-22.7-2.5c-2-0.2-3.8-1.4-5.8-2.1
		c-1.1-6.3,0.2-12.5,0.9-18.8c1.1-10.9,2.4-21.7,3.2-32.6c0.2-3.4-2-6.4-3.6-9.5"/>
	
		<linearGradient id="SVGID_00000031899497596484835500000010879162761532376986_" gradientUnits="userSpaceOnUse" x1="235.24" y1="406.665" x2="257.917" y2="406.665" gradientTransform="matrix(1 0 0 -1 0 762)">
		<stop  offset="0.14" style="stop-color:#679980"/>
		<stop  offset="0.83" style="stop-color:#0F1958"/>
	</linearGradient>
	
		<path style="display:inline;fill:none;stroke:url(#SVGID_00000031899497596484835500000010879162761532376986_);stroke-width:8;stroke-linecap:round;stroke-miterlimit:10;" d="
		M239.2,404.2c2.4-14.4,4.7-28.9,7.1-43.3c1.6-9.4,3.1-18.9,4.3-28.4c1.1-8.6,3.6-17.1,3.3-26"/>
	
		<linearGradient id="SVGID_00000125563420458788057830000000738264613349956769_" gradientUnits="userSpaceOnUse" x1="374.536" y1="393.44" x2="531.89" y2="393.44" gradientTransform="matrix(1 0 0 -1 0 762)">
		<stop  offset="0.14" style="stop-color:#679980"/>
		<stop  offset="0.83" style="stop-color:#0F1958"/>
	</linearGradient>
	
		<path style="display:inline;fill:none;stroke:url(#SVGID_00000125563420458788057830000000738264613349956769_);stroke-width:8;stroke-linecap:round;stroke-miterlimit:10;" d="
		M527.9,230.6c-1.5,2.9-3.3,5.7-5.3,8.3c-29.5,37.1-58.8,74.3-88.4,111.2c-7,8.8-13.6,17.9-21.3,26.1c-1.8,1.9-3.5,3.9-5.9,4.3
		c-3.7,0.6-4.6,3.3-6.2,5.9c-8.1,13.5-9.3,28.9-12.3,43.7c-3.2,16.2-5.9,32.5-9.2,48.6c-1.4,6.4-0.7,13.1,2.2,19
		c1.3,2.8,2.9,5.5,2.9,8.7"/>
	
		<linearGradient id="SVGID_00000014620224272174420060000003038458623294744999_" gradientUnits="userSpaceOnUse" x1="318.39" y1="268.5792" x2="526.96" y2="268.5792" gradientTransform="matrix(1 0 0 -1 0 762)">
		<stop  offset="0.14" style="stop-color:#679980"/>
		<stop  offset="0.83" style="stop-color:#0F1958"/>
	</linearGradient>
	
		<path style="display:inline;fill:none;stroke:url(#SVGID_00000014620224272174420060000003038458623294744999_);stroke-width:8;stroke-linecap:round;stroke-miterlimit:10;" d="
		M322.4,497.8c4.3,4.1,9.9,4.5,15.3,5.3c10.3,1.6,20.6,3.1,31,4.5c4.8,0.6,9.8,1.6,14.4-0.5c3-1.4,4.6,1,6.6,1.9
		c7.3,3.2,15.1,3.6,22.8,4.8c9.2,1.4,18.4,2.5,27.6,3.8c13.5,1.8,27,3.6,40.4,5.4c7.3,1,14.6,1.8,21.9,2.9c6.7,1,8.2,0,9.1-6.6
		c2-15.1,3.6-30.2,5-45.4c0.5-5.1,2.4-9.8,6.6-13.2"/>
	
		<linearGradient id="SVGID_00000136375011824626474320000006320103193546113428_" gradientUnits="userSpaceOnUse" x1="518.94" y1="235.8583" x2="623.9288" y2="235.8583" gradientTransform="matrix(1 0 0 -1 0 762)">
		<stop  offset="0.14" style="stop-color:#679980"/>
		<stop  offset="0.83" style="stop-color:#0F1958"/>
	</linearGradient>
	
		<path style="display:inline;fill:none;stroke:url(#SVGID_00000136375011824626474320000006320103193546113428_);stroke-width:8;stroke-linecap:round;stroke-miterlimit:10;" d="
		M522.9,460c4.7,2.1,6.3,6.7,7.2,11c1.1,4.9,0.5,10.2,1.1,15.2c1.1,9.5,1.1,19,2.3,28.5c0.5,4.2,0.7,8.5,0.7,12.8
		c0.2,6.2,0.6,12.4,1.2,18.5c0.8,8.1-0.4,16.6,3.5,24.3c0.3,0.4,0.4,0.8,0.4,1.2c-1.7,9.2,3.9,13.8,11.2,16.8
		c6.1,2.5,12.7,3.8,19.4,3.8c10.3,0,20.5,0.2,30.5-2.9c8.2-2.6,14.1-7.8,18.2-15.3c1.1-1.7,1.2-3.9,0.3-5.7c-1.5-2.8-1-5.1,0-7.9
		c1.3-4.1,1-8.6,0.4-12.7c-0.8-5.3-0.1-10.5-0.7-15.7c-0.6-4.8,0.1-10-2.8-14.4"/>
	
		<linearGradient id="SVGID_00000155105010202683018450000010665938911640913293_" gradientUnits="userSpaceOnUse" x1="515.84" y1="358.67" x2="528.57" y2="358.67" gradientTransform="matrix(1 0 0 -1 0 762)">
		<stop  offset="0.14" style="stop-color:#679980"/>
		<stop  offset="0.83" style="stop-color:#0F1958"/>
	</linearGradient>
	
		<path style="display:inline;fill:none;stroke:url(#SVGID_00000155105010202683018450000010665938911640913293_);stroke-width:8;stroke-linecap:round;stroke-miterlimit:10;" d="
		M519.8,347.3c1,9.3,2.2,18.7,3,28c0.3,3.3,0.5,6.6,0.7,9.9c0.5,9.3,1.2,18.6,0.8,28c-0.4,8-0.3,16.2-0.3,24.3
		c0,7.3-0.2,14.6-0.4,21.8"/>
	
		<linearGradient id="SVGID_00000149375640754692882750000005678900863507960971_" gradientUnits="userSpaceOnUse" x1="535.86" y1="195.6058" x2="621" y2="195.6058" gradientTransform="matrix(1 0 0 -1 0 762)">
		<stop  offset="0.14" style="stop-color:#679980"/>
		<stop  offset="0.83" style="stop-color:#0F1958"/>
	</linearGradient>
	
		<path style="display:inline;fill:none;stroke:url(#SVGID_00000149375640754692882750000005678900863507960971_);stroke-width:8;stroke-linecap:round;stroke-miterlimit:10;" d="
		M617,565c-2.8-0.3-5.6-0.8-8.3-1.6c-10.1-2.3-20.3-2-30.5-1c-8.6,0.8-17.2,2.3-25.6,4.6c-4.3,1.2-8.2,3.6-12.8,4.1"/>
	
		<linearGradient id="SVGID_00000084488078369037670140000002982153814211774870_" gradientUnits="userSpaceOnUse" x1="140.53" y1="309.985" x2="172.47" y2="309.985" gradientTransform="matrix(1 0 0 -1 0 762)">
		<stop  offset="0.14" style="stop-color:#679980"/>
		<stop  offset="0.83" style="stop-color:#0F1958"/>
	</linearGradient>
	
		<path style="display:inline;fill:none;stroke:url(#SVGID_00000084488078369037670140000002982153814211774870_);stroke-width:8;stroke-linecap:round;stroke-miterlimit:10;" d="
		M144.5,449.1c7.8,2.6,16,3.6,23.9,5.8"/>
</g>
<g id="Layer_2">
	
		<linearGradient id="SVGID_00000086653702312660710960000002906142481079855232_" gradientUnits="userSpaceOnUse" x1="128.8243" y1="360.4114" x2="629.9372" y2="360.4114">
		<stop  offset="0.14" style="stop-color:#679980"/>
		<stop  offset="0.83" style="stop-color:#0F1958"/>
	</linearGradient>
	<path style="fill:url(#SVGID_00000086653702312660710960000002906142481079855232_);" d="M402.2,566.7
		c-10.5,7.2-20.4,15.6-31.6,21.4c-61.5,31.9-138-4.4-151.8-72c-2.1-10.2-2-20.8-2.5-31.2c-0.1-3.3-0.7-4.6-4.1-5.3
		c-44.6-9.8-77.3-46.7-82.8-93.3c-5-42.5,19.1-86.2,58.4-105.6c2.2-1.1,4.4-2.2,5.5-2.8c-1.5-12.5-4.1-24.3-4.1-36.1
		c-0.2-49.6,35.4-92.8,83.9-103.2c19.8-4.2,39.1-2.9,58,3.7c3.3,1.1,5.4,0.7,8-1.5c11.5-9.5,24.5-11.5,38.4-6
		c3.1,1.2,5.2,0.8,7.8-0.6c59.2-32.1,132.4-2.6,152.8,61.5c4,12.7,5.7,25.6,4.7,38.9c-0.3,4.1,0.3,5.9,5,7
		c42.5,9.8,74.8,45.2,80.9,88.3c6.7,46.9-17.6,91.9-60.4,111.8c-3.1,1.5-4,2.7-3,6.3c16.8,59.6-16.9,118.8-76.8,133.9
		c-29.1,7.3-56.8,2.3-82.5-13.5c-1.3-0.8-2.5-1.6-3.8-2.4c-0.3-0.2-0.6-0.1-1-0.2C401.7,566,402,566.3,402.2,566.7z M338.2,456.9
		c14.9-1.6,28-2.9,41.1-4.3c19.7-2.1,39.4-4.3,59.1-6.3c2.9-0.3,4.8-1.3,6-4.2c12.5-29.5,25.1-59.1,37.9-88.5
		c1.5-3.5,0.9-5.8-1.1-8.6c-18.1-25.3-36.3-50.6-54-76.1c-3.1-4.5-6.4-5.3-11.3-4.6c-11.7,1.5-23.5,2.7-35.2,3.9
		c-19.9,2.1-39.7,4.3-59.6,6.3c-3.4,0.3-5.2,1.7-6.6,4.9c-12.4,29.4-25,58.7-37.7,88c-1.3,3-1.1,5.2,0.8,7.8
		c18.7,26.1,37.2,52.3,56,78.4C334.8,455.4,337.4,456.4,338.2,456.9z M143.8,372.8c0.5,25.4,7.6,45.7,22.6,63
		c12.9,14.9,29.2,24.4,48.3,29.3c2.8,0.7,5,1,5.9-2.9c1-4.2,2.8-8.2,4.5-12.1c10.2-24,20.4-48,30.8-71.9c1.5-3.5,1.3-6.1-1-9.1
		c-3.9-5-7.4-10.2-11.1-15.4c-13.6-19.5-27.4-38.9-40.8-58.5c-2.3-3.4-3.8-3.6-7-2C162.6,310.4,145.8,338.2,143.8,372.8z
		 M559.1,429.1c0,0,0.7-0.1,1.3-0.3c1.1-0.4,2.1-0.9,3.2-1.4c29.5-15.3,46.6-39.3,50.9-72.3c5.9-44.9-26.1-90.1-70.4-99.4
		c-3-0.6-4.8-0.5-5.8,3.2c-1.4,5.1-3.6,10-5.6,14.9c-9.9,23.2-19.9,46.4-29.7,69.7c-0.8,2-0.6,5.4,0.6,7.1
		C521.9,376.8,540.4,402.7,559.1,429.1z M412.1,554.1c1,0.7,2.7,2,4.6,3c30.9,16.9,62,17.5,92.8,0.2c36.3-20.4,53.7-64.5,42-104.4
		c-1.1-3.6-2.5-4.8-6.4-3.7c-4.5,1.2-9.2,1.7-13.8,2.2c-24.2,2.6-48.3,5.1-72.5,7.5c-4.3,0.4-6.6,2.1-8.3,6.2
		C438,494.6,425.2,523.9,412.1,554.1z M326.5,156.3c-18.2-6.4-37.3-7.1-56.6-1.6c-48.1,13.5-77,66.7-62.1,114c0.9,2.7,2.1,3.6,5,3.2
		c14.2-1.9,28.4-3.6,42.6-5.3c15.4-1.8,30.8-3.3,46.2-5c2.7-0.3,4.8-0.9,6.1-4c8.4-20.1,17.2-40,25.5-60.1c0.8-1.8,0-4.6-0.8-6.7
		c-1.8-5.1-4.9-10-5.8-15.2C325.7,169.5,326.5,163.1,326.5,156.3z M393.7,146.8c9.5,15.4,9.9,30.2-0.1,45c-0.8,1.1-0.3,3.9,0.6,5.2
		c11.2,16.1,22.6,32.1,34.1,48c1,1.4,3.5,2.7,5.1,2.6c9.6-0.8,19.2-2.1,28.8-3c20.4-2.1,40.7-4.1,61.1-5.9c3.1-0.3,4.8-1,4.5-4.2
		c-0.8-9.9-0.3-20.1-2.9-29.6c-11.7-44.1-50.2-71.4-95.9-68.5C416.8,137,404.9,140.4,393.7,146.8z M389.4,555.9
		c-5.3-6.7-10.4-12.6-15-19c-14.5-20.1-28.8-40.3-43.1-60.5c-1.7-2.4-3.2-3.7-6.5-3.2c-3.4,0.6-4.1,2.6-4.9,5.3
		c-4.2,14.3-13.7,23.6-28.2,26.6c-15.3,3.2-29.3-1.1-37.6-14.4c-5.1-8.3-10.5-9.5-18.7-8.5c-2.9,0.4-4.3,1.2-4.2,4
		c0.3,7.5-0.3,15.1,1,22.3c9.9,54,61.3,86.8,114.1,73C363.2,577.2,377.5,568.6,389.4,555.9z M436.1,461.4
		c-30.4,3.3-59.8,6.4-90.4,9.7c18.5,24.7,34.1,49.6,52.7,72.2c0.7,0,1.5,0,2.2,0C412.3,516.3,424,489.3,436.1,461.4z M264.9,357.3
		c11.7-27.3,22.9-53.5,34.5-80.5c-28.5,3.1-55.9,6.1-83.3,9.1c-0.2,0.6-0.4,1.2-0.6,1.8C231.7,310.5,247.9,333.4,264.9,357.3z
		 M524.5,254.7c-0.5-0.6-0.9-1.1-1.4-1.7c-27.3,2.9-54.6,5.7-82.9,8.7c17.3,24.3,33.8,47.4,50.8,71.4
		C502.5,306.2,513.5,280.4,524.5,254.7z M459.7,444c28.6-3.1,55.9-6.1,83.2-9.1c0.2-0.7,0.4-1.3,0.6-2
		c-16.2-22.9-32.5-45.7-49.3-69.5C482.5,390.8,471.4,416.9,459.7,444z M347.2,203.3c-8,18.6-15.8,36.8-24,56
		c30.4-3.3,59.6-6.4,90.1-9.7c-11.2-15.8-21.6-30.4-32.1-44.9c-0.5-0.7-2.1-1.2-2.9-0.9C368.1,208,357.9,207.8,347.2,203.3z
		 M283.8,491c12.5,0,22.7-10,22.7-22.4c0-12.2-10.4-22.8-22.6-22.8c-12.3-0.1-22.5,10.2-22.5,22.6C261.4,481.2,271.1,491,283.8,491z
		 M340.9,169.4c0.1,12.6,10.1,22.5,22.6,22.4c12.5-0.1,22.6-10.2,22.4-22.6c-0.1-12.5-10.2-22.5-22.7-22.4
		C350.7,146.9,340.8,156.9,340.9,169.4z M268.1,387.6c-11.5,27-22.5,52.8-33.9,79.4c3.4,0,5.5-0.1,7.7,0c3.3,0.2,4.5-1.2,5.1-4.5
		c3-18.5,18.3-31.5,37-31.1c5.5,0.1,11,1.6,17,2.5C290.2,418.7,279.6,403.7,268.1,387.6z"/>
	
		<linearGradient id="SVGID_00000132776365914896081530000000867570549227039111_" gradientUnits="userSpaceOnUse" x1="333.7852" y1="360.3888" x2="425.365" y2="360.3888">
		<stop  offset="0.14" style="stop-color:#679980"/>
		<stop  offset="0.83" style="stop-color:#0F1958"/>
	</linearGradient>
	<path style="fill:url(#SVGID_00000132776365914896081530000000867570549227039111_);" d="M333.8,359.7c0.2-25.5,20.6-45.2,46.7-45
		c25.2,0.2,45.2,20.8,44.9,46.3c-0.3,25.3-20.6,45.2-46.2,45.1C353.5,405.9,333.6,385.6,333.8,359.7z M379.4,329.4
		c-16.9,0.1-30.8,14.1-30.8,30.9c0,17,14.3,31.3,31.1,31.2c16.7-0.1,30.9-14.4,30.9-31C410.7,343.5,396.4,329.3,379.4,329.4z"/>
</g>
</svg>
