<svg id="Camada_1" data-name="Camada 1" xmlns="http://www.w3.org/2000/svg" xmlns:xlink="http://www.w3.org/1999/xlink" viewBox="0 0 760 760"><defs><style>.cls-1,.cls-2,.cls-3,.cls-4{fill:none;stroke-miterlimit:10;stroke-width:16px;}.cls-1{stroke:url(#Gradiente_sem_nome_6);}.cls-2{stroke:url(#Gradiente_sem_nome_6-2);}.cls-3{stroke:url(#Gradiente_sem_nome_6-3);}.cls-4{stroke:url(#Gradiente_sem_nome_6-4);}</style><linearGradient id="Gradiente_sem_nome_6" x1="253.5" y1="226.15" x2="507.97" y2="226.15" gradientUnits="userSpaceOnUse"><stop offset="0.14" stop-color="#679980"/><stop offset="0.83" stop-color="#0f1958"/></linearGradient><linearGradient id="Gradiente_sem_nome_6-2" x1="149.69" y1="453.51" x2="342.68" y2="453.51" xlink:href="#Gradiente_sem_nome_6"/><linearGradient id="Gradiente_sem_nome_6-3" x1="416.19" y1="452.89" x2="613.98" y2="452.89" xlink:href="#Gradiente_sem_nome_6"/><linearGradient id="Gradiente_sem_nome_6-4" x1="26.63" y1="383.3" x2="733.37" y2="383.3" xlink:href="#Gradiente_sem_nome_6"/></defs><path class="cls-1" d="M503.57,246.08c-31.05,34.71-73.58,56.11-120.48,56.11-49.3,0-93.76-23.65-125.14-61.55a127.54,127.54,0,0,1,245.62,5.44Z"/><path class="cls-2" d="M325.52,560.66a127.52,127.52,0,0,1-120.29-222c44.37,7.88,83.82,31.62,108.61,69.79C343.33,453.87,345.72,509.91,325.52,560.66Z"/><path class="cls-3" d="M610,441.09A127.57,127.57,0,0,1,432.83,558.55c-19.62-50.39-17-105.82,12.21-150.82,25.36-39.05,66.06-63,111.68-70.31A127.33,127.33,0,0,1,610,441.09Z"/><path class="cls-4" d="M693.83,364.39c-44-25.54-92.86-34.07-137.11-27C511.1,344.74,470.4,368.68,445,407.73c-29.22,45-31.83,100.43-12.21,150.82,13.91,35.75,39,69,73.78,94.09,1.89,1.37,33.14,24.73,30.82,24.46A196.64,196.64,0,0,1,382.08,564.17a2.28,2.28,0,0,0-4.15,0A196.63,196.63,0,0,1,222.57,677.1c-2.32.27,27.81-22.35,29.7-23.72,34.3-24.8,59.22-57.49,73.25-92.72,20.2-50.75,17.81-106.79-11.68-152.19-24.79-38.17-64.24-61.91-108.61-69.79-45-8-95.16.31-140.17,26.45-2,1.18-35.59,18.47-34.39,16.45a196.58,196.58,0,0,1,185.11-95.31,2.28,2.28,0,0,0,2.11-3.51,196.59,196.59,0,0,1-11-193.15c1-2.11,4.21,25.2,4.33,27.54,2.39,47.72,19.7,90.88,46.71,123.49,31.38,37.9,75.84,61.55,125.14,61.55,46.9,0,89.43-21.4,120.48-56.11,29.67-33.17,48.86-78.5,51.39-128.92.11-2.34,3.28-29.65,4.32-27.55a196.61,196.61,0,0,1-10.7,192.72,2.28,2.28,0,0,0,2,3.51,196.6,196.6,0,0,1,178.72,95.74C730.54,383.6,695.86,365.57,693.83,364.39Z"/></svg>