<svg id="Camada_1" data-name="Camada 1" xmlns="http://www.w3.org/2000/svg" xmlns:xlink="http://www.w3.org/1999/xlink" viewBox="0 0 760 760"><defs><style>.cls-1,.cls-10,.cls-11,.cls-12,.cls-13,.cls-14,.cls-15,.cls-16,.cls-17,.cls-18,.cls-19,.cls-2,.cls-20,.cls-21,.cls-22,.cls-23,.cls-24,.cls-25,.cls-26,.cls-28,.cls-29,.cls-3,.cls-30,.cls-31,.cls-32,.cls-33,.cls-34,.cls-4,.cls-5,.cls-6,.cls-7,.cls-8,.cls-9{fill:none;stroke-miterlimit:10;stroke-width:12px;}.cls-1{stroke:url(#Gradiente_sem_nome_6);}.cls-2{stroke:url(#Gradiente_sem_nome_6-2);}.cls-3{stroke:url(#Gradiente_sem_nome_6-3);}.cls-4{stroke:url(#Gradiente_sem_nome_6-4);}.cls-5{stroke:url(#Gradiente_sem_nome_6-5);}.cls-6{stroke:url(#Gradiente_sem_nome_6-6);}.cls-7{stroke:url(#Gradiente_sem_nome_6-7);}.cls-8{stroke:url(#Gradiente_sem_nome_6-8);}.cls-9{stroke:url(#Gradiente_sem_nome_6-9);}.cls-10{stroke:url(#Gradiente_sem_nome_6-10);}.cls-11{stroke:url(#Gradiente_sem_nome_6-11);}.cls-12{stroke:url(#Gradiente_sem_nome_6-12);}.cls-13{stroke:url(#Gradiente_sem_nome_6-13);}.cls-14{stroke:url(#Gradiente_sem_nome_6-14);}.cls-15{stroke:url(#Gradiente_sem_nome_6-15);}.cls-16{stroke:url(#Gradiente_sem_nome_6-16);}.cls-17{stroke:url(#Gradiente_sem_nome_6-17);}.cls-18{stroke:url(#Gradiente_sem_nome_6-18);}.cls-19{stroke:url(#Gradiente_sem_nome_6-19);}.cls-20{stroke:url(#Gradiente_sem_nome_6-20);}.cls-21{stroke:url(#Gradiente_sem_nome_6-21);}.cls-22{stroke:url(#Gradiente_sem_nome_6-22);}.cls-23{stroke:url(#Gradiente_sem_nome_6-23);}.cls-24{stroke:url(#Gradiente_sem_nome_6-24);}.cls-25{stroke:url(#Gradiente_sem_nome_6-25);}.cls-26{stroke:url(#Gradiente_sem_nome_6-26);}.cls-27{clip-path:url(#clip-path);}.cls-28{stroke:url(#Gradiente_sem_nome_6-27);}.cls-29{stroke:url(#Gradiente_sem_nome_6-28);}.cls-30{stroke:url(#Gradiente_sem_nome_6-29);}.cls-31{stroke:url(#Gradiente_sem_nome_6-30);}.cls-32{stroke:url(#Gradiente_sem_nome_6-31);}.cls-33{stroke:url(#Gradiente_sem_nome_6-32);}.cls-34{stroke:url(#Gradiente_sem_nome_6-33);}</style><linearGradient id="Gradiente_sem_nome_6" x1="360.12" y1="336.39" x2="575.81" y2="336.39" gradientUnits="userSpaceOnUse"><stop offset="0.14" stop-color="#679980"/><stop offset="0.83" stop-color="#0f1958"/></linearGradient><linearGradient id="Gradiente_sem_nome_6-2" x1="99.92" y1="277.52" x2="184.07" y2="277.52" xlink:href="#Gradiente_sem_nome_6"/><linearGradient id="Gradiente_sem_nome_6-3" x1="366.66" y1="229.59" x2="403.8" y2="229.59" xlink:href="#Gradiente_sem_nome_6"/><linearGradient id="Gradiente_sem_nome_6-4" x1="152.42" y1="344.83" x2="204.45" y2="344.83" xlink:href="#Gradiente_sem_nome_6"/><linearGradient id="Gradiente_sem_nome_6-5" x1="152.48" y1="349.04" x2="226.36" y2="349.04" xlink:href="#Gradiente_sem_nome_6"/><linearGradient id="Gradiente_sem_nome_6-6" x1="205.42" y1="322.11" x2="211.77" y2="322.11" xlink:href="#Gradiente_sem_nome_6"/><linearGradient id="Gradiente_sem_nome_6-7" x1="179.15" y1="352.81" x2="226.42" y2="352.81" xlink:href="#Gradiente_sem_nome_6"/><linearGradient id="Gradiente_sem_nome_6-8" x1="537.84" y1="221.7" x2="608.89" y2="221.7" xlink:href="#Gradiente_sem_nome_6"/><linearGradient id="Gradiente_sem_nome_6-9" x1="585.46" y1="175.85" x2="641.12" y2="175.85" xlink:href="#Gradiente_sem_nome_6"/><linearGradient id="Gradiente_sem_nome_6-10" x1="585.52" y1="178.11" x2="671.03" y2="178.11" xlink:href="#Gradiente_sem_nome_6"/><linearGradient id="Gradiente_sem_nome_6-11" x1="644.45" y1="144.75" x2="652.27" y2="144.75" xlink:href="#Gradiente_sem_nome_6"/><linearGradient id="Gradiente_sem_nome_6-12" x1="614.59" y1="182.05" x2="671.1" y2="182.05" xlink:href="#Gradiente_sem_nome_6"/><linearGradient id="Gradiente_sem_nome_6-13" x1="203.7" y1="273.59" x2="350.67" y2="273.59" xlink:href="#Gradiente_sem_nome_6"/><linearGradient id="Gradiente_sem_nome_6-14" x1="326.42" y1="224.9" x2="345.81" y2="224.9" xlink:href="#Gradiente_sem_nome_6"/><linearGradient id="Gradiente_sem_nome_6-15" x1="320.52" y1="192.8" x2="369.43" y2="192.8" xlink:href="#Gradiente_sem_nome_6"/><linearGradient id="Gradiente_sem_nome_6-16" x1="320.59" y1="195.14" x2="394.46" y2="195.14" xlink:href="#Gradiente_sem_nome_6"/><linearGradient id="Gradiente_sem_nome_6-17" x1="344.05" y1="197.87" x2="394.53" y2="197.87" xlink:href="#Gradiente_sem_nome_6"/><linearGradient id="Gradiente_sem_nome_6-18" x1="66.7" y1="220.32" x2="103.24" y2="220.32" xlink:href="#Gradiente_sem_nome_6"/><linearGradient id="Gradiente_sem_nome_6-19" x1="66.74" y1="222.02" x2="120.27" y2="222.02" xlink:href="#Gradiente_sem_nome_6"/><linearGradient id="Gradiente_sem_nome_6-20" x1="86.04" y1="225.8" x2="120.32" y2="225.8" xlink:href="#Gradiente_sem_nome_6"/><linearGradient id="Gradiente_sem_nome_6-21" x1="170.41" y1="583.09" x2="343.17" y2="583.09" xlink:href="#Gradiente_sem_nome_6"/><linearGradient id="Gradiente_sem_nome_6-22" x1="304.22" y1="506.7" x2="344.68" y2="506.7" xlink:href="#Gradiente_sem_nome_6"/><linearGradient id="Gradiente_sem_nome_6-23" x1="316.54" y1="466.43" x2="406.41" y2="465.68" xlink:href="#Gradiente_sem_nome_6"/><linearGradient id="Gradiente_sem_nome_6-24" x1="-5009.43" y1="3439.29" x2="-4993.93" y2="3439.98" gradientTransform="matrix(0.43, 0.9, -0.9, 0.43, 5654.19, 3442.69)" xlink:href="#Gradiente_sem_nome_6"/><linearGradient id="Gradiente_sem_nome_6-25" x1="342.94" y1="329.98" x2="593.61" y2="341.13" xlink:href="#Gradiente_sem_nome_6"/><linearGradient id="Gradiente_sem_nome_6-26" x1="365.01" y1="333.08" x2="570.92" y2="342.24" xlink:href="#Gradiente_sem_nome_6"/><clipPath id="clip-path"><circle class="cls-1" cx="467.97" cy="336.39" r="103.83"/></clipPath><linearGradient id="Gradiente_sem_nome_6-27" x1="295.76" y1="288.01" x2="719.91" y2="288.01" gradientTransform="translate(741.74 -246.9) rotate(84.06)" xlink:href="#Gradiente_sem_nome_6"/><linearGradient id="Gradiente_sem_nome_6-28" x1="401.27" y1="325.39" x2="535.96" y2="325.39" xlink:href="#Gradiente_sem_nome_6"/><linearGradient id="Gradiente_sem_nome_6-29" x1="401.14" y1="325.33" x2="535.83" y2="325.33" xlink:href="#Gradiente_sem_nome_6"/><linearGradient id="Gradiente_sem_nome_6-30" x1="277.86" y1="944.8" x2="450.62" y2="944.8" gradientTransform="translate(-31.98 -418.83) rotate(5.94)" xlink:href="#Gradiente_sem_nome_6"/><linearGradient id="Gradiente_sem_nome_6-31" x1="288.85" y1="489.62" x2="326.61" y2="489.62" xlink:href="#Gradiente_sem_nome_6"/><linearGradient id="Gradiente_sem_nome_6-32" x1="472.89" y1="772.52" x2="563.86" y2="771.76" gradientTransform="matrix(0.99, 0.11, -0.09, 0.99, -89.81, -365.91)" xlink:href="#Gradiente_sem_nome_6"/><linearGradient id="Gradiente_sem_nome_6-33" x1="-4800.23" y1="3381.65" x2="-4549.59" y2="3392.8" gradientTransform="translate(5235.59 3590.49) rotate(70.26)" xlink:href="#Gradiente_sem_nome_6"/></defs><path class="cls-2" d="M178.15,318.09a32.79,32.79,0,0,0-10,5.81l0,0-62.56-82.49,0,0a22.71,22.71,0,0,0,7.72-8l0,.05L178.12,318Z"/><path class="cls-3" d="M398.28,236.3a118.71,118.71,0,0,0-11.13,8.85l-14.83-20.53,0-.05A32.93,32.93,0,0,0,383.8,215l0,.06Z"/><path class="cls-4" d="M202.81,318.91a33.16,33.16,0,0,0-8.73-2.49,33,33,0,0,0-25.59,58.09,33,33,0,0,1,34.32-55.6Z"/><path class="cls-5" d="M222,353.65a33,33,0,0,1-37.27,28,34.22,34.22,0,0,1-4.48-1h0q-.74-.21-1.44-.45a31.84,31.84,0,0,1-5.36-2.37c-.43-.24-.85-.48-1.27-.74l-1.11-.71-.18-.12-.82-.58c-.54-.39-1.06-.8-1.57-1.22h0a33,33,0,0,1,34.32-55.6c.9.4,1.78.84,2.64,1.31.38.21.75.43,1.12.66s.74.46,1.1.7c.72.49,1.42,1,2.09,1.53A33,33,0,0,1,222,353.65Z"/><path class="cls-6" d="M207.67,321.58c.57.39,1.12.79,1.66,1.2C208.79,322.37,208.24,322,207.67,321.58Z"/><path class="cls-7" d="M222.09,353.69a33,33,0,0,1-37.27,28,32.24,32.24,0,0,1-4.55-1,34.22,34.22,0,0,0,4.48,1,33,33,0,0,0,25-58.55l-.43-.33.44.32a32.94,32.94,0,0,1,12.32,30.59Z"/><path class="cls-8" d="M603.85,208.22v0l-46.77,44.43a119.93,119.93,0,0,0-13.23-12.21l48.28-48.23,0,0A39,39,0,0,0,603.85,208.22Z"/><path class="cls-9" d="M633.69,139.69a38.5,38.5,0,0,1,6.22,1.41,39.81,39.81,0,0,0-6.15-1.38A38.8,38.8,0,0,0,611,212.82a38.79,38.79,0,0,1,22.74-73.13Z"/><path class="cls-10" d="M666.64,183.54a38.78,38.78,0,0,1-43.85,33A38.49,38.49,0,0,1,611,212.82a38.79,38.79,0,0,1,22.81-73.1,39.81,39.81,0,0,1,6.15,1.38l.84.28a38.12,38.12,0,0,1,5.56,2.38A39.12,39.12,0,0,1,650,146c.24.15.47.31.71.49A38.79,38.79,0,0,1,666.64,183.54Z"/><path class="cls-11" d="M650,146a39.12,39.12,0,0,0-3.69-2.21A35.29,35.29,0,0,1,650,146Z"/><path class="cls-12" d="M666.71,183.58a38.77,38.77,0,0,1-43.85,32.94,38.3,38.3,0,0,1-7-1.66,39.2,39.2,0,0,0,6.92,1.63,38.79,38.79,0,0,0,27.92-70A38.76,38.76,0,0,1,666.71,183.58Z"/><path class="cls-13" d="M343.35,224.9,218.29,333.08l0,0a32.77,32.77,0,0,0-8.49-10h0l120.9-108.81,0,0c.34.48.7,1,1.07,1.41a.31.31,0,0,0,.09.11c.33.42.67.83,1,1.23a.74.74,0,0,0,.12.13c.38.44.79.87,1.2,1.28s.71.7,1.08,1a2.09,2.09,0,0,0,.22.2c.39.36.79.7,1.19,1,.55.45,1.1.89,1.67,1.3h0c.5.35,1,.7,1.52,1s1.05.64,1.59.94S342.72,224.61,343.35,224.9Z"/><path class="cls-14" d="M343.36,224.9l.77.37-.78-.37Z"/><path class="cls-15" d="M368.13,163.92a33,33,0,0,0-26.64,60,33,33,0,0,1,26.64-60Z"/><path class="cls-16" d="M390.13,199.75a33,33,0,0,1-37.27,28,33.5,33.5,0,0,1-7.35-1.92q-.7-.27-1.38-.57l-.77-.37h0c-.63-.29-1.25-.61-1.86-1a33,33,0,0,1,26.64-60,31.75,31.75,0,0,1,5.36,2.37c.43.24.85.49,1.27.74A33,33,0,0,1,390.13,199.75Z"/><path class="cls-17" d="M390.19,199.78a33,33,0,0,1-44.68,26.06,33.5,33.5,0,0,0,7.35,1.92A33,33,0,0,0,374.76,167,33,33,0,0,1,390.19,199.78Z"/><path class="cls-18" d="M96.69,199.45a22.32,22.32,0,0,1,5.08,1.33,23.18,23.18,0,0,0-5-1.31,22.79,22.79,0,0,0-14.3,42.46,22.78,22.78,0,0,1,14.26-42.48Z"/><path class="cls-19" d="M116,225.21a22.79,22.79,0,0,1-25.76,19.35,24.16,24.16,0,0,1-3.11-.66c-.33-.1-.66-.2-1-.32a21.33,21.33,0,0,1-3.75-1.65,22.79,22.79,0,0,1,14.3-42.46,23.18,23.18,0,0,1,5,1.31c.34.13.67.27,1,.41.58.26,1.15.54,1.71.85a21.51,21.51,0,0,1,3.45,2.33c.51.42,1,.85,1.46,1.3A22.79,22.79,0,0,1,116,225.21Z"/><path class="cls-20" d="M116.09,225.23a22.81,22.81,0,0,1-25.76,19.35,21.9,21.9,0,0,1-3.16-.68,24.16,24.16,0,0,0,3.11.66,22.79,22.79,0,0,0,19.1-38.89A22.69,22.69,0,0,1,116.09,225.23Z"/><path class="cls-21" d="M340.18,520.67,206.37,671.39c-2.21,2.48-11-1.76-19.72-9.47s-13.94-16-11.74-18.46L308.72,492.74"/><path class="cls-22" d="M336.32,510.49c3.63,4.65,5.26,8.59,3.86,10.18-2.21,2.48-11-1.76-19.72-9.47s-13.95-16-11.74-18.46c1.37-1.55,5.34-.48,10.24,2.43"/><path class="cls-23" d="M400.52,437.68l-63.94,72c-1.06,1.19-5.39-.94-9.69-4.76S320,497.09,321,495.9l63.91-72,0-.05,6.72,6,0,0Z"/><path class="cls-24" d="M385,423.87l0,.05q3.27,3.1,6.76,5.92Z"/><path class="cls-25" d="M577.72,282.93a121.27,121.27,0,0,0-20.65-30.26,119.93,119.93,0,0,0-13.23-12.21,121.59,121.59,0,0,0-145.56-4.16,118.71,118.71,0,0,0-11.13,8.85,121.56,121.56,0,0,0-2.22,178.77l0-.05,6.72,6,0,0a121.46,121.46,0,0,0,186-146.93Zm-66.84,144a99.1,99.1,0,1,1,46.34-132.18A99,99,0,0,1,510.88,426.92Z"/><path class="cls-26" d="M510.88,426.92a99.1,99.1,0,1,1,46.34-132.18A99,99,0,0,1,510.88,426.92Z"/><g class="cls-27"><ellipse class="cls-28" cx="507.83" cy="288.01" rx="313.14" ry="206.62" transform="translate(168.82 763.31) rotate(-84.06)"/><circle class="cls-29" cx="468.61" cy="325.39" r="63.34"/><circle class="cls-30" cx="468.49" cy="325.33" r="63.34"/><path class="cls-31" d="M321.93,505.13,173.24,641.2c-2.44,2.24-10.79-2.89-18.63-11.46s-12.21-17.33-9.77-19.58L293.53,474.1"/><path class="cls-32" d="M319.15,494.61c3.13,5,4.34,9.09,2.78,10.52-2.45,2.24-10.79-2.89-18.63-11.46s-12.22-17.33-9.77-19.57c1.53-1.4,5.36.08,9.94,3.48"/><path class="cls-33" d="M390.54,428.84l-71.05,65c-1.17,1.07-5.26-1.49-9.14-5.73s-6.08-8.54-4.9-9.61l71.05-65Z"/><path class="cls-34" d="M574.69,393.19a121.43,121.43,0,1,0-65.17,55.39A121.13,121.13,0,0,0,574.69,393.19Z"/></g><circle class="cls-1" cx="467.97" cy="336.39" r="103.83"/></svg>