<svg id="Camada_1" data-name="Camada 1" xmlns="http://www.w3.org/2000/svg" xmlns:xlink="http://www.w3.org/1999/xlink" viewBox="0 0 760 760"><defs><style>.cls-1,.cls-2,.cls-3{fill:none;stroke-miterlimit:10;stroke-width:8px;}.cls-1{stroke:url(#Gradiente_sem_nome_6);}.cls-2{stroke:url(#Gradiente_sem_nome_6-2);}.cls-3{stroke:url(#Gradiente_sem_nome_6-3);}</style><linearGradient id="Gradiente_sem_nome_6" x1="92.89" y1="405.7" x2="597.72" y2="405.7" gradientUnits="userSpaceOnUse"><stop offset="0.14" stop-color="#679980"/><stop offset="0.83" stop-color="#0f1958"/></linearGradient><linearGradient id="Gradiente_sem_nome_6-2" x1="152.22" y1="414.17" x2="539.16" y2="414.17" xlink:href="#Gradiente_sem_nome_6"/><linearGradient id="Gradiente_sem_nome_6-3" x1="213.57" y1="318.19" x2="645.28" y2="318.19" xlink:href="#Gradiente_sem_nome_6"/></defs><path class="cls-1" d="M593.72,247V348.27c0,121.85-57.49,237.12-156.19,308.58a361.17,361.17,0,0,1-88.83,47.24l-.24.11a8.13,8.13,0,0,1-3.1.62h-.1a8.09,8.09,0,0,1-3.1-.62l-.24-.11a361,361,0,0,1-88.83-47.24c-98.7-71.46-156.2-186.73-156.2-308.58V235.57A18.63,18.63,0,0,1,113.71,217c40-4,103,2.38,198.39-85.52.85-.78,1.7-1.56,2.55-2.36.66-.65,9.13-9.06,17-16.91a19.35,19.35,0,0,1,8.15-4.86h0a20.29,20.29,0,0,1,2.7-.6,20,20,0,0,1,5.57,0,21,21,0,0,1,2.7.6h0a19.23,19.23,0,0,1,8.15,4.86c7.88,7.85,16.35,16.26,17,16.91.85.8,1.7,1.58,2.54,2.36,63.25,58.28,112.26,75.13,149.77,81l-52.54,52.54L355.94,384.85a9.14,9.14,0,0,1-12.94,0l-73.31-73.3a9.16,9.16,0,0,0-12.94,0l-36.51,36.51a9.17,9.17,0,0,0,0,12.95L343.48,484.24a9.14,9.14,0,0,0,12.94,0L535.16,305.51Z"/><path class="cls-2" d="M535.16,305.51v64.86c0,92.93-43.85,180.85-119.13,235.35a275,275,0,0,1-67.75,36l-.18.09a6.29,6.29,0,0,1-2.36.47h-.08a6.26,6.26,0,0,1-2.37-.47l-.18-.09a274.83,274.83,0,0,1-67.75-36c-75.28-54.5-119.14-142.42-119.14-235.35v-86a14.22,14.22,0,0,1,12.83-14.14c30.51-3,78.56,1.82,151.32-65.23l1.94-1.79,13-12.9a14.76,14.76,0,0,1,6.22-3.71h0a14.26,14.26,0,0,1,2.06-.45,15.13,15.13,0,0,1,4.25,0,14.86,14.86,0,0,1,2.06.45h0a14.67,14.67,0,0,1,6.21,3.71l13,12.9L371,205c43.07,39.69,77.48,54.18,104.72,60L355.94,384.85a9.14,9.14,0,0,1-12.94,0l-73.31-73.3a9.16,9.16,0,0,0-12.94,0l-36.51,36.51a9.17,9.17,0,0,0,0,12.95L343.48,484.24a9.14,9.14,0,0,0,12.94,0Z"/><path class="cls-3" d="M638.6,202.07,593.72,247l-58.56,58.56L356.42,484.24a9.14,9.14,0,0,1-12.94,0L220.24,361a9.17,9.17,0,0,1,0-12.95l36.51-36.51a9.16,9.16,0,0,1,12.94,0L343,384.85a9.14,9.14,0,0,0,12.94,0L475.73,265.06l52.54-52.54,60.39-60.39a9.17,9.17,0,0,1,13,0l37,37A9.16,9.16,0,0,1,638.6,202.07Z"/></svg>