<svg id="Camada_1" data-name="Camada 1" xmlns="http://www.w3.org/2000/svg" xmlns:xlink="http://www.w3.org/1999/xlink" viewBox="0 0 760 760"><defs><style>.cls-1,.cls-10,.cls-11,.cls-12,.cls-13,.cls-14,.cls-15,.cls-16,.cls-17,.cls-18,.cls-2,.cls-3,.cls-4,.cls-5,.cls-6,.cls-7,.cls-8,.cls-9{fill:none;stroke-miterlimit:10;stroke-width:8px;}.cls-1{stroke:url(#Gradiente_sem_nome_6);}.cls-2{stroke:url(#Gradiente_sem_nome_6-2);}.cls-3{stroke:url(#Gradiente_sem_nome_6-3);}.cls-4{stroke:url(#Gradiente_sem_nome_6-4);}.cls-5{stroke:url(#Gradiente_sem_nome_6-5);}.cls-6{stroke:url(#Gradiente_sem_nome_6-6);}.cls-7{stroke:url(#Gradiente_sem_nome_6-7);}.cls-8{stroke:url(#Gradiente_sem_nome_6-8);}.cls-9{stroke:url(#Gradiente_sem_nome_6-9);}.cls-10{stroke:url(#Gradiente_sem_nome_6-10);}.cls-11{stroke:url(#Gradiente_sem_nome_6-11);}.cls-12{stroke:url(#Gradiente_sem_nome_6-12);}.cls-13{stroke:url(#Gradiente_sem_nome_6-13);}.cls-14{stroke:url(#Gradiente_sem_nome_6-14);}.cls-15{stroke:url(#Gradiente_sem_nome_6-15);}.cls-16{stroke:url(#Gradiente_sem_nome_6-16);}.cls-17{stroke:url(#Gradiente_sem_nome_6-17);}.cls-18{stroke:url(#Gradiente_sem_nome_6-18);}</style><linearGradient id="Gradiente_sem_nome_6" x1="327.65" y1="530.65" x2="361.62" y2="530.65" gradientUnits="userSpaceOnUse"><stop offset="0.14" stop-color="#679980"/><stop offset="0.83" stop-color="#0f1958"/></linearGradient><linearGradient id="Gradiente_sem_nome_6-2" x1="380.77" y1="462.31" x2="388.5" y2="462.31" xlink:href="#Gradiente_sem_nome_6"/><linearGradient id="Gradiente_sem_nome_6-3" x1="352.38" y1="522.52" x2="391.72" y2="522.52" xlink:href="#Gradiente_sem_nome_6"/><linearGradient id="Gradiente_sem_nome_6-4" x1="379.76" y1="512.53" x2="418.36" y2="512.53" xlink:href="#Gradiente_sem_nome_6"/><linearGradient id="Gradiente_sem_nome_6-5" x1="397.11" y1="451.45" x2="410.12" y2="451.45" xlink:href="#Gradiente_sem_nome_6"/><linearGradient id="Gradiente_sem_nome_6-6" x1="399.96" y1="441.01" x2="493.1" y2="441.01" xlink:href="#Gradiente_sem_nome_6"/><linearGradient id="Gradiente_sem_nome_6-7" x1="56" y1="481.23" x2="181.52" y2="481.23" xlink:href="#Gradiente_sem_nome_6"/><linearGradient id="Gradiente_sem_nome_6-8" x1="164.76" y1="597.86" x2="226.92" y2="597.86" xlink:href="#Gradiente_sem_nome_6"/><linearGradient id="Gradiente_sem_nome_6-9" x1="296.34" y1="542.66" x2="308.08" y2="542.66" xlink:href="#Gradiente_sem_nome_6"/><linearGradient id="Gradiente_sem_nome_6-10" x1="320.02" y1="412.58" x2="452" y2="412.58" xlink:href="#Gradiente_sem_nome_6"/><linearGradient id="Gradiente_sem_nome_6-11" x1="496.22" y1="294.06" x2="511.48" y2="293.93" xlink:href="#Gradiente_sem_nome_6"/><linearGradient id="Gradiente_sem_nome_6-12" x1="-3489.83" y1="4387.93" x2="-3224.24" y2="4399.74" gradientTransform="translate(5945.87 1596.56) rotate(67.22)" xlink:href="#Gradiente_sem_nome_6"/><linearGradient id="Gradiente_sem_nome_6-13" x1="209.87" y1="566.05" x2="212.96" y2="566.05" xlink:href="#Gradiente_sem_nome_6"/><linearGradient id="Gradiente_sem_nome_6-14" x1="303.89" y1="454.16" x2="323.8" y2="454.16" xlink:href="#Gradiente_sem_nome_6"/><linearGradient id="Gradiente_sem_nome_6-15" x1="533.47" y1="138.45" x2="623.68" y2="138.45" xlink:href="#Gradiente_sem_nome_6"/><linearGradient id="Gradiente_sem_nome_6-16" x1="163.97" y1="469.85" x2="450.01" y2="469.85" xlink:href="#Gradiente_sem_nome_6"/><linearGradient id="Gradiente_sem_nome_6-17" x1="412.67" y1="375.41" x2="455.91" y2="375.41" xlink:href="#Gradiente_sem_nome_6"/><linearGradient id="Gradiente_sem_nome_6-18" x1="425.63" y1="335.87" x2="523.48" y2="335.05" xlink:href="#Gradiente_sem_nome_6"/></defs><path class="cls-1" d="M333,517.93a39.18,39.18,0,0,0-1.32,9.54c.09,4.53,1.93,9.35,5.89,11.57,3.81,2.14,8.77,1.32,12.43-1.08s6.08-5.93,8.16-9.63"/><path class="cls-2" d="M384.7,462.53l-.14-.44"/><path class="cls-3" d="M387.4,517.33a58.15,58.15,0,0,1-2.74,8.92c-2.3,5.81-6.43,11.87-12.65,12.56-5,.55-9.81-2.76-12.33-7.11a19.36,19.36,0,0,1-1.55-3.37,36.46,36.46,0,0,1-1.72-11.17c-.06-2.41,0-4.83.06-7.27,3.09-.6,6.2-1.08,9.34-1.48,6.13-.81,12.33-1.33,18.47-1.89.5,3.72,1.14,7.43,3,10.65A1.4,1.4,0,0,0,387.4,517.33Z"/><path class="cls-4" d="M414.36,501.75a43.58,43.58,0,0,1-1,10,18.93,18.93,0,0,1-3.48,8A13.39,13.39,0,0,1,398,524.39a14.81,14.81,0,0,1-10.58-7.06,1.4,1.4,0,0,1-.1-.16c-1.88-3.22-2.52-6.93-3-10.65l2.74-.26,1.78-.18A167.17,167.17,0,0,0,414.36,501.75Z"/><path class="cls-5" d="M406.25,461.68q-2.64-10.23-5.27-20.46"/><path class="cls-6" d="M430.9,410.76c15.6,10.05,24.53,17.35,46.17,29.51,6.71,3.77,9.92,6.64,11.43,11.36A11.9,11.9,0,0,1,486,463.47c-6.37,6.64-13.5,8-22.61,6.71s-15.7-4.94-23.95-9c-13.14-6.5-22.48-13.15-35.62-19.66l-2.08-1"/><path class="cls-7" d="M61,518.45c-9.79-10.56,52.56-56.1,71.58-67.38,6.79-4,16.34-5.53,22.26-5.74,15.27-.55,22.59,10.35,22.65,16v.09c-.46.6-.9,1.2-1.31,1.81"/><path class="cls-8" d="M222.13,568.23c4.6,16.91-12,27.53-22.94,36.5-12.29,10.09-23.87,16-32.69,20.22"/><path class="cls-9" d="M297,545.46a2.69,2.69,0,0,0,2.15-.65l6-6.15"/><path class="cls-10" d="M322.86,457l28.51-28.85,19.07-19.58,19.71-20.06,27.14-27.62c-2.47,2.51,2.66,11.56,11.46,20.2s17.93,13.61,20.4,11.1L430.9,410.76l-52.58,53.51"/><path class="cls-11" d="M508.69,298.69q-3.57-3.19-6.9-6.68l0-.05Z"/><path class="cls-12" d="M713.77,152.88A128.92,128.92,0,1,0,501.79,292q3.33,3.48,6.9,6.68A128.94,128.94,0,0,0,713.77,152.88ZM635.17,302A105.14,105.14,0,1,1,691.4,164.3,105.14,105.14,0,0,1,635.17,302Z"/><path class="cls-13" d="M212,566.19c-.37-.09-.73-.2-1.1-.3"/><path class="cls-14" d="M322.86,457c-6.74-1.62-12.72-3.64-17-6.08"/><path class="cls-15" d="M622.72,128.8s-49.89-12.34-86.49,22.52"/><path class="cls-16" d="M322.86,457c16.26,3.92,37,5.59,48.81,5.64q4.17,0,8.29,0c1.58,0,3.16,0,4.74-.08,7.17-.15,14.32-.45,21.55-.85,5.16-.28,10.36-.62,15.64-1,4.57-.33,9.38-1.64,13.68-.06s8.13,6.59,9.57,10.95c2.5,7.59-.56,14.9-7,19.63-6.73,4.93-15.05,8.25-23.77,10.55a167.17,167.17,0,0,1-25.56,4.33l-1.78.18-2.74.26c-6.14.56-12.34,1.08-18.47,1.89-3.14.4-6.25.88-9.34,1.48a84.77,84.77,0,0,0-19.45,6q-2.07.95-4,2c-10.14,5.45-18.87,13.16-27.74,20.73-2.71,2.31-5.42,4.6-8.19,6.8a122.54,122.54,0,0,1-10.81,7.82c-18.83,12-41.51,17.92-63.54,15-.27-.06-.73-.24-1.12-.3s-2.23-.32-2.62-.38c-3.28-.5-4.3-.77-6.91-1.35h0a27.74,27.74,0,0,1-6.19-2.44,94.89,94.89,0,0,1-16.64-10.91c-13.24-11.11-16.89-29.13-19.71-46.19-2.7-16.3-2.49-30.18,6.72-43.36,0,0,0,0,0,0,1.13-1,2.24-2,3.35-3.06,20.84-19.52,37-43.15,63.46-68.51,10.62-12.74,27.76-18.33,37.43-20.11,10.08-1.86,28-.45,38.1,1.39,13.38,2.44,20.48,1.62,36.95,5,8.95,1.82,29.29,8.15,30.69,9.34"/><path class="cls-17" d="M447.69,378.58c3.83,5.48,5.31,10.3,3.35,12.4-2.85,3.07-12-.72-20.84-8.5l-.09-.08q-.63-.56-1.26-1.14c-6-5.61-10.31-11.66-11.69-16.07,0,0,0-.08,0-.12a9.4,9.4,0,0,1-.45-2.48,4.82,4.82,0,0,1,.1-1.17,3.14,3.14,0,0,1,.77-1.57c2.14-2.29,7.79-.75,14.21,3.44"/><path class="cls-18" d="M517.59,307.44l-69.9,71.14-1.77,1.8c-1.18,1.2-5.66-1.29-10-5.56s-6.92-8.72-5.74-9.92l1.58-1.61,70-71.28q3.33,3.48,6.9,6.68Z"/></svg>