<?xml version="1.0" encoding="utf-8"?>
<!-- Generator: Adobe Illustrator 26.2.1, SVG Export Plug-In . SVG Version: 6.00 Build 0)  -->
<svg version="1.1" xmlns="http://www.w3.org/2000/svg" xmlns:xlink="http://www.w3.org/1999/xlink" x="0px" y="0px"
	 viewBox="0 0 760 760" style="enable-background:new 0 0 760 760;" xml:space="preserve">
<style type="text/css">
	.st0{display:none;}
	.st1{display:inline;fill:none;stroke:url(#SVGID_1_);stroke-width:8;stroke-linecap:round;stroke-miterlimit:10;}
	
		.st2{display:inline;fill:none;stroke:url(#SVGID_00000152963120412955368790000006551356798104928655_);stroke-width:8;stroke-linecap:round;stroke-miterlimit:10;}
	
		.st3{display:inline;fill:none;stroke:url(#SVGID_00000122680922537356033930000014741719707711414930_);stroke-width:8;stroke-linecap:round;stroke-miterlimit:10;}
	
		.st4{display:inline;fill:none;stroke:url(#SVGID_00000060728267079563582710000016475775172293858987_);stroke-width:8;stroke-linecap:round;stroke-miterlimit:10;}
	
		.st5{display:inline;fill:none;stroke:url(#SVGID_00000040540397162321566690000016086121615574868653_);stroke-width:8;stroke-linecap:round;stroke-miterlimit:10;}
	
		.st6{display:inline;fill:none;stroke:url(#SVGID_00000176754882032369952160000003085390135407925395_);stroke-width:8;stroke-linecap:round;stroke-miterlimit:10;}
	
		.st7{display:inline;fill:none;stroke:url(#SVGID_00000042007952964625664200000002409415319455888557_);stroke-width:8;stroke-linecap:round;stroke-miterlimit:10;}
	
		.st8{display:inline;fill:none;stroke:url(#SVGID_00000180324557368585347120000010556825323446204336_);stroke-width:8;stroke-linecap:round;stroke-miterlimit:10;}
	
		.st9{display:inline;fill:none;stroke:url(#SVGID_00000137122579419824134700000005244054858582272927_);stroke-width:8;stroke-linecap:round;stroke-miterlimit:10;}
	
		.st10{display:inline;fill:none;stroke:url(#SVGID_00000161589953144542041420000015596245320625800616_);stroke-width:8;stroke-linecap:round;stroke-miterlimit:10;}
	
		.st11{display:inline;fill:none;stroke:url(#SVGID_00000122681932331097001060000016814645460832939691_);stroke-width:8;stroke-linecap:round;stroke-miterlimit:10;}
	
		.st12{display:inline;fill:none;stroke:url(#SVGID_00000161591940392242542030000017169767328990901425_);stroke-width:8;stroke-miterlimit:10;}
	.st13{display:inline;fill:url(#SVGID_00000008827494665215779990000010118021633375729813_);}
	.st14{display:inline;fill:url(#SVGID_00000030447406748995899220000013529407669392827822_);}
	.st15{display:inline;fill:url(#SVGID_00000092429401099992774570000010315642272036328625_);}
	.st16{display:inline;fill:url(#SVGID_00000001661260268880532650000011388013457299271056_);}
	.st17{display:inline;fill:url(#SVGID_00000106145006986823934150000007331171886576340129_);}
	.st18{display:inline;fill:url(#SVGID_00000119077339681655687850000010955910157533604481_);}
	.st19{display:inline;fill:url(#SVGID_00000036220007320356843130000014733234037795996349_);}
	.st20{display:inline;fill:url(#SVGID_00000145046199528043132950000015506598442881878682_);}
	.st21{display:inline;fill:url(#SVGID_00000142159956539442992610000001717052035384720797_);}
	.st22{display:inline;fill:url(#SVGID_00000084506473010282720930000010067591671180685748_);}
	.st23{display:inline;fill:url(#SVGID_00000127753109850630259510000001775828744357123203_);}
	.st24{display:inline;fill:url(#SVGID_00000054228710399249937290000005589116860292865424_);}
	.st25{display:inline;fill:url(#SVGID_00000151505480732645487780000018424023712465522581_);}
	.st26{display:inline;fill:url(#SVGID_00000121994484677496351900000013708965726441991313_);}
	.st27{display:inline;fill:url(#SVGID_00000103256057654498045020000007460500707688951471_);}
	.st28{display:inline;fill:url(#SVGID_00000011724158120002647990000014313904479448429483_);}
	.st29{display:inline;fill:url(#SVGID_00000159436260623628009020000007752493921419314613_);}
	.st30{fill:url(#SVGID_00000055676849002373910080000017499630769235387285_);}
</style>
<g id="Camada_1" class="st0">
	
		<linearGradient id="SVGID_1_" gradientUnits="userSpaceOnUse" x1="284.14" y1="416.4488" x2="621.5048" y2="416.4488" gradientTransform="matrix(1 0 0 -1 0 762)">
		<stop  offset="0.14" style="stop-color:#679980"/>
		<stop  offset="0.83" style="stop-color:#0F1958"/>
	</linearGradient>
	<path class="st1" d="M288.1,203c7.4-7.5,16.2-13.2,24.4-19.7c3.8-3.1,7.4-6.6,12-8.7c3.3-1.4,6.4-2.6,9.3-5.2
		c3.1-2.7,8.1-1.5,12.1-0.9c6.6,0.9,13.2,1.4,19.8,2.3s13.2,1.4,19.8,2.1l28.4,2.9c8.2,0.8,16.5,1.6,24.8,2.5
		c0.7,0.2,1.4,0.4,2.1,0.8c9.4,3.6,18.7,7.4,27.3,12.7c17,10.6,34.1,20.9,51.1,31.4c1.7,0.9,3.2,2,4.5,3.3c2.8,3.2,6.3,4.1,10.4,4.5
		c26.2,2.7,46.5,15.4,61,37.1c8.1,12.2,12.6,26.5,13,41.1c0.5,12.1,1.1,24.2,1.7,36.3c0.5,12,1.1,23.9,1.7,35.9s1.1,23.9,1.7,35.9
		s1.1,23.9,1.7,35.9s0.9,23.9,1.8,35.9c0.5,7.3,0,14.6,0.9,21.9c0.7,4.9-1,6.2-6.1,6.7c-6.6,0.6-13.2,0-20.2,0.5v5.2"/>
	
		<linearGradient id="SVGID_00000085961333971120626110000013446795346137188744_" gradientUnits="userSpaceOnUse" x1="126.2032" y1="398.1374" x2="335.05" y2="398.1374" gradientTransform="matrix(1 0 0 -1 0 762)">
		<stop  offset="0.14" style="stop-color:#679980"/>
		<stop  offset="0.83" style="stop-color:#0F1958"/>
	</linearGradient>
	
		<path style="display:inline;fill:none;stroke:url(#SVGID_00000085961333971120626110000013446795346137188744_);stroke-width:8;stroke-linecap:round;stroke-miterlimit:10;" d="
		M331,350.6c-5.4-3.3-7.6-8.6-9.1-14.4c-7-27.8-14.1-55.5-21-83.3c-3.7-14.7-7.2-29.4-10.8-44.1c-1.5-6.1-2.2-6.8-8.7-6.6
		c-8.4,0.3-16.8-0.7-25.2-0.9c-16.3-0.3-30.3,5.8-42.4,15.8c-13.8,11.2-23.8,26.5-28.5,43.6c-3.1,11.4-5.3,23.1-7.9,34.6
		c-6.2,26.8-12.4,53.6-18.6,80.4c-5.1,22-10.2,44-15.3,66c-0.1,0.3-0.4,0.6-0.4,0.8c2.1,6.9-3.2,12-4.2,18.1s-2.7,12.3-4.1,18.5
		s-2.4,12.5-4.2,18.5c-1.2,4.1-0.6,7.1,2.6,10c6.1,5.7,13.4,9.3,21.1,12.4c11.9,4.9,24.8,7,37.6,6.1c5.2-0.4,10.3-1.9,14.9-4.5
		c2.5-1.4,3.2-3.7,3.7-6.2c5.1-23.9,10.3-47.8,15.2-71.7c1.4-6.7,3.8-12.5,9.6-16.5"/>
	
		<linearGradient id="SVGID_00000182524478665132484010000017452159999070215102_" gradientUnits="userSpaceOnUse" x1="397.3854" y1="479.825" x2="451.42" y2="479.825" gradientTransform="matrix(1 0 0 -1 0 762)">
		<stop  offset="0.14" style="stop-color:#679980"/>
		<stop  offset="0.83" style="stop-color:#0F1958"/>
	</linearGradient>
	
		<path style="display:inline;fill:none;stroke:url(#SVGID_00000182524478665132484010000017452159999070215102_);stroke-width:8;stroke-linecap:round;stroke-miterlimit:10;" d="
		M447.4,182.8c-4.5,10.7-6.2,22.2-9,33.4c-6.1,24.7-11.9,49.4-17.8,74.2c-6.1,25.4-12,50.9-18.2,76.2c-1.2,5.1-1.8,10,0.9,14.9"/>
	
		<linearGradient id="SVGID_00000168834141919756084320000003075550222479614081_" gradientUnits="userSpaceOnUse" x1="231.685" y1="425.9118" x2="341.5516" y2="425.9118" gradientTransform="matrix(1 0 0 -1 0 762)">
		<stop  offset="0.14" style="stop-color:#679980"/>
		<stop  offset="0.83" style="stop-color:#0F1958"/>
	</linearGradient>
	
		<path style="display:inline;fill:none;stroke:url(#SVGID_00000168834141919756084320000003075550222479614081_);stroke-width:8;stroke-linecap:round;stroke-miterlimit:10;" d="
		M330.6,173.4c2,3.5,2.4,7.2,2.5,11.1c0.5,16.4,0.3,32.7,1,49.1c0.5,12.8-0.2,25.6,0.7,38.3c1,14.2,0.1,28.3,0.9,42.5
		c0.4,7.6,0.4,15.1,0.7,22.7c0.2,3.7-0.9,7.3-3,10.3c-1.7,2.2-2.3,5.2-1.6,7.9c2.4,12.3,3.5,24.7,4.9,37.1c1.2,8.9,1,17.9-0.3,26.8
		c0,0.3,0,0.5,0,0.8c0.6,10.6-0.5,21.2-1.1,31.7c-0.5,8,0.3,16-1.3,24c-1.1,4.9-3.2,9.6-6.3,13.6c-0.7,0.9-2,1.5-2.4,2.5
		c-3.3,8.6-10.8,7.4-17.4,6.9c-14.5-1.1-28.9-2.8-43.3-4.5c-7.6-0.9-15.1-1.8-22.7-2.5c-2-0.2-3.8-1.4-5.8-2.1
		c-1.1-6.3,0.2-12.5,0.9-18.8c1.1-10.9,2.4-21.7,3.2-32.6c0.2-3.4-2-6.4-3.6-9.5"/>
	
		<linearGradient id="SVGID_00000012474281599713725780000016423875958717945261_" gradientUnits="userSpaceOnUse" x1="235.24" y1="406.665" x2="257.917" y2="406.665" gradientTransform="matrix(1 0 0 -1 0 762)">
		<stop  offset="0.14" style="stop-color:#679980"/>
		<stop  offset="0.83" style="stop-color:#0F1958"/>
	</linearGradient>
	
		<path style="display:inline;fill:none;stroke:url(#SVGID_00000012474281599713725780000016423875958717945261_);stroke-width:8;stroke-linecap:round;stroke-miterlimit:10;" d="
		M239.2,404.2c2.4-14.4,4.7-28.9,7.1-43.3c1.6-9.4,3.1-18.9,4.3-28.4c1.1-8.6,3.6-17.1,3.3-26"/>
	
		<linearGradient id="SVGID_00000140010720527540872530000016101786268167418785_" gradientUnits="userSpaceOnUse" x1="374.536" y1="393.44" x2="531.89" y2="393.44" gradientTransform="matrix(1 0 0 -1 0 762)">
		<stop  offset="0.14" style="stop-color:#679980"/>
		<stop  offset="0.83" style="stop-color:#0F1958"/>
	</linearGradient>
	
		<path style="display:inline;fill:none;stroke:url(#SVGID_00000140010720527540872530000016101786268167418785_);stroke-width:8;stroke-linecap:round;stroke-miterlimit:10;" d="
		M527.9,230.6c-1.5,2.9-3.3,5.7-5.3,8.3c-29.5,37.1-58.8,74.3-88.4,111.2c-7,8.8-13.6,17.9-21.3,26.1c-1.8,1.9-3.5,3.9-5.9,4.3
		c-3.7,0.6-4.6,3.3-6.2,5.9c-8.1,13.5-9.3,28.9-12.3,43.7c-3.2,16.2-5.9,32.5-9.2,48.6c-1.4,6.4-0.7,13.1,2.2,19
		c1.3,2.8,2.9,5.5,2.9,8.7"/>
	
		<linearGradient id="SVGID_00000101103936615509724570000012480500714498499230_" gradientUnits="userSpaceOnUse" x1="318.39" y1="268.5792" x2="526.96" y2="268.5792" gradientTransform="matrix(1 0 0 -1 0 762)">
		<stop  offset="0.14" style="stop-color:#679980"/>
		<stop  offset="0.83" style="stop-color:#0F1958"/>
	</linearGradient>
	
		<path style="display:inline;fill:none;stroke:url(#SVGID_00000101103936615509724570000012480500714498499230_);stroke-width:8;stroke-linecap:round;stroke-miterlimit:10;" d="
		M322.4,497.8c4.3,4.1,9.9,4.5,15.3,5.3c10.3,1.6,20.6,3.1,31,4.5c4.8,0.6,9.8,1.6,14.4-0.5c3-1.4,4.6,1,6.6,1.9
		c7.3,3.2,15.1,3.6,22.8,4.8c9.2,1.4,18.4,2.5,27.6,3.8c13.5,1.8,27,3.6,40.4,5.4c7.3,1,14.6,1.8,21.9,2.9c6.7,1,8.2,0,9.1-6.6
		c2-15.1,3.6-30.2,5-45.4c0.5-5.1,2.4-9.8,6.6-13.2"/>
	
		<linearGradient id="SVGID_00000010993299418834758270000005077873809925622149_" gradientUnits="userSpaceOnUse" x1="518.94" y1="235.8583" x2="623.9288" y2="235.8583" gradientTransform="matrix(1 0 0 -1 0 762)">
		<stop  offset="0.14" style="stop-color:#679980"/>
		<stop  offset="0.83" style="stop-color:#0F1958"/>
	</linearGradient>
	
		<path style="display:inline;fill:none;stroke:url(#SVGID_00000010993299418834758270000005077873809925622149_);stroke-width:8;stroke-linecap:round;stroke-miterlimit:10;" d="
		M522.9,460c4.7,2.1,6.3,6.7,7.2,11c1.1,4.9,0.5,10.2,1.1,15.2c1.1,9.5,1.1,19,2.3,28.5c0.5,4.2,0.7,8.5,0.7,12.8
		c0.2,6.2,0.6,12.4,1.2,18.5c0.8,8.1-0.4,16.6,3.5,24.3c0.3,0.4,0.4,0.8,0.4,1.2c-1.7,9.2,3.9,13.8,11.2,16.8
		c6.1,2.5,12.7,3.8,19.4,3.8c10.3,0,20.5,0.2,30.5-2.9c8.2-2.6,14.1-7.8,18.2-15.3c1.1-1.7,1.2-3.9,0.3-5.7c-1.5-2.8-1-5.1,0-7.9
		c1.3-4.1,1-8.6,0.4-12.7c-0.8-5.3-0.1-10.5-0.7-15.7c-0.6-4.8,0.1-10-2.8-14.4"/>
	
		<linearGradient id="SVGID_00000173155504296044072640000005033427669522234815_" gradientUnits="userSpaceOnUse" x1="515.84" y1="358.67" x2="528.57" y2="358.67" gradientTransform="matrix(1 0 0 -1 0 762)">
		<stop  offset="0.14" style="stop-color:#679980"/>
		<stop  offset="0.83" style="stop-color:#0F1958"/>
	</linearGradient>
	
		<path style="display:inline;fill:none;stroke:url(#SVGID_00000173155504296044072640000005033427669522234815_);stroke-width:8;stroke-linecap:round;stroke-miterlimit:10;" d="
		M519.8,347.3c1,9.3,2.2,18.7,3,28c0.3,3.3,0.5,6.6,0.7,9.9c0.5,9.3,1.2,18.6,0.8,28c-0.4,8-0.3,16.2-0.3,24.3
		c0,7.3-0.2,14.6-0.4,21.8"/>
	
		<linearGradient id="SVGID_00000169540338571177426250000011826896194305348276_" gradientUnits="userSpaceOnUse" x1="535.86" y1="195.6058" x2="621" y2="195.6058" gradientTransform="matrix(1 0 0 -1 0 762)">
		<stop  offset="0.14" style="stop-color:#679980"/>
		<stop  offset="0.83" style="stop-color:#0F1958"/>
	</linearGradient>
	
		<path style="display:inline;fill:none;stroke:url(#SVGID_00000169540338571177426250000011826896194305348276_);stroke-width:8;stroke-linecap:round;stroke-miterlimit:10;" d="
		M617,565c-2.8-0.3-5.6-0.8-8.3-1.6c-10.1-2.3-20.3-2-30.5-1c-8.6,0.8-17.2,2.3-25.6,4.6c-4.3,1.2-8.2,3.6-12.8,4.1"/>
	
		<linearGradient id="SVGID_00000042736840826204171430000005581006169780511930_" gradientUnits="userSpaceOnUse" x1="140.53" y1="309.985" x2="172.47" y2="309.985" gradientTransform="matrix(1 0 0 -1 0 762)">
		<stop  offset="0.14" style="stop-color:#679980"/>
		<stop  offset="0.83" style="stop-color:#0F1958"/>
	</linearGradient>
	
		<path style="display:inline;fill:none;stroke:url(#SVGID_00000042736840826204171430000005581006169780511930_);stroke-width:8;stroke-linecap:round;stroke-miterlimit:10;" d="
		M144.5,449.1c7.8,2.6,16,3.6,23.9,5.8"/>
</g>
<g id="Layer_3" class="st0">
	
		<linearGradient id="SVGID_00000065035825629834592770000005034028293286654890_" gradientUnits="userSpaceOnUse" x1="7.2628" y1="401.9236" x2="749.3228" y2="401.9236" gradientTransform="matrix(1 0 0 -1 0 760.1102)">
		<stop  offset="0.14" style="stop-color:#BB398A"/>
		<stop  offset="0.83" style="stop-color:#0F1958"/>
	</linearGradient>
	
		<circle style="display:inline;fill:none;stroke:url(#SVGID_00000065035825629834592770000005034028293286654890_);stroke-width:8;stroke-miterlimit:10;" cx="378.3" cy="358.2" r="367"/>
</g>
<g id="Layer_2" class="st0">
	
		<linearGradient id="SVGID_00000107577088010099080640000018145509643649255609_" gradientUnits="userSpaceOnUse" x1="128.8243" y1="360.4114" x2="629.9372" y2="360.4114">
		<stop  offset="0.14" style="stop-color:#BB398A"/>
		<stop  offset="0.83" style="stop-color:#0F1958"/>
	</linearGradient>
	<path style="display:inline;fill:url(#SVGID_00000107577088010099080640000018145509643649255609_);" d="M402.2,566.7
		c-10.5,7.2-20.4,15.6-31.6,21.4c-61.5,31.9-138-4.4-151.8-72c-2.1-10.2-2-20.8-2.5-31.2c-0.1-3.3-0.7-4.6-4.1-5.3
		c-44.6-9.8-77.3-46.7-82.8-93.3c-5-42.5,19.1-86.2,58.4-105.6c2.2-1.1,4.4-2.2,5.5-2.8c-1.5-12.5-4.1-24.3-4.1-36.1
		c-0.2-49.6,35.4-92.8,83.9-103.2c19.8-4.2,39.1-2.9,58,3.7c3.3,1.1,5.4,0.7,8-1.5c11.5-9.5,24.5-11.5,38.4-6
		c3.1,1.2,5.2,0.8,7.8-0.6c59.2-32.1,132.4-2.6,152.8,61.5c4,12.7,5.7,25.6,4.7,38.9c-0.3,4.1,0.3,5.9,5,7
		c42.5,9.8,74.8,45.2,80.9,88.3c6.7,46.9-17.6,91.9-60.4,111.8c-3.1,1.5-4,2.7-3,6.3c16.8,59.6-16.9,118.8-76.8,133.9
		c-29.1,7.3-56.8,2.3-82.5-13.5c-1.3-0.8-2.5-1.6-3.8-2.4c-0.3-0.2-0.6-0.1-1-0.2C401.7,566,402,566.3,402.2,566.7z M338.2,456.9
		c14.9-1.6,28-2.9,41.1-4.3c19.7-2.1,39.4-4.3,59.1-6.3c2.9-0.3,4.8-1.3,6-4.2c12.5-29.5,25.1-59.1,37.9-88.5
		c1.5-3.5,0.9-5.8-1.1-8.6c-18.1-25.3-36.3-50.6-54-76.1c-3.1-4.5-6.4-5.3-11.3-4.6c-11.7,1.5-23.5,2.7-35.2,3.9
		c-19.9,2.1-39.7,4.3-59.6,6.3c-3.4,0.3-5.2,1.7-6.6,4.9c-12.4,29.4-25,58.7-37.7,88c-1.3,3-1.1,5.2,0.8,7.8
		c18.7,26.1,37.2,52.3,56,78.4C334.8,455.4,337.4,456.4,338.2,456.9z M143.8,372.8c0.5,25.4,7.6,45.7,22.6,63
		c12.9,14.9,29.2,24.4,48.3,29.3c2.8,0.7,5,1,5.9-2.9c1-4.2,2.8-8.2,4.5-12.1c10.2-24,20.4-48,30.8-71.9c1.5-3.5,1.3-6.1-1-9.1
		c-3.9-5-7.4-10.2-11.1-15.4c-13.6-19.5-27.4-38.9-40.8-58.5c-2.3-3.4-3.8-3.6-7-2C162.6,310.4,145.8,338.2,143.8,372.8z
		 M559.1,429.1c0,0,0.7-0.1,1.3-0.3c1.1-0.4,2.1-0.9,3.2-1.4c29.5-15.3,46.6-39.3,50.9-72.3c5.9-44.9-26.1-90.1-70.4-99.4
		c-3-0.6-4.8-0.5-5.8,3.2c-1.4,5.1-3.6,10-5.6,14.9c-9.9,23.2-19.9,46.4-29.7,69.7c-0.8,2-0.6,5.4,0.6,7.1
		C521.9,376.8,540.4,402.7,559.1,429.1z M412.1,554.1c1,0.7,2.7,2,4.6,3c30.9,16.9,62,17.5,92.8,0.2c36.3-20.4,53.7-64.5,42-104.4
		c-1.1-3.6-2.5-4.8-6.4-3.7c-4.5,1.2-9.2,1.7-13.8,2.2c-24.2,2.6-48.3,5.1-72.5,7.5c-4.3,0.4-6.6,2.1-8.3,6.2
		C438,494.6,425.2,523.9,412.1,554.1z M326.5,156.3c-18.2-6.4-37.3-7.1-56.6-1.6c-48.1,13.5-77,66.7-62.1,114c0.9,2.7,2.1,3.6,5,3.2
		c14.2-1.9,28.4-3.6,42.6-5.3c15.4-1.8,30.8-3.3,46.2-5c2.7-0.3,4.8-0.9,6.1-4c8.4-20.1,17.2-40,25.5-60.1c0.8-1.8,0-4.6-0.8-6.7
		c-1.8-5.1-4.9-10-5.8-15.2C325.7,169.5,326.5,163.1,326.5,156.3z M393.7,146.8c9.5,15.4,9.9,30.2-0.1,45c-0.8,1.1-0.3,3.9,0.6,5.2
		c11.2,16.1,22.6,32.1,34.1,48c1,1.4,3.5,2.7,5.1,2.6c9.6-0.8,19.2-2.1,28.8-3c20.4-2.1,40.7-4.1,61.1-5.9c3.1-0.3,4.8-1,4.5-4.2
		c-0.8-9.9-0.3-20.1-2.9-29.6c-11.7-44.1-50.2-71.4-95.9-68.5C416.8,137,404.9,140.4,393.7,146.8z M389.4,555.9
		c-5.3-6.7-10.4-12.6-15-19c-14.5-20.1-28.8-40.3-43.1-60.5c-1.7-2.4-3.2-3.7-6.5-3.2c-3.4,0.6-4.1,2.6-4.9,5.3
		c-4.2,14.3-13.7,23.6-28.2,26.6c-15.3,3.2-29.3-1.1-37.6-14.4c-5.1-8.3-10.5-9.5-18.7-8.5c-2.9,0.4-4.3,1.2-4.2,4
		c0.3,7.5-0.3,15.1,1,22.3c9.9,54,61.3,86.8,114.1,73C363.2,577.2,377.5,568.6,389.4,555.9z M436.1,461.4
		c-30.4,3.3-59.8,6.4-90.4,9.7c18.5,24.7,34.1,49.6,52.7,72.2c0.7,0,1.5,0,2.2,0C412.3,516.3,424,489.3,436.1,461.4z M264.9,357.3
		c11.7-27.3,22.9-53.5,34.5-80.5c-28.5,3.1-55.9,6.1-83.3,9.1c-0.2,0.6-0.4,1.2-0.6,1.8C231.7,310.5,247.9,333.4,264.9,357.3z
		 M524.5,254.7c-0.5-0.6-0.9-1.1-1.4-1.7c-27.3,2.9-54.6,5.7-82.9,8.7c17.3,24.3,33.8,47.4,50.8,71.4
		C502.5,306.2,513.5,280.4,524.5,254.7z M459.7,444c28.6-3.1,55.9-6.1,83.2-9.1c0.2-0.7,0.4-1.3,0.6-2
		c-16.2-22.9-32.5-45.7-49.3-69.5C482.5,390.8,471.4,416.9,459.7,444z M347.2,203.3c-8,18.6-15.8,36.8-24,56
		c30.4-3.3,59.6-6.4,90.1-9.7c-11.2-15.8-21.6-30.4-32.1-44.9c-0.5-0.7-2.1-1.2-2.9-0.9C368.1,208,357.9,207.8,347.2,203.3z
		 M283.8,491c12.5,0,22.7-10,22.7-22.4c0-12.2-10.4-22.8-22.6-22.8c-12.3-0.1-22.5,10.2-22.5,22.6C261.4,481.2,271.1,491,283.8,491z
		 M340.9,169.4c0.1,12.6,10.1,22.5,22.6,22.4c12.5-0.1,22.6-10.2,22.4-22.6c-0.1-12.5-10.2-22.5-22.7-22.4
		C350.7,146.9,340.8,156.9,340.9,169.4z M268.1,387.6c-11.5,27-22.5,52.8-33.9,79.4c3.4,0,5.5-0.1,7.7,0c3.3,0.2,4.5-1.2,5.1-4.5
		c3-18.5,18.3-31.5,37-31.1c5.5,0.1,11,1.6,17,2.5C290.2,418.7,279.6,403.7,268.1,387.6z"/>
	
		<linearGradient id="SVGID_00000122684082228976200340000003081697144673267880_" gradientUnits="userSpaceOnUse" x1="333.7852" y1="360.3888" x2="425.365" y2="360.3888">
		<stop  offset="0.14" style="stop-color:#BB398A"/>
		<stop  offset="0.83" style="stop-color:#0F1958"/>
	</linearGradient>
	<path style="display:inline;fill:url(#SVGID_00000122684082228976200340000003081697144673267880_);" d="M333.8,359.7
		c0.2-25.5,20.6-45.2,46.7-45c25.2,0.2,45.2,20.8,44.9,46.3c-0.3,25.3-20.6,45.2-46.2,45.1C353.5,405.9,333.6,385.6,333.8,359.7z
		 M379.4,329.4c-16.9,0.1-30.8,14.1-30.8,30.9c0,17,14.3,31.3,31.1,31.2c16.7-0.1,30.9-14.4,30.9-31
		C410.7,343.5,396.4,329.3,379.4,329.4z"/>
</g>
<g id="Layer_4" class="st0">
	
		<linearGradient id="SVGID_00000029025696569213306250000016721988316176451215_" gradientUnits="userSpaceOnUse" x1="191.6008" y1="348.1107" x2="564.4689" y2="348.1107">
		<stop  offset="0.14" style="stop-color:#679980"/>
		<stop  offset="0.83" style="stop-color:#0F1958"/>
	</linearGradient>
	<path style="display:inline;fill:url(#SVGID_00000029025696569213306250000016721988316176451215_);" d="M457,173
		c0,26.3,0.1,52.6-0.1,78.9c0,3.9,1.1,5.8,4.6,7.6c56.4,29.6,90.8,75.8,100.7,138.6c14.9,95.4-46.2,185.6-140,208.7
		c-103.6,25.5-208.5-42.3-227.6-147.2c-15.2-83.9,27.3-166.4,104.6-202.6c3.9-1.8,4.8-4,4.8-7.9C304,197.8,304,146.4,304,94.9
		c0-9.3,1.7-10.9,11.1-10.9c43.7,0,87.3,0,131,0c9.3,0,10.9,1.6,10.9,11.1C457,121.1,457,147,457,173z M377.8,370.1
		c-52.8,0-105.6,0-158.4-0.1c-4,0-5.7,1-6.9,5c-8.8,29.7-10.1,59.5-3.1,89.7c20.8,89.6,106.7,146.8,197.9,131.5
		c100-16.7,167.3-117.8,136.2-221.5c-1.2-3.9-3.1-4.6-6.7-4.6C483.7,370.1,430.8,370.1,377.8,370.1z M318,97.7c0,16.8,0,32.9,0,49.4
		c14.8,0,29.1,0,43.4,0c5.7,0,8.8,2.4,8.8,6.6c0,4.2-3.1,6.7-8.7,6.7c-12.8,0-25.7,0-38.5,0c-1.7,0-3.5,0-5.1,0
		c0,17.9,0,34.9,0,52.3c4.8,0,9.3,0,13.8,0c9.2,0,18.3-0.1,27.5,0c5.6,0,8.6,2.6,8.5,6.9c-0.1,4.1-3,6.5-8.3,6.6c-2.2,0-4.3,0-6.5,0
		c-11.6,0-23.2,0-35.3,0c0,9.8,0,19.1,0,28.3c0,8.5-0.3,8.9-8,12.3c-39.5,17.4-68.7,45.6-87.7,84.2c-0.8,1.6-1.3,3.2-2,5
		c105.7,0,210.9,0,316.5,0c-0.7-1.8-1.1-3.2-1.8-4.5c-18.1-37.1-45.6-64.8-83-82.3c-5.9-2.8-7.9-6.2-7.9-12.6
		c0.2-51.1,0.1-102.2,0.1-153.2c0-1.9,0-3.9,0-5.9C401.4,97.7,359.8,97.7,318,97.7z"/>
	
		<linearGradient id="SVGID_00000025408622222366651550000009860293543224081290_" gradientUnits="userSpaceOnUse" x1="389.6378" y1="468.3121" x2="474.4487" y2="468.3121">
		<stop  offset="0.14" style="stop-color:#679980"/>
		<stop  offset="0.83" style="stop-color:#0F1958"/>
	</linearGradient>
	<path style="display:inline;fill:url(#SVGID_00000025408622222366651550000009860293543224081290_);" d="M389.6,468.3
		c0-23.4,18.7-42.2,42.1-42.4c23.4-0.2,42.7,19,42.7,42.3c0,23.4-19.4,42.6-42.7,42.4C408.3,510.5,389.6,491.7,389.6,468.3z
		 M460.9,468.6c0.1-16.1-12.5-29.1-28.4-29.4c-16.2-0.2-29.4,12.6-29.6,28.7c-0.2,15.8,12.7,29.1,28.5,29.3
		C447.8,497.5,460.8,484.8,460.9,468.6z"/>
	
		<linearGradient id="SVGID_00000134219936947598445560000011202124169875897516_" gradientUnits="userSpaceOnUse" x1="307.0128" y1="484.3035" x2="339.5356" y2="484.3035">
		<stop  offset="0.14" style="stop-color:#679980"/>
		<stop  offset="0.83" style="stop-color:#0F1958"/>
	</linearGradient>
	<path style="display:inline;fill:url(#SVGID_00000134219936947598445560000011202124169875897516_);" d="M323.4,468.2
		c9,0,16.2,7.3,16.2,16.2c0,8.9-7.3,16-16.3,16c-9,0-16.3-7.3-16.2-16.1C307.1,475.4,314.4,468.2,323.4,468.2z"/>
	
		<linearGradient id="SVGID_00000058549355746412033230000017731409417616226946_" gradientUnits="userSpaceOnUse" x1="285.8384" y1="427.8625" x2="318.4033" y2="427.8625">
		<stop  offset="0.14" style="stop-color:#679980"/>
		<stop  offset="0.83" style="stop-color:#0F1958"/>
	</linearGradient>
	<path style="display:inline;fill:url(#SVGID_00000058549355746412033230000017731409417616226946_);" d="M302.2,444.1
		c-8.8,0-16.3-7.4-16.3-16.2c-0.1-8.7,7.5-16.3,16.2-16.4c8.7-0.1,16.3,7.5,16.4,16.2C318.5,436.5,310.9,444.1,302.2,444.1z"/>
</g>
<g id="Layer_5" class="st0">
	
		<linearGradient id="SVGID_00000022539437234458651080000000366826019223789229_" gradientUnits="userSpaceOnUse" x1="118.8507" y1="358.9608" x2="638.3127" y2="358.9608">
		<stop  offset="0.14" style="stop-color:#BB398A"/>
		<stop  offset="0.83" style="stop-color:#0F1958"/>
	</linearGradient>
	<path style="display:inline;fill:url(#SVGID_00000022539437234458651080000000366826019223789229_);" d="M326.7,207.2
		c-20.4,13.3-43.6,7.2-55.5-8.1c-10.9-14-11.3-33.9-0.9-48.4c10.6-14.7,29.6-20.5,46.7-14.3c16.6,6,27.6,22.5,26.1,40.1
		c-0.5,5.5-2.8,10.8-4.1,16.3c-0.3,1.3-0.3,3.4,0.5,4.1c16.1,13.6,32.4,27.1,49,40.9c13.6-11.4,27.1-22.8,40.6-34.1
		c13.5-11.3,27-22.7,39.8-33.4c-2.2-7.2-5.1-13.8-6-20.7c-2.8-21.4,13.1-41,35.1-44c20.9-2.9,41.6,12.7,44.8,33.8
		c3.3,21.5-11,41.9-32.1,45.9c-9.1,1.8-17.6,0.6-25.7-3.5c-2.6-1.3-4.1-0.8-6,0.9c-26.5,22.3-53,44.5-79.5,66.9
		c-1.4,1.2-2.6,3.5-2.7,5.3c-0.2,17.3-0.3,34.6-0.1,51.9c0,1.6,1.5,3.9,2.9,4.8c12.4,7.4,25.1,14.5,37.6,21.7
		c9,5.2,13.4,13.2,13.5,23.5c0.1,15.1,0,30.2,0,44.5c17,9.7,33.6,19.2,50.8,29.1c15-9.3,30.8-19.2,46.6-29c0.1-0.1,0.3-0.2,0.4-0.3
		c7.8-3.7,11.8-7.7,10-18.5c-3.6-22.2,12.1-41.1,33.5-44.4c20.6-3.1,40.1,10.1,45.2,30.5c4,16-2.5,32.9-16.3,42.5
		c-13.6,9.5-31.9,9.6-45.5,0.3c-2.1-1.4-4-3-6.1-4.6c-19.7,12.3-39.5,24.6-59.2,37.1c-1.3,0.8-2,3.2-2.1,4.9
		c-0.2,13.6-0.2,27.3-0.1,40.9c0.1,11-4.5,19.2-14,24.7c-11.7,6.7-23.3,13.5-35,20.2c-9,5.2-18.1,5.2-27.1,0
		c-12-6.9-24-13.7-35.9-20.7c-8.7-5.1-13.2-12.8-13.2-23.1c0.1-15.1,0-30.3,0-44.6c-16.9-9.8-33.5-19.3-50.6-29.1
		c-14.4,8.9-29.6,18.2-44.6,27.7c-1.3,0.8-2,2.9-2.5,4.6c-7.7,28.5-15.3,57.1-23.1,85.6c-0.8,2.9,0.1,4.4,2.4,6.2
		c13.8,11.2,18.5,29.6,12.1,46c-6.6,16.6-22.5,26.4-41.3,25.3c-16.2-0.9-30.9-13.4-35.3-30c-7.1-26.5,14.4-52.3,41.8-50.3
		c1.3,0.1,2.6,0.2,4.6,0.4c7.6-28.4,15.2-56.7,22.9-85.4c-24.7-7.2-49.1-14.3-73.6-21.4c-0.9,1.3-1.7,2.5-2.5,3.7
		c-11,16.8-31.7,23.1-50.1,15.2c-17.8-7.6-27.6-27.2-23.1-46.5c4.5-19.1,22-31.8,42.3-30.6c19.1,1.1,35,16.2,36.8,35.8
		c0.5,5.5,2.4,7.7,7.6,9.1c21.8,6,43.5,12.4,65.1,18.8c3.5,1,6.1,0.7,9.2-1.3c13.5-8.6,27.1-17,40.8-25.2c2.8-1.7,3.5-3.4,3.5-6.7
		c-0.3-14-0.3-28-0.1-41.9c0.2-10,4.6-17.9,13.4-23c13.1-7.6,26.3-14.9,39.4-22.5c1.2-0.7,2.3-2.7,2.4-4.2
		c0.2-17.1,0.3-34.3,0.2-51.4c0-1.6-0.8-3.7-1.9-4.7C361.5,236.1,344.2,221.7,326.7,207.2z M399.3,470.1c0,6.8,0.2,13.6-0.1,20.5
		c-0.2,4.6,1.9,7.6,5.6,9.7c11.6,6.7,23.4,13.2,34.9,20.1c3.7,2.2,7,2.4,10.6,0.2c11.9-6.9,23.8-13.7,35.7-20.6
		c3.9-2.3,5.6-5.6,5.6-10.3c-0.2-13-0.2-25.9,0-38.9c0.1-4.5-1.5-7.8-5.3-9.9c-12.2-7.1-24.4-14-36.6-21.1c-3.4-2-6.4-1.6-9.7,0.3
		c-11.7,6.8-23.6,13.5-35.3,20.3c-3.7,2.1-5.7,5.2-5.5,9.8C399.4,456.8,399.3,463.5,399.3,470.1z M434,377.6c0-7-0.1-14,0-20.9
		c0.1-4.2-1.6-7.2-5.3-9.3c-11.5-6.6-22.9-13.3-34.4-19.9c-3.7-2.1-7.5-3.1-11.7-0.6c-11.7,6.9-23.5,13.6-35.2,20.4
		c-3.8,2.2-5.6,5.3-5.6,9.7c0.1,13.6,0.1,27.3,0,40.9c0,4.1,1.7,7,5.1,9c11.9,6.9,23.7,14,35.8,20.4c2.6,1.4,7.2,1.7,9.7,0.3
		c12.3-6.5,24.2-13.7,36.2-20.7c3.7-2.2,5.6-5.2,5.4-9.8C433.7,390.6,434,384.1,434,377.6z M278.8,173.8
		c-0.3,13.3,10.1,24.2,23.5,24.6c13.4,0.4,24.5-10,24.9-23.2c0.4-14-10.2-25.1-23.9-25.2C290,149.9,279.1,160.5,278.8,173.8z
		 M598.1,354.1c-13.6-0.1-24.5,10.6-24.4,24.1c0,13.3,10.7,24,24.1,24c13.7,0.1,24.5-10.6,24.5-24.1
		C622.2,364.8,611.5,354.2,598.1,354.1z M183.3,407.1c-0.5-13.4-11.5-23.9-24.6-23.5c-13.7,0.4-24.4,11.8-23.7,25.5
		c0.6,13.2,12,23.5,25.2,23C173.5,431.5,183.8,420.4,183.3,407.1z M478.6,145.8c0.4,12.7,8.8,23.9,24.1,24
		c15.2,0.1,24.2-11.3,24.2-24.4c0-13-9.8-24-24.1-24C489,121.5,478.9,131.5,478.6,145.8z M239.3,596.3c12.8,0,23.8-10.9,23.9-23.7
		c0-12.6-11.9-24.6-24.2-24.2c-14,0.4-24.3,12.5-23.9,24.8C215.4,586,225.9,596.4,239.3,596.3z"/>
</g>
<g id="Layer_6" class="st0">
	
		<linearGradient id="SVGID_00000162353944126127805930000017020128256684571577_" gradientUnits="userSpaceOnUse" x1="126.488" y1="355.6094" x2="634.0816" y2="355.6094">
		<stop  offset="0.14" style="stop-color:#679980"/>
		<stop  offset="0.83" style="stop-color:#0F1958"/>
	</linearGradient>
	<path style="display:inline;fill:url(#SVGID_00000162353944126127805930000017020128256684571577_);" d="M533.9,192.5
		c28.6-28.6,57-57,85.3-85.3c1.3-1.3,2.5-2.7,4-3.7c3.2-2.2,6.4-1.9,9,1c2.4,2.7,2.4,5.7,0.3,8.7c-1,1.3-2.3,2.4-3.4,3.6
		c-27.3,27.3-54.6,54.6-82,81.9c-1.2,1.2-2.7,2-4.1,3c6.4,10.1,8.3,20.1,5.9,30.8c-1.7,7.4-5.5,13.5-10.8,18.7
		c-12.6,12.6-25.2,25.1-38,37.9c4.8,8.4,7.6,17.1,6.1,26.7c-1.4,8.9-5.5,16.2-11.9,22.5c-53.2,53-106.3,106.1-159.4,159.2
		c-1.4,1.4-3.1,2.5-5.4,4.2c6.1,6,11.4,11.2,16.7,16.4c3,2.9,4,6.2,1.5,9.8c-2.7,4-7.3,3.9-11.5-0.3c-11.6-11.5-23.1-23-34.6-34.6
		c-8-8-15.9-16.1-23.5-23.7c-18.5,18.6-36.8,36.9-55.5,55.7c9.2,13.1,12.7,28.6,8,45.6c-3.6,12.8-11.2,22.9-22.4,30.2
		c-22.1,14.3-51.6,9.9-68.8-10.1c-17.3-20.1-17-49.8,0.9-69.8c17-19,46.9-24.5,70.5-7.5c18.5-18.5,36.9-36.9,55.6-55.6
		c-13.5-13.5-27.8-27.7-42.1-41.9c-5.4-5.4-10.9-10.8-16.2-16.3c-3.8-3.9-4-7.9-0.9-10.9c3-2.7,7-2.4,10.6,1.2
		c5.2,5.2,10.2,10.4,16.6,16.9c1.5-2.2,2.3-4.1,3.7-5.5c52.3-52.3,104.6-104.5,156.9-156.8c16.5-16.5,28.4-18.7,49.9-9.7
		c1.2,0.5,3.7-0.6,4.8-1.7c10.8-10.6,21.9-21,32.1-32.2C494.6,186.8,513.2,180.8,533.9,192.5z M369,443.1c-0.9-0.9-2-2.1-3.1-3.3
		c-11.2-11.2-22.4-22.3-33.6-33.6c-4-4.1-4.5-7.7-1.4-10.9c3.1-3.2,7.1-2.8,11.3,1.3c11.1,11,22.2,22.1,33.2,33.2
		c1.2,1.3,1.7,3.2,2.3,4.4c13.4-13.4,25.2-25.3,38.1-38.3c-1.2-0.7-3-1.5-4.2-2.8c-10.8-10.6-21.5-21.4-32.2-32.1
		c-0.9-0.9-2-1.8-2.7-2.9c-2.3-3.1-2.2-6.3,0.5-9c2.7-2.7,5.9-2.8,9-0.6c1.3,1,2.4,2.3,3.6,3.4c11.8,11.8,23.5,23.5,34.8,34.9
		c11.4-11.4,22.5-22.5,33.8-33.8c-11.9-11.9-24.2-24.1-36.4-36.3c-3.9-3.9-4.4-7.9-1.6-10.9c3.2-3.4,7-3.1,11.3,1.2
		c10.4,10.3,20.8,20.7,31.1,31.1c2,2,3.4,4.5,5.3,7.1c6.6-6.7,11.9-12,17.1-17.3c10.2-10.5,10.3-24.2,0-34.7
		c-13.7-13.9-27.4-27.7-41.3-41.3c-12-11.8-25.3-11.6-37.2,0.3c-53.1,53.1-106.3,106.2-159.4,159.2c-1.3,1.3-3.2,1.8-4.2,2.3
		c26.9,26.9,52.4,52.4,77.8,77.7C336.5,475.6,352.6,459.5,369,443.1z M179.7,595.3c21.6-0.1,39-17.5,39-39
		c0-21.6-17.8-39.3-39.5-39.2c-21.5,0.1-39,17.7-39,39.2C140.3,577.9,157.9,595.4,179.7,595.3z M490.8,278.4
		c13.3-13.1,26.9-25.9,39.7-39.4c8.5-9,7.4-23.3-1.4-32c-8.8-8.7-23.2-9.7-32.1-1.2c-13.4,12.7-26.2,26-39.2,39.1
		c-0.2,0.2-0.1,0.6-0.1,0.6C468.7,256.5,479.7,267.4,490.8,278.4z"/>
</g>
<g id="Layer_7" class="st0">
	
		<linearGradient id="SVGID_00000049924194191738744740000006921886043141020073_" gradientUnits="userSpaceOnUse" x1="109.3487" y1="355.6412" x2="647.1976" y2="355.6412">
		<stop  offset="0.14" style="stop-color:#BB398A"/>
		<stop  offset="0.83" style="stop-color:#0F1958"/>
	</linearGradient>
	<path style="display:inline;fill:url(#SVGID_00000049924194191738744740000006921886043141020073_);" d="M153.4,239.2
		c-11.7,0-22.5,0-33.3,0c-8.9,0-10.8-1.9-10.8-10.9c0-44.3,0-88.5,0-132.8c0-8.6,1.9-10.5,10.6-10.5c122.8,0,245.6,0,368.4,0
		c8.7,0,10.8,2.1,10.8,10.9c0,44.1,0,88.2,0,132.3c0,8.7-2.2,10.9-10.9,10.9c-9.7,0-19.3,0.1-29,0c-2.9,0-4.2,0.7-4.2,3.9
		c0.1,27.5,0.1,54.9,0.1,82.4c0,0.6,0.2,1.3,0.4,2.4c2.1,0.1,4.2,0.3,6.3,0.4c46.6,0.2,93.3,0.4,139.9,0.6c2,0,4,0.1,6,0.2
		c4.6,0.3,7,2.9,7.1,7.4c0.2,6.5-0.2,13,0.3,19.5c0.2,2.3,1.5,5.1,3.3,6.5c18.9,14.4,28.8,33.1,28.7,57c-0.1,46.1,0,92.2,0,138.3
		c0,32.8-22.7,60.6-54.6,67.2c-31.7,6.5-63.4-10.1-76.5-39.9c-0.6-1.4-1.2-2.7-2.3-5.1c-5.3,5.5-10.3,10.5-15.2,15.6
		c-9.5,10-19.6,19.3-33.2,23.1c-7.1,2-14.6,3.9-22,3.9c-92.8,0.2-185.6,0.1-278.4,0.1c-1.7,0-3.4,0.1-5-0.2c-3.9-0.6-6.2-3-6.5-7
		c-0.1-1.8,0-3.7,0-5.5c0-121.2,0-242.3,0-363.5C153.4,244.2,153.4,242.1,153.4,239.2z M374.4,552.8c-2.7,0-4.7,0-6.7,0
		c-44.8,0-89.6,0-134.4,0c-8,0-10.5-2.3-10.5-10.3c0-67.7,0-135.5,0-203.2c0-8.1,2.1-10,10-10c67.3,0,134.6,0,201.9,0.1
		c4.3,0,5.7-1,5.7-5.5c-0.2-26.1-0.3-52.2-0.1-78.4c0-4.7-1.1-6.2-6-6.2c-86.8,0.2-173.6,0.1-260.4,0.1c-1.8,0-3.5,0-5.3,0
		c0,123.2,0,245.7,0,368.2c77.1,0,153.8,0,231.5,0C383.2,592.9,374.7,575,374.4,552.8z M124.4,224.4c2.1,0,3.7,0,5.3,0
		c116.3,0,232.5,0,348.8,0.1c4.7,0,5.8-1.4,5.8-5.9c-0.2-37.6-0.2-75.2,0-112.8c0-4.8-1.2-6.1-6.1-6.1
		c-116.1,0.1-232.2,0.1-348.3,0.1c-1.8,0-3.6,0-5.6,0C124.4,141.5,124.4,182.5,124.4,224.4z M440.1,344.1c-67.9,0-135.2,0-202.5,0
		c0,64.8,0,129.1,0,193.6c46.4,0,92.4,0,138.8,0c3.8-16.7,14.1-28.8,25.9-40.1c11.5-11,22.6-22.6,34-33.7c2.7-2.6,3.9-5.3,3.9-9.2
		c-0.2-28.9-0.1-57.9-0.1-86.8C440.1,360.1,440.1,352.3,440.1,344.1z M389.3,554c0.8,5.1,1,10.3,2.4,15.2
		c11.6,38.3,59.1,51.2,88,23.4c34.1-32.8,67.5-66.2,100.7-99.8c18.8-19,20.3-48.5,4.7-69.2c-19.9-26.4-57.2-29.8-81-6.7
		c-18.8,18.3-37,37.3-55.6,56c-14.2,14.3-28.5,28.5-42.7,42.7C395.2,526.1,389.6,538.9,389.3,554z M536.3,386.2
		c7.8,1,15.1,1.5,22.2,3c27.6,5.7,50.5,33.4,51.7,61.7c0.9,21-6.2,38.7-21,53.4c-20,20-40.1,39.9-59.9,60.1
		c-1.6,1.6-3.1,4.7-2.6,6.7c6.1,27.3,36.2,45.9,63.7,39.5c25.3-5.9,42.7-27.8,42.6-53.8c-0.1-45.4-0.4-90.8-0.6-136.2
		c0-1.3,0.1-2.7,0-4c-0.6-4.3-0.9-8.6-2.1-12.7c-7.8-26.3-31.8-42.1-58.9-38.4C556.9,367.3,545.1,374.3,536.3,386.2z M455.5,344.1
		c0,33.4,0,66.5,0,100.4c1.8-1.7,3-2.8,4.1-4c10.7-10.7,21.1-21.7,32.3-31.9c6.3-5.8,13.8-10.2,20.7-15.3c1.5-1.1,3.3-2.4,4.1-4
		c12.9-28,45.7-46,79-37.3c1.2,0.3,2.5,0.2,3.8,0.3c0-2.9,0-5.5,0-8.3C551.3,344.1,503.6,344.1,455.5,344.1z"/>
	
		<linearGradient id="SVGID_00000166648933452352098440000005083299764026682283_" gradientUnits="userSpaceOnUse" x1="405.5807" y1="398.6616" x2="434.9733" y2="398.6616">
		<stop  offset="0.14" style="stop-color:#BB398A"/>
		<stop  offset="0.83" style="stop-color:#0F1958"/>
	</linearGradient>
	<path style="display:inline;fill:url(#SVGID_00000166648933452352098440000005083299764026682283_);" d="M435,398.7
		c-9.9,0-19.6,0-29.4,0c0,0,0,0,0-0.1c9.7,0,19.3,0,29,0C434.7,398.6,434.8,398.7,435,398.7z"/>
</g>
<g id="Layer_8" class="st0">
	
		<linearGradient id="SVGID_00000136412306135907966140000017690082201337152923_" gradientUnits="userSpaceOnUse" x1="136.2406" y1="358.7919" x2="624.542" y2="358.7919">
		<stop  offset="0.14" style="stop-color:#679980"/>
		<stop  offset="0.83" style="stop-color:#0F1958"/>
	</linearGradient>
	<path style="display:inline;fill:url(#SVGID_00000136412306135907966140000017690082201337152923_);" d="M485.8,360.2
		c0,51,0,101.2,0,151.6c16.9,0,33.6,0,50.4,0c9.5-26.9,28-40.2,50.4-36.4c22.1,3.8,37.9,21.9,38,43.6c0.1,21.3-15.5,40-36,43.8
		c-18.4,3.4-44.7-5-52.6-36.7c-8.1,0-16.4,0-24.7,0c-10,0-20,0-30,0c-7.5,0-9.6-2.1-9.6-9.4c0-1.2,0-2.3,0-3.5
		c0-48.8,0-97.7,0-146.5c0-2,0-4,0-6.3c-28.1,0-55.9,0-83.9,0c0,61.6,0,123,0,184.8c14,3,25,10.5,31.8,23.3c5.1,9.6,6.2,19.9,4,30.5
		c-4.4,20.4-24,35.2-45.2,34.1c-21.3-1.1-39.1-17.5-41.8-37.7c-2.8-21.1,9-44.1,36.5-50.4c0-61.3,0-122.8,0-184.6
		c-27.7,0-55.4,0-84.1,0c0,2,0,4,0,6.1c0,49.5,0,99,0,148.5c0,9.6-1.4,10.9-11,10.9c-16.5,0.1-33,0.2-49.5,0.2
		c-3.3,0-4.4,1.1-5.3,4.2c-5.4,19.8-23.3,33.4-43.1,33.1c-20.4-0.3-38-14.4-42.7-34.2c-5.5-23.3,8.2-46.2,31.4-52.8
		c22.6-6.4,46.7,6.4,53.5,29.1c1.6,5.4,3.8,6.7,9.1,6.6c14.3-0.4,28.6-0.1,43.2-0.1c0-50.7,0-101,0-152c-1.9,0-3.7,0-5.4,0
		c-11.7,0-23.3,0-35,0c-45.4-0.2-81-30.1-89.2-74.7c-7.6-41.7,18.9-85.4,60-98.3c4.8-1.5,7.1-3.5,8.3-8.7
		c13.2-57.4,64.3-96.6,123-94.3c28.8,1.1,54,11.8,75.7,30.8c1.7,1.4,4.3,2.7,6.4,2.5c35.4-3.4,65,8.3,88.6,34.4
		c6.9,7.7,11.9,17.2,17.3,26.1c1.6,2.7,2.8,4.1,6.3,4.2c45,1.4,83.2,38.2,85.7,82.1c2.7,47.3-28.7,87.7-74.6,94.3
		c-15.7,2.3-31.9,1.1-47.9,1.4C491.4,360.3,488.8,360.2,485.8,360.2z M511.6,183.4c-0.7-1.4-1.3-2.9-2.1-4.3
		c-18.1-33.9-54-52.1-92.7-46.9c-4.7,0.6-7.8-0.6-11.1-3.8c-45.2-43.6-116.9-39.5-157,8.9c-10.9,13.1-18.2,28-22,45.1
		c2.1,0,3.7,0,5.3,0c11.9,0.1,23.5,2.1,34.6,6.7c4.3,1.8,6,5.4,4.7,9.2c-1.4,3.8-5.4,5.4-9.9,3.8c-0.8-0.3-1.5-0.6-2.3-0.9
		c-28.1-9.3-53.9-5-76,14.7c-22,19.6-29.4,44.6-22.9,73.3c7.2,31.7,37,57.4,74.8,57.2c96.8-0.4,193.6-0.1,290.4-0.2
		c5.3,0,10.7-0.4,15.9-1.2c40.5-6.4,69-48.8,59.8-88.8c-10.6-46.3-56.4-70.9-101.1-54.4c-5.1,1.9-8.8,0.7-10.5-3.3
		c-1.7-4,0.1-7.7,5.2-9.6C500.2,186.9,505.8,185.3,511.6,183.4z M608.8,519.3c0-16-12.4-28.5-28.3-28.6
		c-16.1-0.1-28.9,12.6-28.9,28.6c0,16,12.9,28.8,28.9,28.7C596.2,547.9,608.8,535.2,608.8,519.3z M380.3,560.6
		c-15.9,0-28.6,12.7-28.7,28.5c0,15.9,13.1,28.9,29,28.8c15.8-0.1,28.3-12.9,28.3-28.9C408.9,573.1,396.3,560.6,380.3,560.6z
		 M180.3,490.7c-15.9,0.1-28.6,12.9-28.6,28.7c0.1,15.9,13.3,28.8,29.2,28.6c15.7-0.2,28.3-13.1,28.1-29
		C208.9,503,196.3,490.6,180.3,490.7z"/>
	
		<linearGradient id="SVGID_00000168075479030584304990000015044357292002581666_" gradientUnits="userSpaceOnUse" x1="335.6109" y1="231.5261" x2="433.7553" y2="231.5261">
		<stop  offset="0.14" style="stop-color:#679980"/>
		<stop  offset="0.83" style="stop-color:#0F1958"/>
	</linearGradient>
	<path style="display:inline;fill:url(#SVGID_00000168075479030584304990000015044357292002581666_);" d="M378.5,267.7
		c0-28.3,0-55.3,0-82.3c0-7.6,2.2-11,7.1-10.9c4.8,0.1,7,3.5,7,11.1c0,25,0,50,0,75c0,1.8,0,3.6,0,6.2c1.5-0.9,2.6-1.5,3.6-2.2
		c8.4-6.4,16.7-12.8,25-19.1c4.4-3.3,8.4-3.2,11.1,0.1c2.8,3.4,1.9,7.6-2.6,11.1c-13.1,10.1-26.2,20.1-39.2,30.1
		c-3.4,2.6-6.6,2.5-10-0.1c-13.3-10-26.8-19.8-40.1-29.8c-4.8-3.5-5.8-7.4-3.3-11c2.7-3.7,6.8-3.8,11.8-0.1
		C358.4,252.8,367.9,259.9,378.5,267.7z"/>
</g>
<g id="Layer_9" class="st0">
	
		<linearGradient id="SVGID_00000004513532715482443230000006578583760957295782_" gradientUnits="userSpaceOnUse" x1="103.0002" y1="365.614" x2="653.5593" y2="365.614">
		<stop  offset="0.14" style="stop-color:#BB398A"/>
		<stop  offset="0.83" style="stop-color:#0F1958"/>
	</linearGradient>
	<path style="display:inline;fill:url(#SVGID_00000004513532715482443230000006578583760957295782_);" d="M615.1,350.9
		c10.3,0,19.5,0,28.7,0c6.3,0,9.9,2.8,9.8,7.4c-0.1,4.4-3.7,7-9.6,7.1c-11.2,0-22.3,0.1-33.5-0.1c-3,0-4.7,1.1-6.6,3.4
		c-6,7.6-11.9,15.3-18.5,22.2c-66.5,69.7-133.1,139.2-199.7,208.8c-6.4,6.7-9.2,6.7-15.5,0.1C301.7,528.4,233.2,457,165,385.3
		c-7.3-7.7-13.3-16.6-19.3-25.4c-2.4-3.4-4.6-4.9-8.8-4.7c-7.5,0.4-15,0.1-22.5,0.1c-7.7,0-11.4-2.5-11.3-7.4
		c0.1-4.8,3.7-7.1,11.1-7.1c6.7,0,13.3,0,19.7,0c-27.6-81.6-6.2-147.8,66.7-192.5c62.7-38.5,122.8-23.3,177.3,21.7
		c64.2-59,143.1-48.9,192.8-12.1c30.1,22.3,50.7,51.2,59.6,87.8C639,282.4,632.9,317.1,615.1,350.9z M588.3,367
		c-0.4-0.5-0.8-1.1-1.1-1.6c-8,0-15.9,0-23.9,0c-8.7,0-17.4,0.4-26-0.3c-2.4-0.2-5.8-3-6.6-5.3c-0.7-2,1.2-5.5,3-7.5
		c1.1-1.3,4-1.3,6.1-1.3c18.2-0.1,36.3,0,54.5-0.2c1.8,0,4.5-1,5.3-2.4c15.9-27.1,23.4-56.2,18.7-87.6
		c-5.3-36.1-23.2-65.5-51.9-87.6c-39.6-30.5-83.4-39.2-131.2-22c-19.4,7-35.9,18.8-50.7,33c-5.2,5-7.8,4.9-13.2,0.2
		c-3.6-3.2-7.2-6.4-11-9.5c-24.3-19.4-51.6-31.9-83.1-32.7c-42.3-1.1-77.6,15.4-104.8,47.1c-37.5,43.6-46.4,92.7-23.6,146.5
		c1.6,3.7,3.5,5.2,7.7,5.2c27.7-0.2,55.3-0.2,83,0c4.1,0,5.8-1.2,7.1-5c7.6-22.9,15.4-45.7,23.2-68.5c3.9-11.5,7.8-23,11.7-34.5
		c1.2-3.6,3.8-6.2,7.3-5.4c2.6,0.6,4.8,3.4,6.8,5.5c0.8,0.8,0.9,2.5,1.3,3.7c10.3,31.8,20.7,63.6,30.7,95.4c1.4,4.3,3.3,5.6,7.7,5.5
		c13.2-0.3,26.3-0.1,39.5-0.1c7.4,0,8.9,1.2,11,8.2c9.4,30.3,18.8,60.6,28.6,92.2c1.7-5.7,3.1-10.3,4.4-14.9
		c17.4-59.9,34.8-119.8,52.2-179.6c1.2-4.1,2.8-7.7,7.8-7.7c5,0,6.7,3.5,7.7,7.7c2.7,10.6,5.5,21.2,8.3,31.9c1.4,5.3-0.5,9-5,10.2
		c-4,1.1-7.6-1.5-9.1-6.5c-0.7-2.4-1.4-4.9-2.3-8c-0.5,1.2-0.7,1.5-0.8,1.8c-18.4,63.4-36.8,126.8-55.2,190.2
		c-1.2,4.1-3,7.7-7.9,7.7c-4.5,0-6.4-3.4-7.7-7.3c-8.1-26.5-16.3-53.1-24.6-79.6c-3.3-10.6-6.6-21.1-10-31.7
		c-15.7,0-30.9-0.2-46,0.1c-5.6,0.1-8.4-2.3-10.1-7.5c-5-16.2-10.4-32.3-15.6-48.4c-4-12.5-8.1-24.9-12.4-38.3
		c-0.8,2.4-1.3,3.8-1.8,5.2c-9.6,28-19.1,56-28.6,84c-2.5,7.2-3.6,8.1-11.1,8.1c-27,0-54,0-81,0c-1.7,0-3.4,0-5.1,0
		c-0.3,0.6-0.6,1.1-0.9,1.7c34.3,40.1,72.2,76.9,108.4,115.2c36.2,38.4,72.9,76.3,109.6,114.7C448.3,513.3,518.3,440.1,588.3,367z"
		/>
</g>
<g id="Layer_10" class="st0">
	
		<linearGradient id="SVGID_00000137839136199548008410000009900841823312264833_" gradientUnits="userSpaceOnUse" x1="350.1052" y1="468.4053" x2="592.0696" y2="468.4053">
		<stop  offset="0.14" style="stop-color:#679980"/>
		<stop  offset="0.83" style="stop-color:#0F1958"/>
	</linearGradient>
	<path style="display:inline;fill:url(#SVGID_00000137839136199548008410000009900841823312264833_);" d="M372.7,361.3
		c-2.3-10.9-4.5-21.5-6.8-32c-1.1-5.2-2.3-10.4-3.4-15.6c-1.6-7.7-0.1-10.1,7.8-11.8c26.8-5.7,53.7-11.4,80.5-17.1
		c2.3-0.5,4.5-1,6.8-1.5c6.1-1.2,8.8,0.4,10.1,6.5c3.2,14.6,6.3,29.3,9.4,43.9c0.3,1.6,0.8,3.2,1.2,5.1c5.7-1.2,11.2-2.4,16.7-3.6
		c4.4-1,7.3,0.5,9.3,4.5c30.7,61.5,55.2,125.4,71.6,192.2c5.7,23.2,10.5,46.7,15.7,70.1c1.2,5.4-1,8.2-7.3,9.5
		c-20.8,4.4-41.7,8.8-62.5,13.2c-44.2,9.4-88.5,18.9-132.7,28.4c-9.5,2-11.2,1-13.3-8.7c-8.7-39-16.2-78.2-20.5-117.9
		c-5-46.1-6.5-92.4-4.6-138.7c0.2-5.2,0.3-10.3,0.5-15.5c0.2-4.2,2.1-6.9,6.3-7.7C362.5,363.6,367.1,362.5,372.7,361.3z
		 M364.6,376.8c-0.1,1.8-0.2,3.1-0.3,4.4c-1.8,39.7-1.4,79.3,2,118.8c1.6,18.2,4,36.4,6,54.6c0.4,3.7,1.9,5.9,5.5,7.2
		c5.6,2,11,4.8,16.5,7.1c16.5,6.9,31.8,4.5,45.1-7.3c17.4-15.5,36.7-19.7,58.8-12.1c13.9,4.8,26.9,2.4,38.7-6.4
		c6.8-5.1,13.4-10.5,20.3-15.4c2.8-2,3.2-3.8,2.3-7.1c-15.7-58.7-37.4-115.1-64.3-169.5c-0.4-0.7-0.9-1.3-1.4-2
		C450.6,358.4,407.6,367.6,364.6,376.8z M564.4,538.9c-7.3,5.5-13.6,10.6-20.2,15.4c-15.2,11-32,13.9-49.7,8
		c-17.7-6-32.7-2.8-46.7,9.6c-17.5,15.4-37.6,18-59.1,9.1c-4.1-1.7-8.1-3.5-13.4-5.8c4.5,22.2,8.7,43.2,13,64.5
		c63.3-13.5,126-26.9,189.3-40.4C573.3,579.1,568.9,559.4,564.4,538.9z M455.8,297.2c-26.7,5.7-53,11.3-79.5,17
		c3.2,14.8,6.2,29.1,9.4,44.1c26.7-5.7,53-11.3,79.5-16.9C462.1,326.6,459,312.4,455.8,297.2z"/>
	
		<linearGradient id="SVGID_00000162316251864672405160000008340156525635253137_" gradientUnits="userSpaceOnUse" x1="164.1005" y1="272.3793" x2="271.1907" y2="272.3793">
		<stop  offset="0.14" style="stop-color:#679980"/>
		<stop  offset="0.83" style="stop-color:#0F1958"/>
	</linearGradient>
	<path style="display:inline;fill:url(#SVGID_00000162316251864672405160000008340156525635253137_);" d="M182.3,197.6
		c-3.8,0-6.8,0.1-9.8,0c-4.5-0.1-7.3-2.3-7.4-7c-0.4-26.3-1.4-52.6-0.7-78.9c0.7-25.7,23.1-47.5,48.2-48.9
		c28.1-1.5,51.9,16.4,56.7,42.8c0.5,2.6,0.9,5.3,0.9,7.9c0.4,24.3,0.7,48.6,1.1,73c0.1,8-1.5,9.6-9.6,9.8c-2.8,0.1-5.6,0-8.8,0
		c0,2.5,0,4.3,0,6.1c-0.2,34.5,0.3,69-0.8,103.4c-1.1,31.5-6.8,62.5-13.2,93.3c-3.3,15.6-6.5,31.3-9.3,47c-1,5.8-0.7,11.9-0.9,17.9
		c-0.1,4,0.2,8,0,12c-0.2,3.9-2.6,6.2-6.5,6.2c-3.9,0-6.1-2.3-6.7-6.1c-0.1-0.5-0.1-1-0.1-1.5c1.7-20-3.9-38.9-8.7-57.9
		c-9.4-37.1-18.3-74.4-20.9-112.7c-2.2-31.2-2.4-62.5-3.5-93.8C182.2,206.1,182.3,202.2,182.3,197.6z M257.4,183.1
		c0.2-1.3,0.4-1.7,0.4-2.2c-0.2-22-0.2-44-0.8-65.9c-0.6-21.4-17.1-38.2-37.8-39.2c-22.6-1.1-41.9,16.8-41.9,39.5
		c0,22.1,0.6,44.3,0.9,66.4c0,0.6,0.2,1.2,0.3,1.4C205,183.1,231.2,183.1,257.4,183.1z M238.7,196.8c-7.1,0-14.3,0-21.4,0
		c-7.3,0-14.5,0-21.6,0C191,257.6,205,377.4,221,416.7C239.7,344.7,242.9,271.3,238.7,196.8z"/>
</g>
<g id="Layer_11" class="st0">
	
		<linearGradient id="SVGID_00000110468056178119829120000000206158589632636329_" gradientUnits="userSpaceOnUse" x1="258.1718" y1="358.1978" x2="594.9553" y2="358.1978">
		<stop  offset="0.14" style="stop-color:#BB398A"/>
		<stop  offset="0.83" style="stop-color:#0F1958"/>
	</linearGradient>
	<path style="display:inline;fill:url(#SVGID_00000110468056178119829120000000206158589632636329_);" d="M426.5,108.2
		c52.3,0,104.7,0,157,0c9.5,0,11.5,1.9,11.5,11.3c0,16.8,0,33.7,0,50.5c0,7.2-2.4,9.5-9.6,9.6c-3.3,0-6.7,0.3-10-0.1
		c-4.2-0.4-5.8,1-6.3,5.3c-2.6,21.2-5.4,42.3-8.2,63.4c-4.8,36-9.6,72-14.3,107.9c-5,38-10.5,75.9-14.6,114
		c-2,18.6-1.3,37.6-1.6,56.4c-0.2,11.7,0,23.3,0,35c-0.1,25.6-20.9,46.5-46.4,46.6c-37.7,0.1-75.3,0.1-113,0
		c-27.4,0-47.9-20.5-48.1-48.1c-0.2-26,0.9-52-0.4-78c-1-20.1-4.6-40-7.1-60c-4.2-32.7-8.5-65.4-12.8-98.1
		c-4.2-31.7-8.5-63.4-12.6-95.1c-2-14.9-3.9-29.7-5.6-44.6c-0.4-3.5-1.6-5-5.3-4.8c-4.1,0.3-8.3,0.1-12.5,0c-5.3-0.1-8-2.4-8.1-7.4
		c-0.2-18.8-0.1-37.7,0-56.5c0-4.8,2.8-7.1,7.7-7.4c3-0.2,6,0,9,0C325.5,108.2,376,108.2,426.5,108.2z M297.7,179.9
		c-0.1,1.1-0.2,1.6-0.2,2.1c4,30.7,8,61.4,12,92.1c4.3,32.4,8.6,64.7,12.9,97.1c4.2,31.9,8.5,63.7,12.5,95.6c0.5,4.2,2,5.4,6.3,5.4
		c36-0.3,72-0.3,108-0.3c21,0,42,0,63,0.3c4.1,0.1,5.5-1.4,5.9-5.3c1.7-14.9,3.6-29.8,5.6-44.6c5.1-38.5,10.3-76.9,15.4-115.4
		c4.8-36.5,9.5-73,14.3-109.5c0.7-5.7,1.4-11.4,2.1-17.5C469.2,179.9,383.6,179.9,297.7,179.9z M387.3,595c0-17.1,0-32.7,0-48.4
		c0-7.3,2.3-9.8,9.4-9.8c19.8-0.1,39.7-0.1,59.5,0c7.3,0,9.4,2.3,9.5,9.7c0.1,13.8,0,27.7,0,41.5c0,1.9,0,3.9,0,6.4
		c5.6,0,10.6,0,15.6,0c21-0.2,35.1-14.3,35.1-35.3c0-22.3-0.1-44.7,0.1-67c0.1-4.9-1.4-6-6.2-6c-51.3,0.2-102.7,0.1-154,0.1
		c-5.3,0-10.7,0.1-16,0c-2.5,0-3.6,0.7-3.6,3.4c0.1,25.2-0.1,50.3,0.4,75.5c0.3,12.8,11.5,25.5,24.2,27.9
		C369.6,594.6,378.2,594.4,387.3,595z M272.2,165.9c6.9,0,13,0,19.1,0c95,0,190,0,285,0.1c3.9,0,4.8-1.3,4.7-4.9
		c-0.2-10.7-0.1-21.3-0.1-32c0-6.8,0-6.8-6.7-6.8c-98.5,0-197,0-295.5,0c-1.2,0-2.5-0.4-3.5,0.1c-1.2,0.6-3,1.8-3,2.8
		C272.1,138.5,272.2,151.8,272.2,165.9z M452,594.4c0-14,0.1-27.5-0.2-40.9c0-0.9-2.3-2.5-3.6-2.5c-14.3-0.2-28.6-0.1-42.9-0.2
		c-3,0-4.1,0.9-4.1,4c0.1,11.8,0.1,23.6,0,35.4c0,3.4,1.4,4.2,4.5,4.1c8.6-0.1,17.3,0,25.9,0C438.2,594.4,444.8,594.4,452,594.4z"/>
	
		<linearGradient id="SVGID_00000122690754426343586790000005378869428037180588_" gradientUnits="userSpaceOnUse" x1="403.5077" y1="422.7856" x2="449.4549" y2="422.7856">
		<stop  offset="0.14" style="stop-color:#BB398A"/>
		<stop  offset="0.83" style="stop-color:#0F1958"/>
	</linearGradient>
	<path style="display:inline;fill:url(#SVGID_00000122690754426343586790000005378869428037180588_);" d="M426.5,429.5
		c-5.2,0-10.3,0.1-15.5,0c-4.7-0.1-7.8-2.9-7.5-6.9c0.4-4.2,2.9-6.6,7.3-6.6c10.5,0,21-0.1,31.5,0c4.3,0,6.9,2.3,7.2,6.7
		c0.2,4.1-2.7,6.7-7.4,6.8C436.8,429.6,431.7,429.5,426.5,429.5z"/>
</g>
<g id="Layer_12">
	
		<linearGradient id="SVGID_00000177465147197901949650000008800479304271311278_" gradientUnits="userSpaceOnUse" x1="149.7309" y1="358.6052" x2="704.8586" y2="358.6052">
		<stop  offset="0.14" style="stop-color:#679980"/>
		<stop  offset="0.83" style="stop-color:#0F1958"/>
	</linearGradient>
	<path style="fill:url(#SVGID_00000177465147197901949650000008800479304271311278_);" d="M387.4,426.7c-14.7,8.7-28.5,16.9-42.4,25
		c-28.4,16.8-56.7,33.6-85.1,50.3c-19.4,11.4-38.6,6.6-49.9-12.9c-3.9-6.8-8.1-14.2-9.3-21.7c-2.4-15,4.5-26.4,17.5-34.1
		c32.1-19,64.2-37.9,96.3-56.9c2-1.2,4-2.4,6.9-4.1c-2.6-1.2-4.6-2.2-6.6-3c-51.4-22.7-102.9-45.4-154.3-68.1
		c-12.6-5.6-13.3-7.7-6.1-19.6c14.3-23.7,36.1-36.2,62.6-41.3c21.8-4.2,42.6-0.9,62.8,8.1c45,20.1,90.1,39.8,135.1,59.7
		c1.8,0.8,3.6,1.4,6.1,2.4c0-8.4,0.1-16.1-0.1-23.9c0-0.8-1.4-2.1-2.4-2.3c-43.1-10-65.7-35.9-66.9-79c-0.9-33.1,9-63.1,29.7-89.1
		C392,102.9,405.1,93,422.9,91c13.9-1.5,26,3,36.8,11.3c17.5,13.4,28.2,31.7,35.6,52.1c8.3,22.9,11.3,46.5,5.9,71.5
		c11.2-6.6,21.6-12.7,32-18.9c30-17.7,59.9-35.5,89.9-53c2.3-1.4,5.6-2.1,8.2-1.7c1.6,0.2,4,3.4,3.8,4.9c-0.4,2.6-1.9,5.8-4,7.1
		c-12.7,7.9-25.7,15.4-38.6,23c-26.7,15.8-53.3,31.5-80,47.3c-14.2,8.4-19.3,23.1-12.3,38.1c3.9,8.4,9,16.2,13.8,24.6
		c24.7-14.6,48.8-28.9,73-43.2c24.2-14.3,48.4-28.6,73.2-43.3c2.2,3.7,4.4,7.3,6.8,11.5c-48.9,28.9-97.4,57.6-146.2,86.4
		c4.9,8,9.1,16,14.2,23.3c8.5,12.2,25.2,17.4,40.1,8.4c38.4-23.3,77.3-45.9,116-68.7c0.7-0.4,1.4-0.9,2.1-1.3
		c4.5-2.5,8.5-1.9,10.6,1.5c2.1,3.5,0.8,7.3-3.6,9.9c-11.9,7.1-23.8,14.1-35.7,21.1c-27.1,16-54.5,31.4-81.1,48.2
		c-25.3,16-51.5,3.4-62.3-15.8c-3.7-6.5-7.6-12.9-11.7-19.7c-5.6,3.3-11.1,6.4-16.5,9.6c-18.2,10.7-36.4,21.6-54.6,32.2
		c-2.9,1.7-4.2,3.5-4.1,7c0.3,12.8,0.2,25.7,0,38.5c0,3.2,1,4.8,3.9,5.9c6,2.4,11.9,5.1,18.2,7.9c4.4-10,8.7-19.7,13-29.4
		c3.5-7.9,6.9-15.8,10.5-23.7c2.7-6,5.6-7.2,11.4-4.7c49.3,21.7,98.7,43.4,147.9,65.3c17.6,7.8,24.9,27.1,17.4,44.8
		c-1.6,3.7-3.1,7.3-4.8,11c-8.4,18.1-27.3,25.5-45.5,17.5c-43.9-19.2-87.7-38.6-131.5-57.9c-1.9-0.9-3.9-1.6-6.7-2.8
		c0,2.5,0,4.4,0,6.3c0,49.2,0,98.3,0,147.5c0,17.6-10.1,31.7-26.4,34.6c-9,1.6-18.7,1.6-27.7,0c-16.1-2.8-26.4-17-26.4-34.1
		c-0.1-52.7,0-105.3,0-158C387.4,431.4,387.4,429.6,387.4,426.7z M365.2,200.6c0,3.2-0.3,6.4,0,9.5c1.9,18.9,8.4,35.8,23.7,47.9
		c18.8,14.9,40.2,17.4,62.2,8.9c22.7-8.8,34.6-27.1,38-50.5c4.7-32.7-4-62.5-23.4-88.9c-5.1-6.9-12.1-12.9-19.3-17.8
		c-11.9-8-25.1-8-37.2-0.2c-6.6,4.2-12.9,9.6-17.8,15.7C373.7,147.2,365.8,172.7,365.2,200.6z M412.4,321.8c-1.1-0.6-1.8-1-2.5-1.3
		c-46.7-20.6-93.2-41.7-140.3-61.6c-29.7-12.6-58.7-8.9-85.5,9.3c-7.6,5.2-13.7,11.9-18.4,20.4c73.1,32.2,145.7,64.3,218.8,96.5
		C393.9,364,403,343.2,412.4,321.8z M468.6,422.2c2.3,1.1,4,2,5.8,2.8c21.7,9.6,43.5,19.2,65.2,28.8c23.6,10.4,47.1,20.8,70.7,31.2
		c13,5.7,24,1.3,29.8-11.8c1-2.3,2-4.6,3-6.8c6.2-14.1,2.1-24.7-11.9-30.9c-40.1-17.7-80.3-35.4-120.4-53.1c-6.8-3-13.6-5.9-20.7-9
		C482.9,389.7,475.9,405.6,468.6,422.2z M454.4,435.8c-18.2,0-35.6,0-53.4,0c0,2.3,0,4.3,0,6.2c0,30,0,59.9,0,89.9
		c0,20.3-0.1,40.6,0.1,60.9c0.1,11.6,8.7,19.9,20.3,20.3c3.2,0.1,6.3,0,9.5,0c15.5,0,23.5-7.9,23.5-23.2c0-49.6,0-99.2,0-148.8
		C454.4,439.5,454.4,437.9,454.4,435.8z M386,412c-1.8-3.1-3.5-5.4-4.6-8c-2.4-5.5-6.6-8.7-12.2-10.9c-7.8-2.9-15.5-6.1-22.8-10.1
		c-6.9-3.9-12.2-3.1-19,1c-33.7,20.5-67.8,40.3-101.8,60.4c-13,7.7-15.7,18.6-8.1,31.7c1.1,1.9,2.2,3.7,3.3,5.6
		c8.2,13.8,19,16.6,32.8,8.5c31.5-18.6,63-37.3,94.6-55.9C360.7,426.9,373.1,419.5,386,412z M484,260.3
		c-19.1,16.3-19.1,16.3-47.5,24.1c-1,0.3-2.1,2.6-2.2,4c-0.2,11.1-0.1,22.3-0.1,33.4c0,7.2,0,14.5,0,22.6
		c23.3-13.8,45.7-27,68.1-40.3C495.2,289.8,483.8,277.9,484,260.3z M420.6,401.1c0-11.2,0-21.8,0-33.1c-9.3,6.7-21.8,8.9-23.2,22.9
		C404.9,394.2,412.6,397.6,420.6,401.1z M421.7,422c-0.8-2.6-0.9-5.8-2.2-6.5c-6.6-3.4-13.5-6.2-20.5-9.3c1.1,3.3,2.9,6,2.6,8.5
		c-0.3,2.5-2.7,4.8-4.3,7.2C404.8,422,412.5,422,421.7,422z M411.5,357.3c10-4,12.1-9.1,8.5-19.5
		C417.1,344.4,414.4,350.6,411.5,357.3z"/>
</g>
</svg>
