<svg id="Camada_1" data-name="Camada 1" xmlns="http://www.w3.org/2000/svg" xmlns:xlink="http://www.w3.org/1999/xlink" viewBox="0 0 760 760"><defs><style>.cls-1,.cls-2,.cls-3,.cls-4,.cls-5,.cls-6{fill:none;stroke-miterlimit:10;stroke-width:8px;}.cls-1{stroke:url(#Gradiente_sem_nome_6);}.cls-2{stroke:url(#Gradiente_sem_nome_6-2);}.cls-3{stroke:url(#Gradiente_sem_nome_6-3);}.cls-4{stroke:url(#Gradiente_sem_nome_6-4);}.cls-5{stroke:url(#Gradiente_sem_nome_6-5);}.cls-6{stroke:url(#Gradiente_sem_nome_6-6);}</style><linearGradient id="Gradiente_sem_nome_6" x1="455.45" y1="337.74" x2="680.62" y2="337.74" gradientUnits="userSpaceOnUse"><stop offset="0.14" stop-color="#679980"/><stop offset="0.83" stop-color="#0f1958"/></linearGradient><linearGradient id="Gradiente_sem_nome_6-2" x1="545.24" y1="351.62" x2="574.44" y2="351.62" xlink:href="#Gradiente_sem_nome_6"/><linearGradient id="Gradiente_sem_nome_6-3" x1="79.38" y1="303.89" x2="321.5" y2="303.89" xlink:href="#Gradiente_sem_nome_6"/><linearGradient id="Gradiente_sem_nome_6-4" x1="203.5" y1="319.99" x2="236" y2="319.99" xlink:href="#Gradiente_sem_nome_6"/><linearGradient id="Gradiente_sem_nome_6-5" x1="176.14" y1="427.25" x2="568.53" y2="427.25" xlink:href="#Gradiente_sem_nome_6"/><linearGradient id="Gradiente_sem_nome_6-6" x1="351.89" y1="453.3" x2="393.93" y2="453.3" xlink:href="#Gradiente_sem_nome_6"/></defs><path class="cls-1" d="M664,442.43l-106.27,0-67.12,0L476,417.05l-15.9-27.58,33.58-58.11,53.18-92a12.65,12.65,0,0,1,21.9,0l53.09,92.06,53.09,92.05A12.64,12.64,0,0,1,664,442.43Z"/><path class="cls-2" d="M566.13,379.09H553.55l-4.13-94.57h20.84Zm3.45,18.78v20.85H550.11V397.87Z"/><path class="cls-3" d="M316.88,333.83l-48,83.12-4.74,8.2-43,0L98,425.07a14.66,14.66,0,0,1-12.68-22L147,296.52,208.55,190a14.66,14.66,0,0,1,25.38,0l61.48,106.62Z"/><path class="cls-4" d="M227,351.82H212.46l-4.78-109.55h24.14Zm4,21.75v24.14H208.47V373.57Z"/><path class="cls-5" d="M544.06,596.45l-171.74-.08-171.73-.09a20.42,20.42,0,0,1-17.68-30.65l81.2-140.48,4.74-8.2,48-83.12,37.91-65.58a20.44,20.44,0,0,1,35.39,0l69.89,121.19L476,417.05l14.59,25.3,71.22,123.47A20.44,20.44,0,0,1,544.06,596.45Z"/><path class="cls-6" d="M383.07,497.71H362.74l-6.68-152.84h33.69Zm5.57,30.35v33.68H357.18V528.06Z"/></svg>