<svg id="Camada_1" data-name="Camada 1" xmlns="http://www.w3.org/2000/svg" xmlns:xlink="http://www.w3.org/1999/xlink" viewBox="0 0 760 760"><defs><style>.cls-1,.cls-2,.cls-3,.cls-4,.cls-5{fill:none;stroke-miterlimit:10;stroke-width:8px;}.cls-1{stroke:url(#Gradiente_sem_nome_6);}.cls-2{stroke:url(#Gradiente_sem_nome_6-2);}.cls-3{stroke:url(#Gradiente_sem_nome_6-3);}.cls-4{stroke:url(#Gradiente_sem_nome_6-4);}.cls-5{stroke:url(#Gradiente_sem_nome_6-5);}</style><linearGradient id="Gradiente_sem_nome_6" x1="190.03" y1="505.75" x2="550.79" y2="505.75" gradientUnits="userSpaceOnUse"><stop offset="0.14" stop-color="#679980"/><stop offset="0.83" stop-color="#0f1958"/></linearGradient><linearGradient id="Gradiente_sem_nome_6-2" x1="240.21" y1="220.31" x2="501.07" y2="220.31" xlink:href="#Gradiente_sem_nome_6"/><linearGradient id="Gradiente_sem_nome_6-3" x1="337.47" y1="521.21" x2="403.35" y2="521.21" xlink:href="#Gradiente_sem_nome_6"/><linearGradient id="Gradiente_sem_nome_6-4" x1="231.1" y1="346.06" x2="298.02" y2="346.06" xlink:href="#Gradiente_sem_nome_6"/><linearGradient id="Gradiente_sem_nome_6-5" x1="194.03" y1="403.62" x2="546.79" y2="403.62" xlink:href="#Gradiente_sem_nome_6"/></defs><path class="cls-1" d="M534.2,360.81H206.62c-7,0-12.59,4.36-12.59,9.74V641c0,5.38,5.64,9.74,12.59,9.74H534.2c6.95,0,12.59-4.36,12.59-9.74V370.55C546.79,365.17,541.15,360.81,534.2,360.81Z"/><path class="cls-2" d="M456.81,222.29c-.51-41.87-37.16-75.84-82.2-75.84h-8.4c-45.3,0-82.21,34.39-82.21,76.72l.9,108.14H245.1l-.89-108.14c0-62.76,54.75-113.86,122-113.86h8.4c67.25,0,122,51.1,122,113.86l.44,102.29h-39.8l-.44-103.17"/><path class="cls-3" d="M380,501.45a2.88,2.88,0,0,1,1.75-3.18c10.32-4.13,17.58-13.69,17.58-24.83,0-14.91-13-27-28.94-27s-28.94,12.09-28.94,27c0,11.13,7.21,20.7,17.56,24.82a2.87,2.87,0,0,1,1.76,3.2L357,522.13l-12.76,70.43a2.91,2.91,0,0,0,2.86,3.42h46.45a2.9,2.9,0,0,0,2.86-3.42l-12.75-70.43Z"/><rect class="cls-4" x="235.1" y="331.31" width="58.92" height="29.5" rx="2.45"/><line class="cls-5" x1="194.03" y1="403.62" x2="546.79" y2="403.62"/></svg>