<svg id="Camada_1" data-name="Camada 1" xmlns="http://www.w3.org/2000/svg" xmlns:xlink="http://www.w3.org/1999/xlink" viewBox="0 0 760 760"><defs><style>.cls-1,.cls-10,.cls-11,.cls-12,.cls-13,.cls-14,.cls-15,.cls-16,.cls-17,.cls-18,.cls-19,.cls-2,.cls-20,.cls-21,.cls-22,.cls-3,.cls-4,.cls-5,.cls-6,.cls-7,.cls-8,.cls-9{fill:none;stroke-miterlimit:10;stroke-width:8px;}.cls-1{stroke:url(#Gradiente_sem_nome_6);}.cls-2{stroke:url(#Gradiente_sem_nome_6-2);}.cls-3{stroke:url(#Gradiente_sem_nome_6-3);}.cls-4{stroke:url(#Gradiente_sem_nome_6-4);}.cls-5{stroke:url(#Gradiente_sem_nome_6-5);}.cls-6{stroke:url(#Gradiente_sem_nome_6-6);}.cls-7{stroke:url(#Gradiente_sem_nome_6-7);}.cls-8{stroke:url(#Gradiente_sem_nome_6-8);}.cls-9{stroke:url(#Gradiente_sem_nome_6-9);}.cls-10{stroke:url(#Gradiente_sem_nome_6-10);}.cls-11{stroke:url(#Gradiente_sem_nome_6-11);}.cls-12{stroke:url(#Gradiente_sem_nome_6-12);}.cls-13{stroke:url(#Gradiente_sem_nome_6-13);}.cls-14{stroke:url(#Gradiente_sem_nome_6-14);}.cls-15{stroke:url(#Gradiente_sem_nome_6-15);}.cls-16{stroke:url(#Gradiente_sem_nome_6-16);}.cls-17{stroke:url(#Gradiente_sem_nome_6-17);}.cls-18{stroke:url(#Gradiente_sem_nome_6-18);}.cls-19{stroke:url(#Gradiente_sem_nome_6-22);}.cls-20{stroke:url(#Gradiente_sem_nome_6-23);}.cls-21{stroke:url(#Gradiente_sem_nome_6-25);}.cls-22{stroke:url(#Gradiente_sem_nome_6-26);}</style><linearGradient id="Gradiente_sem_nome_6" x1="223.3" y1="443.41" x2="231.37" y2="443.41" gradientUnits="userSpaceOnUse"><stop offset="0.14" stop-color="#679980"/><stop offset="0.83" stop-color="#0f1958"/></linearGradient><linearGradient id="Gradiente_sem_nome_6-2" x1="293.8" y1="516.96" x2="685.94" y2="516.96" xlink:href="#Gradiente_sem_nome_6"/><linearGradient id="Gradiente_sem_nome_6-3" x1="280.53" y1="450.69" x2="685.94" y2="450.69" xlink:href="#Gradiente_sem_nome_6"/><linearGradient id="Gradiente_sem_nome_6-4" x1="291.28" y1="446.32" x2="659.39" y2="446.32" xlink:href="#Gradiente_sem_nome_6"/><linearGradient id="Gradiente_sem_nome_6-5" x1="286.21" y1="359.22" x2="685.94" y2="359.22" xlink:href="#Gradiente_sem_nome_6"/><linearGradient id="Gradiente_sem_nome_6-6" x1="338.58" y1="371.53" x2="422.94" y2="371.53" xlink:href="#Gradiente_sem_nome_6"/><linearGradient id="Gradiente_sem_nome_6-7" x1="557.92" y1="367.54" x2="579.06" y2="367.54" xlink:href="#Gradiente_sem_nome_6"/><linearGradient id="Gradiente_sem_nome_6-8" x1="621" y1="359.54" x2="640.72" y2="359.54" xlink:href="#Gradiente_sem_nome_6"/><linearGradient id="Gradiente_sem_nome_6-9" x1="371.71" y1="295.04" x2="685.94" y2="295.04" xlink:href="#Gradiente_sem_nome_6"/><linearGradient id="Gradiente_sem_nome_6-10" x1="383.53" y1="290.92" x2="659.39" y2="290.92" xlink:href="#Gradiente_sem_nome_6"/><linearGradient id="Gradiente_sem_nome_6-11" x1="223.3" y1="210.15" x2="685.94" y2="210.15" xlink:href="#Gradiente_sem_nome_6"/><linearGradient id="Gradiente_sem_nome_6-12" x1="223.3" y1="137.5" x2="685.94" y2="137.5" xlink:href="#Gradiente_sem_nome_6"/><linearGradient id="Gradiente_sem_nome_6-13" x1="244.11" y1="135.4" x2="659.39" y2="135.4" xlink:href="#Gradiente_sem_nome_6"/><linearGradient id="Gradiente_sem_nome_6-14" x1="431.14" y1="228.46" x2="460.14" y2="228.46" xlink:href="#Gradiente_sem_nome_6"/><linearGradient id="Gradiente_sem_nome_6-15" x1="331.23" y1="523.59" x2="352.06" y2="523.59" xlink:href="#Gradiente_sem_nome_6"/><linearGradient id="Gradiente_sem_nome_6-16" x1="485.96" y1="515.42" x2="684.48" y2="515.42" xlink:href="#Gradiente_sem_nome_6"/><linearGradient id="Gradiente_sem_nome_6-17" x1="431.14" y1="529.57" x2="460.14" y2="529.57" xlink:href="#Gradiente_sem_nome_6"/><linearGradient id="Gradiente_sem_nome_6-18" x1="2376.28" y1="348.65" x2="2386.14" y2="348.65" gradientTransform="matrix(-1, 0, 0, 1, 3054.77, 0)" xlink:href="#Gradiente_sem_nome_6"/><linearGradient id="Gradiente_sem_nome_6-22" x1="2577.16" y1="372.69" x2="2606.17" y2="372.69" gradientTransform="matrix(-1, 0, 0, 1, 3054.77, 0)" xlink:href="#Gradiente_sem_nome_6"/><linearGradient id="Gradiente_sem_nome_6-23" x1="104.7" y1="453.2" x2="405.98" y2="453.2" xlink:href="#Gradiente_sem_nome_6"/><linearGradient id="Gradiente_sem_nome_6-25" x1="104.7" y1="222.29" x2="405.98" y2="222.29" xlink:href="#Gradiente_sem_nome_6"/><linearGradient id="Gradiente_sem_nome_6-26" x1="191.92" y1="473.86" x2="310.44" y2="473.86" xlink:href="#Gradiente_sem_nome_6"/></defs><path class="cls-1" d="M227.35,443.43a8.69,8.69,0,0,0,0,.89V442.5C227.3,442.81,227.32,443.12,227.35,443.43Z"/><path class="cls-2" d="M681.94,442.5V544.78c0,23.55-101.77,42.65-227.32,42.65-20.28,0-39.95-.5-58.66-1.44a78.79,78.79,0,0,0-15.19-23.5l-34-39.09h0l-6-6.95-36-41.42-.46-.52c33.67,5.58,76.22,9.31,123.15,10.36l.72,0q4.47.11,9,.16,4.33.06,8.7.09t8.79,0q4.41,0,8.79,0c2.91,0,5.82-.05,8.7-.09q5.5-.07,10.93-.2l5.16-.13h.08c108-3,191.21-20.29,193.61-41.28C681.92,443.12,681.94,442.81,681.94,442.5Z"/><path class="cls-3" d="M681.94,444.32c0,20.17-81.46,36.94-188.54,40.24h-.08l-5,.15h-.08l-5.16.13q-5.43.12-10.93.2c-2.88,0-5.79.07-8.7.09s-5.85,0-8.79,0-5.87,0-8.79,0-5.81-.05-8.7-.09-6-.09-9-.16l-.72,0c-46.72-1-89.09-4.54-122.69-9.84l-.46-.52-8.5-9.78a33.84,33.84,0,0,1-3.75-3.83,32.59,32.59,0,0,1-3.32-36.69h0a31.58,31.58,0,0,1,2.5-3.81l2.95-3.13c5.76,1.08,11.84,2.1,18.19,3.05,38.95,5.87,88.43,9.39,142.29,9.39,52.59,0,101-3.35,139.5-9,9.23-1.35,17.89-2.83,25.9-4.42,37.34,7.11,60.61,16.63,61.87,27.13A8.69,8.69,0,0,1,681.94,444.32Z"/><path class="cls-4" d="M312.33,420.3c38.95,5.87,88.43,9.39,142.29,9.39,52.59,0,101-3.35,139.5-9,37.81,5.46,61.27,13.07,61.27,21.5,0,16.62-91.17,30.09-203.64,30.09-64.75,0-122.44-4.46-159.74-11.42"/><path class="cls-5" d="M681.89,285.69c-2.4,21-85.62,38.25-193.61,41.28h-.08l-5.16.13q-5.43.12-10.93.2c-2.88,0-5.79.07-8.7.09s-5.85,0-8.79,0-5.87,0-8.79,0-5.81-.05-8.7-.09c-19.52-.28-38.36-1-56.19-2.17l-.09.09L346.67,361.5l-7.75,8.23,83.85,3.6s-39.56.14-83.85-3.6L296.23,415l-2.09,2.22c5.76,1.08,11.84,2.1,18.19,3.05,38.95,5.87,88.43,9.39,142.29,9.39,52.59,0,101-3.35,139.5-9,9.23-1.35,17.89-2.83,25.9-4.42,38.39-7.64,61.92-17.94,61.92-29.26V284.76C681.94,285.07,681.92,285.38,681.89,285.69Zm-113.4,73.86c3.63,0,6.57,3.57,6.57,8s-2.94,8-6.57,8-6.57-3.58-6.57-8S564.86,359.55,568.49,359.55Zm62.37,8c-3.24,0-5.86-3.58-5.86-8s2.62-8,5.86-8,5.86,3.58,5.86,8S634.1,367.54,630.86,367.54Z"/><path class="cls-6" d="M338.92,369.73l83.85,3.6S383.21,373.47,338.92,369.73Z"/><path class="cls-7" d="M575.06,367.54c0,4.41-2.94,8-6.57,8s-6.57-3.58-6.57-8,2.94-8,6.57-8S575.06,363.12,575.06,367.54Z"/><path class="cls-8" d="M636.72,359.55c0,4.41-2.62,8-5.86,8s-5.86-3.58-5.86-8,2.62-8,5.86-8S636.72,355.13,636.72,359.55Z"/><path class="cls-9" d="M681.94,286.58c0,20.49-84.07,37.47-193.66,40.39h-.08l-5.16.13q-5.43.12-10.93.2c-2.88,0-5.79.07-8.7.09s-5.85,0-8.79,0-5.87,0-8.79,0-5.81-.05-8.7-.09c-19.55-.27-38.42-1-56.28-2.08l.09-.09,5-5.32a75.25,75.25,0,0,0,4.52-6.63,78.45,78.45,0,0,0,11.18-33.73c17,.76,34.73,1.16,53,1.16,64.79,0,123.25-5.08,164.65-13.24,7.26-1.43,14-3,20.16-4.57,25.86,6.47,41.44,14.35,42.46,22.89A8.69,8.69,0,0,1,681.94,286.58Z"/><path class="cls-10" d="M655.39,284.48c0,16.62-91.17,30.09-203.64,30.09-21.35,0-41.94-.49-61.28-1.39a78.45,78.45,0,0,0,11.18-33.73c17,.76,34.73,1.16,53,1.16,64.79,0,123.25-5.08,164.65-13.24C642.05,272.23,655.39,278.12,655.39,284.48Z"/><path class="cls-11" d="M486,229.1s158.16.57,196-30.47V238c0,9.27-15.75,17.85-42.51,24.84-6.16,1.61-12.9,3.14-20.16,4.57-41.4,8.16-99.86,13.24-164.65,13.24-18.24,0-36-.4-53-1.16q.33-3.57.33-7.19v-50h0c0-.1,0-.2,0-.3,0-12-65.65-21.66-146.64-21.66q-11.16,0-21.88.24l-6.16.16v-65c0,.31,0,.62,0,.93v0c2.53,21.33,88.46,38.79,199,41.37,3.57.09,7.16.15,10.78.2q4.33.06,8.7.09t8.79,0q4.41,0,8.79,0l4.36,0,4.34-.05c3.62-.05,7.21-.11,10.78-.2,110.55-2.58,196.47-20,199-41.37v0c0-.31.05-.62.05-.93v62.94"/><path class="cls-12" d="M681.89,136.65v0c-2.61-22.15-103.36-40-227.27-40s-224.66,17.81-227.27,40v0a8.08,8.08,0,0,0,0,.85c0,20.84,86.85,38,199.05,40.52,3.57.09,7.16.15,10.78.2q4.33.06,8.7.09t8.79,0q4.41,0,8.79,0l4.36,0,4.34-.05c3.62-.05,7.21-.11,10.78-.2,112.21-2.49,199.05-19.68,199.05-40.52A8.08,8.08,0,0,0,681.89,136.65ZM451.75,165.49c-112.47,0-203.64-13.47-203.64-30.08s91.17-30.09,203.64-30.09,203.64,13.47,203.64,30.09S564.22,165.49,451.75,165.49Z"/><path class="cls-13" d="M655.39,135.41c0,16.61-91.17,30.08-203.64,30.08S248.11,152,248.11,135.41s91.17-30.09,203.64-30.09S655.39,118.79,655.39,135.41Z"/><line class="cls-14" x1="460.14" y1="228.46" x2="431.14" y2="228.46"/><path class="cls-15" d="M346.77,523.39l-6-6.95C343.86,516.71,346.38,519.65,346.77,523.39Z"/><path class="cls-16" d="M486,530.2s158.16.57,196-30.47"/><line class="cls-17" x1="460.14" y1="529.57" x2="431.14" y2="529.57"/><path class="cls-18" d="M678.49,340.66c-3.24,0-5.86,3.58-5.86,8s2.62,8,5.86,8"/><path class="cls-8" d="M636.72,359.55c0,4.41-2.62,8-5.86,8s-5.86-3.58-5.86-8,2.62-8,5.86-8S636.72,355.13,636.72,359.55Z"/><path class="cls-7" d="M575.06,367.54c0,4.41-2.94,8-6.57,8s-6.57-3.58-6.57-8,2.94-8,6.57-8S575.06,363.12,575.06,367.54Z"/><path class="cls-6" d="M422.77,373.33s-39.56.14-83.85-3.6Z"/><line class="cls-19" x1="448.61" y1="372.69" x2="477.61" y2="372.69"/><path class="cls-20" d="M402,222.28c-1.09,11.83-66.32,21.36-146.63,21.36-9,0-17.76-.12-26.28-.35C160.61,241.47,108.7,232.62,108.7,222v50a78.52,78.52,0,0,0,16,47.55l94.76,100.57a32.58,32.58,0,0,1-4.57,44.34l-85,97.77a78.51,78.51,0,0,0-21.21,53.67v46.31h0c0,.1,0,.2,0,.3,0,12,65.65,21.66,146.64,21.66S402,674.43,402,662.47V616.16a78.4,78.4,0,0,0-21.21-53.67l-34-39.09h0l-6-6.95-36-41.42-.46-.52-8.5-9.78a33.84,33.84,0,0,1-3.75-3.83,32.59,32.59,0,0,1-3.32-36.69h0a31.58,31.58,0,0,1,2.5-3.81l2.95-3.13,2.09-2.22,42.69-45.3,7.75-8.23,34.18-36.28.09-.09,5-5.32a75.25,75.25,0,0,0,4.52-6.63,78.45,78.45,0,0,0,11.18-33.73q.33-3.57.33-7.19v-50ZM305.74,385.73c-2.08,4.26-5.12,4.71-14.17,7.6l-.21.06a29.81,29.81,0,0,0-19.79,18.94,29.45,29.45,0,0,0-1.19,4.59q-.31,1.81-.6,3.63c-.35,2.15-.68,4.31-1,6.46-.1.69-.2,1.38-.29,2.08-1.11,7.93-2,16.46-2.8,25.38q-.49,5.67-.9,11.52c0,.26,0,.53-.05.8-2.24,32.89-2.41,73.32-1.46,104.72,7.29-.12,9.41.2,15.54.31,44,1.32,80.35,6.31,97.12,13,6.44,2.57,10,5.38,10,8.33a4,4,0,0,1-.41,1.72h0c-.94,11.83-59.05,21.37-130.6,21.37-72.14,0-130.61-9.7-130.61-21.66a3.91,3.91,0,0,1,.42-1.74c.91-11.33,54.24-20.55,121.58-21.31q-.12-4.8-.24-9.74c-.9-33.78-2.52-72.34-3.79-102.84,0-.4,0-.8-.05-1.19q-.15-3.66-.3-7.16c-.28-6.69-.6-13.55-1.86-19.81a47.6,47.6,0,0,0-1.32-5.23c-.24-.77-.51-1.63-.8-2.58-5.28-17.48-18-35.76-35-42.48a15.35,15.35,0,0,1-5.06-2.91,6.26,6.26,0,0,1-2-4.77,10.42,10.42,0,0,1,1.39-5.21c.68-1.17,1.1-1,4.67-4.61,3.31-3.35,13.88-5.68,15-5.76a27.71,27.71,0,0,1,10.33.9c5,1.44,8.32,4,16.67,4.38,11.12.57,13.85,6.94,23.35,11.09a15.13,15.13,0,0,0,6,1.22c8.59.07,11.9.06,20.46.75,2,.16,7,.61,8.91,1.9C304.26,378.54,308,381.1,305.74,385.73ZM227.3,444.32V442.5c0,.31,0,.62,0,.93A8.69,8.69,0,0,0,227.3,444.32Z"/><path class="cls-1" d="M227.35,443.43a8.69,8.69,0,0,0,0,.89V442.5C227.3,442.81,227.32,443.12,227.35,443.43Z"/><path class="cls-21" d="M402,222.29c0,.1,0,.2,0,.3C400.88,234.42,335.65,244,255.34,244c-9,0-17.76-.12-26.28-.35-68.45-1.82-120.36-10.67-120.36-21.31,0-10.32,48.91-19,114.38-21.13l4.22-.13,6.16-.16q10.71-.24,21.88-.24C336.33,200.63,402,210.33,402,222.29Z"/><path class="cls-22" d="M246.71,594.57c-.07-6.75-.18-14-.35-21.61l0-1.44q-.12-4.8-.24-9.74c-.9-33.78-2.52-72.34-3.79-102.84,0-.4,0-.8-.05-1.19q-.15-3.66-.3-7.16c-.28-6.69-.6-13.55-1.86-19.81a47.6,47.6,0,0,0-1.32-5.23c-.24-.77-.51-1.63-.8-2.58-5.28-17.48-18-35.76-35-42.48a15.35,15.35,0,0,1-5.06-2.91,6.26,6.26,0,0,1-2-4.77,10.42,10.42,0,0,1,1.39-5.21c.68-1.17,1.1-1,4.67-4.61,3.31-3.35,13.88-5.68,15-5.76a27.71,27.71,0,0,1,10.33.9c5,1.44,8.32,4,16.67,4.38,11.12.57,13.85,6.94,23.35,11.09a15.13,15.13,0,0,0,6,1.22c8.59.07,11.9.06,20.46.75,2,.16,7,.61,8.91,1.9,1.56,1.07,5.29,3.63,3,8.26-2.08,4.26-5.12,4.71-14.17,7.6l-.21.06a29.81,29.81,0,0,0-19.79,18.94,29.45,29.45,0,0,0-1.19,4.59q-.31,1.81-.6,3.63c-.35,2.15-.68,4.31-1,6.46-.1.69-.2,1.38-.29,2.08-1.11,7.93-2,16.46-2.8,25.38q-.49,5.67-.9,11.52c0,.26,0,.53-.05.8-2.24,32.89-2.54,69.6-1.59,101,0,1.25.09,2.49.13,3.72,0,.49,0,1,0,1.45.18,5,.39,9.83.63,14.47"/></svg>