<svg id="Camada_1" data-name="Camada 1" xmlns="http://www.w3.org/2000/svg" xmlns:xlink="http://www.w3.org/1999/xlink" viewBox="0 0 760 760"><defs><style>.cls-1,.cls-10,.cls-12,.cls-13,.cls-2,.cls-3,.cls-4,.cls-5,.cls-6,.cls-7,.cls-8,.cls-9{fill:none;}.cls-1,.cls-10,.cls-11,.cls-12,.cls-13,.cls-2,.cls-3,.cls-4,.cls-5,.cls-6,.cls-7,.cls-8,.cls-9{stroke-miterlimit:10;stroke-width:8px;}.cls-1{stroke:url(#Gradiente_sem_nome_6);}.cls-2{stroke:url(#Gradiente_sem_nome_6-2);}.cls-3{stroke:url(#Gradiente_sem_nome_6-3);}.cls-4{stroke:url(#Gradiente_sem_nome_6-4);}.cls-5{stroke:url(#Gradiente_sem_nome_6-5);}.cls-6{stroke:url(#Gradiente_sem_nome_6-6);}.cls-7{stroke:url(#Gradiente_sem_nome_6-7);}.cls-8{stroke:url(#Gradiente_sem_nome_6-8);}.cls-9{stroke:url(#Gradiente_sem_nome_6-9);}.cls-10{stroke:url(#Gradiente_sem_nome_6-10);}.cls-11{stroke-linecap:round;fill:url(#linear-gradient);stroke:url(#linear-gradient-2);}.cls-12{stroke:url(#Gradiente_sem_nome_6-11);}.cls-13{stroke:url(#Gradiente_sem_nome_6-12);}</style><linearGradient id="Gradiente_sem_nome_6" x1="8.97" y1="380" x2="751.03" y2="380" gradientUnits="userSpaceOnUse"><stop offset="0.14" stop-color="#679980"/><stop offset="0.83" stop-color="#0f1958"/></linearGradient><linearGradient id="Gradiente_sem_nome_6-2" x1="227.36" y1="364.49" x2="562.42" y2="364.49" xlink:href="#Gradiente_sem_nome_6"/><linearGradient id="Gradiente_sem_nome_6-3" x1="212.14" x2="543.1" xlink:href="#Gradiente_sem_nome_6"/><linearGradient id="Gradiente_sem_nome_6-4" x1="194.44" y1="393.9" x2="524.12" y2="393.9" xlink:href="#Gradiente_sem_nome_6"/><linearGradient id="Gradiente_sem_nome_6-5" x1="198.44" y1="581.6" x2="255.29" y2="581.6" xlink:href="#Gradiente_sem_nome_6"/><linearGradient id="Gradiente_sem_nome_6-6" x1="272.43" y1="345.7" x2="462.17" y2="345.7" xlink:href="#Gradiente_sem_nome_6"/><linearGradient id="Gradiente_sem_nome_6-7" x1="320.28" y1="486.99" x2="414.32" y2="486.99" xlink:href="#Gradiente_sem_nome_6"/><linearGradient id="Gradiente_sem_nome_6-8" x1="325.68" y1="463.85" x2="368.93" y2="463.85" xlink:href="#Gradiente_sem_nome_6"/><linearGradient id="Gradiente_sem_nome_6-9" x1="326.24" y1="490.37" x2="352.74" y2="490.37" xlink:href="#Gradiente_sem_nome_6"/><linearGradient id="Gradiente_sem_nome_6-10" x1="326.54" y1="476.49" x2="341.75" y2="476.49" xlink:href="#Gradiente_sem_nome_6"/><linearGradient id="linear-gradient" x1="365.67" y1="478.09" x2="408.16" y2="478.09" gradientUnits="userSpaceOnUse"><stop offset="0.32" stop-color="#0f1958"/><stop offset="0.89" stop-color="#679980"/></linearGradient><linearGradient id="linear-gradient-2" x1="7234.24" y1="478.09" x2="7284.73" y2="478.09" gradientTransform="matrix(-1, 0, 0, 1, 7646.4, 0)" gradientUnits="userSpaceOnUse"><stop offset="0.5" stop-color="#0f1958"/><stop offset="0.8" stop-color="#679980"/></linearGradient><linearGradient id="Gradiente_sem_nome_6-11" x1="7237.02" y1="463.82" x2="7263.51" y2="463.82" gradientTransform="matrix(-1, 0, 0, 1, 7646.4, 0)" xlink:href="#Gradiente_sem_nome_6"/><linearGradient id="Gradiente_sem_nome_6-12" x1="7240.65" y1="491.19" x2="7255.86" y2="491.19" gradientTransform="matrix(-1, 0, 0, 1, 7646.4, 0)" xlink:href="#Gradiente_sem_nome_6"/></defs><circle class="cls-1" cx="380" cy="380" r="367.03"/><path class="cls-2" d="M231.36,159.2V151a8.76,8.76,0,0,1,8.77-8.76H549.65a8.77,8.77,0,0,1,8.77,8.76V578a8.77,8.77,0,0,1-8.77,8.77h-7.71"/><path class="cls-3" d="M216.14,174.71v-8.25a8.7,8.7,0,0,1,8.66-8.76H530.44a8.71,8.71,0,0,1,8.66,8.76V593.54a8.71,8.71,0,0,1-8.66,8.76h-7.61"/><path class="cls-4" d="M252.11,612.8h258.5a9.51,9.51,0,0,0,9.51-9.5V184.5a9.51,9.51,0,0,0-9.51-9.51H207.94a9.5,9.5,0,0,0-9.5,9.51V554.4Z"/><path class="cls-5" d="M198.44,554.4h43.27a9.58,9.58,0,0,1,9.58,9.58V612.8"/><path class="cls-6" d="M458.17,334.06a91,91,0,0,1-27.69,65.48c-1.14,1.11-2.31,2.19-3.51,3.22-1.06.86-2.21,1.8-3.39,2.83-8.93,7.83-20.37,20.83-21.34,36.79a36.7,36.7,0,0,0,0,4.8l-5.58.38a427.35,427.35,0,0,1-58.8,0l-5.58-.38a35,35,0,0,0,0-4.8c-1-16-12.4-29-21.33-36.79-1.18-1-2.32-2-3.39-2.83-1.21-1-2.38-2.11-3.51-3.22a91.26,91.26,0,0,1,62.8-156.73h.76A91.26,91.26,0,0,1,458.17,334.06Z"/><path class="cls-7" d="M410.32,469.13A10.16,10.16,0,0,1,407.8,476a5.73,5.73,0,0,1,.39.45,10.73,10.73,0,0,1-.19,13.08l.19.23a10.31,10.31,0,0,1,2.13,6.43c0,4.34-2.44,8-5.71,8.91-.38,6.28-4.64,21.39-36.75,21.73h-1.12c-32.11-.34-36.37-15.45-36.75-21.73a7.1,7.1,0,0,1-3.55-2.44,10.36,10.36,0,0,1-2.16-6.47,10.22,10.22,0,0,1,2.32-6.66l-.16-.18a10.38,10.38,0,0,1-2.16-6.47A10.13,10.13,0,0,1,326.8,476c-.13-.13-.24-.27-.36-.41a10.77,10.77,0,0,1,0-12.9,10.26,10.26,0,0,1-2.13-6.42c0-5,3.25-9.08,7.29-9.15h.19l.56,0,5.58.38a427.35,427.35,0,0,0,58.8,0l5.58-.38.56,0H403a6.8,6.8,0,0,1,5.16,2.72,10.76,10.76,0,0,1,0,12.85A10.33,10.33,0,0,1,410.32,469.13Z"/><path class="cls-8" d="M326.41,462.7s12.71,2.35,42.5,2.22"/><path class="cls-9" d="M326.6,489.54s16.29,1.47,26.06,1.65"/><line class="cls-10" x1="326.8" y1="476.01" x2="341.5" y2="476.96"/><path class="cls-11" d="M408.16,477s-12.71,2.35-42.49,2.21"/><path class="cls-12" d="M409,463s-16.29,1.46-26.07,1.64"/><line class="cls-13" x1="405.49" y1="490.71" x2="390.8" y2="491.66"/></svg>