<svg id="Camada_1" data-name="Camada 1" xmlns="http://www.w3.org/2000/svg" xmlns:xlink="http://www.w3.org/1999/xlink" viewBox="0 0 760 760"><defs><style>.cls-1,.cls-2,.cls-3,.cls-4,.cls-5,.cls-6{fill:none;stroke-miterlimit:10;stroke-width:8px;}.cls-1{stroke:url(#Gradiente_sem_nome_6);}.cls-2{stroke:url(#Gradiente_sem_nome_6-2);}.cls-3{stroke:url(#Gradiente_sem_nome_6-3);}.cls-4{stroke:url(#Gradiente_sem_nome_6-4);}.cls-5{stroke:url(#Gradiente_sem_nome_6-5);}.cls-6{stroke:url(#Gradiente_sem_nome_6-6);}</style><linearGradient id="Gradiente_sem_nome_6" x1="160.01" y1="530" x2="260.33" y2="530" gradientUnits="userSpaceOnUse"><stop offset="0.14" stop-color="#679980"/><stop offset="0.83" stop-color="#0f1958"/></linearGradient><linearGradient id="Gradiente_sem_nome_6-2" x1="269.48" y1="493" x2="369.79" y2="493" xlink:href="#Gradiente_sem_nome_6"/><linearGradient id="Gradiente_sem_nome_6-3" x1="377.11" y1="449.69" x2="477.43" y2="449.69" xlink:href="#Gradiente_sem_nome_6"/><linearGradient id="Gradiente_sem_nome_6-4" x1="484.38" y1="397.08" x2="584.69" y2="397.08" xlink:href="#Gradiente_sem_nome_6"/><linearGradient id="Gradiente_sem_nome_6-5" x1="87.41" y1="615.91" x2="687.59" y2="615.91" xlink:href="#Gradiente_sem_nome_6"/><linearGradient id="Gradiente_sem_nome_6-6" x1="8877.01" y1="4194.13" x2="9158.32" y2="4194.13" gradientTransform="translate(9876.63 -2228.66) rotate(140.29)" xlink:href="#Gradiente_sem_nome_6"/></defs><path class="cls-1" d="M176.09,444.08h68.16a12.07,12.07,0,0,1,12.07,12.07V615.91a0,0,0,0,1,0,0H164a0,0,0,0,1,0,0V456.16A12.07,12.07,0,0,1,176.09,444.08Z"/><path class="cls-2" d="M285,370.1h69.19a11.56,11.56,0,0,1,11.56,11.56V615.91a0,0,0,0,1,0,0H273.48a0,0,0,0,1,0,0V381.66A11.56,11.56,0,0,1,285,370.1Z"/><path class="cls-3" d="M393.19,283.46h68.16a12.07,12.07,0,0,1,12.07,12.07V615.91a0,0,0,0,1,0,0H381.11a0,0,0,0,1,0,0V295.54A12.07,12.07,0,0,1,393.19,283.46Z"/><path class="cls-4" d="M500.45,178.24h68.16a12.07,12.07,0,0,1,12.07,12.07v425.6a0,0,0,0,1,0,0H488.38a0,0,0,0,1,0,0V190.31A12.07,12.07,0,0,1,500.45,178.24Z"/><line class="cls-5" x1="87.41" y1="615.91" x2="687.59" y2="615.91"/><path class="cls-6" d="M362,217.71a3.64,3.64,0,0,1,3.69,4.45l-13.6,59.77-13,57.21a3.64,3.64,0,0,1-6.35,1.52l-25.93-31.21a3.63,3.63,0,0,0-5.12-.48L175.89,413.46a3.63,3.63,0,0,1-5.12-.48l-33.22-40a3.65,3.65,0,0,1,.48-5.13l125.8-104.48a3.64,3.64,0,0,0,.47-5.13l-24.83-29.9a3.64,3.64,0,0,1,2.66-6l58.63-2.29Z"/></svg>