<svg id="Camada_1" data-name="Camada 1" xmlns="http://www.w3.org/2000/svg" xmlns:xlink="http://www.w3.org/1999/xlink" viewBox="0 0 760 760"><defs><style>.cls-1,.cls-2,.cls-3,.cls-4,.cls-5,.cls-6{fill:none;stroke-miterlimit:10;stroke-width:8px;}.cls-1{stroke:url(#Gradiente_sem_nome_6);}.cls-2{stroke:url(#Gradiente_sem_nome_6-2);}.cls-3{stroke:url(#Gradiente_sem_nome_6-3);}.cls-4{stroke:url(#Gradiente_sem_nome_6-4);}.cls-5{stroke:url(#Gradiente_sem_nome_6-5);}.cls-6{stroke:url(#Gradiente_sem_nome_6-6);}</style><linearGradient id="Gradiente_sem_nome_6" x1="133.44" y1="237.54" x2="260.03" y2="237.54" gradientUnits="userSpaceOnUse"><stop offset="0.14" stop-color="#679980"/><stop offset="0.83" stop-color="#0f1958"/></linearGradient><linearGradient id="Gradiente_sem_nome_6-2" x1="318.69" y1="237.54" x2="445.29" y2="237.54" xlink:href="#Gradiente_sem_nome_6"/><linearGradient id="Gradiente_sem_nome_6-3" x1="503.95" y1="237.54" x2="630.55" y2="237.54" xlink:href="#Gradiente_sem_nome_6"/><linearGradient id="Gradiente_sem_nome_6-4" x1="318.69" y1="565.15" x2="445.29" y2="565.15" xlink:href="#Gradiente_sem_nome_6"/><linearGradient id="Gradiente_sem_nome_6-5" x1="192.73" y1="349.27" x2="571.25" y2="349.27" xlink:href="#Gradiente_sem_nome_6"/><linearGradient id="Gradiente_sem_nome_6-6" x1="377.99" y1="401.34" x2="385.99" y2="401.34" xlink:href="#Gradiente_sem_nome_6"/></defs><rect class="cls-1" x="137.44" y="178.24" width="118.6" height="118.6" rx="3.92"/><rect class="cls-2" x="322.69" y="178.24" width="118.6" height="118.6" rx="3.92"/><rect class="cls-3" x="507.95" y="178.24" width="118.6" height="118.6" rx="3.92"/><rect class="cls-4" x="322.69" y="505.85" width="118.6" height="118.6" rx="3.92"/><path class="cls-5" d="M196.73,296.83v85.94a14.94,14.94,0,0,0,14.94,14.94H552.31a14.94,14.94,0,0,0,14.94-14.94V296.83"/><line class="cls-6" x1="381.99" y1="296.83" x2="381.99" y2="505.85"/></svg>