<svg id="Camada_1" data-name="Camada 1" xmlns="http://www.w3.org/2000/svg" xmlns:xlink="http://www.w3.org/1999/xlink" viewBox="0 0 760 760"><defs><style>.cls-1,.cls-2,.cls-3,.cls-4,.cls-5,.cls-6{fill:none;stroke-miterlimit:10;stroke-width:8px;}.cls-1{stroke:url(#Gradiente_sem_nome_6);}.cls-2{stroke:url(#Gradiente_sem_nome_6-2);}.cls-3{stroke:url(#Gradiente_sem_nome_6-3);}.cls-4{stroke:url(#Gradiente_sem_nome_6-4);}.cls-5{stroke:url(#Gradiente_sem_nome_6-5);}.cls-6{stroke:url(#Gradiente_sem_nome_6-6);}</style><linearGradient id="Gradiente_sem_nome_6" x1="-581.69" y1="2605.7" x2="-336.99" y2="2605.7" gradientTransform="matrix(0.8, 0.6, -0.64, 0.84, 2256.11, -1560.08)" gradientUnits="userSpaceOnUse"><stop offset="0.14" stop-color="#679980"/><stop offset="0.83" stop-color="#0f1958"/></linearGradient><linearGradient id="Gradiente_sem_nome_6-2" x1="-580.8" y1="2664.99" x2="-351.91" y2="2664.99" gradientTransform="translate(2197.19 -1482.04) rotate(37.05)" xlink:href="#Gradiente_sem_nome_6"/><linearGradient id="Gradiente_sem_nome_6-3" x1="227.22" y1="539.37" x2="723.35" y2="539.37" gradientTransform="matrix(1, 0, 0, 1, 0, 0)" xlink:href="#Gradiente_sem_nome_6"/><linearGradient id="Gradiente_sem_nome_6-4" x1="227.22" y1="461.52" x2="723.35" y2="461.52" gradientTransform="matrix(1, 0, 0, 1, 0, 0)" xlink:href="#Gradiente_sem_nome_6"/><linearGradient id="Gradiente_sem_nome_6-5" x1="412.87" y1="461.83" x2="536.2" y2="461.83" gradientTransform="matrix(1, 0, 0, 1, 0, 0)" xlink:href="#Gradiente_sem_nome_6"/><linearGradient id="Gradiente_sem_nome_6-6" x1="246.53" y1="189.71" x2="332.54" y2="189.71" gradientTransform="matrix(1, 0, 0, 1, 0, 0)" xlink:href="#Gradiente_sem_nome_6"/></defs><path class="cls-1" d="M230.63,549.32c-42.77,32.84-101.92,35.77-144.88,3.34l0,0c-52.16-39.38-60-115.45-18.43-170.56l139.24-185.9c41.6-55.1,117.61-67.86,169.78-28.48h0c52.16,39.38,60.73,116,19.13,171.08L329.6,426"/><path class="cls-2" d="M311.77,429.33c-18.34-6-52.76-26.7-91-55.59-51.77-39.07-88.9-77.15-82.94-85"/><path class="cls-3" d="M719.35,569.38c0,25.29-109.27,45.79-244.06,45.79s-244.07-20.5-244.07-45.79V459.57c0,25.29,109.27,45.8,244.07,45.8s244.06-20.51,244.06-45.8Z"/><ellipse class="cls-4" cx="475.29" cy="461.52" rx="244.07" ry="43.85"/><line class="cls-5" x1="533.85" y1="418.95" x2="415.22" y2="504.71"/><path class="cls-6" d="M331.58,180.56S284.12,168.82,249.29,202"/></svg>