<svg id="Camada_1" data-name="Camada 1" xmlns="http://www.w3.org/2000/svg" xmlns:xlink="http://www.w3.org/1999/xlink" viewBox="0 0 760 760"><defs><style>.cls-1,.cls-2,.cls-3,.cls-4{fill:none;stroke-miterlimit:10;stroke-width:8px;}.cls-1{stroke:url(#Gradiente_sem_nome_6);}.cls-2{stroke:url(#Gradiente_sem_nome_6-2);}.cls-3{stroke:url(#Gradiente_sem_nome_6-3);}.cls-4{stroke:url(#Gradiente_sem_nome_6-4);}</style><linearGradient id="Gradiente_sem_nome_6" x1="400.72" y1="661.86" x2="395.05" y2="162.59" gradientUnits="userSpaceOnUse"><stop offset="0.14" stop-color="#679980"/><stop offset="0.83" stop-color="#0f1958"/></linearGradient><linearGradient id="Gradiente_sem_nome_6-2" x1="386.08" y1="411.01" x2="382.51" y2="97.14" xlink:href="#Gradiente_sem_nome_6"/><linearGradient id="Gradiente_sem_nome_6-3" x1="395.3" y1="573.87" x2="487.51" y2="573.87" xlink:href="#Gradiente_sem_nome_6"/><linearGradient id="Gradiente_sem_nome_6-4" x1="224.08" y1="463.12" x2="302.1" y2="463.12" xlink:href="#Gradiente_sem_nome_6"/></defs><path class="cls-1" d="M154.9,659.05V402.83a6,6,0,0,1,1.85-4.33L397.07,168.19a6,6,0,0,1,8.43.14L642,409.82a6,6,0,0,1,1.71,4.2v245"/><path class="cls-2" d="M85.07,411.57,395,102.7a6,6,0,0,1,8.58.11l283.3,297.46"/><path class="cls-3" d="M399.3,659.05V498.69a6,6,0,0,1,6-6h72.21a6,6,0,0,1,6,6V659.05"/><rect class="cls-4" x="228.08" y="428.11" width="70.02" height="70.02" rx="1.7"/></svg>