<svg id="Camada_1" data-name="Camada 1" xmlns="http://www.w3.org/2000/svg" xmlns:xlink="http://www.w3.org/1999/xlink" viewBox="0 0 760 760"><defs><style>.cls-1,.cls-2,.cls-3,.cls-4,.cls-5,.cls-6,.cls-7,.cls-8,.cls-9{fill:none;stroke-miterlimit:10;stroke-width:8px;}.cls-1{stroke:url(#Gradiente_sem_nome_6);}.cls-2{stroke:url(#Gradiente_sem_nome_6-2);}.cls-3{stroke:url(#Gradiente_sem_nome_6-3);}.cls-4{stroke:url(#Gradiente_sem_nome_6-4);}.cls-5{stroke:url(#Gradiente_sem_nome_6-5);}.cls-6{stroke:url(#Gradiente_sem_nome_6-6);}.cls-7{stroke:url(#Gradiente_sem_nome_6-7);}.cls-8{stroke:url(#Gradiente_sem_nome_6-8);}.cls-9{stroke:url(#Gradiente_sem_nome_6-9);}</style><linearGradient id="Gradiente_sem_nome_6" x1="182.68" y1="450.04" x2="507.69" y2="450.04" gradientUnits="userSpaceOnUse"><stop offset="0.14" stop-color="#679980"/><stop offset="0.83" stop-color="#0f1958"/></linearGradient><linearGradient id="Gradiente_sem_nome_6-2" x1="141.91" y1="373" x2="679.84" y2="373" xlink:href="#Gradiente_sem_nome_6"/><linearGradient id="Gradiente_sem_nome_6-3" x1="402.82" y1="347.73" x2="617.38" y2="347.73" xlink:href="#Gradiente_sem_nome_6"/><linearGradient id="Gradiente_sem_nome_6-4" x1="205.2" y1="215.1" x2="410.81" y2="215.1" xlink:href="#Gradiente_sem_nome_6"/><linearGradient id="Gradiente_sem_nome_6-5" x1="83.04" y1="632.82" x2="241.22" y2="631.5" xlink:href="#Gradiente_sem_nome_6"/><linearGradient id="Gradiente_sem_nome_6-6" x1="229.42" y1="355.4" x2="387.01" y2="355.4" xlink:href="#Gradiente_sem_nome_6"/><linearGradient id="Gradiente_sem_nome_6-7" x1="134.94" y1="437.08" x2="556.49" y2="455.83" xlink:href="#Gradiente_sem_nome_6"/><linearGradient id="Gradiente_sem_nome_6-8" x1="-2118.87" y1="1923.33" x2="-1991.81" y2="1923.33" gradientTransform="translate(2399.24 -1466.11)" xlink:href="#Gradiente_sem_nome_6"/><linearGradient id="Gradiente_sem_nome_6-9" x1="-2114.87" y1="1918.63" x2="-1995.81" y2="1918.63" gradientTransform="matrix(0.64, 0.77, -0.77, 0.64, 3135.15, 821.26)" xlink:href="#Gradiente_sem_nome_6"/></defs><path class="cls-1" d="M413.85,592.86a158.52,158.52,0,0,1-192-43.34q-8.72-12.18-16.47-25c-1-1.92-2-3.88-3-5.86a158.46,158.46,0,1,1,211.48,74.16Z"/><path class="cls-2" d="M675.84,191.54V311.75c0,130-61.32,252.92-166.6,329.13a384.62,384.62,0,0,1-94.75,50.39l-.25.11a8.47,8.47,0,0,1-3.3.67h-.12a8.39,8.39,0,0,1-3.3-.67l-.25-.11A381.5,381.5,0,0,1,330,652.83,207.15,207.15,0,0,0,520.12,557.9h0a208.58,208.58,0,0,0,16-30.3,206.42,206.42,0,0,0-3.87-170.8C482.69,253.78,359.05,210.43,256,260A206.29,206.29,0,0,0,151,376.37a413.14,413.14,0,0,1-5.09-64.62V191.54a19.88,19.88,0,0,1,17.94-19.78c42.68-4.24,109.86,2.54,211.62-91.22.9-.83,1.8-1.66,2.7-2.51.71-.7,9.75-9.67,18.14-18a20.63,20.63,0,0,1,8.7-5.18h0a19.27,19.27,0,0,1,2.88-.64,20.45,20.45,0,0,1,6,0,19,19,0,0,1,2.88.64h0a20.63,20.63,0,0,1,8.7,5.18c8.4,8.37,17.43,17.34,18.14,18,.9.85,1.8,1.68,2.7,2.51,101.76,93.76,169,87,211.62,91.22A19.86,19.86,0,0,1,675.84,191.54Z"/><path class="cls-3" d="M406.81,139.34h0a15.48,15.48,0,0,1,2.2-.49,16.44,16.44,0,0,1,4.54,0,14.76,14.76,0,0,1,2.19.49h0a15.74,15.74,0,0,1,6.64,3.95c6.4,6.39,13.29,13.23,13.83,13.76L438.3,159c77.6,71.51,128.87,66.35,161.39,69.58a15.15,15.15,0,0,1,13.69,15.09v91.68c0,84.28-33.8,164.67-93.25,222.58"/><path class="cls-4" d="M406.81,139.33h0a15.67,15.67,0,0,0-6.62,3.95c-6.41,6.39-13.31,13.23-13.84,13.76L384.28,159c-77.6,71.51-128.86,66.35-161.4,69.58a15.16,15.16,0,0,0-13.68,15.09v47.24"/><path class="cls-5" d="M234.79,621.19l-81.54,82.38c-7.34,6.56-26.91-.28-44.79-16.16S84.13,651,88.52,646.09l84.58-85.45A205.44,205.44,0,0,0,234.79,621.19Z"/><path class="cls-6" d="M386,321.87s-96.85-26.68-153,72.36"/><path class="cls-7" d="M532.22,356.79C482.69,253.78,359.05,210.43,256,260A206.29,206.29,0,0,0,151,376.37l-.45,1.28A207,207,0,0,0,520.12,557.9h0a208.58,208.58,0,0,0,16-30.3A206.42,206.42,0,0,0,532.22,356.79ZM413.85,592.86a158.32,158.32,0,0,1-208.52-68.3c-1-1.92-2-3.88-3-5.86a158.46,158.46,0,1,1,211.48,74.16Z"/><rect class="cls-8" x="284.37" y="338.93" width="119.06" height="236.56" rx="54.81" transform="translate(478.24 -98.9) rotate(50.53)"/><line class="cls-9" x1="309.69" y1="408.27" x2="385.37" y2="500.18"/></svg>