<svg id="Camada_1" data-name="Camada 1" xmlns="http://www.w3.org/2000/svg" xmlns:xlink="http://www.w3.org/1999/xlink" viewBox="0 0 760 760"><defs><style>.cls-1,.cls-2,.cls-3,.cls-4,.cls-5{fill:none;stroke-miterlimit:10;stroke-width:8px;}.cls-1{stroke:url(#Gradiente_sem_nome_6);}.cls-2{stroke:url(#Gradiente_sem_nome_6-2);}.cls-3{stroke:url(#Gradiente_sem_nome_6-3);}.cls-4{stroke:url(#Gradiente_sem_nome_6-4);}.cls-5{stroke:url(#Gradiente_sem_nome_6-5);}</style><linearGradient id="Gradiente_sem_nome_6" x1="133" y1="766.37" x2="368.21" y2="766.37" gradientTransform="translate(-0.42 -217.25) rotate(2.9)" gradientUnits="userSpaceOnUse"><stop offset="0.14" stop-color="#679980"/><stop offset="0.83" stop-color="#0f1958"/></linearGradient><linearGradient id="Gradiente_sem_nome_6-2" x1="283.81" y1="460.73" x2="334.72" y2="460.73" gradientTransform="matrix(1, 0, 0, 1, 0, 0)" xlink:href="#Gradiente_sem_nome_6"/><linearGradient id="Gradiente_sem_nome_6-3" x1="344.84" y1="593.57" x2="466.44" y2="592.55" gradientTransform="matrix(0.99, 0.06, -0.04, 0.99, -14.51, -202.91)" xlink:href="#Gradiente_sem_nome_6"/><linearGradient id="Gradiente_sem_nome_6-4" x1="-887.56" y1="640.77" x2="-545.52" y2="655.98" gradientTransform="translate(1394.18 645.01) rotate(67.22)" xlink:href="#Gradiente_sem_nome_6"/><linearGradient id="Gradiente_sem_nome_6-5" x1="440.08" y1="152.16" x2="555.96" y2="152.16" gradientTransform="matrix(1, 0, 0, 1, 0, 0)" xlink:href="#Gradiente_sem_nome_6"/></defs><path class="cls-1" d="M329.92,481,135.45,679c-3.2,3.26-15-3.19-26.45-14.39s-18.06-22.94-14.86-26.2L288.61,440.44"/><path class="cls-2" d="M325.32,466.76C330,473.41,332,479,329.92,481c-3.2,3.26-15.05-3.19-26.45-14.4s-18.06-22.93-14.86-26.19c2-2,7.38-.28,13.91,4.05"/><path class="cls-3" d="M418.67,371.13l-92.93,94.58c-1.53,1.56-7.35-1.67-13-7.21s-9-11.3-7.44-12.86l92.93-94.58Z"/><path class="cls-4" d="M669.22,308.66a167.18,167.18,0,1,0-85.55,80.91A166.78,166.78,0,0,0,669.22,308.66ZM392.65,291.09A136.34,136.34,0,1,1,571.15,364,136.32,136.32,0,0,1,392.65,291.09Z"/><path class="cls-5" d="M555,139.48s-64.69-16-112.16,29.2"/></svg>