<svg id="Camada_1" data-name="Camada 1" xmlns="http://www.w3.org/2000/svg" xmlns:xlink="http://www.w3.org/1999/xlink" viewBox="0 0 760 760"><defs><style>.cls-1,.cls-10,.cls-11,.cls-12,.cls-13,.cls-2,.cls-3,.cls-4,.cls-5,.cls-6,.cls-7,.cls-8,.cls-9{fill:none;stroke-miterlimit:10;stroke-width:8px;}.cls-1{stroke:url(#Gradiente_sem_nome_6);}.cls-2{stroke:url(#Gradiente_sem_nome_6-2);}.cls-3{stroke:url(#Gradiente_sem_nome_6-3);}.cls-4{stroke:url(#Gradiente_sem_nome_6-4);}.cls-5{stroke:url(#Gradiente_sem_nome_6-5);}.cls-6{stroke:url(#Gradiente_sem_nome_6-6);}.cls-7{stroke:url(#Gradiente_sem_nome_6-7);}.cls-8{stroke:url(#Gradiente_sem_nome_6-8);}.cls-9{stroke:url(#Gradiente_sem_nome_6-9);}.cls-10{stroke:url(#Gradiente_sem_nome_6-10);}.cls-11{stroke:url(#Gradiente_sem_nome_6-11);}.cls-12{stroke:url(#Gradiente_sem_nome_6-12);}.cls-13{stroke:url(#Gradiente_sem_nome_6-13);}</style><linearGradient id="Gradiente_sem_nome_6" x1="263.93" y1="323.49" x2="489.62" y2="323.49" gradientUnits="userSpaceOnUse"><stop offset="0.14" stop-color="#679980"/><stop offset="0.83" stop-color="#0f1958"/></linearGradient><linearGradient id="Gradiente_sem_nome_6-2" x1="-1445.42" y1="-2265.47" x2="-1192.87" y2="-2265.47" gradientTransform="translate(2771.25 1833.76) rotate(-30)" xlink:href="#Gradiente_sem_nome_6"/><linearGradient id="Gradiente_sem_nome_6-3" x1="83.52" y1="615.96" x2="139.41" y2="615.96" xlink:href="#Gradiente_sem_nome_6"/><linearGradient id="Gradiente_sem_nome_6-4" x1="613.92" y1="615.96" x2="669.81" y2="615.96" xlink:href="#Gradiente_sem_nome_6"/><linearGradient id="Gradiente_sem_nome_6-5" x1="-1651.65" y1="-2384.54" x2="-1399.11" y2="-2384.54" gradientTransform="translate(2771.25 1833.76) rotate(-30)" xlink:href="#Gradiente_sem_nome_6"/><linearGradient id="Gradiente_sem_nome_6-6" x1="372.4" y1="152.73" x2="381.14" y2="152.73" xlink:href="#Gradiente_sem_nome_6"/><linearGradient id="Gradiente_sem_nome_6-7" x1="259.91" y1="609.24" x2="345.92" y2="609.24" xlink:href="#Gradiente_sem_nome_6"/><linearGradient id="Gradiente_sem_nome_6-8" x1="161.78" y1="531.38" x2="170.78" y2="531.38" xlink:href="#Gradiente_sem_nome_6"/><linearGradient id="Gradiente_sem_nome_6-9" x1="406.1" y1="456.47" x2="492.1" y2="456.47" xlink:href="#Gradiente_sem_nome_6"/><linearGradient id="Gradiente_sem_nome_6-10" x1="581.23" y1="534.33" x2="590.23" y2="534.33" xlink:href="#Gradiente_sem_nome_6"/><linearGradient id="Gradiente_sem_nome_6-11" x1="376.9" y1="246.28" x2="462.81" y2="246.28" xlink:href="#Gradiente_sem_nome_6"/><linearGradient id="Gradiente_sem_nome_6-12" x1="289.16" y1="400.57" x2="374.31" y2="400.57" xlink:href="#Gradiente_sem_nome_6"/><linearGradient id="Gradiente_sem_nome_6-13" x1="612" y1="441.81" x2="667.89" y2="441.81" xlink:href="#Gradiente_sem_nome_6"/></defs><path class="cls-1" d="M365.75,204.17,279,254.28a22,22,0,0,0-11,19.09V373.6a22,22,0,0,0,11,19.09l86.8,50.12a22.07,22.07,0,0,0,22,0l86.81-50.12a22,22,0,0,0,11-19.09V273.37a22,22,0,0,0-11-19.09l-86.81-50.11A22,22,0,0,0,365.75,204.17Z"/><path class="cls-2" d="M485.08,412.06l-86.8,50.11a22.05,22.05,0,0,0-11,19.09V581.49a22,22,0,0,0,11,19.09l86.8,50.12a22.07,22.07,0,0,0,22,0l86.81-50.12a22,22,0,0,0,11-19.09V481.26a22.05,22.05,0,0,0-11-19.09l-86.81-50.11A22,22,0,0,0,485.08,412.06Z"/><line class="cls-3" x1="137.18" y1="598.69" x2="85.75" y2="633.22"/><line class="cls-4" x1="616.15" y1="598.69" x2="667.58" y2="633.22"/><path class="cls-5" d="M246.94,412.06l-86.8,50.11a22.05,22.05,0,0,0-11,19.09V581.49a22,22,0,0,0,11,19.09l86.8,50.12a22.07,22.07,0,0,0,22,0l86.81-50.12a22,22,0,0,0,11-19.09V481.26a22.05,22.05,0,0,0-11-19.09L269,412.06A22,22,0,0,0,246.94,412.06Z"/><line class="cls-6" x1="377.15" y1="183.7" x2="376.4" y2="121.76"/><line class="cls-7" x1="261.88" y1="632.35" x2="343.95" y2="586.12"/><line class="cls-8" x1="165.78" y1="578.47" x2="166.78" y2="484.28"/><line class="cls-9" x1="490.13" y1="433.36" x2="408.06" y2="479.59"/><line class="cls-10" x1="586.23" y1="487.24" x2="585.23" y2="581.43"/><line class="cls-11" x1="378.87" y1="223.07" x2="460.84" y2="269.49"/><line class="cls-12" x1="291.2" y1="376.58" x2="372.28" y2="424.55"/><line class="cls-13" x1="665.66" y1="424.55" x2="614.23" y2="459.07"/></svg>