<svg id="Camada_1" data-name="Camada 1" xmlns="http://www.w3.org/2000/svg" xmlns:xlink="http://www.w3.org/1999/xlink" viewBox="0 0 760 760"><defs><style>.cls-1,.cls-2,.cls-3,.cls-4,.cls-5,.cls-6,.cls-7,.cls-8{fill:none;stroke-miterlimit:10;stroke-width:8px;}.cls-1{stroke:url(#Gradiente_sem_nome_6);}.cls-2{stroke:url(#Gradiente_sem_nome_6-2);}.cls-3{stroke:url(#Gradiente_sem_nome_6-3);}.cls-4{stroke:url(#Gradiente_sem_nome_6-4);}.cls-5{stroke:url(#Gradiente_sem_nome_6-5);}.cls-6{stroke:url(#Gradiente_sem_nome_6-6);}.cls-7{stroke:url(#Gradiente_sem_nome_6-7);}.cls-8{stroke:url(#Gradiente_sem_nome_6-8);}</style><linearGradient id="Gradiente_sem_nome_6" x1="28.86" y1="402.06" x2="102.66" y2="402.06" gradientUnits="userSpaceOnUse"><stop offset="0.14" stop-color="#679980"/><stop offset="0.83" stop-color="#0f1958"/></linearGradient><linearGradient id="Gradiente_sem_nome_6-2" x1="280.86" y1="622.93" x2="713.45" y2="622.93" xlink:href="#Gradiente_sem_nome_6"/><linearGradient id="Gradiente_sem_nome_6-3" x1="254.68" y1="145.72" x2="714.67" y2="145.72" xlink:href="#Gradiente_sem_nome_6"/><linearGradient id="Gradiente_sem_nome_6-4" x1="501.84" y1="386.17" x2="668.6" y2="386.17" xlink:href="#Gradiente_sem_nome_6"/><linearGradient id="Gradiente_sem_nome_6-5" x1="97.37" y1="352.02" x2="382.99" y2="352.02" xlink:href="#Gradiente_sem_nome_6"/><linearGradient id="Gradiente_sem_nome_6-6" x1="171.19" y1="489.44" x2="382.99" y2="489.44" xlink:href="#Gradiente_sem_nome_6"/><linearGradient id="Gradiente_sem_nome_6-7" x1="242.03" y1="345.97" x2="594.79" y2="345.97" xlink:href="#Gradiente_sem_nome_6"/><linearGradient id="Gradiente_sem_nome_6-8" x1="291.35" y1="383.54" x2="478.13" y2="383.54" xlink:href="#Gradiente_sem_nome_6"/></defs><path class="cls-1" d="M99.42,589A349.83,349.83,0,0,1,76.16,214.74"/><path class="cls-2" d="M709.72,509.64A350.64,350.64,0,0,1,282,718.89"/><path class="cls-3" d="M256.13,57.1A350.52,350.52,0,0,1,710.92,260.61"/><path class="cls-4" d="M513.9,134.15a281.76,281.76,0,0,1-10.35,504"/><path class="cls-5" d="M206.48,603a281.9,281.9,0,0,1-86.09-321.37,278.8,278.8,0,0,1,15.81-33.84A281.24,281.24,0,0,1,383,101.93"/><path class="cls-6" d="M383,591.34a207.57,207.57,0,0,1-207.8-207.8"/><path class="cls-7" d="M244.69,228.44A207.79,207.79,0,0,1,541.75,517.62"/><path class="cls-8" d="M410.78,418.92q-1.92,6.09-2.24,18.29a2.6,2.6,0,0,1-2.59,2.53h-42.4A2.59,2.59,0,0,1,361,437q1.16-27.63,5.54-38.49,4.58-11.39,23.64-26.2L403,362.28a44.69,44.69,0,0,0,10.23-10.41,35.43,35.43,0,0,0,7.06-21.35,41.2,41.2,0,0,0-7.85-24.43q-7.86-11-28.67-11-20.48,0-29,13.58a52.73,52.73,0,0,0-8.49,25.8,2.59,2.59,0,0,1-2.59,2.44H298a2.6,2.6,0,0,1-2.6-2.74q2.89-48.12,35-68.55,20.82-13.39,51.16-13.41,39.88,0,66.26,19.06t26.38,56.46q0,22.94-11.47,38.64-6.71,9.53-25.76,24.35l-12.53,9.7Q414.14,408.34,410.78,418.92Zm-1.18,96H362.21a2.59,2.59,0,0,1-2.59-2.59v-45.8a2.59,2.59,0,0,1,2.59-2.6H409.6a2.59,2.59,0,0,1,2.59,2.6v45.8A2.59,2.59,0,0,1,409.6,514.9Z"/></svg>