<svg id="Camada_1" data-name="Camada 1" xmlns="http://www.w3.org/2000/svg" xmlns:xlink="http://www.w3.org/1999/xlink" viewBox="0 0 760 760"><defs><style>.cls-1,.cls-10,.cls-11,.cls-12,.cls-13,.cls-14,.cls-15,.cls-16,.cls-17,.cls-2,.cls-3,.cls-4,.cls-5,.cls-6,.cls-7,.cls-8,.cls-9{fill:none;stroke-miterlimit:10;stroke-width:8px;}.cls-1{stroke:url(#Gradiente_sem_nome_6);}.cls-2{stroke:url(#Gradiente_sem_nome_6-2);}.cls-3{stroke:url(#Gradiente_sem_nome_6-3);}.cls-4{stroke:url(#Gradiente_sem_nome_6-4);}.cls-5{stroke:url(#Gradiente_sem_nome_6-5);}.cls-6{stroke:url(#Gradiente_sem_nome_6-6);}.cls-7{stroke:url(#Gradiente_sem_nome_6-7);}.cls-8{stroke:url(#Gradiente_sem_nome_6-8);}.cls-9{stroke:url(#Gradiente_sem_nome_6-9);}.cls-10{stroke:url(#Gradiente_sem_nome_6-10);}.cls-11{stroke:url(#Gradiente_sem_nome_6-11);}.cls-12{stroke:url(#Gradiente_sem_nome_6-12);}.cls-13{stroke:url(#Gradiente_sem_nome_6-13);}.cls-14{stroke:url(#Gradiente_sem_nome_6-14);}.cls-15{stroke:url(#Gradiente_sem_nome_6-15);}.cls-16{stroke:url(#Gradiente_sem_nome_6-16);}.cls-17{stroke:url(#Gradiente_sem_nome_6-17);}</style><linearGradient id="Gradiente_sem_nome_6" x1="559.01" y1="298.12" x2="629.06" y2="298.12" gradientUnits="userSpaceOnUse"><stop offset="0.14" stop-color="#679980"/><stop offset="0.83" stop-color="#0f1958"/></linearGradient><linearGradient id="Gradiente_sem_nome_6-2" x1="347.86" y1="397.35" x2="417.91" y2="397.35" xlink:href="#Gradiente_sem_nome_6"/><linearGradient id="Gradiente_sem_nome_6-3" x1="142.83" y1="540.35" x2="212.88" y2="540.35" xlink:href="#Gradiente_sem_nome_6"/><linearGradient id="Gradiente_sem_nome_6-4" x1="449.03" y1="588.09" x2="519.09" y2="588.09" xlink:href="#Gradiente_sem_nome_6"/><linearGradient id="Gradiente_sem_nome_6-5" x1="201.77" y1="184.17" x2="271.82" y2="184.17" xlink:href="#Gradiente_sem_nome_6"/><linearGradient id="Gradiente_sem_nome_6-6" x1="232.8" y1="242.45" x2="240.8" y2="242.45" xlink:href="#Gradiente_sem_nome_6"/><linearGradient id="Gradiente_sem_nome_6-7" x1="201.87" y1="540.35" x2="271.72" y2="540.35" xlink:href="#Gradiente_sem_nome_6"/><linearGradient id="Gradiente_sem_nome_6-8" x1="394.05" y1="571.38" x2="462.35" y2="571.38" xlink:href="#Gradiente_sem_nome_6"/><linearGradient id="Gradiente_sem_nome_6-9" x1="297.26" y1="290.22" x2="368.14" y2="290.22" xlink:href="#Gradiente_sem_nome_6"/><linearGradient id="Gradiente_sem_nome_6-10" x1="306.1" y1="377.46" x2="354.9" y2="377.46" xlink:href="#Gradiente_sem_nome_6"/><linearGradient id="Gradiente_sem_nome_6-11" x1="489.01" y1="270.68" x2="564.54" y2="270.68" xlink:href="#Gradiente_sem_nome_6"/><linearGradient id="Gradiente_sem_nome_6-12" x1="454.26" y1="339.42" x2="495.48" y2="339.42" xlink:href="#Gradiente_sem_nome_6"/><linearGradient id="Gradiente_sem_nome_6-13" x1="397.85" y1="497.65" x2="470.72" y2="497.65" xlink:href="#Gradiente_sem_nome_6"/><linearGradient id="Gradiente_sem_nome_6-14" x1="351.7" y1="242.57" x2="495.83" y2="242.57" xlink:href="#Gradiente_sem_nome_6"/><linearGradient id="Gradiente_sem_nome_6-15" x1="167.74" y1="346.97" x2="311.86" y2="346.97" xlink:href="#Gradiente_sem_nome_6"/><linearGradient id="Gradiente_sem_nome_6-16" x1="263.82" y1="540.35" x2="407.95" y2="540.35" xlink:href="#Gradiente_sem_nome_6"/><linearGradient id="Gradiente_sem_nome_6-17" x1="453.91" y1="443.11" x2="598.03" y2="443.11" xlink:href="#Gradiente_sem_nome_6"/></defs><circle class="cls-1" cx="594.04" cy="298.12" r="31.03"/><circle class="cls-2" cx="382.89" cy="397.35" r="31.03"/><circle class="cls-3" cx="177.86" cy="540.35" r="31.03"/><circle class="cls-4" cx="484.06" cy="588.09" r="31.03"/><circle class="cls-5" cx="236.8" cy="184.17" r="31.03"/><line class="cls-6" x1="236.8" y1="277.37" x2="236.8" y2="207.52"/><line class="cls-7" x1="271.72" y1="540.35" x2="201.87" y2="540.35"/><line class="cls-8" x1="460.97" y1="583.47" x2="395.44" y2="559.29"/><line class="cls-9" x1="366.1" y1="270.42" x2="299.3" y2="310.01"/><line class="cls-10" x1="307.86" y1="366.32" x2="353.13" y2="388.59"/><line class="cls-11" x1="490.54" y1="255.69" x2="563.01" y2="285.66"/><line class="cls-12" x1="457.91" y1="301.37" x2="491.82" y2="377.46"/><line class="cls-13" x1="468.83" y1="479.14" x2="399.74" y2="516.17"/><path class="cls-14" d="M491.83,242.56a68.07,68.07,0,1,1-68.07-68.06A67.59,67.59,0,0,1,491.83,242.56Z"/><path class="cls-15" d="M307.86,347a68.06,68.06,0,1,1-68.06-68.07A68.06,68.06,0,0,1,307.86,347Z"/><path class="cls-16" d="M404,540.36a68.07,68.07,0,1,1-68.07-68.07A67.52,67.52,0,0,1,404,540.36Z"/><path class="cls-17" d="M594,443.1a68.06,68.06,0,1,1-68-68.05A68.06,68.06,0,0,1,594,443.1Z"/></svg>