<svg id="Camada_1" data-name="Camada 1" xmlns="http://www.w3.org/2000/svg" xmlns:xlink="http://www.w3.org/1999/xlink" viewBox="0 0 760 760"><defs><style>.cls-1,.cls-2,.cls-3,.cls-4,.cls-5,.cls-6{fill:none;stroke-miterlimit:10;stroke-width:8px;}.cls-1{stroke:url(#Gradiente_sem_nome_6);}.cls-2{stroke:url(#Gradiente_sem_nome_6-2);}.cls-3{stroke:url(#Gradiente_sem_nome_6-3);}.cls-4{stroke:url(#Gradiente_sem_nome_6-4);}.cls-5{stroke:url(#Gradiente_sem_nome_6-5);}.cls-6{stroke:url(#Gradiente_sem_nome_6-6);}</style><linearGradient id="Gradiente_sem_nome_6" x1="11.02" y1="380" x2="748.98" y2="380" gradientUnits="userSpaceOnUse"><stop offset="0.14" stop-color="#679980"/><stop offset="0.83" stop-color="#0f1958"/></linearGradient><linearGradient id="Gradiente_sem_nome_6-2" x1="228.19" y1="364.58" x2="561.42" y2="364.58" xlink:href="#Gradiente_sem_nome_6"/><linearGradient id="Gradiente_sem_nome_6-3" x1="247.98" y1="371.45" x2="468.13" y2="371.45" xlink:href="#Gradiente_sem_nome_6"/><linearGradient id="Gradiente_sem_nome_6-4" x1="213.05" y1="380" x2="542.2" y2="380" xlink:href="#Gradiente_sem_nome_6"/><linearGradient id="Gradiente_sem_nome_6-5" x1="195.45" y1="393.82" x2="523.33" y2="393.82" xlink:href="#Gradiente_sem_nome_6"/><linearGradient id="Gradiente_sem_nome_6-6" x1="199.45" y1="580.46" x2="256.01" y2="580.46" xlink:href="#Gradiente_sem_nome_6"/></defs><circle class="cls-1" cx="380" cy="380" r="364.98"/><path class="cls-2" d="M232.19,160.44v-8.2a8.72,8.72,0,0,1,8.72-8.72H548.69a8.72,8.72,0,0,1,8.73,8.72V576.92a8.72,8.72,0,0,1-8.73,8.72H541"/><path class="cls-3" d="M362.12,272.87l29.27,59.3a4.52,4.52,0,0,0,3.41,2.48l65.45,9.51a4.54,4.54,0,0,1,2.51,7.74L415.4,398.06a4.55,4.55,0,0,0-1.3,4l11.18,65.18A4.53,4.53,0,0,1,418.7,472l-58.53-30.77a4.5,4.5,0,0,0-4.22,0L297.41,472a4.53,4.53,0,0,1-6.58-4.78L302,402.07a4.53,4.53,0,0,0-1.3-4L253.35,351.9a4.54,4.54,0,0,1,2.51-7.74l65.45-9.51a4.51,4.51,0,0,0,3.41-2.48L354,272.87A4.53,4.53,0,0,1,362.12,272.87Z"/><path class="cls-4" d="M217.05,175.86v-8.2a8.67,8.67,0,0,1,8.62-8.72H529.59a8.66,8.66,0,0,1,8.61,8.72V592.34a8.66,8.66,0,0,1-8.61,8.72H522"/><path class="cls-5" d="M252.83,611.49h257a9.45,9.45,0,0,0,9.45-9.45V185.59a9.45,9.45,0,0,0-9.45-9.45h-301a9.46,9.46,0,0,0-9.45,9.45V553.42Z"/><path class="cls-6" d="M199.45,553.42h43A9.53,9.53,0,0,1,252,563v48.54"/><path class="cls-3" d="M362.12,272.87l29.27,59.3a4.52,4.52,0,0,0,3.41,2.48l65.45,9.51a4.54,4.54,0,0,1,2.51,7.74L415.4,398.06a4.55,4.55,0,0,0-1.3,4l11.18,65.18A4.53,4.53,0,0,1,418.7,472l-58.53-30.77a4.5,4.5,0,0,0-4.22,0L297.41,472a4.53,4.53,0,0,1-6.58-4.78L302,402.07a4.53,4.53,0,0,0-1.3-4L253.35,351.9a4.54,4.54,0,0,1,2.51-7.74l65.45-9.51a4.51,4.51,0,0,0,3.41-2.48L354,272.87A4.53,4.53,0,0,1,362.12,272.87Z"/></svg>