<svg id="Camada_1" data-name="Camada 1" xmlns="http://www.w3.org/2000/svg" xmlns:xlink="http://www.w3.org/1999/xlink" viewBox="0 0 760 760"><defs><style>.cls-1,.cls-10,.cls-11,.cls-12,.cls-13,.cls-14,.cls-15,.cls-16,.cls-17,.cls-18,.cls-19,.cls-2,.cls-20,.cls-21,.cls-22,.cls-23,.cls-3,.cls-4,.cls-5,.cls-6,.cls-7,.cls-8,.cls-9{fill:none;stroke-miterlimit:10;stroke-width:8px;}.cls-1{stroke:url(#Gradiente_sem_nome_6);}.cls-2{stroke:url(#Gradiente_sem_nome_6-2);}.cls-3{stroke:url(#Gradiente_sem_nome_6-3);}.cls-4{stroke:url(#Gradiente_sem_nome_6-4);}.cls-5{stroke:url(#Gradiente_sem_nome_6-5);}.cls-6{stroke:url(#Gradiente_sem_nome_6-6);}.cls-7{stroke:url(#Gradiente_sem_nome_6-7);}.cls-8{stroke:url(#Gradiente_sem_nome_6-8);}.cls-9{stroke:url(#Gradiente_sem_nome_6-9);}.cls-10{stroke:url(#Gradiente_sem_nome_6-10);}.cls-11{stroke:url(#Gradiente_sem_nome_6-11);}.cls-12{stroke:url(#Gradiente_sem_nome_6-12);}.cls-13{stroke:url(#Gradiente_sem_nome_6-13);}.cls-14{stroke:url(#Gradiente_sem_nome_6-14);}.cls-15{stroke:url(#Gradiente_sem_nome_6-15);}.cls-16{stroke:url(#Gradiente_sem_nome_6-16);}.cls-17{stroke:url(#Gradiente_sem_nome_6-17);}.cls-18{stroke:url(#Gradiente_sem_nome_6-18);}.cls-19{stroke:url(#Gradiente_sem_nome_6-19);}.cls-20{stroke:url(#Gradiente_sem_nome_6-20);}.cls-21{stroke:url(#Gradiente_sem_nome_6-21);}.cls-22{stroke:url(#Gradiente_sem_nome_6-22);}.cls-23{stroke:url(#Gradiente_sem_nome_6-23);}</style><linearGradient id="Gradiente_sem_nome_6" x1="261.52" y1="595.33" x2="280.93" y2="595.33" gradientUnits="userSpaceOnUse"><stop offset="0.14" stop-color="#679980"/><stop offset="0.83" stop-color="#0f1958"/></linearGradient><linearGradient id="Gradiente_sem_nome_6-2" x1="117.84" y1="387.72" x2="638.24" y2="387.72" xlink:href="#Gradiente_sem_nome_6"/><linearGradient id="Gradiente_sem_nome_6-3" x1="433.01" y1="503.44" x2="562.75" y2="503.44" xlink:href="#Gradiente_sem_nome_6"/><linearGradient id="Gradiente_sem_nome_6-4" x1="311.24" y1="386.25" x2="401.63" y2="386.25" xlink:href="#Gradiente_sem_nome_6"/><linearGradient id="Gradiente_sem_nome_6-5" x1="287.53" y1="223.54" x2="306.74" y2="223.54" xlink:href="#Gradiente_sem_nome_6"/><linearGradient id="Gradiente_sem_nome_6-6" x1="492.66" y1="244.05" x2="506.23" y2="244.05" xlink:href="#Gradiente_sem_nome_6"/><linearGradient id="Gradiente_sem_nome_6-7" x1="278.45" y1="509.68" x2="401.65" y2="509.68" xlink:href="#Gradiente_sem_nome_6"/><linearGradient id="Gradiente_sem_nome_6-8" x1="427.46" y1="392.27" x2="490.17" y2="392.27" xlink:href="#Gradiente_sem_nome_6"/><linearGradient id="Gradiente_sem_nome_6-9" x1="188.48" y1="556.47" x2="236.07" y2="556.47" xlink:href="#Gradiente_sem_nome_6"/><linearGradient id="Gradiente_sem_nome_6-10" x1="311.08" y1="227.62" x2="480.92" y2="227.62" xlink:href="#Gradiente_sem_nome_6"/><linearGradient id="Gradiente_sem_nome_6-11" x1="253.11" y1="420.11" x2="293.72" y2="420.11" xlink:href="#Gradiente_sem_nome_6"/><linearGradient id="Gradiente_sem_nome_6-12" x1="325.71" y1="301.15" x2="471.46" y2="301.15" xlink:href="#Gradiente_sem_nome_6"/><linearGradient id="Gradiente_sem_nome_6-13" x1="139.94" y1="358.05" x2="285.75" y2="358.05" xlink:href="#Gradiente_sem_nome_6"/><linearGradient id="Gradiente_sem_nome_6-14" x1="97.19" y1="418" x2="151.05" y2="418" xlink:href="#Gradiente_sem_nome_6"/><linearGradient id="Gradiente_sem_nome_6-15" x1="508.99" y1="375.05" x2="618.62" y2="375.05" xlink:href="#Gradiente_sem_nome_6"/><linearGradient id="Gradiente_sem_nome_6-16" x1="276.76" y1="300.14" x2="330.61" y2="300.14" xlink:href="#Gradiente_sem_nome_6"/><linearGradient id="Gradiente_sem_nome_6-17" x1="465.06" y1="316.09" x2="518.91" y2="316.09" xlink:href="#Gradiente_sem_nome_6"/><linearGradient id="Gradiente_sem_nome_6-18" x1="601.76" y1="440.93" x2="655.62" y2="440.93" xlink:href="#Gradiente_sem_nome_6"/><linearGradient id="Gradiente_sem_nome_6-19" x1="390.86" y1="463.86" x2="444.71" y2="463.86" xlink:href="#Gradiente_sem_nome_6"/><linearGradient id="Gradiente_sem_nome_6-20" x1="230.19" y1="545.78" x2="284.05" y2="545.78" xlink:href="#Gradiente_sem_nome_6"/><linearGradient id="Gradiente_sem_nome_6-21" x1="475.31" y1="171.19" x2="529.17" y2="171.19" xlink:href="#Gradiente_sem_nome_6"/><linearGradient id="Gradiente_sem_nome_6-22" x1="264.61" y1="146.1" x2="318.47" y2="146.1" xlink:href="#Gradiente_sem_nome_6"/><linearGradient id="Gradiente_sem_nome_6-23" x1="555.91" y1="537.15" x2="609.76" y2="537.15" xlink:href="#Gradiente_sem_nome_6"/></defs><path class="cls-1" d="M265.47,567.13Q270,594,277.05,623.24"/><path class="cls-2" d="M524.32,177.37a22.92,22.92,0,0,1-22.08,16.75c-.35,0-.69,0-1,0A22.92,22.92,0,0,1,480,176.92h0a22.94,22.94,0,0,1,5.77-21.69,257.23,257.23,0,0,0-172.24-15.51,22.93,22.93,0,0,1-22,29.32h0a23,23,0,0,1-21.08-13.9c-87.75,40.66-148.62,129.52-148.62,232.59q0,3.75.11,7.47a19.46,19.46,0,0,1,2.17-.11,22.92,22.92,0,0,1,3.21,45.62A256.24,256.24,0,0,0,570.7,556.6a22.92,22.92,0,1,1,27-36.91A254.91,254.91,0,0,0,623,463.14,22.94,22.94,0,0,1,628.69,418a22,22,0,0,1,3.74.31A256.55,256.55,0,0,0,524.32,177.37ZM492,293.17a22.93,22.93,0,1,1-5.65,45.15A22.93,22.93,0,0,1,492,293.17Zm-211.23,7a22.92,22.92,0,0,1,22.08-22.91l.84,0a22.92,22.92,0,0,1,22.91,22.27c0,.22,0,.44,0,.66a22.93,22.93,0,0,1-45.85,0Zm-15.29,267a22.71,22.71,0,0,1-8.35,1.58,22.93,22.93,0,1,1,22.52-27.21,22.42,22.42,0,0,1,.41,4.28A22.93,22.93,0,0,1,265.47,567.13Zm152.31-80.34a22.95,22.95,0,1,1,17.42-8A22.89,22.89,0,0,1,417.78,486.79Z"/><path class="cls-3" d="M435.2,478.76C469,500.79,510.68,518,562,527.54"/><path class="cls-4" d="M315,320.06c15.72,45.38,41.6,92.29,83.92,130.73"/><path class="cls-5" d="M302.84,277.23A467.54,467.54,0,0,1,291.58,169"/><path class="cls-6" d="M501.21,194.09a433,433,0,0,1-4.6,99.55"/><path class="cls-7" d="M279.64,541.5c50-15.52,89-38,119.39-64.45"/><path class="cls-8" d="M430.54,444.8c27.69-33.42,45.1-70.48,55.8-106.48"/><path class="cls-9" d="M235.28,552.78q-22.17,4.49-46.79,7.3h0"/><path class="cls-10" d="M314.28,279.81C365,212.53,437.5,186.67,480,176.92"/><path class="cls-11" d="M259.62,523c-8.51-88.43,5.43-154.7,30.53-204.34"/><path class="cls-12" d="M326.59,299.48c54.4-12.17,102.52-5.6,143.46,9.91"/><path class="cls-13" d="M284.31,312.39c-43.83,16.94-91.19,46.19-141.67,92.1"/><path class="cls-14" d="M147.05,418a22.93,22.93,0,0,1-19.72,22.7,22.67,22.67,0,0,1-3.21.23A22.92,22.92,0,0,1,122,395.19a19.46,19.46,0,0,1,2.17-.11A22.93,22.93,0,0,1,147.05,418Z"/><path class="cls-15" d="M511,328.92c50.87,29.42,86.54,69.92,104.45,93.3"/><path class="cls-16" d="M326.61,300.14a22.93,22.93,0,1,1-23.77-22.91l.84,0a22.92,22.92,0,0,1,22.91,22.27C326.61,299.7,326.61,299.92,326.61,300.14Z"/><path class="cls-17" d="M514.91,316.09a22.93,22.93,0,1,1-45.85,0A22.88,22.88,0,0,1,492,293.17a22.92,22.92,0,0,1,22.92,22.92Z"/><path class="cls-18" d="M651.62,440.93A22.92,22.92,0,1,1,628.69,418a22,22,0,0,1,3.74.31A22.93,22.93,0,0,1,651.62,440.93Z"/><path class="cls-19" d="M440.71,463.86a22.91,22.91,0,1,1-10.17-19.06A22.79,22.79,0,0,1,440.71,463.86Z"/><path class="cls-20" d="M280.05,545.78a23,23,0,1,1-.41-4.28A22.42,22.42,0,0,1,280.05,545.78Z"/><path class="cls-21" d="M525.17,171.19a22.5,22.5,0,0,1-.85,6.18,22.92,22.92,0,0,1-22.08,16.75c-.35,0-.69,0-1,0A22.92,22.92,0,0,1,480,176.92h0a22.93,22.93,0,1,1,45.14-5.72Z"/><path class="cls-22" d="M314.47,146.1A22.93,22.93,0,0,1,291.58,169h0a22.93,22.93,0,1,1,22.93-22.93Z"/><path class="cls-23" d="M605.76,537.15a23,23,0,1,1-8.08-17.46A22.93,22.93,0,0,1,605.76,537.15Z"/></svg>