<svg id="Camada_1" data-name="Camada 1" xmlns="http://www.w3.org/2000/svg" xmlns:xlink="http://www.w3.org/1999/xlink" viewBox="0 0 760 760"><defs><style>.cls-1,.cls-10,.cls-11,.cls-12,.cls-13,.cls-2,.cls-3,.cls-4,.cls-5,.cls-6,.cls-7,.cls-8,.cls-9{fill:none;stroke-miterlimit:10;stroke-width:8px;}.cls-1{stroke:url(#Gradiente_sem_nome_6);}.cls-2{stroke:url(#Gradiente_sem_nome_6-2);}.cls-3{stroke:url(#Gradiente_sem_nome_6-3);}.cls-4{stroke:url(#Gradiente_sem_nome_6-4);}.cls-5{stroke:url(#Gradiente_sem_nome_6-5);}.cls-6{stroke:url(#Gradiente_sem_nome_6-6);}.cls-7{stroke:url(#Gradiente_sem_nome_6-7);}.cls-8{stroke:url(#Gradiente_sem_nome_6-8);}.cls-9{stroke:url(#Gradiente_sem_nome_6-9);}.cls-10{stroke:url(#Gradiente_sem_nome_6-10);}.cls-11{stroke:url(#Gradiente_sem_nome_6-11);}.cls-12{stroke:url(#Gradiente_sem_nome_6-12);}.cls-13{stroke:url(#Gradiente_sem_nome_6-13);}</style><linearGradient id="Gradiente_sem_nome_6" x1="5035.65" y1="8707.98" x2="5239.72" y2="8707.98" gradientTransform="matrix(0.46, 0.89, -0.56, 0.29, 2796.19, -6638.43)" gradientUnits="userSpaceOnUse"><stop offset="0.14" stop-color="#679980"/><stop offset="0.83" stop-color="#0f1958"/></linearGradient><linearGradient id="Gradiente_sem_nome_6-2" x1="4957.98" y1="6004.02" x2="5039.88" y2="6004.02" gradientTransform="translate(3413.91 -6955.47) rotate(62.83)" xlink:href="#Gradiente_sem_nome_6"/><linearGradient id="Gradiente_sem_nome_6-3" x1="210.39" y1="264.92" x2="500.67" y2="264.92" gradientTransform="matrix(1, 0, 0, 1, 0, 0)" xlink:href="#Gradiente_sem_nome_6"/><linearGradient id="Gradiente_sem_nome_6-4" x1="334.29" y1="478.94" x2="596.38" y2="478.94" gradientTransform="matrix(1, 0, 0, 1, 0, 0)" xlink:href="#Gradiente_sem_nome_6"/><linearGradient id="Gradiente_sem_nome_6-5" x1="5032.4" y1="5933.48" x2="5243.07" y2="5933.48" gradientTransform="translate(3413.91 -6955.47) rotate(62.83)" xlink:href="#Gradiente_sem_nome_6"/><linearGradient id="Gradiente_sem_nome_6-6" x1="5092.36" y1="5859.59" x2="5183.11" y2="5859.59" gradientTransform="translate(3413.91 -6955.47) rotate(62.83)" xlink:href="#Gradiente_sem_nome_6"/><linearGradient id="Gradiente_sem_nome_6-7" x1="5112.99" y1="5965.51" x2="5162.37" y2="5965.51" gradientTransform="translate(3413.91 -6955.47) rotate(62.83)" xlink:href="#Gradiente_sem_nome_6"/><linearGradient id="Gradiente_sem_nome_6-8" x1="5112.99" y1="6050.74" x2="5162.37" y2="6050.74" gradientTransform="translate(3413.91 -6955.47) rotate(62.83)" xlink:href="#Gradiente_sem_nome_6"/><linearGradient id="Gradiente_sem_nome_6-9" x1="101.9" y1="435.57" x2="154.55" y2="435.57" gradientTransform="matrix(1, 0, 0, 1, 0, 0)" xlink:href="#Gradiente_sem_nome_6"/><linearGradient id="Gradiente_sem_nome_6-10" x1="69.59" y1="489.17" x2="135.25" y2="489.17" gradientTransform="matrix(1, 0, 0, 1, 0, 0)" xlink:href="#Gradiente_sem_nome_6"/><linearGradient id="Gradiente_sem_nome_6-11" x1="130.97" y1="501.46" x2="164.74" y2="501.46" gradientTransform="matrix(1, 0, 0, 1, 0, 0)" xlink:href="#Gradiente_sem_nome_6"/><linearGradient id="Gradiente_sem_nome_6-12" x1="106.93" y1="549.27" x2="168.95" y2="549.27" gradientTransform="matrix(1, 0, 0, 1, 0, 0)" xlink:href="#Gradiente_sem_nome_6"/><linearGradient id="Gradiente_sem_nome_6-13" x1="170.83" y1="549.71" x2="214.34" y2="549.71" gradientTransform="matrix(1, 0, 0, 1, 0, 0)" xlink:href="#Gradiente_sem_nome_6"/></defs><path class="cls-1" d="M225.18,381.88l-71.08.82c-4.07.05-5.41,5.54-2.67,10.89l81.41,158.62c2.76,5.37,8,7.47,10.43,4.14l41.65-58.07"/><path class="cls-2" d="M245.31,331.77l-30-58.5a8.09,8.09,0,0,1,5.48-11.61S322.54,193.48,500.5,200.8"/><path class="cls-3" d="M245.31,331.77l-30-58.5a8.09,8.09,0,0,1,5.48-11.61S322.54,193.48,500.5,200.8"/><path class="cls-4" d="M337.85,512.07l30,58.5a8.09,8.09,0,0,0,12.63,2.31S495.22,530,593,381.1"/><path class="cls-5" d="M570,392.93,311.18,525.76a11.78,11.78,0,0,1-15.86-5.1L213.54,361.32a11.78,11.78,0,0,1,5.1-15.86l258.8-132.83C544.1,178.42,622.05,172.7,692.57,198q2.91,1.05,5.87,2.17A17.2,17.2,0,0,1,709,220.66c-.54,2-1.09,4-1.66,6C686.74,298.72,636.65,358.72,570,392.93Z"/><circle class="cls-6" cx="546.77" cy="290.95" r="41.38"/><circle class="cls-7" cx="452.51" cy="339.26" r="20.69"/><circle class="cls-8" cx="376.68" cy="378.18" r="20.69"/><line class="cls-9" x1="152.72" y1="422.99" x2="103.73" y2="448.14"/><line class="cls-10" x1="133.42" y1="473.26" x2="71.42" y2="505.08"/><line class="cls-11" x1="162.91" y1="493.73" x2="132.79" y2="509.19"/><line class="cls-12" x1="167.12" y1="534.3" x2="108.75" y2="564.25"/><line class="cls-13" x1="212.51" y1="539.49" x2="172.65" y2="559.94"/></svg>