<svg id="Camada_1" data-name="Camada 1" xmlns="http://www.w3.org/2000/svg" xmlns:xlink="http://www.w3.org/1999/xlink" viewBox="0 0 760 760"><defs><style>.cls-1,.cls-2,.cls-3{fill:none;stroke-miterlimit:10;stroke-width:8px;}.cls-1{stroke:url(#Gradiente_sem_nome_6);}.cls-2{stroke:url(#Gradiente_sem_nome_6-2);}.cls-3{stroke:url(#Gradiente_sem_nome_6-3);}</style><linearGradient id="Gradiente_sem_nome_6" x1="151.8" y1="370.07" x2="296.15" y2="370.07" gradientUnits="userSpaceOnUse"><stop offset="0.14" stop-color="#679980"/><stop offset="0.83" stop-color="#0f1958"/></linearGradient><linearGradient id="Gradiente_sem_nome_6-2" x1="304.25" y1="375.73" x2="588.76" y2="375.73" xlink:href="#Gradiente_sem_nome_6"/><linearGradient id="Gradiente_sem_nome_6-3" x1="355.65" y1="118.8" x2="394.34" y2="641.2" xlink:href="#Gradiente_sem_nome_6"/></defs><path class="cls-1" d="M261.37,153.87c15.28,33.94,30.53,66.09,30.77,108.94l-19.76,13.45-58.29-25.41-10.46,7.47,7.47,40.36,19.43,14.95v17.93L155.8,380v30.78l28.4,14.94h40.54L241,448.14h20.93v26.91L238,496l6,34.38,23.92,31.39-50.36,22.51"/><path class="cls-2" d="M478.71,143.81l-1.56,54.73,12,34.37-13.46,13.46H405.41L392,253.84v26.9l-43.34,16.44,9.76,16.48L405,306.83l18.89,25-5,26.62-58.05,7.73-29.73-6.56-22.83,3.78v30.93l43.35,22.42L375,437.68V487l23.69,22.42,41.1-35.87L460.71,380l28.4-23L519,380h38.86l26.9,21.81v38.86l-20.92,68.75S545.27,567,501.49,604.73"/><circle class="cls-3" cx="374.99" cy="380" r="257.9"/></svg>