<svg id="Camada_1" data-name="Camada 1" xmlns="http://www.w3.org/2000/svg" xmlns:xlink="http://www.w3.org/1999/xlink" viewBox="0 0 760 760"><defs><style>.cls-1,.cls-10,.cls-11,.cls-12,.cls-13,.cls-14,.cls-15,.cls-16,.cls-17,.cls-18,.cls-2,.cls-20,.cls-21,.cls-22,.cls-23,.cls-24,.cls-3,.cls-4,.cls-5,.cls-6,.cls-7,.cls-8,.cls-9{fill:none;}.cls-1,.cls-10,.cls-11,.cls-12,.cls-13,.cls-14,.cls-15,.cls-16,.cls-17,.cls-18,.cls-19,.cls-2,.cls-20,.cls-21,.cls-22,.cls-23,.cls-24,.cls-3,.cls-4,.cls-5,.cls-6,.cls-7,.cls-8,.cls-9{stroke-miterlimit:10;stroke-width:8px;}.cls-1{stroke:url(#Gradiente_sem_nome_6);}.cls-2{stroke:url(#Gradiente_sem_nome_6-2);}.cls-3{stroke:url(#Gradiente_sem_nome_6-3);}.cls-4{stroke:url(#Gradiente_sem_nome_6-7);}.cls-5{stroke:url(#Gradiente_sem_nome_6-8);}.cls-6{stroke:url(#Gradiente_sem_nome_6-9);}.cls-7{stroke:url(#Gradiente_sem_nome_6-10);}.cls-8{stroke:url(#Gradiente_sem_nome_6-11);}.cls-9{stroke:url(#Gradiente_sem_nome_6-12);}.cls-10{stroke:url(#Gradiente_sem_nome_6-13);}.cls-11{stroke:url(#Gradiente_sem_nome_6-14);}.cls-12{stroke:url(#Gradiente_sem_nome_6-15);}.cls-13{stroke:url(#Gradiente_sem_nome_6-16);}.cls-14{stroke:url(#Gradiente_sem_nome_6-17);}.cls-15{stroke:url(#Gradiente_sem_nome_6-18);}.cls-16{stroke:url(#Gradiente_sem_nome_6-19);}.cls-17{stroke:url(#Gradiente_sem_nome_6-20);}.cls-18{stroke:url(#Gradiente_sem_nome_6-21);}.cls-19{fill:#0f1958;stroke:#0f1958;}.cls-20{stroke:url(#Gradiente_sem_nome_6-22);}.cls-21{stroke:url(#Gradiente_sem_nome_6-23);}.cls-22{stroke:url(#Gradiente_sem_nome_6-24);}.cls-23{stroke:url(#Gradiente_sem_nome_6-25);}.cls-24{stroke:url(#Gradiente_sem_nome_6-26);}</style><linearGradient id="Gradiente_sem_nome_6" x1="311.21" y1="290.38" x2="386.89" y2="290.38" gradientUnits="userSpaceOnUse"><stop offset="0.14" stop-color="#679980"/><stop offset="0.83" stop-color="#0f1958"/></linearGradient><linearGradient id="Gradiente_sem_nome_6-2" x1="390.44" y1="375.94" x2="497.38" y2="375.94" xlink:href="#Gradiente_sem_nome_6"/><linearGradient id="Gradiente_sem_nome_6-3" x1="311.21" y1="275.04" x2="617.58" y2="275.04" xlink:href="#Gradiente_sem_nome_6"/><linearGradient id="Gradiente_sem_nome_6-7" x1="361.38" y1="113.21" x2="567.41" y2="113.21" xlink:href="#Gradiente_sem_nome_6"/><linearGradient id="Gradiente_sem_nome_6-8" x1="361.38" y1="150.28" x2="567.41" y2="150.28" xlink:href="#Gradiente_sem_nome_6"/><linearGradient id="Gradiente_sem_nome_6-9" x1="361.38" y1="187.35" x2="567.41" y2="187.35" xlink:href="#Gradiente_sem_nome_6"/><linearGradient id="Gradiente_sem_nome_6-10" x1="361.38" y1="224.43" x2="567.41" y2="224.43" xlink:href="#Gradiente_sem_nome_6"/><linearGradient id="Gradiente_sem_nome_6-11" x1="437.26" y1="257.47" x2="567.41" y2="257.47" xlink:href="#Gradiente_sem_nome_6"/><linearGradient id="Gradiente_sem_nome_6-12" x1="487.49" y1="294.55" x2="567.41" y2="294.55" xlink:href="#Gradiente_sem_nome_6"/><linearGradient id="Gradiente_sem_nome_6-13" x1="450.07" y1="294.55" x2="450.34" y2="294.55" xlink:href="#Gradiente_sem_nome_6"/><linearGradient id="Gradiente_sem_nome_6-14" x1="509.04" y1="331.61" x2="567.41" y2="331.61" xlink:href="#Gradiente_sem_nome_6"/><linearGradient id="Gradiente_sem_nome_6-15" x1="481.47" y1="331.61" x2="481.79" y2="331.61" xlink:href="#Gradiente_sem_nome_6"/><linearGradient id="Gradiente_sem_nome_6-16" x1="517.16" y1="368.69" x2="567.41" y2="368.69" xlink:href="#Gradiente_sem_nome_6"/><linearGradient id="Gradiente_sem_nome_6-17" x1="492.52" y1="368.69" x2="492.79" y2="368.69" xlink:href="#Gradiente_sem_nome_6"/><linearGradient id="Gradiente_sem_nome_6-18" x1="326.24" y1="259.5" x2="632.61" y2="259.5" xlink:href="#Gradiente_sem_nome_6"/><linearGradient id="Gradiente_sem_nome_6-19" x1="340.3" y1="245.33" x2="646.68" y2="245.33" xlink:href="#Gradiente_sem_nome_6"/><linearGradient id="Gradiente_sem_nome_6-20" x1="390.44" y1="379.9" x2="497.38" y2="379.9" xlink:href="#Gradiente_sem_nome_6"/><linearGradient id="Gradiente_sem_nome_6-21" x1="68.31" y1="642.91" x2="252.97" y2="642.91" xlink:href="#Gradiente_sem_nome_6"/><linearGradient id="Gradiente_sem_nome_6-22" x1="224.94" y1="518.13" x2="320.57" y2="517.33" xlink:href="#Gradiente_sem_nome_6"/><linearGradient id="Gradiente_sem_nome_6-23" x1="302.39" y1="324.87" x2="403.1" y2="329.35" gradientTransform="translate(-3.68 8.89) rotate(-2.55)" xlink:href="#Gradiente_sem_nome_6"/><linearGradient id="Gradiente_sem_nome_6-24" x1="296.53" y1="375.69" x2="497.28" y2="384.62" xlink:href="#Gradiente_sem_nome_6"/><linearGradient id="Gradiente_sem_nome_6-25" x1="253.23" y1="371.69" x2="521.33" y2="383.62" xlink:href="#Gradiente_sem_nome_6"/><linearGradient id="Gradiente_sem_nome_6-26" x1="277.14" y1="375.03" x2="497" y2="384.81" xlink:href="#Gradiente_sem_nome_6"/></defs><path class="cls-1" d="M386.87,273.74a105.79,105.79,0,0,0-71.66,28.14v-.24a106.56,106.56,0,0,1,71.66-27.9Z"/><path class="cls-2" d="M493.38,379.91a106.2,106.2,0,0,1-65.66,98.17h-.37c1.87-.78,3.74-1.61,5.59-2.5a106.08,106.08,0,0,0,49.67-141.67c-.37-.77-.75-1.54-1.14-2.3a105.34,105.34,0,0,0-31.4-37.06,106.56,106.56,0,0,0-59.49-20.75,105.54,105.54,0,0,1,59.76,20.75,106.67,106.67,0,0,1,31.45,37.06,105.52,105.52,0,0,1,11,37.08A106.82,106.82,0,0,1,493.38,379.91Z"/><path class="cls-3" d="M613.58,80.81V469.27a8.81,8.81,0,0,1-8.82,8.81H470.12A130.11,130.11,0,0,0,509,331.61c-1.33-3.47-2.8-6.93-4.45-10.36a130.16,130.16,0,0,0-173.71-60.9,132.31,132.31,0,0,0-15.67,8.91V80.81A8.81,8.81,0,0,1,324,72H604.76A8.81,8.81,0,0,1,613.58,80.81Z"/><path class="cls-1" d="M386.87,273.74a105.79,105.79,0,0,0-71.66,28.14v-.24a106.56,106.56,0,0,1,71.66-27.9Z"/><path class="cls-2" d="M493.38,379.91a106.2,106.2,0,0,1-65.66,98.17h-.37c1.87-.78,3.74-1.61,5.59-2.5a106.08,106.08,0,0,0,49.67-141.67c-.37-.77-.75-1.54-1.14-2.3a105.34,105.34,0,0,0-31.4-37.06,106.56,106.56,0,0,0-59.49-20.75,105.54,105.54,0,0,1,59.76,20.75,106.67,106.67,0,0,1,31.45,37.06,105.52,105.52,0,0,1,11,37.08A106.82,106.82,0,0,1,493.38,379.91Z"/><path class="cls-3" d="M613.58,80.81V469.27a8.81,8.81,0,0,1-8.82,8.81H470.12A130.11,130.11,0,0,0,509,331.61c-1.33-3.47-2.8-6.93-4.45-10.36a130.16,130.16,0,0,0-173.71-60.9,132.31,132.31,0,0,0-15.67,8.91V80.81A8.81,8.81,0,0,1,324,72H604.76A8.81,8.81,0,0,1,613.58,80.81Z"/><line class="cls-4" x1="361.38" y1="113.21" x2="567.41" y2="113.21"/><line class="cls-5" x1="361.38" y1="150.28" x2="567.41" y2="150.28"/><line class="cls-6" x1="361.38" y1="187.35" x2="567.41" y2="187.35"/><line class="cls-7" x1="361.38" y1="224.43" x2="567.41" y2="224.43"/><line class="cls-8" x1="437.26" y1="257.47" x2="567.41" y2="257.47"/><line class="cls-9" x1="567.41" y1="294.55" x2="487.49" y2="294.55"/><line class="cls-10" x1="450.34" y1="294.55" x2="450.07" y2="294.55"/><line class="cls-11" x1="567.41" y1="331.61" x2="509.04" y2="331.61"/><line class="cls-12" x1="481.79" y1="331.61" x2="481.47" y2="331.61"/><line class="cls-13" x1="567.41" y1="368.69" x2="517.16" y2="368.69"/><line class="cls-14" x1="492.79" y1="368.69" x2="492.52" y2="368.69"/><path class="cls-15" d="M330.24,72V64.46a8,8,0,0,1,8-8H620.61a8,8,0,0,1,8,8V454.54a8,8,0,0,1-8,8h-7"/><path class="cls-16" d="M344.3,57.83V50.29a8,8,0,0,1,8-8H634.68a8,8,0,0,1,8,8V440.37a8,8,0,0,1-8,8h-7"/><path class="cls-17" d="M493.38,379.91A106.06,106.06,0,0,1,391.37,486a105.67,105.67,0,0,0,36-7.92c1.87-.78,3.74-1.61,5.59-2.5a106.08,106.08,0,0,0,49.67-141.67c-.37-.77-.75-1.54-1.14-2.3a105.34,105.34,0,0,0-31.4-37.06,106.56,106.56,0,0,0-59.49-20.75,105.54,105.54,0,0,1,59.76,20.75,106.67,106.67,0,0,1,31.45,37.06,105.52,105.52,0,0,1,11,37.08A106.82,106.82,0,0,1,493.38,379.91Z"/><path class="cls-18" d="M250,576.06,106.56,737.6c-2.36,2.66-11.82-1.88-21.13-10.15s-15-17.12-12.58-19.78L216.26,546.12"/><path class="cls-19" d="M245.85,565.14c3.89,5,5.64,9.22,4.13,10.92-2.36,2.66-11.82-1.89-21.14-10.15s-14.94-17.13-12.58-19.79c1.48-1.66,5.73-.51,11,2.61"/><path class="cls-20" d="M314.67,487.11l-68.55,77.21a1.15,1.15,0,0,1-.82.34c-1.82.13-5.7-2-9.55-5.44s-6.37-6.9-6.53-8.75a1.2,1.2,0,0,1,.24-1L298,472.35l0,0,7.14,6.34.05.05Z"/><path class="cls-21" d="M412.59,299.29s-60.92-16.78-96.27,45.51"/><path class="cls-22" d="M298,472.31l0,0c2.31,2.21,4.72,4.3,7.18,6.3Zm194.8-103.62a105.52,105.52,0,0,0-11-37.08,106.67,106.67,0,0,0-31.45-37.06,105.54,105.54,0,0,0-59.76-20.75,106.56,106.56,0,0,1,59.49,20.75,105.34,105.34,0,0,1,31.4,37.06c.39.76.77,1.53,1.14,2.3a106.08,106.08,0,0,1-49.67,141.67c-1.85.89-3.72,1.72-5.59,2.5a105.67,105.67,0,0,1-36,7.92,106.06,106.06,0,0,0,102-106.09A106.82,106.82,0,0,0,492.79,368.69Z"/><path class="cls-23" d="M517.16,368.69A129.35,129.35,0,0,0,509,331.61c-1.33-3.47-2.8-6.93-4.45-10.36a130.16,130.16,0,0,0-173.71-60.9,132.31,132.31,0,0,0-15.67,8.91A130.21,130.21,0,0,0,298,472.35l0,0,7.14,6.34.05.05a130.23,130.23,0,0,0,212-110ZM427.72,478.08A105.51,105.51,0,0,1,391.37,486l-1.51.05c-.83,0-1.66,0-2.49,0H387c-.85,0-1.72,0-2.57,0s-1.81-.05-2.71-.1-1.81-.1-2.71-.17-1.8-.15-2.68-.24-1.79-.2-2.68-.3q-2.64-.33-5.27-.81c-.78-.14-1.55-.28-2.32-.44l-2.23-.48h-.07l-2.21-.53a106.16,106.16,0,0,1,25.29-209.23c.68,0,1.35,0,2,0l1.7,0a105.54,105.54,0,0,1,59.76,20.75,106.67,106.67,0,0,1,31.45,37.06,105.52,105.52,0,0,1,11,37.08,106.27,106.27,0,0,1-65.07,109.39Z"/><path class="cls-24" d="M432.94,475.58c-1.85.89-3.72,1.72-5.59,2.5a105.67,105.67,0,0,1-36,7.92l-1.51.05c-.83,0-1.66,0-2.49,0H387c-.85,0-1.72,0-2.57,0s-1.81-.05-2.71-.1-1.82-.11-2.71-.17-1.8-.15-2.68-.24-1.79-.2-2.68-.3c-1.76-.23-3.53-.5-5.27-.81l-2.32-.44-2.23-.48h-.07l-2.21-.53a106.19,106.19,0,0,1,25.29-209.23c.68,0,1.35,0,2,0l1.7,0a106.56,106.56,0,0,1,59.49,20.75,105.34,105.34,0,0,1,31.4,37.06c.39.76.77,1.53,1.14,2.3a106.08,106.08,0,0,1-49.67,141.67Z"/></svg>