<svg id="Camada_1" data-name="Camada 1" xmlns="http://www.w3.org/2000/svg" xmlns:xlink="http://www.w3.org/1999/xlink" viewBox="0 0 760 760"><defs><style>.cls-1,.cls-2,.cls-3,.cls-4,.cls-5,.cls-6,.cls-7,.cls-8,.cls-9{fill:none;stroke-miterlimit:10;stroke-width:8px;}.cls-1{stroke:url(#Gradiente_sem_nome_6);}.cls-2{stroke:url(#Gradiente_sem_nome_6-2);}.cls-3{stroke:url(#Gradiente_sem_nome_6-3);}.cls-4{stroke:url(#Gradiente_sem_nome_6-4);}.cls-5{stroke:url(#Gradiente_sem_nome_6-5);}.cls-6{stroke:url(#Gradiente_sem_nome_6-6);}.cls-7{stroke:url(#Gradiente_sem_nome_6-7);}.cls-8{stroke:url(#Gradiente_sem_nome_6-8);}.cls-9{stroke:url(#Gradiente_sem_nome_6-9);}</style><linearGradient id="Gradiente_sem_nome_6" x1="167.48" y1="259.04" x2="596.04" y2="259.04" gradientUnits="userSpaceOnUse"><stop offset="0.14" stop-color="#679980"/><stop offset="0.83" stop-color="#0f1958"/></linearGradient><linearGradient id="Gradiente_sem_nome_6-2" x1="171.83" y1="533.81" x2="590.35" y2="533.81" xlink:href="#Gradiente_sem_nome_6"/><linearGradient id="Gradiente_sem_nome_6-3" x1="167.48" y1="334.22" x2="596.04" y2="334.22" xlink:href="#Gradiente_sem_nome_6"/><linearGradient id="Gradiente_sem_nome_6-4" x1="245.75" y1="227.09" x2="320.93" y2="227.09" xlink:href="#Gradiente_sem_nome_6"/><linearGradient id="Gradiente_sem_nome_6-5" x1="336.85" y1="93.72" x2="412.03" y2="93.72" xlink:href="#Gradiente_sem_nome_6"/><linearGradient id="Gradiente_sem_nome_6-6" x1="449.58" y1="156.49" x2="524.77" y2="156.49" xlink:href="#Gradiente_sem_nome_6"/><linearGradient id="Gradiente_sem_nome_6-7" x1="279.34" y1="150.1" x2="287.34" y2="150.1" xlink:href="#Gradiente_sem_nome_6"/><linearGradient id="Gradiente_sem_nome_6-8" x1="370.44" y1="177.98" x2="378.44" y2="177.98" xlink:href="#Gradiente_sem_nome_6"/><linearGradient id="Gradiente_sem_nome_6-9" x1="483.17" y1="60.13" x2="491.17" y2="60.13" xlink:href="#Gradiente_sem_nome_6"/></defs><path class="cls-1" d="M592,259c0,20.86-94.15,37.78-210.28,37.78S171.48,279.9,171.48,259c0-11.89,30.57-22.5,78.37-29.42a33.59,33.59,0,0,0,67.08-2.53,32.76,32.76,0,0,0-.24-4c20.49-1.19,42.36-1.84,65.07-1.84C497.89,221.26,592,238.18,592,259Z"/><path class="cls-2" d="M174.52,374.34l169,153.18a22.34,22.34,0,0,1,7.31,16.54v94.46a1.05,1.05,0,0,0,.35.78L409,692a1.05,1.05,0,0,0,1.76-.78V544.13a22.31,22.31,0,0,1,7.4-16.62l169.56-152"/><path class="cls-3" d="M171.48,259V367.63c0,20.86,94.15,37.78,210.28,37.78S592,388.49,592,367.63V259"/><path class="cls-4" d="M316.93,227.09a33.59,33.59,0,0,1-67.08,2.53c-.07-.84-.1-1.68-.1-2.53a33.59,33.59,0,0,1,66.94-4A32.76,32.76,0,0,1,316.93,227.09Z"/><circle class="cls-5" cx="374.44" cy="93.72" r="33.59"/><circle class="cls-6" cx="487.17" cy="156.49" r="33.59"/><line class="cls-7" x1="283.34" y1="128.6" x2="283.34" y2="171.59"/><line class="cls-8" x1="374.44" y1="156.49" x2="374.44" y2="199.48"/><line class="cls-9" x1="487.17" y1="38.63" x2="487.17" y2="81.62"/></svg>