<svg id="Camada_1" data-name="Camada 1" xmlns="http://www.w3.org/2000/svg" xmlns:xlink="http://www.w3.org/1999/xlink" viewBox="0 0 760 760"><defs><style>.cls-1,.cls-10,.cls-11,.cls-12,.cls-13,.cls-2,.cls-3,.cls-4,.cls-5,.cls-6,.cls-7,.cls-8,.cls-9{fill:none;stroke-miterlimit:10;stroke-width:8px;}.cls-1{stroke:url(#Gradiente_sem_nome_6);}.cls-2{stroke:url(#Gradiente_sem_nome_6-2);}.cls-3{stroke:url(#Gradiente_sem_nome_6-3);}.cls-4{stroke:url(#Gradiente_sem_nome_6-4);}.cls-5{stroke:url(#Gradiente_sem_nome_6-5);}.cls-6{stroke:url(#Gradiente_sem_nome_6-6);}.cls-7{stroke:url(#Gradiente_sem_nome_6-7);}.cls-8{stroke:url(#Gradiente_sem_nome_6-8);}.cls-9{stroke:url(#Gradiente_sem_nome_6-9);}.cls-10{stroke:url(#Gradiente_sem_nome_6-10);}.cls-11{stroke:url(#Gradiente_sem_nome_6-11);}.cls-12{stroke:url(#Gradiente_sem_nome_6-12);}.cls-13{stroke:url(#Gradiente_sem_nome_6-13);}</style><linearGradient id="Gradiente_sem_nome_6" x1="95.53" y1="542.52" x2="139.58" y2="542.52" gradientUnits="userSpaceOnUse"><stop offset="0.14" stop-color="#679980"/><stop offset="0.83" stop-color="#0f1958"/></linearGradient><linearGradient id="Gradiente_sem_nome_6-2" x1="140.41" y1="536.13" x2="221.48" y2="536.13" xlink:href="#Gradiente_sem_nome_6"/><linearGradient id="Gradiente_sem_nome_6-3" x1="203.4" y1="542.3" x2="294.29" y2="542.3" xlink:href="#Gradiente_sem_nome_6"/><linearGradient id="Gradiente_sem_nome_6-4" x1="273.32" y1="540.54" x2="347.69" y2="540.54" xlink:href="#Gradiente_sem_nome_6"/><linearGradient id="Gradiente_sem_nome_6-5" x1="382.61" y1="526.04" x2="349.96" y2="526.52" xlink:href="#Gradiente_sem_nome_6"/><linearGradient id="Gradiente_sem_nome_6-6" x1="429.64" y1="492.4" x2="390.75" y2="492.97" xlink:href="#Gradiente_sem_nome_6"/><linearGradient id="Gradiente_sem_nome_6-7" x1="479.77" y1="431.1" x2="407.59" y2="432.15" xlink:href="#Gradiente_sem_nome_6"/><linearGradient id="Gradiente_sem_nome_6-8" x1="520.06" y1="361.96" x2="431.69" y2="363.26" xlink:href="#Gradiente_sem_nome_6"/><linearGradient id="Gradiente_sem_nome_6-9" x1="542.12" y1="296.94" x2="468.1" y2="298.02" xlink:href="#Gradiente_sem_nome_6"/><linearGradient id="Gradiente_sem_nome_6-10" x1="527.98" y1="249.99" x2="554.4" y2="249.99" xlink:href="#Gradiente_sem_nome_6"/><linearGradient id="Gradiente_sem_nome_6-11" x1="567.24" y1="227.62" x2="601.19" y2="227.62" xlink:href="#Gradiente_sem_nome_6"/><linearGradient id="Gradiente_sem_nome_6-12" x1="601.56" y1="209.01" x2="659.48" y2="209.01" xlink:href="#Gradiente_sem_nome_6"/><linearGradient id="Gradiente_sem_nome_6-13" x1="723.15" y1="375.27" x2="36.97" y2="385.32" xlink:href="#Gradiente_sem_nome_6"/></defs><line class="cls-1" x1="98.98" y1="510.91" x2="136.13" y2="574.14"/><line class="cls-2" x1="143.98" y1="463.38" x2="217.92" y2="608.88"/><line class="cls-3" x1="207" y1="455.32" x2="290.68" y2="629.29"/><line class="cls-4" x1="276.92" y1="470.67" x2="344.08" y2="610.41"/><line class="cls-5" x1="353.16" y1="500.96" x2="379.4" y2="551.6"/><line class="cls-6" x1="393.88" y1="459.55" x2="426.51" y2="525.83"/><line class="cls-7" x1="410.2" y1="362.28" x2="477.17" y2="500.96"/><line class="cls-8" x1="434.08" y1="281.34" x2="517.68" y2="443.88"/><line class="cls-9" x1="470.71" y1="236.3" x2="539.51" y2="358.66"/><line class="cls-10" x1="531.38" y1="234.16" x2="551" y2="265.82"/><line class="cls-11" x1="570.93" y1="195.65" x2="597.5" y2="259.58"/><line class="cls-12" x1="605.3" y1="142.77" x2="655.74" y2="275.25"/><path class="cls-13" d="M78.62,595.85c4-38.28,12.25-65.86,20.36-84.94,13.66-32.15,44.38-54.62,79.27-56.45,73.61-3.85,173,44.49,206.55,62.14,9.74,5.12,20.36,8.62,31.35,9.22,110.35,6.06,123.36-176.13,123.36-176.13C563,85.94,655.74,131.76,655.74,131.76l60.58,147.35S665,292,531.38,234.16C417.22,184.76,396,415.89,392.17,484.09c-1.38,25-5.94,49.89-14.88,73.32-14.56,38.13-42.87,80.46-95.7,70.37-92.44-17.66-131.91-66.48-233.7-71.67Z"/></svg>