<svg id="Camada_1" data-name="Camada 1" xmlns="http://www.w3.org/2000/svg" xmlns:xlink="http://www.w3.org/1999/xlink" viewBox="0 0 760 760"><defs><style>.cls-1,.cls-10,.cls-11,.cls-12,.cls-13,.cls-14,.cls-15,.cls-16,.cls-2,.cls-3,.cls-4,.cls-5,.cls-6,.cls-7,.cls-8,.cls-9{fill:none;stroke-miterlimit:10;stroke-width:8px;}.cls-1{stroke:url(#Gradiente_sem_nome_6);}.cls-2{stroke:url(#Gradiente_sem_nome_6-2);}.cls-3{stroke:url(#Gradiente_sem_nome_6-3);}.cls-4{stroke:url(#Gradiente_sem_nome_6-4);}.cls-5{stroke:url(#Gradiente_sem_nome_6-5);}.cls-6{stroke:url(#Gradiente_sem_nome_6-6);}.cls-7{stroke:url(#Gradiente_sem_nome_6-7);}.cls-8{stroke:url(#Gradiente_sem_nome_6-8);}.cls-9{stroke:url(#Gradiente_sem_nome_6-9);}.cls-10{stroke:url(#Gradiente_sem_nome_6-10);}.cls-11{stroke:url(#Gradiente_sem_nome_6-11);}.cls-12{stroke:url(#Gradiente_sem_nome_6-12);}.cls-13{stroke:url(#Gradiente_sem_nome_6-13);}.cls-14{stroke:url(#Gradiente_sem_nome_6-14);}.cls-15{stroke:url(#Gradiente_sem_nome_6-15);}.cls-16{stroke:url(#Gradiente_sem_nome_6-16);}</style><linearGradient id="Gradiente_sem_nome_6" x1="138.86" y1="497.87" x2="194.48" y2="497.87" gradientUnits="userSpaceOnUse"><stop offset="0.14" stop-color="#679980"/><stop offset="0.83" stop-color="#0f1958"/></linearGradient><linearGradient id="Gradiente_sem_nome_6-2" x1="177.34" y1="293.91" x2="461.29" y2="293.91" xlink:href="#Gradiente_sem_nome_6"/><linearGradient id="Gradiente_sem_nome_6-3" x1="207.66" y1="280.75" x2="451.36" y2="280.75" xlink:href="#Gradiente_sem_nome_6"/><linearGradient id="Gradiente_sem_nome_6-4" x1="140.47" y1="389.74" x2="580.17" y2="389.74" xlink:href="#Gradiente_sem_nome_6"/><linearGradient id="Gradiente_sem_nome_6-5" x1="548.4" y1="704.32" x2="604.01" y2="704.32" xlink:href="#Gradiente_sem_nome_6"/><linearGradient id="Gradiente_sem_nome_6-6" x1="182.38" y1="294.48" x2="554.56" y2="294.48" xlink:href="#Gradiente_sem_nome_6"/><linearGradient id="Gradiente_sem_nome_6-7" x1="181.73" y1="67.48" x2="237.35" y2="67.48" xlink:href="#Gradiente_sem_nome_6"/><linearGradient id="Gradiente_sem_nome_6-8" x1="339.46" y1="487.49" x2="395.08" y2="487.49" xlink:href="#Gradiente_sem_nome_6"/><linearGradient id="Gradiente_sem_nome_6-9" x1="532.92" y1="200.81" x2="588.53" y2="200.81" xlink:href="#Gradiente_sem_nome_6"/><linearGradient id="Gradiente_sem_nome_6-10" x1="435.75" y1="79.38" x2="491.37" y2="79.38" xlink:href="#Gradiente_sem_nome_6"/><linearGradient id="Gradiente_sem_nome_6-11" x1="115.04" y1="141.76" x2="170.69" y2="141.76" xlink:href="#Gradiente_sem_nome_6"/><linearGradient id="Gradiente_sem_nome_6-12" x1="429.34" y1="394.27" x2="484.96" y2="394.27" xlink:href="#Gradiente_sem_nome_6"/><linearGradient id="Gradiente_sem_nome_6-13" x1="263.87" y1="248.43" x2="319.49" y2="248.43" xlink:href="#Gradiente_sem_nome_6"/><linearGradient id="Gradiente_sem_nome_6-14" x1="138.86" y1="355.17" x2="194.48" y2="355.17" xlink:href="#Gradiente_sem_nome_6"/><linearGradient id="Gradiente_sem_nome_6-15" x1="429.34" y1="317.48" x2="484.96" y2="317.48" xlink:href="#Gradiente_sem_nome_6"/><linearGradient id="Gradiente_sem_nome_6-16" x1="216.26" y1="410.35" x2="271.87" y2="410.35" xlink:href="#Gradiente_sem_nome_6"/></defs><path class="cls-1" d="M190.48,497.86a23.81,23.81,0,1,1-23.79-23.8,23.16,23.16,0,0,1,4.19.38,23.79,23.79,0,0,1,19.6,23.42Z"/><path class="cls-2" d="M456.58,102.14,429.12,225.27l-11.46,51.31L395.25,377l-4.38,2.28L283.6,435.24l-96.54,50.33a23.84,23.84,0,0,0-4.39-5.35L223.9,423a23.81,23.81,0,1,0,25.83-35.81l15.61-21.64,91.51-126.89,9.7-13.45,89-123.42C455.91,101.94,456.26,102,456.58,102.14Z"/><path class="cls-3" d="M433.34,317.49A23.68,23.68,0,0,1,441,300l-23.32-23.45-41.33-41.51-9.78-9.83L260.64,118.83l-34.3-34.48a23.74,23.74,0,0,1-14.27,6.79L216,127.8l18.7,173.63v0L241.34,363l2.54,23.57h.17a23.56,23.56,0,0,1,5.68.68,23.82,23.82,0,0,1,14.83,35.25l19,12.77L345.9,477a23.83,23.83,0,0,1,35.3-8.77l42.64-85.28L446,338.55A23.85,23.85,0,0,1,433.34,317.49ZM267.87,248.44a23.8,23.8,0,0,1,47.52-2,17.42,17.42,0,0,1,.1,2,23.81,23.81,0,0,1-47.62,0Z"/><path class="cls-4" d="M501.81,306.48l-18-91.39-22-112a22.53,22.53,0,0,1-5.26-1c-.32-.1-.67-.2-1-.32a23.89,23.89,0,0,1-15.58-19l-179.36,36-44.63,9-49.68,10a23.12,23.12,0,0,1,.36,4,23.82,23.82,0,0,1-21.89,23.72l14.12,167.18a23.3,23.3,0,0,1,7.77-1.31,23.73,23.73,0,0,1,23.79,23.8,20.57,20.57,0,0,1-.1,2.23A23.82,23.82,0,0,1,166.69,379a21.27,21.27,0,0,1-3.87-.33l8.06,95.79A23.82,23.82,0,0,1,184,514.19l369.91,181.7a23.83,23.83,0,0,1,21.41-15.36Zm-68.47,11a23.81,23.81,0,1,1,23.82,23.79A24.1,24.1,0,0,1,446,338.55,23.85,23.85,0,0,1,433.34,317.49ZM267.87,248.44a23.8,23.8,0,0,1,47.52-2,17.42,17.42,0,0,1,.1,2,23.81,23.81,0,0,1-47.62,0Zm-47.61,161.9a23.79,23.79,0,0,1,23.62-23.8h.17a23.56,23.56,0,0,1,5.68.68,23.83,23.83,0,1,1-29.47,23.12Zm147,101a23.81,23.81,0,1,1,23.8-23.82A23.8,23.8,0,0,1,367.28,511.3Zm89.88-93.22a23.82,23.82,0,1,1,23.8-23.8A23.82,23.82,0,0,1,457.16,418.08Z"/><path class="cls-5" d="M600,704.33a23.81,23.81,0,0,1-47.61,0,24.07,24.07,0,0,1,1.53-8.44,23.83,23.83,0,0,1,21.41-15.36c.3,0,.58,0,.88,0A23.79,23.79,0,0,1,600,704.33Z"/><path class="cls-6" d="M537.32,205.17l-53.47,9.92-54.73,10.18-52.79,9.8-19.48,3.62-41.46,7.71a17.42,17.42,0,0,1,.1,2,23.81,23.81,0,0,1-40.38,17.08l-40.4,35.91v0l-47.27,42a23.75,23.75,0,0,1,3,11.69,20.57,20.57,0,0,1-.1,2.23l51,5.58,24,2.61L390.87,379.3l33,3.6,11.74,1.28a23.88,23.88,0,0,1,29.75-12.29l36.48-65.41,47.32-84.85A23.93,23.93,0,0,1,537.32,205.17ZM457.16,341.28A24.1,24.1,0,0,1,446,338.55a23.85,23.85,0,1,1,11.13,2.73Z"/><path class="cls-7" d="M233.35,67.47a23.78,23.78,0,0,1-21.28,23.67,21.38,21.38,0,0,1-2.54.15,23.81,23.81,0,1,1,23.82-23.82Z"/><path class="cls-8" d="M391.08,487.48a23.81,23.81,0,1,1-9.88-19.3A23.8,23.8,0,0,1,391.08,487.48Z"/><path class="cls-9" d="M584.53,200.82a23.8,23.8,0,0,1-23.79,23.8,23.73,23.73,0,0,1-23.42-19.45,22.35,22.35,0,0,1-.4-4.35,23.81,23.81,0,1,1,47.61,0Z"/><path class="cls-10" d="M487.37,79.38a23.82,23.82,0,0,1-23.8,23.82c-.58,0-1.16,0-1.73-.08a22.53,22.53,0,0,1-5.26-1c-.32-.1-.67-.2-1-.32a23.89,23.89,0,0,1-15.58-19,21.68,21.68,0,0,1-.25-3.44,23.81,23.81,0,1,1,47.62,0Z"/><path class="cls-11" d="M166.69,141.77a23.82,23.82,0,0,1-21.89,23.72c-.65,0-1.28.08-1.94.08a23.81,23.81,0,1,1,23.47-27.82A23.12,23.12,0,0,1,166.69,141.77Z"/><path class="cls-12" d="M481,394.28a23.75,23.75,0,1,1-15.63-22.39A23.81,23.81,0,0,1,481,394.28Z"/><path class="cls-13" d="M315.49,248.44a24,24,0,1,1-.1-2A17.42,17.42,0,0,1,315.49,248.44Z"/><path class="cls-14" d="M190.48,355.16a20.57,20.57,0,0,1-.1,2.23A23.82,23.82,0,0,1,166.69,379a21.27,21.27,0,0,1-3.87-.33,23.79,23.79,0,0,1-3.9-46,23.3,23.3,0,0,1,7.77-1.31,23.73,23.73,0,0,1,23.79,23.8Z"/><path class="cls-15" d="M481,317.49a23.8,23.8,0,0,1-23.8,23.79A24.1,24.1,0,0,1,446,338.55,23.82,23.82,0,1,1,481,317.49Z"/><path class="cls-16" d="M267.87,410.34a23.81,23.81,0,1,1-24-23.8h.17a23.56,23.56,0,0,1,5.68.68A23.82,23.82,0,0,1,267.87,410.34Z"/></svg>