<svg id="Camada_1" data-name="Camada 1" xmlns="http://www.w3.org/2000/svg" xmlns:xlink="http://www.w3.org/1999/xlink" viewBox="0 0 760 760"><defs><style>.cls-1,.cls-10,.cls-11,.cls-12,.cls-13,.cls-14,.cls-15,.cls-16,.cls-17,.cls-18,.cls-19,.cls-2,.cls-3,.cls-4,.cls-5,.cls-6,.cls-7,.cls-8{fill:none;}.cls-1,.cls-10,.cls-11,.cls-12,.cls-13,.cls-14,.cls-15,.cls-16,.cls-17,.cls-18,.cls-19,.cls-2,.cls-3,.cls-4,.cls-5,.cls-6,.cls-7,.cls-8,.cls-9{stroke-miterlimit:10;stroke-width:8px;}.cls-1{stroke:url(#Gradiente_sem_nome_6);}.cls-2{stroke:url(#Gradiente_sem_nome_6-2);}.cls-3{stroke:url(#Gradiente_sem_nome_6-3);}.cls-4{stroke:url(#Gradiente_sem_nome_6-4);}.cls-5{stroke:url(#Gradiente_sem_nome_6-5);}.cls-6{stroke:url(#Gradiente_sem_nome_6-6);}.cls-7{stroke:url(#Gradiente_sem_nome_6-7);}.cls-8{stroke:url(#Gradiente_sem_nome_6-8);}.cls-9{fill:#0f1958;stroke:#0f1958;}.cls-10{stroke:url(#Gradiente_sem_nome_6-9);}.cls-11{stroke:url(#Gradiente_sem_nome_6-10);}.cls-12{stroke:url(#Gradiente_sem_nome_6-11);}.cls-13{stroke:url(#Gradiente_sem_nome_6-12);}.cls-14{stroke:url(#Gradiente_sem_nome_6-13);}.cls-15{stroke:url(#Gradiente_sem_nome_6-14);}.cls-16{stroke:url(#Gradiente_sem_nome_6-15);}.cls-17{stroke:url(#Gradiente_sem_nome_6-16);}.cls-18{stroke:url(#Gradiente_sem_nome_6-17);}.cls-19{stroke:url(#Gradiente_sem_nome_6-18);}.cls-20{font-size:105.98px;fill:#0d1660;font-family:NeuePlak-ExtendedBold, Neue Plak;font-weight:700;}.cls-21{letter-spacing:0.01em;}</style><linearGradient id="Gradiente_sem_nome_6" x1="510.91" y1="135.31" x2="562.97" y2="135.31" gradientUnits="userSpaceOnUse"><stop offset="0.14" stop-color="#679980"/><stop offset="0.83" stop-color="#0f1958"/></linearGradient><linearGradient id="Gradiente_sem_nome_6-2" x1="596.11" y1="211.27" x2="676.08" y2="211.27" xlink:href="#Gradiente_sem_nome_6"/><linearGradient id="Gradiente_sem_nome_6-3" x1="596.13" y1="542.67" x2="676.09" y2="542.67" xlink:href="#Gradiente_sem_nome_6"/><linearGradient id="Gradiente_sem_nome_6-4" x1="405.79" y1="127.05" x2="413.79" y2="127.05" xlink:href="#Gradiente_sem_nome_6"/><linearGradient id="Gradiente_sem_nome_6-5" x1="510.91" y1="618.93" x2="562.97" y2="618.93" xlink:href="#Gradiente_sem_nome_6"/><linearGradient id="Gradiente_sem_nome_6-6" x1="405.79" y1="627.18" x2="413.79" y2="627.18" xlink:href="#Gradiente_sem_nome_6"/><linearGradient id="Gradiente_sem_nome_6-7" x1="596.11" y1="337.19" x2="692.59" y2="337.19" xlink:href="#Gradiente_sem_nome_6"/><linearGradient id="Gradiente_sem_nome_6-8" x1="596.11" y1="443.49" x2="692.59" y2="443.49" xlink:href="#Gradiente_sem_nome_6"/><linearGradient id="Gradiente_sem_nome_6-9" x1="244.74" y1="135.31" x2="296.8" y2="135.31" xlink:href="#Gradiente_sem_nome_6"/><linearGradient id="Gradiente_sem_nome_6-10" x1="116.39" y1="211.27" x2="223.47" y2="211.27" xlink:href="#Gradiente_sem_nome_6"/><linearGradient id="Gradiente_sem_nome_6-11" x1="116.38" y1="542.67" x2="223.45" y2="542.67" xlink:href="#Gradiente_sem_nome_6"/><linearGradient id="Gradiente_sem_nome_6-12" x1="244.74" y1="618.93" x2="296.8" y2="618.93" xlink:href="#Gradiente_sem_nome_6"/><linearGradient id="Gradiente_sem_nome_6-13" x1="99.88" y1="337.19" x2="223.47" y2="337.19" xlink:href="#Gradiente_sem_nome_6"/><linearGradient id="Gradiente_sem_nome_6-14" x1="99.88" y1="443.49" x2="223.47" y2="443.49" xlink:href="#Gradiente_sem_nome_6"/><linearGradient id="Gradiente_sem_nome_6-15" x1="397.36" y1="243.23" x2="404.56" y2="243.23" xlink:href="#Gradiente_sem_nome_6"/><linearGradient id="Gradiente_sem_nome_6-16" x1="397.36" y1="511.7" x2="404.56" y2="511.7" xlink:href="#Gradiente_sem_nome_6"/><linearGradient id="Gradiente_sem_nome_6-17" x1="219.47" y1="377.18" x2="600.12" y2="377.18" xlink:href="#Gradiente_sem_nome_6"/><linearGradient id="Gradiente_sem_nome_6-18" x1="288.6" y1="377.18" x2="530.99" y2="377.18" xlink:href="#Gradiente_sem_nome_6"/></defs><path class="cls-1" d="M514.91,188.84v-60a17.66,17.66,0,0,1,6.86-14l38.76-29.91"/><path class="cls-2" d="M596.11,233.3H629a17.64,17.64,0,0,0,14-6.86l29.91-38.75"/><path class="cls-3" d="M596.13,520.64h32.92a17.65,17.65,0,0,1,14,6.86l29.92,38.76"/><line class="cls-4" x1="409.79" y1="65.26" x2="409.79" y2="188.84"/><path class="cls-5" d="M514.91,565.39v60a17.65,17.65,0,0,0,6.86,14l38.76,29.92"/><line class="cls-6" x1="409.79" y1="688.98" x2="409.79" y2="565.39"/><line class="cls-7" x1="692.59" y1="337.19" x2="596.11" y2="337.19"/><line class="cls-8" x1="692.59" y1="443.49" x2="596.11" y2="443.49"/><circle class="cls-9" cx="569.42" cy="80.09" r="14.84"/><circle class="cls-9" cx="677.75" cy="187.69" r="14.84"/><circle class="cls-9" cx="677.77" cy="575.15" r="14.84"/><circle class="cls-9" cx="409.79" cy="65.26" r="14.84"/><circle class="cls-9" cx="569.42" cy="674.14" r="14.84"/><circle class="cls-9" cx="409.79" cy="688.98" r="14.84"/><circle class="cls-9" cx="692.59" cy="337.19" r="14.84"/><circle class="cls-9" cx="692.59" cy="443.49" r="14.84"/><path class="cls-10" d="M292.8,188.84v-60a17.64,17.64,0,0,0-6.87-14L247.18,84.94"/><path class="cls-11" d="M223.47,233.3h-60a17.64,17.64,0,0,1-14-6.86l-29.91-38.75"/><path class="cls-12" d="M223.45,520.64h-60a17.65,17.65,0,0,0-14,6.86l-29.92,38.76"/><path class="cls-13" d="M292.8,565.39v60a17.63,17.63,0,0,1-6.87,14L247.18,669.3"/><line class="cls-14" x1="99.88" y1="337.19" x2="223.47" y2="337.19"/><line class="cls-15" x1="99.88" y1="443.49" x2="223.47" y2="443.49"/><circle class="cls-9" cx="238.29" cy="80.09" r="14.84"/><circle class="cls-9" cx="114.72" cy="178.79" r="14.84"/><circle class="cls-9" cx="114.7" cy="575.15" r="14.84"/><circle class="cls-9" cx="238.29" cy="674.14" r="14.84"/><circle class="cls-9" cx="99.88" cy="337.19" r="14.84"/><circle class="cls-9" cx="99.88" cy="443.49" r="14.84"/><path class="cls-16" d="M401,243.28a.42.42,0,0,1,0-.1"/><path class="cls-17" d="M401,511.65a.69.69,0,0,0,0,.1"/><path class="cls-18" d="M596.12,226.54v301c0,20.89-18.26,37.82-40.78,37.82H415.28v.17l-150.74,1c-22.64.15-41.07-16.82-41.07-37.81V225.63c0-20.94,18.34-37.89,40.92-37.82l291.09.91C578,188.79,596.12,205.7,596.12,226.54Z"/><path class="cls-19" d="M527,282.44V471.77c0,13.14-11.49,23.79-25.65,23.79h-88.1v.1l-94.8.63c-14.24.09-25.84-10.59-25.84-23.79V281.86c0-13.16,11.54-23.82,25.74-23.78l183.08.57C515.55,258.7,527,269.33,527,282.44Z"/><text class="cls-20" transform="translate(351.38 412.02)"><tspan class="cls-21">A</tspan><tspan x="85.85" y="0">I</tspan></text></svg>