<svg id="Camada_1" data-name="Camada 1" xmlns="http://www.w3.org/2000/svg" xmlns:xlink="http://www.w3.org/1999/xlink" viewBox="0 0 760 760"><defs><style>.cls-1,.cls-10,.cls-11,.cls-12,.cls-13,.cls-14,.cls-15,.cls-16,.cls-17,.cls-18,.cls-19,.cls-2,.cls-20,.cls-21,.cls-22,.cls-23,.cls-24,.cls-25,.cls-26,.cls-27,.cls-28,.cls-29,.cls-3,.cls-30,.cls-4,.cls-5,.cls-6,.cls-7,.cls-8,.cls-9{fill:none;stroke-miterlimit:10;stroke-width:8px;}.cls-1{stroke:url(#Gradiente_sem_nome_6);}.cls-2{stroke:url(#Gradiente_sem_nome_6-2);}.cls-3{stroke:url(#Gradiente_sem_nome_6-3);}.cls-4{stroke:url(#Gradiente_sem_nome_6-4);}.cls-5{stroke:url(#Gradiente_sem_nome_6-5);}.cls-6{stroke:url(#Gradiente_sem_nome_6-6);}.cls-7{stroke:url(#Gradiente_sem_nome_6-7);}.cls-8{stroke:url(#Gradiente_sem_nome_6-8);}.cls-9{stroke:url(#Gradiente_sem_nome_6-9);}.cls-10{stroke:url(#Gradiente_sem_nome_6-10);}.cls-11{stroke:url(#Gradiente_sem_nome_6-11);}.cls-12{stroke:url(#Gradiente_sem_nome_6-12);}.cls-13{stroke:url(#Gradiente_sem_nome_6-13);}.cls-14{stroke:url(#Gradiente_sem_nome_6-14);}.cls-15{stroke:url(#Gradiente_sem_nome_6-15);}.cls-16{stroke:url(#Gradiente_sem_nome_6-16);}.cls-17{stroke:url(#Gradiente_sem_nome_6-17);}.cls-18{stroke:url(#Gradiente_sem_nome_6-18);}.cls-19{stroke:url(#Gradiente_sem_nome_6-19);}.cls-20{stroke:url(#Gradiente_sem_nome_6-20);}.cls-21{stroke:url(#Gradiente_sem_nome_6-23);}.cls-22{stroke:url(#Gradiente_sem_nome_6-24);}.cls-23{stroke:url(#Gradiente_sem_nome_6-25);}.cls-24{stroke:url(#Gradiente_sem_nome_6-26);}.cls-25{stroke:url(#Gradiente_sem_nome_6-27);}.cls-26{stroke:url(#Gradiente_sem_nome_6-28);}.cls-27{stroke:url(#Gradiente_sem_nome_6-29);}.cls-28{stroke:url(#Gradiente_sem_nome_6-30);}.cls-29{stroke:url(#Gradiente_sem_nome_6-33);}.cls-30{stroke:url(#Gradiente_sem_nome_6-34);}</style><linearGradient id="Gradiente_sem_nome_6" x1="80.67" y1="622.79" x2="697.17" y2="622.79" gradientUnits="userSpaceOnUse"><stop offset="0.14" stop-color="#679980"/><stop offset="0.83" stop-color="#0f1958"/></linearGradient><linearGradient id="Gradiente_sem_nome_6-2" x1="80.67" y1="534.78" x2="697.17" y2="534.78" xlink:href="#Gradiente_sem_nome_6"/><linearGradient id="Gradiente_sem_nome_6-3" x1="108.52" y1="528.87" x2="661.62" y2="528.87" xlink:href="#Gradiente_sem_nome_6"/><linearGradient id="Gradiente_sem_nome_6-4" x1="80.67" y1="412.89" x2="697.17" y2="412.89" xlink:href="#Gradiente_sem_nome_6"/><linearGradient id="Gradiente_sem_nome_6-5" x1="80.67" y1="342.23" x2="350.97" y2="342.23" xlink:href="#Gradiente_sem_nome_6"/><linearGradient id="Gradiente_sem_nome_6-6" x1="528.52" y1="423.47" x2="554.12" y2="423.47" xlink:href="#Gradiente_sem_nome_6"/><linearGradient id="Gradiente_sem_nome_6-7" x1="612.95" y1="412.78" x2="636.63" y2="412.78" xlink:href="#Gradiente_sem_nome_6"/><linearGradient id="Gradiente_sem_nome_6-8" x1="426.86" y1="342.23" x2="697.17" y2="342.23" xlink:href="#Gradiente_sem_nome_6"/><linearGradient id="Gradiente_sem_nome_6-9" x1="679.28" y1="398.2" x2="697.17" y2="398.2" xlink:href="#Gradiente_sem_nome_6"/><linearGradient id="Gradiente_sem_nome_6-10" x1="80.67" y1="326.47" x2="697.17" y2="326.47" xlink:href="#Gradiente_sem_nome_6"/><linearGradient id="Gradiente_sem_nome_6-11" x1="108.52" y1="320.56" x2="661.62" y2="320.56" xlink:href="#Gradiente_sem_nome_6"/><linearGradient id="Gradiente_sem_nome_6-12" x1="80.67" y1="213.36" x2="697.17" y2="213.36" xlink:href="#Gradiente_sem_nome_6"/><linearGradient id="Gradiente_sem_nome_6-13" x1="80.67" y1="205.16" x2="97.89" y2="205.16" xlink:href="#Gradiente_sem_nome_6"/><linearGradient id="Gradiente_sem_nome_6-14" x1="140.53" y1="219.74" x2="164.22" y2="219.74" xlink:href="#Gradiente_sem_nome_6"/><linearGradient id="Gradiente_sem_nome_6-15" x1="80.67" y1="142.84" x2="365.56" y2="142.84" xlink:href="#Gradiente_sem_nome_6"/><linearGradient id="Gradiente_sem_nome_6-16" x1="223.06" y1="230.44" x2="248.65" y2="230.44" xlink:href="#Gradiente_sem_nome_6"/><linearGradient id="Gradiente_sem_nome_6-17" x1="412.27" y1="142.84" x2="697.17" y2="142.84" xlink:href="#Gradiente_sem_nome_6"/><linearGradient id="Gradiente_sem_nome_6-18" x1="80.67" y1="115.59" x2="697.17" y2="115.59" xlink:href="#Gradiente_sem_nome_6"/><linearGradient id="Gradiente_sem_nome_6-19" x1="108.52" y1="112.79" x2="661.62" y2="112.79" xlink:href="#Gradiente_sem_nome_6"/><linearGradient id="Gradiente_sem_nome_6-20" x1="74.19" y1="205.16" x2="97.89" y2="205.16" xlink:href="#Gradiente_sem_nome_6"/><linearGradient id="Gradiente_sem_nome_6-23" x1="430.86" y1="218.25" x2="695.7" y2="218.25" xlink:href="#Gradiente_sem_nome_6"/><linearGradient id="Gradiente_sem_nome_6-24" x1="357.48" y1="237.34" x2="396.3" y2="237.34" xlink:href="#Gradiente_sem_nome_6"/><linearGradient id="Gradiente_sem_nome_6-25" x1="74.19" y1="608.16" x2="97.89" y2="608.16" xlink:href="#Gradiente_sem_nome_6"/><linearGradient id="Gradiente_sem_nome_6-26" x1="140.53" y1="622.74" x2="164.22" y2="622.74" xlink:href="#Gradiente_sem_nome_6"/><linearGradient id="Gradiente_sem_nome_6-27" x1="223.05" y1="633.43" x2="248.65" y2="633.43" xlink:href="#Gradiente_sem_nome_6"/><linearGradient id="Gradiente_sem_nome_6-28" x1="430.86" y1="621.25" x2="695.7" y2="621.25" xlink:href="#Gradiente_sem_nome_6"/><linearGradient id="Gradiente_sem_nome_6-29" x1="357.48" y1="640.34" x2="396.3" y2="640.34" xlink:href="#Gradiente_sem_nome_6"/><linearGradient id="Gradiente_sem_nome_6-30" x1="679.28" y1="398.2" x2="702.98" y2="398.2" xlink:href="#Gradiente_sem_nome_6"/><linearGradient id="Gradiente_sem_nome_6-33" x1="-1971.53" y1="411.29" x2="-1706.69" y2="411.29" gradientTransform="matrix(-1, 0, 0, 1, -1625.23, 0)" xlink:href="#Gradiente_sem_nome_6"/><linearGradient id="Gradiente_sem_nome_6-34" x1="-2044.91" y1="430.38" x2="-2006.09" y2="430.38" gradientTransform="matrix(-1, 0, 0, 1, -1625.23, 0)" xlink:href="#Gradiente_sem_nome_6"/></defs><path class="cls-1" d="M693.17,660.69c0,31.53-136.22,57.09-304.25,57.09S84.67,692.22,84.67,660.69V523.81c0,31.53,136.22,57.09,304.25,57.09s304.25-25.56,304.25-57.09Z"/><path class="cls-2" d="M693.17,526.24c0,28.77-123.76,52.34-280.84,54.49-2.59,0-5.17.07-7.76.09q-7.79.09-15.66.08t-15.65-.08c-2.59,0-5.17-.05-7.76-.09C208.42,578.58,84.67,555,84.67,526.24a9.51,9.51,0,0,1,.08-1.19c1.66-14,32.83-26.8,82.82-36.31q14.43,2.86,30.87,5.35c52.12,7.86,118.37,12.56,190.47,12.56,70.38,0,135.16-4.48,186.7-12,12.35-1.8,23.93-3.78,34.65-5.91,50,9.51,81.17,22.27,82.83,36.31A9.51,9.51,0,0,1,693.17,526.24Z"/><path class="cls-3" d="M657.62,523.43c0,22.24-122,40.27-272.55,40.27s-272.55-18-272.55-40.27c0-11.57,33-22,85.92-29.34,52.12,7.86,118.37,12.56,190.47,12.56,70.38,0,135.16-4.48,186.7-12C626.22,502,657.62,512.15,657.62,523.43Z"/><path class="cls-4" d="M691.12,387.5a5.91,5.91,0,0,1,2,.37V315.12C693.17,343,577,366,427,369.35q-3.45.09-6.93.14h-.36c-2.43.05-4.88.09-7.33.12s-5.17.07-7.76.09l-7.8.05-7.86,0-7.85,0-7.8-.05c-2.59,0-5.17-.06-7.76-.09s-4.9-.07-7.33-.12h-.36q-3.48,0-6.93-.14C200.8,366,84.67,343,84.67,315.12V449.57c0,15.17,31.51,28.94,82.9,39.17q14.43,2.86,30.87,5.35c52.12,7.86,118.37,12.56,190.47,12.56,70.38,0,135.16-4.48,186.7-12,12.35-1.8,23.93-3.78,34.65-5.91,51.4-10.23,82.91-24,82.91-39.17v-41a6.14,6.14,0,0,1-2,.36c-4.33,0-7.84-4.78-7.84-10.69S686.79,387.5,691.12,387.5ZM541.31,412.78c4.86,0,8.81,4.79,8.81,10.7s-4,10.68-8.81,10.68-8.79-4.78-8.79-10.68S536.46,412.78,541.31,412.78Zm83.48,10.7c-4.33,0-7.84-4.8-7.84-10.7s3.51-10.69,7.84-10.69,7.84,4.78,7.84,10.69S629.12,423.48,624.79,423.48Z"/><path class="cls-5" d="M350.88,369.35C200.8,366,84.67,343,84.67,315.12v-2.43a10.19,10.19,0,0,0,.08,1.24h0C88,342.49,203,365.88,350.88,369.35Z"/><path class="cls-6" d="M550.12,423.48c0,5.9-4,10.68-8.81,10.68s-8.79-4.78-8.79-10.68,3.94-10.7,8.79-10.7S550.12,417.57,550.12,423.48Z"/><path class="cls-7" d="M632.63,412.78c0,5.9-3.51,10.7-7.84,10.7s-7.84-4.8-7.84-10.7,3.51-10.69,7.84-10.69S632.63,406.87,632.63,412.78Z"/><path class="cls-8" d="M693.17,312.69v2.43C693.17,343,577,366,427,369.35c147.92-3.47,262.86-26.86,266.14-55.41h0A10.19,10.19,0,0,0,693.17,312.69Z"/><path class="cls-9" d="M691.12,387.5a5.91,5.91,0,0,1,2,.37v20.66a6.14,6.14,0,0,1-2,.36c-4.33,0-7.84-4.78-7.84-10.69S686.79,387.5,691.12,387.5Z"/><path class="cls-10" d="M693.17,315.12C693.17,343,577,366,427,369.35l-6.93.14h-.36c-2.43.05-4.88.08-7.33.12s-5.17.07-7.76.09l-7.8.05-7.86,0-7.85,0-7.8-.05c-2.59,0-5.17-.06-7.76-.09s-4.9-.07-7.33-.12h-.36q-3.48,0-6.93-.14C200.8,366,84.67,343,84.67,315.12a9.36,9.36,0,0,1,.08-1.18h0c1.35-11.42,22.19-22,56.79-30.64q10.72,2.79,23.13,5.34c55.61,11.37,135.49,18.5,224.24,18.5,86.69,0,164.91-6.8,220.32-17.73,9.76-1.91,18.8-3.95,27-6.11,34.62,8.66,55.46,19.22,56.81,30.64h0A9.36,9.36,0,0,1,693.17,315.12Z"/><path class="cls-11" d="M657.62,312.32c0,22.23-122,40.25-272.55,40.25s-272.55-18-272.55-40.25c0-8.86,19.36-17.05,52.15-23.69,55.61,11.37,135.49,18.5,224.24,18.5,86.69,0,164.91-6.8,220.32-17.73C639.74,295.91,657.62,303.81,657.62,312.32Z"/><path class="cls-12" d="M412.33,170.09l-7.76.09q-7.79.07-15.66.07t-15.65-.07l-7.76-.09C208.42,167.94,84.67,144.37,84.67,115.6v79a6.26,6.26,0,0,1,1.37-.16c4.33,0,7.85,4.8,7.85,10.7S90.37,215.85,86,215.85a5.7,5.7,0,0,1-1.37-.16v34.36c0,12.4,21.08,23.87,56.87,33.24q10.72,2.79,23.13,5.34c55.61,11.37,135.49,18.5,224.24,18.5,86.69,0,164.91-6.8,220.32-17.73,9.76-1.91,18.8-3.95,27-6.11,35.81-9.37,56.89-20.84,56.89-33.24V115.6C693.17,144.37,569.41,167.94,412.33,170.09ZM235.85,219.74c4.86,0,8.8,4.79,8.8,10.7s-3.94,10.69-8.8,10.69-8.79-4.79-8.79-10.69S231,219.74,235.85,219.74Zm-83.47-10.69c4.33,0,7.84,4.78,7.84,10.69s-3.51,10.7-7.84,10.7-7.85-4.8-7.85-10.7S148,209.05,152.38,209.05Z"/><path class="cls-13" d="M93.89,205.16c0,5.91-3.52,10.69-7.85,10.69a5.7,5.7,0,0,1-1.37-.16V194.62a6.26,6.26,0,0,1,1.37-.16C90.37,194.46,93.89,199.26,93.89,205.16Z"/><path class="cls-14" d="M160.22,219.74c0,5.9-3.51,10.7-7.84,10.7s-7.85-4.8-7.85-10.7,3.51-10.69,7.85-10.69S160.22,213.83,160.22,219.74Z"/><path class="cls-15" d="M365.5,170.09C208.42,167.94,84.67,144.37,84.67,115.6v-2.43a10.19,10.19,0,0,0,.08,1.24C88.11,143.89,210.59,167.87,365.5,170.09Z"/><path class="cls-16" d="M244.65,230.44c0,5.9-3.94,10.69-8.8,10.69s-8.79-4.79-8.79-10.69,3.93-10.7,8.79-10.7S244.65,224.53,244.65,230.44Z"/><path class="cls-17" d="M693.17,113.17v2.43c0,28.77-123.76,52.34-280.84,54.49,154.91-2.22,277.4-26.2,280.76-55.68A10.19,10.19,0,0,0,693.17,113.17Z"/><path class="cls-18" d="M693.17,115.6c0,28.77-123.76,52.34-280.84,54.49l-7.76.09q-7.79.07-15.66.07t-15.65-.07l-7.76-.09C208.42,167.94,84.67,144.37,84.67,115.6a9.51,9.51,0,0,1,.08-1.19c3.51-29.64,138.34-53.48,304.16-53.48s300.67,23.84,304.18,53.48A9.51,9.51,0,0,1,693.17,115.6Z"/><ellipse class="cls-19" cx="385.07" cy="112.79" rx="272.55" ry="40.26"/><path class="cls-20" d="M93.89,205.16c0,5.91-3.52,10.69-7.85,10.69a5.7,5.7,0,0,1-1.37-.16c-3.68-.88-6.48-5.26-6.48-10.53s2.8-9.65,6.48-10.54a6.26,6.26,0,0,1,1.37-.16C90.37,194.46,93.89,199.26,93.89,205.16Z"/><path class="cls-14" d="M160.22,219.74c0,5.9-3.51,10.7-7.84,10.7s-7.85-4.8-7.85-10.7,3.51-10.69,7.85-10.69S160.22,213.83,160.22,219.74Z"/><path class="cls-16" d="M244.65,230.44c0,5.9-3.94,10.69-8.8,10.69s-8.79-4.79-8.79-10.69,3.93-10.7,8.79-10.7S244.65,224.53,244.65,230.44Z"/><path class="cls-21" d="M430.88,238.19s211.68.76,262.29-40.78"/><line class="cls-22" x1="396.3" y1="237.34" x2="357.48" y2="237.34"/><ellipse class="cls-23" cx="86.04" cy="608.16" rx="7.85" ry="10.69"/><ellipse class="cls-24" cx="152.38" cy="622.74" rx="7.85" ry="10.69"/><ellipse class="cls-25" cx="235.85" cy="633.43" rx="8.8" ry="10.69"/><path class="cls-26" d="M430.88,641.18s211.68.77,262.29-40.77"/><line class="cls-27" x1="396.3" y1="640.34" x2="357.48" y2="640.34"/><path class="cls-28" d="M699,398.2c0,4.94-2.46,9.09-5.81,10.33a6.14,6.14,0,0,1-2,.36c-4.33,0-7.84-4.78-7.84-10.69s3.51-10.7,7.84-10.7a5.91,5.91,0,0,1,2,.37C696.52,389.1,699,393.26,699,398.2Z"/><path class="cls-7" d="M632.63,412.78c0,5.9-3.51,10.7-7.84,10.7s-7.84-4.8-7.84-10.7,3.51-10.69,7.84-10.69S632.63,406.87,632.63,412.78Z"/><path class="cls-6" d="M550.12,423.48c0,5.9-4,10.68-8.81,10.68s-8.79-4.78-8.79-10.68,3.94-10.7,8.79-10.7S550.12,417.57,550.12,423.48Z"/><path class="cls-29" d="M346.29,431.22S134.61,432,84,390.45"/><line class="cls-30" x1="380.87" y1="430.38" x2="419.68" y2="430.38"/></svg>