<svg id="Camada_1" data-name="Camada 1" xmlns="http://www.w3.org/2000/svg" xmlns:xlink="http://www.w3.org/1999/xlink" viewBox="0 0 760 760"><defs><style>.cls-1{fill:url(#Gradiente_sem_nome_9);}.cls-2{fill:url(#Gradiente_sem_nome_9-2);}.cls-3{fill:url(#Gradiente_sem_nome_9-3);}.cls-4,.cls-5,.cls-9{fill:#ededed;stroke-linecap:round;}.cls-10,.cls-11,.cls-12,.cls-13,.cls-14,.cls-15,.cls-16,.cls-4,.cls-5,.cls-6,.cls-7,.cls-8,.cls-9{stroke-miterlimit:10;stroke-width:8px;}.cls-4{stroke:url(#Gradiente_sem_nome_9-4);}.cls-5{stroke:url(#Gradiente_sem_nome_9-5);}.cls-10,.cls-11,.cls-12,.cls-13,.cls-14,.cls-15,.cls-16,.cls-6,.cls-7,.cls-8{fill:none;}.cls-6{stroke:url(#Gradiente_sem_nome_6);}.cls-7{stroke:url(#Gradiente_sem_nome_6-2);}.cls-8{stroke:url(#Gradiente_sem_nome_6-3);}.cls-9{stroke:url(#Gradiente_sem_nome_9-7);}.cls-10{stroke:url(#Gradiente_sem_nome_6-4);}.cls-11{stroke:url(#Gradiente_sem_nome_6-5);}.cls-12{stroke:url(#Gradiente_sem_nome_6-6);}.cls-13{stroke:url(#Gradiente_sem_nome_6-7);}.cls-14{stroke:url(#Gradiente_sem_nome_6-8);}.cls-15{stroke:url(#Gradiente_sem_nome_6-9);}.cls-16{stroke:url(#Gradiente_sem_nome_6-10);}</style><linearGradient id="Gradiente_sem_nome_9" x1="330.73" y1="510.46" x2="337.72" y2="510.46" gradientUnits="userSpaceOnUse"><stop offset="0" stop-color="#74b294"/><stop offset="0.99" stop-color="#141a6e"/></linearGradient><linearGradient id="Gradiente_sem_nome_9-2" x1="209.01" y1="142.86" x2="268.44" y2="142.86" xlink:href="#Gradiente_sem_nome_9"/><linearGradient id="Gradiente_sem_nome_9-3" x1="494.62" y1="409.77" x2="608.5" y2="409.77" xlink:href="#Gradiente_sem_nome_9"/><linearGradient id="Gradiente_sem_nome_9-4" x1="326.73" y1="509.98" x2="341.72" y2="509.98" xlink:href="#Gradiente_sem_nome_9"/><linearGradient id="Gradiente_sem_nome_9-5" x1="481.16" y1="399.31" x2="489.75" y2="399.31" xlink:href="#Gradiente_sem_nome_9"/><linearGradient id="Gradiente_sem_nome_6" x1="489.46" y1="413.52" x2="599.37" y2="413.52" gradientUnits="userSpaceOnUse"><stop offset="0.14" stop-color="#679980"/><stop offset="0.83" stop-color="#0f1958"/></linearGradient><linearGradient id="Gradiente_sem_nome_6-2" x1="196.88" y1="157.79" x2="272.44" y2="157.79" xlink:href="#Gradiente_sem_nome_6"/><linearGradient id="Gradiente_sem_nome_6-3" x1="175.26" y1="435.74" x2="576.19" y2="435.74" xlink:href="#Gradiente_sem_nome_6"/><linearGradient id="Gradiente_sem_nome_9-7" x1="197.13" y1="168.36" x2="272.44" y2="168.36" xlink:href="#Gradiente_sem_nome_9"/><linearGradient id="Gradiente_sem_nome_6-4" x1="175.26" y1="666.89" x2="250.02" y2="666.89" xlink:href="#Gradiente_sem_nome_6"/><linearGradient id="Gradiente_sem_nome_6-5" x1="347.72" y1="111.36" x2="519.97" y2="111.36" xlink:href="#Gradiente_sem_nome_6"/><linearGradient id="Gradiente_sem_nome_6-6" x1="461.42" y1="101.35" x2="488.58" y2="101.35" xlink:href="#Gradiente_sem_nome_6"/><linearGradient id="Gradiente_sem_nome_6-7" x1="487.97" y1="111.33" x2="516.59" y2="111.33" xlink:href="#Gradiente_sem_nome_6"/><linearGradient id="Gradiente_sem_nome_6-8" x1="259.08" y1="406.17" x2="489.78" y2="406.17" xlink:href="#Gradiente_sem_nome_6"/><linearGradient id="Gradiente_sem_nome_6-9" x1="264.44" y1="126.05" x2="497.46" y2="126.05" xlink:href="#Gradiente_sem_nome_6"/><linearGradient id="Gradiente_sem_nome_6-10" x1="317.49" y1="148.99" x2="444.42" y2="148.99" xlink:href="#Gradiente_sem_nome_6"/></defs><path class="cls-1" d="M337.72,511.33l-.92.48a4.16,4.16,0,0,1-6.07-3.19C333,509.6,335.35,510.51,337.72,511.33Z"/><path class="cls-2" d="M268.44,136.73V148.1l-47.55.89H209v-1.56a10.7,10.7,0,0,1,10.71-10.7Z"/><path class="cls-3" d="M608.5,147.43V669.11c0,10.2-10,13.7-16,13.7h-1.07l3.89-524.88a10.64,10.64,0,0,0-10.58-10.7H516v1.09c0,3-1.44,4.8-5.12,7.54l-16.23,10,21.07-15.44.28-13.66h81.82A10.71,10.71,0,0,1,608.5,147.43Z"/><path class="cls-4" d="M330.73,508.62c2.29,1,4.62,1.89,7,2.71"/><path class="cls-5" d="M485.75,404.28c0-3.35-.25-6.66-.59-9.93"/><path class="cls-5" d="M485.75,404.28c0-3.35-.25-6.66-.59-9.93"/><path class="cls-6" d="M595.37,157.93V672.81a7,7,0,0,1-7,7h0l-16.18-.07V180a11.61,11.61,0,0,0-11.61-11.61H493.46v-2.55l1.16,0,16.23-10c3.68-2.74,5.12-4.51,5.12-7.54v-1.09h68.82A10.64,10.64,0,0,1,595.37,157.93Z"/><path class="cls-7" d="M201.13,168.36l-.25-.35V157.93a10.66,10.66,0,0,1,8.13-10.4,9.9,9.9,0,0,1,2.45-.3h57v21.13H212"/><path class="cls-8" d="M572.19,685.7V180a11.61,11.61,0,0,0-11.61-11.61H493.46v13.87c0,3.63-2.44,6.57-5.47,6.58l-214,.54c-3,0-5.5-2.93-5.5-6.57V168.36m-2.86,0H190.87A11.61,11.61,0,0,0,179.26,180V630c0,1,.8.65,1.79.65l52,.2c6.46,0,13,6.18,13,12.64v57.83a1.8,1.8,0,0,0,.48,1.22h0a1.79,1.79,0,0,0,1.32.58H560.58a11.61,11.61,0,0,0,11.61-11.61V685.7M330.73,508.62A111.37,111.37,0,1,1,485.16,394.35m.59,9.93c0,.63,0,1.26,0,1.9a111,111,0,0,1-35.11,81.15,109.87,109.87,0,0,1-13.15,10.6q-3.5,2.43-7.18,4.55a111.53,111.53,0,0,1-92.62,8.85"/><line class="cls-9" x1="201.13" y1="168.36" x2="268.44" y2="168.36"/><path class="cls-4" d="M330.73,508.62c2.29,1,4.62,1.89,7,2.71"/><path class="cls-10" d="M246,643.82v58.44a.87.87,0,0,1-1.51.59l-65-70.74a.86.86,0,0,1,.64-1.45h52.72A13.16,13.16,0,0,1,246,643.82Z"/><path class="cls-11" d="M516,111.9v36.42c0,3-1.44,4.8-5.12,7.54l-16.23,10-1.16,0V128.73c0-7.19-4.86-13-10.85-13h-13c-4.47,0-8.55-3.26-10.11-8.28-4.66-14.9-21-44.67-77.23-44.67-3,0-6,.09-8.74.27,9.7-3.74,22.2-6.16,38.34-6.16,52.65,0,67.94,24.83,72.3,37.26a10.72,10.72,0,0,0,.71,1.58,10,10,0,0,0,8.76,5.33h12.15a10.18,10.18,0,0,1,9.3,6.48A11.51,11.51,0,0,1,516,111.9Z"/><line class="cls-12" x1="463.31" y1="107.62" x2="486.7" y2="95.08"/><line class="cls-13" x1="489.9" y1="118.16" x2="514.66" y2="104.5"/><path class="cls-14" d="M485.78,406.18a111,111,0,0,1-35.11,81.15,109.87,109.87,0,0,1-13.15,10.6q-3.5,2.43-7.18,4.55a111.53,111.53,0,0,1-92.62,8.85c-2.37-.82-4.7-1.73-7-2.71A111.37,111.37,0,1,1,485.16,394.35c.34,3.27.55,6.58.59,9.93C485.77,404.91,485.78,405.54,485.78,406.18Z"/><path class="cls-15" d="M493.46,128.73v53.5c0,3.63-2.44,6.57-5.47,6.58l-214,.54c-3,0-5.5-2.93-5.5-6.57V130.85c0-7.19,4.87-13,10.86-13h17.54a10.25,10.25,0,0,0,8.47-4.87,13.62,13.62,0,0,0,1.86-4.13c.2-.76.43-1.54.68-2.36h0c4.73-15.21,19.54-40.59,65.7-43.43,2.79-.18,5.71-.27,8.74-.27,56.24,0,72.57,29.77,77.23,44.67,1.56,5,5.64,8.28,10.11,8.28h13C488.6,115.71,493.46,121.54,493.46,128.73Z"/><line class="cls-16" x1="317.49" y1="148.99" x2="444.42" y2="148.99"/></svg>