<svg id="Camada_1" data-name="Camada 1" xmlns="http://www.w3.org/2000/svg" xmlns:xlink="http://www.w3.org/1999/xlink" viewBox="0 0 760 760"><defs><style>.cls-1,.cls-2,.cls-3,.cls-4,.cls-5,.cls-6{fill:none;stroke-miterlimit:10;stroke-width:8px;}.cls-1{stroke:url(#Gradiente_sem_nome_6);}.cls-2{stroke:url(#Gradiente_sem_nome_6-2);}.cls-3{stroke:url(#Gradiente_sem_nome_6-3);}.cls-4{stroke:url(#Gradiente_sem_nome_6-4);}.cls-5{stroke:url(#Gradiente_sem_nome_6-5);}.cls-6{stroke:url(#Gradiente_sem_nome_6-6);}</style><linearGradient id="Gradiente_sem_nome_6" x1="10.3" y1="380" x2="752.37" y2="380" gradientUnits="userSpaceOnUse"><stop offset="0.14" stop-color="#679980"/><stop offset="0.83" stop-color="#0f1958"/></linearGradient><linearGradient id="Gradiente_sem_nome_6-2" x1="228.69" y1="364.49" x2="563.75" y2="364.49" xlink:href="#Gradiente_sem_nome_6"/><linearGradient id="Gradiente_sem_nome_6-3" x1="213.47" y1="380" x2="544.43" y2="380" xlink:href="#Gradiente_sem_nome_6"/><linearGradient id="Gradiente_sem_nome_6-4" x1="195.77" y1="393.9" x2="525.45" y2="393.9" xlink:href="#Gradiente_sem_nome_6"/><linearGradient id="Gradiente_sem_nome_6-5" x1="199.77" y1="581.6" x2="256.62" y2="581.6" xlink:href="#Gradiente_sem_nome_6"/><linearGradient id="Gradiente_sem_nome_6-6" x1="267.95" y1="387.87" x2="453.26" y2="387.87" xlink:href="#Gradiente_sem_nome_6"/></defs><circle class="cls-1" cx="381.33" cy="380" r="367.03"/><path class="cls-2" d="M232.69,159.2V151a8.77,8.77,0,0,1,8.77-8.76H551a8.77,8.77,0,0,1,8.77,8.76V578A8.77,8.77,0,0,1,551,586.8h-7.71"/><path class="cls-3" d="M217.47,174.71v-8.25a8.71,8.71,0,0,1,8.66-8.76H531.77a8.71,8.71,0,0,1,8.66,8.76V593.54a8.71,8.71,0,0,1-8.66,8.76h-7.61"/><path class="cls-4" d="M253.44,612.8H512a9.51,9.51,0,0,0,9.5-9.5V184.5A9.51,9.51,0,0,0,512,175H209.27a9.5,9.5,0,0,0-9.5,9.51V554.4Z"/><path class="cls-5" d="M199.77,554.4h43.28a9.58,9.58,0,0,1,9.57,9.58V612.8"/><path class="cls-6" d="M386.44,423q-1.9,6-2.23,18.14a2.57,2.57,0,0,1-2.57,2.51H339.59a2.58,2.58,0,0,1-2.57-2.69q1.16-27.41,5.5-38.17,4.55-11.29,23.45-26l12.77-10a44.59,44.59,0,0,0,10.15-10.33,35.15,35.15,0,0,0,7-21.17,40.85,40.85,0,0,0-7.79-24.24q-7.78-10.94-28.43-10.94-20.31,0-28.79,13.48a52.24,52.24,0,0,0-8.43,25.58,2.55,2.55,0,0,1-2.56,2.42H274.53a2.57,2.57,0,0,1-2.57-2.71q2.85-47.74,34.68-68,20.66-13.31,50.75-13.3,39.56,0,65.71,18.9t26.16,56q0,22.74-11.37,38.32-6.64,9.45-25.55,24.15l-12.42,9.62Q389.77,412.46,386.44,423Zm-1.17,95.2h-47a2.58,2.58,0,0,1-2.58-2.58V470.15a2.57,2.57,0,0,1,2.58-2.57h47a2.57,2.57,0,0,1,2.57,2.57v45.43A2.58,2.58,0,0,1,385.27,518.16Z"/></svg>