<svg id="Camada_1" data-name="Camada 1" xmlns="http://www.w3.org/2000/svg" xmlns:xlink="http://www.w3.org/1999/xlink" viewBox="0 0 760 760"><defs><style>.cls-1,.cls-10,.cls-11,.cls-12,.cls-13,.cls-14,.cls-15,.cls-16,.cls-17,.cls-18,.cls-19,.cls-2,.cls-20,.cls-21,.cls-22,.cls-23,.cls-24,.cls-25,.cls-26,.cls-27,.cls-28,.cls-29,.cls-3,.cls-30,.cls-31,.cls-32,.cls-33,.cls-4,.cls-5,.cls-6,.cls-7,.cls-8,.cls-9{fill:none;stroke-miterlimit:10;stroke-width:8px;}.cls-1{stroke:url(#Gradiente_sem_nome_6);}.cls-2{stroke:url(#Gradiente_sem_nome_6-2);}.cls-3{stroke:url(#Gradiente_sem_nome_6-3);}.cls-4{stroke:url(#Gradiente_sem_nome_6-4);}.cls-5{stroke:url(#Gradiente_sem_nome_6-5);}.cls-6{stroke:url(#Gradiente_sem_nome_6-6);}.cls-7{stroke:url(#Gradiente_sem_nome_6-7);}.cls-8{stroke:url(#Gradiente_sem_nome_6-8);}.cls-9{stroke:url(#Gradiente_sem_nome_6-9);}.cls-10{stroke:url(#Gradiente_sem_nome_6-10);}.cls-11{stroke:url(#Gradiente_sem_nome_6-11);}.cls-12{stroke:url(#Gradiente_sem_nome_6-12);}.cls-13{stroke:url(#Gradiente_sem_nome_6-13);}.cls-14{stroke:url(#Gradiente_sem_nome_6-14);}.cls-15{stroke:url(#Gradiente_sem_nome_6-15);}.cls-16{stroke:url(#Gradiente_sem_nome_6-16);}.cls-17{stroke:url(#Gradiente_sem_nome_6-17);}.cls-18{stroke:url(#Gradiente_sem_nome_6-18);}.cls-19{stroke:url(#Gradiente_sem_nome_6-19);}.cls-20{stroke:url(#Gradiente_sem_nome_6-20);}.cls-21{stroke:url(#Gradiente_sem_nome_6-21);}.cls-22{stroke:url(#Gradiente_sem_nome_6-22);}.cls-23{stroke:url(#Gradiente_sem_nome_6-23);}.cls-24{stroke:url(#Gradiente_sem_nome_6-24);}.cls-25{stroke:url(#Gradiente_sem_nome_6-25);}.cls-26{stroke:url(#Gradiente_sem_nome_6-26);}.cls-27{stroke:url(#Gradiente_sem_nome_6-27);}.cls-28{stroke:url(#Gradiente_sem_nome_6-28);}.cls-29{stroke:url(#Gradiente_sem_nome_6-29);}.cls-30{stroke:url(#Gradiente_sem_nome_6-30);}.cls-31{stroke:url(#Gradiente_sem_nome_6-31);}.cls-32{stroke:url(#Gradiente_sem_nome_6-32);}.cls-33{stroke:url(#Gradiente_sem_nome_6-33);}</style><linearGradient id="Gradiente_sem_nome_6" x1="28.36" y1="566.17" x2="376.68" y2="566.17" gradientUnits="userSpaceOnUse"><stop offset="0.14" stop-color="#679980"/><stop offset="0.83" stop-color="#0f1958"/></linearGradient><linearGradient id="Gradiente_sem_nome_6-2" x1="28.36" y1="533.45" x2="374.5" y2="533.45" xlink:href="#Gradiente_sem_nome_6"/><linearGradient id="Gradiente_sem_nome_6-3" x1="28.36" y1="478.56" x2="442.39" y2="478.56" xlink:href="#Gradiente_sem_nome_6"/><linearGradient id="Gradiente_sem_nome_6-4" x1="28.36" y1="443.76" x2="451.33" y2="443.76" xlink:href="#Gradiente_sem_nome_6"/><linearGradient id="Gradiente_sem_nome_6-5" x1="28.36" y1="410.21" x2="451.33" y2="410.21" xlink:href="#Gradiente_sem_nome_6"/><linearGradient id="Gradiente_sem_nome_6-6" x1="28.36" y1="377.16" x2="451.33" y2="377.16" xlink:href="#Gradiente_sem_nome_6"/><linearGradient id="Gradiente_sem_nome_6-7" x1="32.76" y1="325.76" x2="465.64" y2="325.76" xlink:href="#Gradiente_sem_nome_6"/><linearGradient id="Gradiente_sem_nome_6-8" x1="418.51" y1="268.72" x2="461.68" y2="268.72" xlink:href="#Gradiente_sem_nome_6"/><linearGradient id="Gradiente_sem_nome_6-9" x1="249.2" y1="280.56" x2="289.87" y2="280.56" xlink:href="#Gradiente_sem_nome_6"/><linearGradient id="Gradiente_sem_nome_6-10" x1="320.39" y1="282.5" x2="346.14" y2="282.5" xlink:href="#Gradiente_sem_nome_6"/><linearGradient id="Gradiente_sem_nome_6-11" x1="213.26" y1="300.16" x2="310.2" y2="300.16" xlink:href="#Gradiente_sem_nome_6"/><linearGradient id="Gradiente_sem_nome_6-12" x1="331.33" y1="301.83" x2="386.28" y2="301.83" xlink:href="#Gradiente_sem_nome_6"/><linearGradient id="Gradiente_sem_nome_6-13" x1="190.56" y1="319.06" x2="236.02" y2="319.06" xlink:href="#Gradiente_sem_nome_6"/><linearGradient id="Gradiente_sem_nome_6-14" x1="256.81" y1="320.18" x2="350.81" y2="320.18" xlink:href="#Gradiente_sem_nome_6"/><linearGradient id="Gradiente_sem_nome_6-15" x1="162.34" y1="339.64" x2="249.67" y2="339.64" xlink:href="#Gradiente_sem_nome_6"/><linearGradient id="Gradiente_sem_nome_6-16" x1="268.47" y1="339.92" x2="323.41" y2="339.92" xlink:href="#Gradiente_sem_nome_6"/><linearGradient id="Gradiente_sem_nome_6-17" x1="184.74" y1="359.66" x2="295.46" y2="359.66" xlink:href="#Gradiente_sem_nome_6"/><linearGradient id="Gradiente_sem_nome_6-18" x1="132.29" y1="359.66" x2="155.74" y2="359.66" xlink:href="#Gradiente_sem_nome_6"/><linearGradient id="Gradiente_sem_nome_6-19" x1="313.03" y1="544.88" x2="735.99" y2="544.88" xlink:href="#Gradiente_sem_nome_6"/><linearGradient id="Gradiente_sem_nome_6-20" x1="313.03" y1="511.33" x2="735.99" y2="511.33" xlink:href="#Gradiente_sem_nome_6"/><linearGradient id="Gradiente_sem_nome_6-21" x1="313.03" y1="478.28" x2="736" y2="478.28" xlink:href="#Gradiente_sem_nome_6"/><linearGradient id="Gradiente_sem_nome_6-22" x1="313.03" y1="432.54" x2="736" y2="432.54" xlink:href="#Gradiente_sem_nome_6"/><linearGradient id="Gradiente_sem_nome_6-23" x1="688.86" y1="378.55" x2="732.04" y2="378.55" xlink:href="#Gradiente_sem_nome_6"/><linearGradient id="Gradiente_sem_nome_6-24" x1="519.56" y1="390.39" x2="560.23" y2="390.39" xlink:href="#Gradiente_sem_nome_6"/><linearGradient id="Gradiente_sem_nome_6-25" x1="590.75" y1="392.33" x2="616.49" y2="392.33" xlink:href="#Gradiente_sem_nome_6"/><linearGradient id="Gradiente_sem_nome_6-26" x1="483.62" y1="409.98" x2="580.56" y2="409.98" xlink:href="#Gradiente_sem_nome_6"/><linearGradient id="Gradiente_sem_nome_6-27" x1="601.69" y1="411.65" x2="656.64" y2="411.65" xlink:href="#Gradiente_sem_nome_6"/><linearGradient id="Gradiente_sem_nome_6-28" x1="460.92" y1="428.89" x2="506.38" y2="428.89" xlink:href="#Gradiente_sem_nome_6"/><linearGradient id="Gradiente_sem_nome_6-29" x1="527.17" y1="430" x2="621.16" y2="430" xlink:href="#Gradiente_sem_nome_6"/><linearGradient id="Gradiente_sem_nome_6-30" x1="432.7" y1="449.46" x2="520.02" y2="449.46" xlink:href="#Gradiente_sem_nome_6"/><linearGradient id="Gradiente_sem_nome_6-31" x1="538.83" y1="449.74" x2="593.77" y2="449.74" xlink:href="#Gradiente_sem_nome_6"/><linearGradient id="Gradiente_sem_nome_6-32" x1="456.61" y1="469.49" x2="565.81" y2="469.49" xlink:href="#Gradiente_sem_nome_6"/><linearGradient id="Gradiente_sem_nome_6-33" x1="402.64" y1="469.49" x2="438.15" y2="469.49" xlink:href="#Gradiente_sem_nome_6"/></defs><path class="cls-1" d="M318,565.79h25.33l-46.74,31.44a14.73,14.73,0,0,1-8.08,2.37H33.33a.86.86,0,0,1-.58-1.56l47-32H288.5a14.73,14.73,0,0,0,8.08-2.37l46-30.95h21.11l-46.27,31.49A.86.86,0,0,0,318,565.79Z"/><path class="cls-2" d="M318,532.73h24.58l-46,30.95a14.73,14.73,0,0,1-8.08,2.37H33.33a.85.85,0,0,1-.58-1.55L79,533H287.75a14.89,14.89,0,0,0,8.11-2.38l44.47-29.78H361.6l-44.18,30.32A.86.86,0,0,0,318,532.73Z"/><path class="cls-3" d="M318.09,500.85h22.24l-44.47,29.78a14.89,14.89,0,0,1-8.11,2.38H33.33a.86.86,0,0,1-.58-1.57l48.43-33.22H288.5a14.74,14.74,0,0,0,8.08-2.38l7.64-5.14,49.86-33.54,49.13-33.06h26L380,457.16,330,490.7l-12.54,8.42A1,1,0,0,0,318.09,500.85Z"/><path class="cls-4" d="M446.15,394l-35.47,25.13-7.47,5-49.13,33.06L304.22,490.7l-7.64,5.14a14.74,14.74,0,0,1-8.08,2.38H33.33a.86.86,0,0,1-.58-1.57l47-32H288.5a14.66,14.66,0,0,0,8.08-2.38l7.62-5.13,49.14-33.06,51.72-34.79h39.41C447.23,389.31,448.38,392.48,446.15,394Z"/><path class="cls-5" d="M446.15,360.4l-35.47,25.13-5.62,3.78L353.34,424.1,304.2,457.16l-7.62,5.13a14.66,14.66,0,0,1-8.08,2.38H33.33a.86.86,0,0,1-.58-1.57L79,431.61H287.75a14.81,14.81,0,0,0,8.11-2.38l7.66-5.13,52-34.79,50.11-33.55h38.87C447.23,355.76,448.38,358.93,446.15,360.4Z"/><path class="cls-6" d="M404.79,322.71h39.67c2.77,0,3.93,3.17,1.69,4.64l-35.64,25.13-4.91,3.28-50.11,33.55-52,34.79-7.66,5.13a14.81,14.81,0,0,1-8.11,2.38H33.33a.86.86,0,0,1-.58-1.56l49.1-33.69"/><path class="cls-7" d="M290.49,395a29.13,29.13,0,0,0,15.06-3.9c2.35-1.35,4.43-2.56,4.65-2.71L355,355.76l49.78-33.05,56-37.22a1.73,1.73,0,0,0-1.19-3.15L379.43,284a1,1,0,0,1-.63-1.87l40.86-24c1.87-1.1,1.09-3.44-1.23-3.75h-164A20.34,20.34,0,0,0,243,257.85L37.19,395.39a1,1,0,0,0,.64,1.74Z"/><line class="cls-8" x1="420.75" y1="255.58" x2="459.43" y2="281.86"/><line class="cls-9" x1="249.2" y1="280.56" x2="289.87" y2="280.56"/><line class="cls-10" x1="320.39" y1="282.5" x2="346.14" y2="282.5"/><line class="cls-11" x1="213.26" y1="300.16" x2="310.2" y2="300.16"/><path class="cls-12" d="M334.72,301.83h51.56"/><line class="cls-13" x1="190.56" y1="319.06" x2="236.02" y2="319.06"/><line class="cls-14" x1="256.81" y1="320.18" x2="350.81" y2="320.18"/><line class="cls-15" x1="162.34" y1="339.64" x2="249.67" y2="339.64"/><line class="cls-16" x1="268.47" y1="339.92" x2="323.41" y2="339.92"/><line class="cls-17" x1="295.46" y1="359.66" x2="184.74" y2="359.66"/><line class="cls-18" x1="155.74" y1="359.66" x2="132.29" y2="359.66"/><path class="cls-19" d="M730.82,495.06,695.35,520.2,581.25,597a14.73,14.73,0,0,1-8.08,2.37H318a.86.86,0,0,1-.57-1.56l47-32H573.17a14.74,14.74,0,0,0,8.08-2.38l108.48-73h39.41C731.9,490.43,733.05,493.59,730.82,495.06Z"/><path class="cls-20" d="M730.82,461.52l-35.47,25.13-5.62,3.78-108.48,73a14.74,14.74,0,0,1-8.08,2.38H318a.86.86,0,0,1-.57-1.57l46.27-31.49H572.42a14.81,14.81,0,0,0,8.11-2.38l59.62-39.92,50.11-33.55h38.88C731.9,456.88,733.05,460.05,730.82,461.52Z"/><path class="cls-21" d="M730.81,428.46,695.17,453.6l-4.91,3.28-50.11,33.55-59.62,39.92a14.81,14.81,0,0,1-8.11,2.38H318a.86.86,0,0,1-.58-1.56l44.18-30.32H567.32a16.11,16.11,0,0,0,8.91-2.64l11.71-7.78,50.54-33.55,49.78-33.05h40.87C731.9,423.83,733.05,427,730.81,428.46Z"/><path class="cls-22" d="M731.2,395.32l-42.94,28.51-49.78,33.05-50.54,33.55-11.71,7.78a16.11,16.11,0,0,1-8.91,2.64H318.09a1,1,0,0,1-.63-1.73L330,490.7l50-33.54,49.26-33.06,84.1-56.44a20.48,20.48,0,0,1,11.44-3.44h164c2.32.31,3.1,2.64,1.22,3.74l-40.85,24a1,1,0,0,0,.63,1.87L730,392.16A1.73,1.73,0,0,1,731.2,395.32Z"/><line class="cls-23" x1="691.11" y1="365.41" x2="729.79" y2="391.69"/><line class="cls-24" x1="519.56" y1="390.39" x2="560.23" y2="390.39"/><line class="cls-25" x1="590.75" y1="392.33" x2="616.49" y2="392.33"/><line class="cls-26" x1="483.62" y1="409.98" x2="580.56" y2="409.98"/><path class="cls-27" d="M605.08,411.65h51.56"/><line class="cls-28" x1="460.92" y1="428.89" x2="506.38" y2="428.89"/><line class="cls-29" x1="527.17" y1="430" x2="621.16" y2="430"/><line class="cls-30" x1="432.7" y1="449.46" x2="520.02" y2="449.46"/><line class="cls-31" x1="538.83" y1="449.74" x2="593.77" y2="449.74"/><line class="cls-32" x1="565.81" y1="469.49" x2="456.61" y2="469.49"/><line class="cls-33" x1="438.15" y1="469.49" x2="402.64" y2="469.49"/></svg>