<svg id="Camada_1" data-name="Camada 1" xmlns="http://www.w3.org/2000/svg" xmlns:xlink="http://www.w3.org/1999/xlink" viewBox="0 0 760 760"><defs><style>.cls-1,.cls-2,.cls-3,.cls-4,.cls-5,.cls-6{fill:none;stroke-miterlimit:10;stroke-width:8px;}.cls-1{stroke:url(#Gradiente_sem_nome_6);}.cls-2{stroke:url(#Gradiente_sem_nome_6-2);}.cls-3{stroke:url(#Gradiente_sem_nome_6-3);}.cls-4{stroke:url(#Gradiente_sem_nome_6-4);}.cls-5{stroke:url(#Gradiente_sem_nome_6-5);}.cls-6{stroke:url(#Gradiente_sem_nome_6-6);}</style><linearGradient id="Gradiente_sem_nome_6" x1="460.4" y1="454.44" x2="733.83" y2="454.44" gradientUnits="userSpaceOnUse"><stop offset="0.14" stop-color="#679980"/><stop offset="0.83" stop-color="#0f1958"/></linearGradient><linearGradient id="Gradiente_sem_nome_6-2" x1="525.16" y1="454.44" x2="669.06" y2="454.44" xlink:href="#Gradiente_sem_nome_6"/><linearGradient id="Gradiente_sem_nome_6-3" x1="186.95" y1="259.08" x2="562.03" y2="259.08" xlink:href="#Gradiente_sem_nome_6"/><linearGradient id="Gradiente_sem_nome_6-4" x1="254.25" y1="259.08" x2="494.73" y2="259.08" xlink:href="#Gradiente_sem_nome_6"/><linearGradient id="Gradiente_sem_nome_6-5" x1="59.92" y1="532.3" x2="372.09" y2="532.3" xlink:href="#Gradiente_sem_nome_6"/><linearGradient id="Gradiente_sem_nome_6-6" x1="134.15" y1="532.3" x2="297.87" y2="532.3" xlink:href="#Gradiente_sem_nome_6"/></defs><path class="cls-1" d="M729.8,442.13l-2-13.83a2.63,2.63,0,0,0-2.38-2.24l-20.56-1.76a2.61,2.61,0,0,1-2.27-1.86,108.25,108.25,0,0,0-6-15.34,2.65,2.65,0,0,1,.43-2.92l14-15.14a2.65,2.65,0,0,0,.25-3.27L703.5,374.2a2.61,2.61,0,0,0-3.11-1l-21,8v0c-3.16,1.91-8.46-8.76-13.21-12.59a2.6,2.6,0,0,1-.86-2.8l6.06-19.74a2.64,2.64,0,0,0-1.19-3.05l-12.06-7a2.66,2.66,0,0,0-3.25.47l-14.18,15a2.62,2.62,0,0,1-2.88.62,108.59,108.59,0,0,0-15.71-4.91,2.64,2.64,0,0,1-2-2.15L617,324.57a2.64,2.64,0,0,0-2.4-2.23l-13.93-1.11a2.66,2.66,0,0,0-2.72,1.83l-6.28,19.66a2.65,2.65,0,0,1-2.34,1.81,107,107,0,0,0-16.28,2.36,2.62,2.62,0,0,1-2.74-1.08l-11.64-17a2.65,2.65,0,0,0-3.13-1l-13,5.05a2.63,2.63,0,0,0-1.66,2.82l2.87,20.45a2.62,2.62,0,0,1-1.31,2.63c-5.29,3-11.17,12.66-15,10.34v0L508,357.89a2.64,2.64,0,0,0-3.24.48l-9.55,10.2a2.62,2.62,0,0,0-.27,3.26L506.39,389a2.59,2.59,0,0,1,0,2.94,110.83,110.83,0,0,0-8.3,14.21,2.65,2.65,0,0,1-2.55,1.48l-20.57-1.53a2.66,2.66,0,0,0-2.71,1.85L468,421.28a2.64,2.64,0,0,0,1.18,3.06l19.3,11.42h0c1.64.74-1,6.58-1.24,9.94s1.1,9.67-.35,10h0l-20.87,8.22a2.64,2.64,0,0,0-1.65,2.83l2,13.81a2.64,2.64,0,0,0,2.38,2.25l20.56,1.76a2.63,2.63,0,0,1,2.28,1.86,107.18,107.18,0,0,0,6,15.35,2.62,2.62,0,0,1-.44,2.91l-14,15.15a2.64,2.64,0,0,0-.25,3.26l7.82,11.57a2.62,2.62,0,0,0,3.11,1l21-8v0c3.73-1.27,8.47,8.76,13.22,12.59a2.6,2.6,0,0,1,.86,2.8l-6.06,19.74a2.65,2.65,0,0,0,1.19,3.06l12.06,7a2.63,2.63,0,0,0,3.24-.47l14.19-15a2.64,2.64,0,0,1,2.88-.63,108.46,108.46,0,0,0,15.7,4.91,2.65,2.65,0,0,1,2,2.16l3.09,20.4a2.64,2.64,0,0,0,2.4,2.23l13.93,1.12a2.67,2.67,0,0,0,2.72-1.83l6.28-19.66a2.62,2.62,0,0,1,2.33-1.81A109.66,109.66,0,0,0,621.14,562a2.62,2.62,0,0,1,2.74,1.07l11.63,17a2.65,2.65,0,0,0,3.13,1l13-5a2.62,2.62,0,0,0,1.65-2.82l-2.86-20.46a2.6,2.6,0,0,1,1.31-2.63c5.29-3,11-12,15-10.34v0L686.23,551a2.61,2.61,0,0,0,3.23-.48L699,540.31a2.64,2.64,0,0,0,.27-3.27l-11.45-17.17a2.59,2.59,0,0,1,0-2.94,111.64,111.64,0,0,0,8.3-14.22,2.65,2.65,0,0,1,2.55-1.48l20.56,1.53a2.64,2.64,0,0,0,2.71-1.85l4.18-13.32a2.64,2.64,0,0,0-1.17-3.06l-19.3-11.42h0c-2.18-.43,1-6.57,1.24-9.94s-2.07-9.44.35-10h0L728.16,445A2.63,2.63,0,0,0,729.8,442.13ZM664.19,465.3A67.95,67.95,0,1,1,597,386.49,68.18,68.18,0,0,1,664.19,465.3Z"/><path class="cls-2" d="M664.19,465.3A67.95,67.95,0,1,1,597,386.49,68.18,68.18,0,0,1,664.19,465.3Z"/><path class="cls-3" d="M216.92,259.08c0-3.58.12-7.14.35-10.66l-25.83-11.06,3.61-20.48,28-1.56a158.07,158.07,0,0,1,7.3-20l-20.46-19.21,10.4-18,26.89,8.13a157.24,157.24,0,0,1,13.71-16.32l-12.68-25.08,15.93-13.37,22.49,16.83a156.17,156.17,0,0,1,18.46-10.67l-3.34-27.88,19.54-7.11,15.37,23.49a158.05,158.05,0,0,1,21-3.68L364.09,75h20.8l6.41,27.35a158.05,158.05,0,0,1,21,3.68l15.37-23.49,19.53,7.11-3.32,27.88a156.84,156.84,0,0,1,18.45,10.67l22.5-16.83,15.92,13.37-12.68,25.08a157.24,157.24,0,0,1,13.71,16.32l26.9-8.13,10.39,18-20.46,19.21a158.07,158.07,0,0,1,7.3,20l28,1.56,3.61,20.48-25.83,11.06c.23,3.52.35,7.08.35,10.66s-.12,7.13-.35,10.65l25.83,11.07-3.61,20.47-28,1.57a157.93,157.93,0,0,1-7.3,20l20.46,19.21-10.39,18L501.78,352a157.24,157.24,0,0,1-13.71,16.32l12.68,25.09-15.92,13.36-22.5-16.83a156.91,156.91,0,0,1-18.45,10.68l3.32,27.87-19.53,7.11L412.3,412.08a156.45,156.45,0,0,1-21,3.68l-6.41,27.36h-20.8l-6.41-27.36a156.45,156.45,0,0,1-21-3.68l-15.37,23.49-19.54-7.11,3.34-27.87a156.23,156.23,0,0,1-18.46-10.68l-22.49,16.83-15.93-13.36,12.68-25.09A157.24,157.24,0,0,1,247.2,352l-26.89,8.13-10.4-18,20.46-19.21a157.93,157.93,0,0,1-7.3-20l-28-1.57-3.61-20.47,25.83-11.07Q216.93,264.45,216.92,259.08Z"/><circle class="cls-4" cx="374.49" cy="259.08" r="116.24"/><path class="cls-5" d="M368.06,518.19l-2.31-15.83a3,3,0,0,0-2.73-2.58l-23.56-2a3,3,0,0,1-2.6-2.13A125.45,125.45,0,0,0,330,478.06a3,3,0,0,1,.5-3.35l16.06-17.35a3,3,0,0,0,.29-3.74l-8.95-13.27a3,3,0,0,0-3.58-1.13l-24,9.13v0c-3.62,2.19-9.69-10-15.14-14.42a3,3,0,0,1-1-3.23l6.95-22.6a3,3,0,0,0-1.37-3.5L286,396.56a3,3,0,0,0-3.72.53L266,414.25a3,3,0,0,1-3.3.71,124.59,124.59,0,0,0-18-5.62,3,3,0,0,1-2.3-2.47l-3.56-23.39a3,3,0,0,0-2.75-2.56l-15.94-1.26a3,3,0,0,0-3.13,2.08l-7.2,22.54a3,3,0,0,1-2.66,2.06,125,125,0,0,0-18.67,2.71,3,3,0,0,1-3.14-1.22L172,388.31a3,3,0,0,0-3.59-1.11L153.5,393a3,3,0,0,0-1.91,3.23l3.28,23.44a3,3,0,0,1-1.49,3c-6.07,3.47-12.81,14.5-17.22,11.84v0l-22.28-12.82a3,3,0,0,0-3.71.55L99.23,433.9a3,3,0,0,0-.31,3.74L112,457.32a3,3,0,0,1,0,3.37A125.16,125.16,0,0,0,102.48,477a3,3,0,0,1-2.91,1.69L76,476.94a3,3,0,0,0-3.1,2.1L68.1,494.32a3,3,0,0,0,1.34,3.5L91.57,510.9h0c1.87.85-1.13,7.54-1.43,11.39s1.26,11.08-.39,11.48h0l-23.92,9.41A3,3,0,0,0,64,546.42l2.32,15.83A3,3,0,0,0,69,564.83l23.56,2A3,3,0,0,1,95.16,569,125.41,125.41,0,0,0,102,586.55a3,3,0,0,1-.49,3.34L85.42,607.25a3,3,0,0,0-.28,3.74l8.94,13.27a3,3,0,0,0,3.59,1.13l24-9.15h0c4.26-1.46,9.69,10,15.14,14.42a3,3,0,0,1,1,3.22l-6.94,22.61a3,3,0,0,0,1.37,3.5l13.81,8.07a3,3,0,0,0,3.72-.53L166,650.36a3,3,0,0,1,3.29-.71,125.85,125.85,0,0,0,18,5.62,3,3,0,0,1,2.31,2.47l3.55,23.39a3,3,0,0,0,2.75,2.56l16,1.26a3,3,0,0,0,3.11-2.08l7.2-22.54a3,3,0,0,1,2.68-2.06,128.07,128.07,0,0,0,18.66-2.71,3,3,0,0,1,3.14,1.22L260,676.29a3,3,0,0,0,3.58,1.12l14.93-5.78a3,3,0,0,0,1.89-3.24L277.14,645a3,3,0,0,1,1.5-3c6.06-3.47,12.65-13.76,17.21-11.84v0l22.28,12.82a3,3,0,0,0,3.71-.55l11-11.69a3,3,0,0,0,.3-3.73L320,607.29a3,3,0,0,1,0-3.37,126.92,126.92,0,0,0,9.51-16.29,3,3,0,0,1,2.92-1.69L356,587.67a3,3,0,0,0,3.1-2.1l4.79-15.28a3,3,0,0,0-1.34-3.5l-22.12-13.08h0c-2.49-.49,1.12-7.53,1.42-11.38s-2.36-10.82.4-11.48h0l23.91-9.41A3,3,0,0,0,368.06,518.19Zm-75.19,26.57a77.86,77.86,0,1,1-77-90.32A78.14,78.14,0,0,1,292.87,544.76Z"/><path class="cls-6" d="M292.87,544.76a77.86,77.86,0,1,1-77-90.32A78.14,78.14,0,0,1,292.87,544.76Z"/></svg>