<svg id="Camada_1" data-name="Camada 1" xmlns="http://www.w3.org/2000/svg" xmlns:xlink="http://www.w3.org/1999/xlink" viewBox="0 0 760 760"><defs><style>.cls-1,.cls-2,.cls-3,.cls-4,.cls-5,.cls-6{fill:none;stroke-miterlimit:10;stroke-width:8px;}.cls-1{stroke:url(#Gradiente_sem_nome_6);}.cls-2{stroke:url(#Gradiente_sem_nome_6-2);}.cls-3{stroke:url(#Gradiente_sem_nome_6-3);}.cls-4{stroke:url(#Gradiente_sem_nome_6-4);}.cls-5{stroke:url(#Gradiente_sem_nome_6-5);}.cls-6{stroke:url(#Gradiente_sem_nome_6-6);}</style><linearGradient id="Gradiente_sem_nome_6" x1="157.54" y1="443.58" x2="323.45" y2="443.58" gradientTransform="translate(-7.87 -31.6) rotate(1.68)" gradientUnits="userSpaceOnUse"><stop offset="0.14" stop-color="#679980"/><stop offset="0.83" stop-color="#0f1958"/></linearGradient><linearGradient id="Gradiente_sem_nome_6-2" x1="148.89" y1="574.95" x2="364.62" y2="574.95" xlink:href="#Gradiente_sem_nome_6"/><linearGradient id="Gradiente_sem_nome_6-3" x1="396.57" y1="292.9" x2="575.73" y2="292.9" xlink:href="#Gradiente_sem_nome_6"/><linearGradient id="Gradiente_sem_nome_6-4" x1="222.9" y1="255.82" x2="473.36" y2="255.82" xlink:href="#Gradiente_sem_nome_6"/><linearGradient id="Gradiente_sem_nome_6-5" x1="395.78" y1="573.07" x2="558.76" y2="573.07" xlink:href="#Gradiente_sem_nome_6"/><linearGradient id="Gradiente_sem_nome_6-6" x1="504.53" y1="495.15" x2="666.89" y2="495.15" xlink:href="#Gradiente_sem_nome_6"/></defs><path class="cls-1" d="M176.06,363.1l-31.27-18.44a.87.87,0,0,1,.47-1.61l102.17,3a4,4,0,0,1,3.46,2.17l46.92,90.33a1,1,0,0,1-1.48,1.37l-30.15-18.82A2.26,2.26,0,0,0,263,422L230.9,486.45a10.59,10.59,0,0,1-9.2,5.88c-18.2.44-69.4-2.43-81.26-47.41a15.53,15.53,0,0,1,1.19-11.14l35.28-67.69A2.27,2.27,0,0,0,176.06,363.1Z"/><path class="cls-2" d="M336.71,518.21l-113-3.31h0c-.1,0-67.68,1.85-91.22-41.54-.68-1.26-2.31-.59-2.24.83,2.46,51.25-.21,152.55,96.36,151l106.83,3.43a.1.1,0,0,0,.1-.09l3.23-110.2A.09.09,0,0,0,336.71,518.21Z"/><path class="cls-3" d="M525.32,271.59l26.85-17.32a2.26,2.26,0,0,1,3.22,3l-47.71,88.64a2.28,2.28,0,0,1-2,1.2l-102,1.49a2.27,2.27,0,0,1-1.32-4.14L429.5,325.7a2.28,2.28,0,0,0,.52-3.23L386.07,264a8.36,8.36,0,0,1-.94-8.53C392.38,239.54,419.74,189,470,202a8.53,8.53,0,0,1,4.78,3.25L522.26,271A2.26,2.26,0,0,0,525.32,271.59Z"/><path class="cls-4" d="M309.89,345.61,363,246.89s37.48-76.33,92.46-71.49c.14,0,.2-.13.11-.24-47.27-63.35-122.74-72-159.77-21.25-8.78,12.05-8.14,11.55-18.71,28l-67,110a4,4,0,0,0,1.62,5.4l92.78,49.94A4,4,0,0,0,309.89,345.61Z"/><path class="cls-5" d="M421.63,607.63l-2.35,29a2.52,2.52,0,0,1-4.81.83l-39.18-87a2.53,2.53,0,0,1,.27-2.54l57.32-77.08a2.52,2.52,0,0,1,4.52,1.77l-3.1,29.22a2.51,2.51,0,0,0,2.48,2.78l73,.68a6.86,6.86,0,0,1,6,3.58c7.58,14,31.8,66.09-9,97.26a6.7,6.7,0,0,1-4.3,1.35l-78.2-2.19A2.52,2.52,0,0,0,421.63,607.63Z"/><path class="cls-6" d="M488.56,396.28l47.67,104.84s36.56,70.18-6.41,109a.27.27,0,0,0,.29.45c17.5-9.62,151.68-44.8,96.54-174.47-25.1-59-36-80.32-38.44-84.86a2.1,2.1,0,0,0-2.71-.9l-95.89,43.18A2.11,2.11,0,0,0,488.56,396.28Z"/></svg>