<svg id="Camada_1" data-name="Camada 1" xmlns="http://www.w3.org/2000/svg" xmlns:xlink="http://www.w3.org/1999/xlink" viewBox="0 0 760 760"><defs><style>.cls-1,.cls-2,.cls-3,.cls-4,.cls-5,.cls-6,.cls-7{fill:none;stroke-miterlimit:10;stroke-width:8px;}.cls-1{stroke:url(#Gradiente_sem_nome_6);}.cls-2{stroke:url(#Gradiente_sem_nome_6-2);}.cls-3{stroke:url(#Gradiente_sem_nome_6-3);}.cls-4{stroke:url(#Gradiente_sem_nome_6-4);}.cls-5{stroke:url(#Gradiente_sem_nome_6-5);}.cls-6{stroke:url(#Gradiente_sem_nome_6-6);}.cls-7{stroke:url(#Gradiente_sem_nome_6-7);}</style><linearGradient id="Gradiente_sem_nome_6" x1="213.39" y1="375.02" x2="567.55" y2="375.02" gradientUnits="userSpaceOnUse"><stop offset="0.14" stop-color="#679980"/><stop offset="0.83" stop-color="#0f1958"/></linearGradient><linearGradient id="Gradiente_sem_nome_6-2" x1="177.14" y1="375.02" x2="603.8" y2="375.02" xlink:href="#Gradiente_sem_nome_6"/><linearGradient id="Gradiente_sem_nome_6-3" x1="357.4" y1="380" x2="423.54" y2="380" xlink:href="#Gradiente_sem_nome_6"/><linearGradient id="Gradiente_sem_nome_6-4" x1="369.41" y1="222.93" x2="411.54" y2="222.93" xlink:href="#Gradiente_sem_nome_6"/><linearGradient id="Gradiente_sem_nome_6-5" x1="369.41" y1="537.07" x2="411.54" y2="537.07" xlink:href="#Gradiente_sem_nome_6"/><linearGradient id="Gradiente_sem_nome_6-6" x1="130.29" y1="380" x2="336.51" y2="380" xlink:href="#Gradiente_sem_nome_6"/><linearGradient id="Gradiente_sem_nome_6-7" x1="444.44" y1="380" x2="650.66" y2="380" xlink:href="#Gradiente_sem_nome_6"/></defs><path class="cls-1" d="M465.5,397.06h96.8A173.28,173.28,0,0,1,407.54,547.4V455a17.07,17.07,0,0,0-34.13,0V547.4A173.29,173.29,0,0,1,218.65,397.06h96.8a17.06,17.06,0,1,0,0-34.12H217.68A173.24,173.24,0,0,1,373.41,202.65V305a17.07,17.07,0,0,0,34.13,0V202.65A173.23,173.23,0,0,1,563.27,362.94H465.5a17.06,17.06,0,0,0,0,34.12Z"/><path class="cls-2" d="M598.76,397.06c-10.42,99.73-90.83,178.63-191.22,186.71V455a17.07,17.07,0,0,0-34.13,0V583.77c-100.39-8.08-180.8-87-191.22-186.71H315.45a17.06,17.06,0,1,0,0-34.12H181.38c5.94-104.38,88.32-188.3,192-196.67V305a17.07,17.07,0,0,0,34.13,0V166.27c103.71,8.37,186.09,92.29,192,196.67H465.5a17.06,17.06,0,0,0,0,34.12Z"/><circle class="cls-3" cx="390.47" cy="380" r="29.07"/><path class="cls-4" d="M407.54,140.89V305a17.07,17.07,0,0,1-34.13,0V140.89a17.07,17.07,0,1,1,34.13,0Z"/><path class="cls-5" d="M407.54,455V619.11a17.07,17.07,0,1,1-34.13,0V455a17.07,17.07,0,0,1,34.13,0Z"/><path class="cls-6" d="M332.51,380a17.06,17.06,0,0,1-17.06,17.06H151.36a17.06,17.06,0,1,1,0-34.12H315.45A17.06,17.06,0,0,1,332.51,380Z"/><path class="cls-7" d="M646.66,380a17.06,17.06,0,0,1-17.07,17.06H465.5a17.06,17.06,0,0,1,0-34.12H629.59A17.06,17.06,0,0,1,646.66,380Z"/></svg>