<svg id="Camada_1" data-name="Camada 1" xmlns="http://www.w3.org/2000/svg" xmlns:xlink="http://www.w3.org/1999/xlink" viewBox="0 0 760 760"><defs><style>.cls-1,.cls-2,.cls-3,.cls-4,.cls-5,.cls-6{fill:none;stroke-miterlimit:10;stroke-width:8px;}.cls-1{stroke:url(#Gradiente_sem_nome_6);}.cls-2{stroke:url(#Gradiente_sem_nome_6-2);}.cls-3{stroke:url(#Gradiente_sem_nome_6-3);}.cls-4{stroke:url(#Gradiente_sem_nome_6-4);}.cls-5{stroke:url(#Gradiente_sem_nome_6-5);}.cls-6{stroke:url(#Gradiente_sem_nome_6-6);}</style><linearGradient id="Gradiente_sem_nome_6" x1="191.97" y1="446.18" x2="549.61" y2="446.18" gradientUnits="userSpaceOnUse"><stop offset="0.14" stop-color="#679980"/><stop offset="0.83" stop-color="#0f1958"/></linearGradient><linearGradient id="Gradiente_sem_nome_6-2" x1="343.98" y1="93.28" x2="351.98" y2="93.28" xlink:href="#Gradiente_sem_nome_6"/><linearGradient id="Gradiente_sem_nome_6-3" x1="405.04" y1="132.56" x2="480.57" y2="132.56" xlink:href="#Gradiente_sem_nome_6"/><linearGradient id="Gradiente_sem_nome_6-4" x1="432.68" y1="227.38" x2="531.49" y2="227.38" xlink:href="#Gradiente_sem_nome_6"/><linearGradient id="Gradiente_sem_nome_6-5" x1="215.4" y1="132.56" x2="290.92" y2="132.56" xlink:href="#Gradiente_sem_nome_6"/><linearGradient id="Gradiente_sem_nome_6-6" x1="164.48" y1="227.38" x2="263.29" y2="227.38" xlink:href="#Gradiente_sem_nome_6"/></defs><path class="cls-1" d="M348,199.15h0a28.23,28.23,0,0,0-28.23,28.23v232a13.49,13.49,0,0,1-19.57,12.05s-16.74-33.31-22.78-44.17c-12-21.56-27.87-30.39-42.34-33.51-22.42-4.84-67.29-1.19-14.12,73.62,0,0,68.71,144.95,76.82,158.39,5.29,8.76,26.23,63.93,64.34,67.46h98.81c58.62-.12,84.7-60.37,84.7-134.57V440.81A41.57,41.57,0,0,0,504,399.25h-.59a14.17,14.17,0,0,0-14.3,14.14v-20.3a42.32,42.32,0,0,0-42.32-42.32h0a14.15,14.15,0,0,0-14.14,14.15V342.76a42.32,42.32,0,0,0-42.32-42.32h0a14.15,14.15,0,0,0-14.15,14.15V227.38A28.22,28.22,0,0,0,348,199.15Z"/><line class="cls-2" x1="347.98" y1="43.88" x2="347.98" y2="142.69"/><line class="cls-3" x1="477.74" y1="97.62" x2="407.87" y2="167.49"/><line class="cls-4" x1="531.49" y1="227.38" x2="432.68" y2="227.38"/><line class="cls-5" x1="218.23" y1="97.62" x2="288.09" y2="167.49"/><line class="cls-6" x1="164.48" y1="227.38" x2="263.29" y2="227.38"/></svg>