<svg id="Camada_1" data-name="Camada 1" xmlns="http://www.w3.org/2000/svg" xmlns:xlink="http://www.w3.org/1999/xlink" viewBox="0 0 760 760"><defs><style>.cls-1,.cls-10,.cls-11,.cls-12,.cls-13,.cls-14,.cls-15,.cls-16,.cls-17,.cls-18,.cls-19,.cls-2,.cls-3,.cls-4,.cls-5,.cls-6,.cls-7,.cls-8,.cls-9{fill:none;stroke-linecap:round;stroke-miterlimit:10;stroke-width:8px;}.cls-1{stroke:url(#Gradiente_sem_nome_6);}.cls-2{stroke:url(#Gradiente_sem_nome_6-2);}.cls-3{stroke:url(#Gradiente_sem_nome_6-3);}.cls-4{stroke:url(#Gradiente_sem_nome_6-4);}.cls-5{stroke:url(#Gradiente_sem_nome_6-5);}.cls-6{stroke:url(#Gradiente_sem_nome_6-6);}.cls-7{stroke:url(#Gradiente_sem_nome_6-7);}.cls-8{stroke:url(#Gradiente_sem_nome_6-8);}.cls-9{stroke:url(#Gradiente_sem_nome_6-9);}.cls-10{stroke:url(#Gradiente_sem_nome_6-10);}.cls-11{stroke:url(#Gradiente_sem_nome_6-11);}.cls-12{stroke:url(#Gradiente_sem_nome_6-12);}.cls-13{stroke:url(#Gradiente_sem_nome_6-13);}.cls-14{stroke:url(#Gradiente_sem_nome_6-14);}.cls-15{stroke:url(#Gradiente_sem_nome_6-15);}.cls-16{stroke:url(#Gradiente_sem_nome_6-16);}.cls-17{stroke:url(#Gradiente_sem_nome_6-17);}.cls-18{stroke:url(#Gradiente_sem_nome_6-18);}.cls-19{stroke:url(#Gradiente_sem_nome_6-19);}</style><linearGradient id="Gradiente_sem_nome_6" x1="122.57" y1="316.72" x2="131.63" y2="316.72" gradientUnits="userSpaceOnUse"><stop offset="0.14" stop-color="#679980"/><stop offset="0.83" stop-color="#0f1958"/></linearGradient><linearGradient id="Gradiente_sem_nome_6-2" x1="300.52" y1="406.03" x2="421.49" y2="406.03" xlink:href="#Gradiente_sem_nome_6"/><linearGradient id="Gradiente_sem_nome_6-3" x1="537.94" y1="348.53" x2="620.08" y2="348.53" xlink:href="#Gradiente_sem_nome_6"/><linearGradient id="Gradiente_sem_nome_6-4" x1="488.05" y1="344.9" x2="544.44" y2="344.9" xlink:href="#Gradiente_sem_nome_6"/><linearGradient id="Gradiente_sem_nome_6-5" x1="141.59" y1="247.74" x2="263.51" y2="247.74" xlink:href="#Gradiente_sem_nome_6"/><linearGradient id="Gradiente_sem_nome_6-6" x1="504.31" y1="251.16" x2="638.08" y2="251.16" xlink:href="#Gradiente_sem_nome_6"/><linearGradient id="Gradiente_sem_nome_6-7" x1="319.49" y1="317.1" x2="442.43" y2="317.1" xlink:href="#Gradiente_sem_nome_6"/><linearGradient id="Gradiente_sem_nome_6-8" x1="170.53" y1="357.15" x2="244.51" y2="357.15" xlink:href="#Gradiente_sem_nome_6"/><linearGradient id="Gradiente_sem_nome_6-9" x1="124.04" y1="344.66" x2="177.53" y2="344.66" xlink:href="#Gradiente_sem_nome_6"/><linearGradient id="Gradiente_sem_nome_6-10" x1="145.01" y1="426.8" x2="216.05" y2="426.8" xlink:href="#Gradiente_sem_nome_6"/><linearGradient id="Gradiente_sem_nome_6-11" x1="106.52" y1="309.71" x2="159.53" y2="309.71" xlink:href="#Gradiente_sem_nome_6"/><linearGradient id="Gradiente_sem_nome_6-12" x1="289.48" y1="357.24" x2="345.99" y2="357.24" xlink:href="#Gradiente_sem_nome_6"/><linearGradient id="Gradiente_sem_nome_6-13" x1="339.98" y1="369.19" x2="461.09" y2="369.19" xlink:href="#Gradiente_sem_nome_6"/><linearGradient id="Gradiente_sem_nome_6-14" x1="155.53" y1="322.1" x2="280.61" y2="322.1" xlink:href="#Gradiente_sem_nome_6"/><linearGradient id="Gradiente_sem_nome_6-15" x1="515.57" y1="426.02" x2="586.61" y2="426.02" xlink:href="#Gradiente_sem_nome_6"/><linearGradient id="Gradiente_sem_nome_6-16" x1="331.41" y1="458.51" x2="390.97" y2="458.51" xlink:href="#Gradiente_sem_nome_6"/><linearGradient id="Gradiente_sem_nome_6-17" x1="477.08" y1="316.1" x2="530.09" y2="316.1" xlink:href="#Gradiente_sem_nome_6"/><linearGradient id="Gradiente_sem_nome_6-18" x1="526.09" y1="322.1" x2="644.18" y2="322.1" xlink:href="#Gradiente_sem_nome_6"/><linearGradient id="Gradiente_sem_nome_6-19" x1="80.66" y1="659.8" x2="598.42" y2="659.8" xlink:href="#Gradiente_sem_nome_6"/></defs><path class="cls-1" d="M127.5,315.21a2.85,2.85,0,0,1-.93,3"/><path class="cls-2" d="M417.49,401.25c-5.92.67-10.24,5.19-15,8.41C392.5,416.52,382.86,424,373,431c-10.34,7.39-22.38,4.05-28-4-8.57-12.22-31.87-37.92-40.44-50.14"/><path class="cls-3" d="M616.08,325.35c-11.16,4.73-29.89,19.29-38.59,25.38-7.28,5.09-14,10.94-21.07,16.39a20,20,0,0,1-14.48,4.5"/><path class="cls-4" d="M492.05,319.19c.15.33,3.37,4,4.23,4.32,7.3,5.46,7.57,9.29,13.59,16.21s11.46,14.21,17,21.43c3.55,4.59,7.59,8.34,13.52,9.47"/><path class="cls-5" d="M146,213.32a24.19,24.19,0,0,0,.49,10.51c.24,1.07.14,2.52,1.09,2.92,8.22,3.43,11,11.49,15.42,18.07,6.19,9.19,12.1,18.57,18,27.94,6.9,10.9,19.78,11.53,29,5.9,12.72-7.81,25.08-16.19,37.53-24.41,3.69-2.43,7.53-4,12-3.47"/><path class="cls-6" d="M508.69,226.81c.5,1.92-1.76,5.86,1.08,6.91,4.07,1.49,0,0,2.71,3.55,8.73,11.4,33.75,37,47.83,44.1,6.3,3.08,1.81,5.45,10.48-1.61,12-9.73,23.18-20.45,35.25-30,1.44-1.14,19.36-15.4,20.56-16.5,7.48-6.78,6.38-7.86,7.48-15.27"/><path class="cls-7" d="M438.43,308.19a2.07,2.07,0,0,1-1.47,1c-9.89.34-15.92,8-23.41,12.66-9.18,5.76-17.84,12.39-26.55,18.88-7.19,5.36-20.33,4.35-26.55-4.51-8.71-12.41-17.78-24.55-26.38-37a25.85,25.85,0,0,0-10.58-8.93"/><path class="cls-8" d="M240.51,341.16A20.55,20.55,0,0,0,228,344.68c-12,7.92-23.94,16.07-36,23.89-5.23,3.38-11,5.68-17.46,4.05"/><path class="cls-9" d="M128,317.19c6.2,2.7,9.55,8.17,13,13.5,6.72,10.44,13.25,21,20,31.42a25.25,25.25,0,0,0,12.46,10"/><path class="cls-10" d="M212,191.86c.44,11.2-3.45,21.68-5.57,32.44q-5.38,27.28-11.49,54.43c-2,9.15-4.12,18.28-6,27.47-3.49,17.18-6.92,34.38-11.05,51.41-3.46,14.26-6,28.71-9.19,43s-6.23,28.72-7.88,43.38c-.56,5-1.41,9.95-1.3,15,0,1.58,0,3.26-1.54,3.94-3.49,1.52-2.87,4.61-2.37,7,1.88,9.14-.63,18-1.16,27-.6,10-1.9,20-2.39,30-1.18,24.13-2.45,48.26-2.94,72.41-.41,20.79.22,41.61.38,62.41"/><path class="cls-11" d="M155.53,154.91c-1.07,4-44.4,221.19-44.75,225.09-1.32,14.54,2.36,28.14,10.77,41.05,7.28,11.18,14.8,22.22,21.92,33.51,3,4.75,6.62,8.34,12.06,9.94"/><path class="cls-12" d="M337.39,188.05c-2,15.81-35.64,205.17-36.47,210.52-1.93,12.36-4.34,24.64-6.4,37-3,18,.54,34.55,11.44,49.46,7.68,10.52,15,21.28,22.53,31.93,3.36,4.77,7.5,8.45,13.5,9.49"/><path class="cls-13" d="M457.09,213.32c-2,12.7-39.13,231-41,243.7a59,59,0,0,1-23.13,39.37c-11.24,8.65-22.91,16.75-34.45,25A20.56,20.56,0,0,1,344,524.92"/><path class="cls-14" d="M276.61,182.32c-3,15.37-40.68,204.11-44.76,219.22-4.33,16-14,28.6-28.32,37.52-9.91,6.2-19.65,12.66-29.52,18.93-4.39,2.79-9.06,4.77-14.48,3.51"/><path class="cls-15" d="M582.57,191.86c.45,11.2-3.44,21.68-5.56,32.44-3.59,18.19-7.46,36.33-11.49,54.43-2,9.15-4.12,18.28-6,27.47-3.5,17.18-6.92,34.38-11.06,51.41-3.46,14.26-6,28.71-9.18,43s-6.23,28.72-7.88,43.38c-.56,5-1.41,9.95-1.3,15,0,1.58,0,3.26-1.54,3.94-3.49,1.52-2.87,4.61-2.38,7,1.89,9.14-.63,18-1.16,27-.59,10-1.9,20-2.38,30-1.18,24.13-2.46,48.26-2.94,72.41-.41,20.79.2,40,.37,60.86"/><path class="cls-16" d="M387,258.77c-1.5,9.49-3,19-4.5,28.46q-3.2,19.49-6.5,38.95c-1.31,7.83-2.48,15.68-4,23.46-2.71,13.59-4.8,27.28-7,40.95-2.27,14-5,28-7.44,42-3.2,18.31-6.58,36.59-9.42,54.94-1.79,11.58-1.63,23.57-4.38,34.87-3.15,13-2.16,26.09-4.05,39-1.57,10.71-2,21.6-2.62,32.43-1.26,21.45-1.84,42.93-1.53,64.42"/><path class="cls-17" d="M519.57,167.7c-1.07,4-37.88,208.4-38.23,212.3-1.32,14.54,2.36,28.14,10.77,41.05,7.28,11.18,14.79,22.22,21.91,33.51,3,4.75,6.62,8.34,12.07,9.94"/><path class="cls-18" d="M640.18,182.32c-3,15.37-33.69,204.11-37.77,219.22-4.33,16-14.06,28.6-28.32,37.52-9.91,6.2-19.65,12.66-29.52,18.93-4.39,2.79-9.07,4.77-14.48,3.51"/><path class="cls-19" d="M84.66,658.75c3.13,1.69,71.85,2,75.37,2,55.15,0,110.31.22,165.46-.34,7.52-.08,15,.32,22.49.31q84.74,0,169.46,0a19.33,19.33,0,0,0,7.49-1c1.89.07,2.46-1.34,4-.51,4.27,2.28,8.95,1.51,13.49,1.5,17.33,0,34.65-.14,52-.22"/></svg>