<svg id="Camada_1" data-name="Camada 1" xmlns="http://www.w3.org/2000/svg" xmlns:xlink="http://www.w3.org/1999/xlink" viewBox="0 0 760 760"><defs><style>.cls-1,.cls-10,.cls-11,.cls-2,.cls-3,.cls-4,.cls-5,.cls-6,.cls-7,.cls-8,.cls-9{fill:none;stroke-linecap:round;stroke-miterlimit:10;stroke-width:8px;}.cls-1{stroke:url(#Gradiente_sem_nome_6);}.cls-2{stroke:url(#Gradiente_sem_nome_6-2);}.cls-3{stroke:url(#Gradiente_sem_nome_6-3);}.cls-4{stroke:url(#Gradiente_sem_nome_6-4);}.cls-5{stroke:url(#Gradiente_sem_nome_6-5);}.cls-6{stroke:url(#Gradiente_sem_nome_6-6);}.cls-7{stroke:url(#Gradiente_sem_nome_6-7);}.cls-8{stroke:url(#Gradiente_sem_nome_6-8);}.cls-9{stroke:url(#Gradiente_sem_nome_6-9);}.cls-10{stroke:url(#Gradiente_sem_nome_6-10);}.cls-11{stroke:url(#Gradiente_sem_nome_6-11);}</style><linearGradient id="Gradiente_sem_nome_6" x1="284.14" y1="345.57" x2="621.5" y2="345.57" gradientUnits="userSpaceOnUse"><stop offset="0.14" stop-color="#679980"/><stop offset="0.83" stop-color="#0f1958"/></linearGradient><linearGradient id="Gradiente_sem_nome_6-2" x1="126.24" y1="363.87" x2="335.05" y2="363.87" xlink:href="#Gradiente_sem_nome_6"/><linearGradient id="Gradiente_sem_nome_6-3" x1="397.37" y1="282.18" x2="451.42" y2="282.18" xlink:href="#Gradiente_sem_nome_6"/><linearGradient id="Gradiente_sem_nome_6-4" x1="231.66" y1="336.09" x2="341.53" y2="336.09" xlink:href="#Gradiente_sem_nome_6"/><linearGradient id="Gradiente_sem_nome_6-5" x1="235.24" y1="355.35" x2="257.91" y2="355.35" xlink:href="#Gradiente_sem_nome_6"/><linearGradient id="Gradiente_sem_nome_6-6" x1="374.56" y1="368.54" x2="531.89" y2="368.54" xlink:href="#Gradiente_sem_nome_6"/><linearGradient id="Gradiente_sem_nome_6-7" x1="318.39" y1="493.42" x2="526.94" y2="493.42" xlink:href="#Gradiente_sem_nome_6"/><linearGradient id="Gradiente_sem_nome_6-8" x1="518.94" y1="526.12" x2="623.89" y2="526.12" xlink:href="#Gradiente_sem_nome_6"/><linearGradient id="Gradiente_sem_nome_6-9" x1="515.84" y1="403.37" x2="528.57" y2="403.37" xlink:href="#Gradiente_sem_nome_6"/><linearGradient id="Gradiente_sem_nome_6-10" x1="535.86" y1="566.38" x2="621.02" y2="566.38" xlink:href="#Gradiente_sem_nome_6"/><linearGradient id="Gradiente_sem_nome_6-11" x1="140.53" y1="452.01" x2="172.47" y2="452.01" xlink:href="#Gradiente_sem_nome_6"/></defs><path class="cls-1" d="M288.14,203c7.37-7.5,16.21-13.21,24.38-19.74,3.83-3.07,7.39-6.63,12-8.66,3.26-1.44,6.36-2.65,9.27-5.16,3.11-2.67,8.15-1.47,12.15-.9,6.59.94,13.24,1.37,19.83,2.27s13.2,1.42,19.8,2.1L414,175.83c8.25.83,16.5,1.63,24.75,2.5a8.89,8.89,0,0,1,2.07.79c9.39,3.59,18.67,7.37,27.26,12.74,17,10.6,34.09,20.92,51.13,31.39a18.51,18.51,0,0,1,4.5,3.33c2.78,3.24,6.33,4.12,10.36,4.53,26.2,2.7,46.5,15.45,61,37.12a78.1,78.1,0,0,1,13,41.15c.47,12.09,1.12,24.18,1.65,36.28.53,11.95,1.12,23.9,1.65,35.86s1.14,23.9,1.65,35.86,1.14,23.91,1.65,35.86.91,23.94,1.77,35.86c.52,7.29,0,14.6.93,21.87.65,4.9-1,6.18-6.12,6.65-6.6.61-13.23,0-20.22.52v5.19"/><path class="cls-2" d="M331.05,350.61c-5.44-3.29-7.62-8.6-9.09-14.43-7-27.76-14.06-55.5-21-83.27-3.68-14.68-7.16-29.41-10.75-44.1-1.49-6.08-2.22-6.81-8.66-6.55-8.43.34-16.78-.73-25.18-.91C240.1,201,226.1,207.12,214,217.16a85.16,85.16,0,0,0-28.47,43.61c-3.13,11.4-5.29,23.07-7.94,34.6q-9.25,40.2-18.56,80.38-7.64,33-15.28,66c-.07.29-.44.6-.38.81,2.1,6.85-3.17,12-4.22,18.14S136.42,473,135,479.22s-2.45,12.45-4.23,18.52c-1.2,4.1-.56,7.08,2.55,10,6.14,5.68,13.38,9.31,21.06,12.37A83.25,83.25,0,0,0,192,526.18a36.25,36.25,0,0,0,14.86-4.48c2.5-1.38,3.18-3.74,3.7-6.21,5.1-23.9,10.29-47.79,15.21-71.73,1.38-6.68,3.82-12.46,9.56-16.48"/><path class="cls-3" d="M447.42,182.83c-4.5,10.74-6.23,22.22-9,33.41-6.13,24.68-11.91,49.45-17.81,74.18-6.06,25.42-12.05,50.86-18.21,76.25-1.24,5.13-1.75,10,.88,14.85"/><path class="cls-4" d="M330.64,173.35c2,3.46,2.44,7.16,2.55,11.13.46,16.35.3,32.73,1,49.05.54,12.79-.17,25.59.7,38.34,1,14.16.11,28.33.89,42.45.41,7.57.41,15.13.7,22.68a16.15,16.15,0,0,1-3,10.26,9.25,9.25,0,0,0-1.62,7.89c2.42,12.26,3.46,24.71,4.9,37.1a95.44,95.44,0,0,1-.32,26.79,4.49,4.49,0,0,0,0,.82c.56,10.6-.48,21.19-1.1,31.72-.47,8,.28,16-1.28,23.95a34.37,34.37,0,0,1-6.31,13.57c-.67.93-2,1.51-2.39,2.51-3.33,8.6-10.83,7.35-17.39,6.85-14.47-1.09-28.91-2.76-43.33-4.45-7.56-.89-15.11-1.79-22.69-2.5-2-.19-3.84-1.36-5.83-2.11-1.12-6.26.2-12.53.86-18.84,1.13-10.85,2.4-21.69,3.2-32.57.24-3.4-2-6.44-3.6-9.47"/><path class="cls-5" d="M239.24,404.2c2.42-14.43,4.68-28.88,7.06-43.31,1.56-9.44,3.06-18.92,4.31-28.42,1.15-8.65,3.59-17.13,3.28-26"/><path class="cls-6" d="M527.89,230.65a49.39,49.39,0,0,1-5.33,8.27c-29.49,37.06-58.8,74.26-88.42,111.21-7,8.76-13.64,17.85-21.31,26.11-1.76,1.89-3.52,3.94-5.87,4.32-3.7.6-4.65,3.32-6.19,5.89-8.08,13.47-9.32,28.86-12.31,43.73-3.25,16.16-5.9,32.45-9.22,48.61a29,29,0,0,0,2.2,19c1.33,2.8,2.91,5.45,2.85,8.68"/><path class="cls-7" d="M322.39,497.77c4.26,4.13,9.87,4.5,15.27,5.34,10.3,1.58,20.62,3.12,30.95,4.52,4.8.64,9.79,1.62,14.4-.47,3-1.37,4.62,1,6.59,1.86,7.29,3.19,15.1,3.59,22.75,4.78,9.19,1.43,18.43,2.53,27.64,3.75q20.22,2.7,40.44,5.36c7.29,1,14.6,1.81,21.87,2.93,6.68,1,8.23,0,9.09-6.63,2-15.09,3.57-30.2,5-45.35.48-5.15,2.36-9.8,6.57-13.19"/><path class="cls-8" d="M522.94,460.05c4.71,2.13,6.32,6.67,7.24,11,1.06,4.92.49,10.16,1.06,15.21,1.07,9.47,1.07,19,2.34,28.46a123.89,123.89,0,0,1,.72,12.77c.18,6.2.62,12.41,1.22,18.53.79,8.13-.42,16.64,3.5,24.34a2.26,2.26,0,0,1,.4,1.23c-1.68,9.21,3.88,13.78,11.19,16.84a50,50,0,0,0,19.37,3.8c10.28,0,20.55.22,30.54-2.89,8.23-2.56,14.09-7.82,18.16-15.26a5.91,5.91,0,0,0,.33-5.74c-1.55-2.77-1-5.1,0-7.91,1.33-4.09,1-8.59.36-12.71-.84-5.27-.08-10.51-.74-15.69-.61-4.85.12-10-2.81-14.43"/><path class="cls-9" d="M519.84,347.31c1,9.34,2.16,18.68,3,28,.31,3.29.55,6.61.74,9.89.53,9.32,1.25,18.62.79,28-.4,8.05-.34,16.2-.28,24.31.05,7.28-.24,14.56-.38,21.84"/><path class="cls-10" d="M617,565a50.63,50.63,0,0,1-8.26-1.6c-10.1-2.3-20.26-2-30.54-1A142.83,142.83,0,0,0,552.64,567c-4.31,1.24-8.25,3.61-12.78,4.14"/><path class="cls-11" d="M144.53,449.13c7.82,2.59,16,3.57,23.94,5.77"/></svg>