<svg id="Camada_1" data-name="Camada 1" xmlns="http://www.w3.org/2000/svg" xmlns:xlink="http://www.w3.org/1999/xlink" viewBox="0 0 760 760"><defs><style>.cls-1,.cls-10,.cls-11,.cls-2,.cls-3,.cls-4,.cls-5,.cls-6,.cls-7,.cls-8,.cls-9{fill:none;stroke-miterlimit:10;stroke-width:8px;}.cls-1{stroke:url(#Gradiente_sem_nome_6);}.cls-2{stroke:url(#Gradiente_sem_nome_6-2);}.cls-3{stroke:url(#Gradiente_sem_nome_6-3);}.cls-4{stroke:url(#Gradiente_sem_nome_6-4);}.cls-5{stroke:url(#Gradiente_sem_nome_6-5);}.cls-6{stroke:url(#Gradiente_sem_nome_6-6);}.cls-7{stroke:url(#Gradiente_sem_nome_6-7);}.cls-8{stroke:url(#Gradiente_sem_nome_6-8);}.cls-9{stroke:url(#Gradiente_sem_nome_6-9);}.cls-10{stroke:url(#Gradiente_sem_nome_6-10);}.cls-11{stroke:url(#Gradiente_sem_nome_6-11);}</style><linearGradient id="Gradiente_sem_nome_6" x1="164.3" y1="381.25" x2="368.37" y2="381.25" gradientUnits="userSpaceOnUse"><stop offset="0.14" stop-color="#679980"/><stop offset="0.83" stop-color="#0f1958"/></linearGradient><linearGradient id="Gradiente_sem_nome_6-2" x1="431.95" y1="318.29" x2="570.78" y2="318.29" xlink:href="#Gradiente_sem_nome_6"/><linearGradient id="Gradiente_sem_nome_6-3" x1="431.8" y1="404.22" x2="669.58" y2="404.22" xlink:href="#Gradiente_sem_nome_6"/><linearGradient id="Gradiente_sem_nome_6-4" x1="153.92" y1="156.69" x2="371.37" y2="156.69" xlink:href="#Gradiente_sem_nome_6"/><linearGradient id="Gradiente_sem_nome_6-5" x1="161.87" y1="604.5" x2="355.79" y2="604.5" xlink:href="#Gradiente_sem_nome_6"/><linearGradient id="Gradiente_sem_nome_6-6" x1="188.4" y1="316.56" x2="342.7" y2="316.56" xlink:href="#Gradiente_sem_nome_6"/><linearGradient id="Gradiente_sem_nome_6-7" x1="190.44" y1="352.42" x2="374.91" y2="352.42" xlink:href="#Gradiente_sem_nome_6"/><linearGradient id="Gradiente_sem_nome_6-8" x1="175.41" y1="222.12" x2="262.91" y2="222.12" xlink:href="#Gradiente_sem_nome_6"/><linearGradient id="Gradiente_sem_nome_6-9" x1="270.08" y1="569.71" x2="379.46" y2="569.71" xlink:href="#Gradiente_sem_nome_6"/><linearGradient id="Gradiente_sem_nome_6-10" x1="182.38" y1="511.61" x2="346.81" y2="511.61" xlink:href="#Gradiente_sem_nome_6"/><linearGradient id="Gradiente_sem_nome_6-11" x1="158.1" y1="346.44" x2="351.37" y2="346.44" xlink:href="#Gradiente_sem_nome_6"/></defs><path class="cls-1" d="M368.37,379.75h-29c-26.66,0-53.31.88-80,1.2-20.16.24-40.33.66-60.49.84-11.5.1-23,.62-34.49,1"/><path class="cls-2" d="M567.32,318.83c-10.17-17.64-20.43-35.23-30.41-53-2.17-3.84-4.8-5.08-9.08-5-17.16.21-34.34.4-51.49-.08-6.39-.17-9.57,2.52-12.6,7.59-8.74,14.61-16.51,29.78-25.87,44a10.27,10.27,0,0,0,0,12c9.37,14.24,17.14,29.41,25.85,44,1.17,2,3.08,3.47,3.7,5.9.58,2.23,2.8,1.5,4.42,1.5q31,0,62,0"/><path class="cls-3" d="M467.84,375.76q-15.24,26.46-30.52,52.91c-1.66,2.85-2.18,5.75-.43,8.48,10,15.44,18.54,31.7,27.85,47.53,2.48,4.22,5.41,5.57,10.1,5.51,18-.21,36-.16,54,0,3.76,0,6.15-1.09,8.07-4.52,9.17-16.4,18.4-32.77,28.06-48.89,2.06-3.43,1.69-5.58-.1-8.6-10.29-17.4-20.43-34.89-30.75-52.55,10.4-17.75,20.9-35.46,31.11-53.34,1.77-3.1,3.87-4,7.1-4,18.66.06,37.32.13,56-.05a8.28,8.28,0,0,1,8,4.58c9.34,16.3,18.57,32.67,28.08,48.88,1.75,3,1.47,5.35-.08,8q-13.51,23.46-27,46.93c-2.42,4.18-5.65,6.24-11,6.14-19.66-.35-39.32-.14-59-.14"/><path class="cls-4" d="M367.12,123.08a97.13,97.13,0,0,1-10.77,52.43,21.63,21.63,0,0,1-8.63,8.54,23.32,23.32,0,0,0-12.35-3.1c-26,.07-52,1-78,1.26-21.66.26-43.32.8-65,.77a29.92,29.92,0,0,0-8,1.28c-2.07.56-4,3.05-5.92,2.09a17,17,0,0,1-7.1-6.33C164,167.87,160,154.6,158.44,140.56c-.35-3.14-.36-6.32-.52-9.49"/><path class="cls-5" d="M353.87,575.5a27.39,27.39,0,0,1-13.5,3.06c-26.33.06-52.65.77-79,1.13-20.49.28-41,.74-61.48.83-4.93,0-9.77,0-13.48-3.11-7.23,3.14-9.77,9.38-12.55,15.55-6.33,14-8.33,28.76-8,44"/><path class="cls-6" d="M340.37,313.34c-4.34,3.11-9.38,3.85-14.49,4-13.5.28-27,.43-40.49.53-26.33.2-52.65,1.22-79,1.21-5.78,0-11-.31-16-3.2"/><path class="cls-7" d="M269.89,255.41c3.47,6.54,10.3,8.85,16,12.43,15.76,9.83,31.54,19.57,45.5,32,3.7,3.29,7.41,6.36,8.48,11.52a3,3,0,0,0,2,2.55c10.18,3.95,14.16,13.44,18.91,22,5.75,10.33,8.48,21.74,10.09,33.4a2.4,2.4,0,0,1,0,1c-2.7,8.44.9,17-.42,25.48a92.48,92.48,0,0,1-7.2,24.89c-4.1,8.8-8,18-16.83,23.59-2.09,1.32-3.89,1.78-6,.45-2.76-1.72-5.81-2-9-2-27.33.14-54.65,1.19-82,1.16-15.31,0-30.65.92-46,.85a16.31,16.31,0,0,0-10.5,3.5"/><path class="cls-8" d="M179.41,187c-.1,4.75,2.57,8.21,5.51,11.47,12.77,14.16,28.05,25.24,44,35.45,7.24,4.63,14.6,9.08,22,13.47,3.46,2.06,6.53,4.42,8.48,8"/><path class="cls-9" d="M273.39,506.59c4.42,6.5,11.7,9.05,18,13,17.71,11.11,35.37,22.34,50.44,37,5,4.9,11,9.43,11.62,17.41a3,3,0,0,0,1.46,2c10.45,5.78,12.83,16.79,16.22,26.59a87.36,87.36,0,0,1,4.25,32.37"/><path class="cls-10" d="M342.87,446.16a21,21,0,0,1-6.89,12.1c-16.18,15.2-34.55,27.36-53.09,39.34a18.79,18.79,0,0,0-3,2c-3.93,3.8-7.52,8.16-14,6.54a3.51,3.51,0,0,0-2.92,1c-9.1,11-22.42,16.22-33.54,24.43A267.68,267.68,0,0,0,191.9,564.5c-3.42,3.69-5.84,7.74-5.49,13"/><path class="cls-11" d="M347.37,184.5c-.18,4.48-2.06,8.12-5,11.52-16,18.64-35.88,32.4-56,45.88-5.76,3.85-12.3,6.59-16.51,12.5-1.55,2.17-4,1-6,.91-2.85-.07-4.83.53-6.57,3.05-3.07,4.44-8,6.7-12.45,9.5a359.41,359.41,0,0,0-47,35c-3.08,2.74-5.58,5.78-6.6,10a4.9,4.9,0,0,1-2.81,3.71c-6,3-9.78,8.53-13.09,14.29-7.76,13.48-12.92,27.94-13.17,43.45-.09,6.08-.4,12.41.34,18.45,2.27,18.62,8.59,35.68,21.28,50,2.44,2.76,6.64,3.19,8.36,6.06,1.82,3,2.32,6.8,5.17,9.4a249.66,249.66,0,0,0,24.49,19.48c10.67,7.52,21.89,14.15,33,20.91,3.45,2.09,6.5,4.46,8.48,8"/></svg>