<svg id="Camada_1" data-name="Camada 1" xmlns="http://www.w3.org/2000/svg" xmlns:xlink="http://www.w3.org/1999/xlink" viewBox="0 0 760 760"><defs><style>.cls-1,.cls-10,.cls-11,.cls-12,.cls-13,.cls-14,.cls-15,.cls-16,.cls-17,.cls-18,.cls-19,.cls-2,.cls-3,.cls-4,.cls-5,.cls-6,.cls-7,.cls-8,.cls-9{fill:none;stroke-miterlimit:10;stroke-width:8px;}.cls-1{stroke:url(#Gradiente_sem_nome_6);}.cls-2{stroke:url(#Gradiente_sem_nome_6-2);}.cls-3{stroke:url(#Gradiente_sem_nome_6-3);}.cls-4{stroke:url(#Gradiente_sem_nome_6-4);}.cls-5{stroke:url(#Gradiente_sem_nome_6-5);}.cls-6{stroke:url(#Gradiente_sem_nome_6-6);}.cls-7{stroke:url(#Gradiente_sem_nome_6-7);}.cls-8{stroke:url(#Gradiente_sem_nome_6-8);}.cls-9{stroke:url(#Gradiente_sem_nome_6-9);}.cls-10{stroke:url(#Gradiente_sem_nome_6-10);}.cls-11{stroke:url(#Gradiente_sem_nome_6-11);}.cls-12{stroke:url(#Gradiente_sem_nome_6-12);}.cls-13{stroke:url(#Gradiente_sem_nome_6-13);}.cls-14{stroke:url(#Gradiente_sem_nome_6-14);}.cls-15{stroke:url(#Gradiente_sem_nome_6-15);}.cls-16{stroke:url(#Gradiente_sem_nome_6-16);}.cls-17{stroke:url(#Gradiente_sem_nome_6-17);}.cls-18{stroke:url(#Gradiente_sem_nome_6-18);}.cls-19{stroke:url(#Gradiente_sem_nome_6-19);}</style><linearGradient id="Gradiente_sem_nome_6" x1="474.3" y1="152.71" x2="578.45" y2="152.71" gradientUnits="userSpaceOnUse"><stop offset="0.14" stop-color="#679980"/><stop offset="0.83" stop-color="#0f1958"/></linearGradient><linearGradient id="Gradiente_sem_nome_6-2" x1="564.33" y1="221.96" x2="633.94" y2="221.96" xlink:href="#Gradiente_sem_nome_6"/><linearGradient id="Gradiente_sem_nome_6-3" x1="550.85" y1="604.97" x2="620.4" y2="604.97" xlink:href="#Gradiente_sem_nome_6"/><linearGradient id="Gradiente_sem_nome_6-4" x1="333.38" y1="220.64" x2="403.16" y2="220.64" xlink:href="#Gradiente_sem_nome_6"/><linearGradient id="Gradiente_sem_nome_6-5" x1="333.53" y1="604.94" x2="402.96" y2="604.94" xlink:href="#Gradiente_sem_nome_6"/><linearGradient id="Gradiente_sem_nome_6-6" x1="438.55" y1="413.67" x2="508.15" y2="413.67" xlink:href="#Gradiente_sem_nome_6"/><linearGradient id="Gradiente_sem_nome_6-7" x1="228.43" y1="413.24" x2="298.09" y2="413.24" xlink:href="#Gradiente_sem_nome_6"/><linearGradient id="Gradiente_sem_nome_6-8" x1="116.05" y1="604.99" x2="185.75" y2="604.99" xlink:href="#Gradiente_sem_nome_6"/><linearGradient id="Gradiente_sem_nome_6-9" x1="333.44" y1="343.02" x2="403.27" y2="343.02" xlink:href="#Gradiente_sem_nome_6"/><linearGradient id="Gradiente_sem_nome_6-10" x1="438.54" y1="544.65" x2="561.05" y2="544.65" xlink:href="#Gradiente_sem_nome_6"/><linearGradient id="Gradiente_sem_nome_6-11" x1="227.85" y1="535.09" x2="298.31" y2="535.09" xlink:href="#Gradiente_sem_nome_6"/><linearGradient id="Gradiente_sem_nome_6-12" x1="364.28" y1="281.9" x2="372.28" y2="281.9" xlink:href="#Gradiente_sem_nome_6"/><linearGradient id="Gradiente_sem_nome_6-13" x1="256.23" y1="474.18" x2="264.79" y2="474.18" xlink:href="#Gradiente_sem_nome_6"/><linearGradient id="Gradiente_sem_nome_6-14" x1="471.77" y1="474.18" x2="480.33" y2="474.18" xlink:href="#Gradiente_sem_nome_6"/><linearGradient id="Gradiente_sem_nome_6-15" x1="175.04" y1="567.1" x2="234.47" y2="567.1" xlink:href="#Gradiente_sem_nome_6"/><linearGradient id="Gradiente_sem_nome_6-16" x1="289.62" y1="380.07" x2="344.11" y2="380.07" xlink:href="#Gradiente_sem_nome_6"/><linearGradient id="Gradiente_sem_nome_6-17" x1="392.42" y1="568.69" x2="446.34" y2="568.69" xlink:href="#Gradiente_sem_nome_6"/><linearGradient id="Gradiente_sem_nome_6-18" x1="290.5" y1="569.16" x2="343.75" y2="569.16" xlink:href="#Gradiente_sem_nome_6"/><linearGradient id="Gradiente_sem_nome_6-19" x1="392.91" y1="380.2" x2="446.05" y2="380.2" xlink:href="#Gradiente_sem_nome_6"/></defs><path class="cls-1" d="M575.73,199.76l-43-39.89a15,15,0,0,1,2.45-5.59c10.61-17.55,2.5-42.38-19.93-46.9-19.55-3.94-36.48,10.89-36.93,28.46-.39,15.11,7.61,26.39,21.44,30.94a29.76,29.76,0,0,0,25.49-3c2.31-1.37,4.66-2.67,7-4"/><path class="cls-2" d="M575.73,200.26c-1.72,5.51-5.38,10-6.72,15.93-3.46,15.28,6.93,29.39,17.68,34.08,18.39,8,39.71-4.08,42.7-22,2.3-13.83-2.62-24-13.21-31.93-9-6.73-23.45-7.09-34.39,0-1.83,1.19-3.83,2.08-5.56,3.4"/><path class="cls-3" d="M558.73,586.76c-1.84,7.38-4.75,14.42-3.63,22.48,2.18,15.59,15.79,28,33.12,26.37,14.3-1.38,24.5-10.41,27.49-24.39a30.69,30.69,0,0,0-28-37,31.11,31.11,0,0,0-22,7c-2.13,1.7-4.33,3.33-6.5,5"/><path class="cls-4" d="M368.78,252.19c5.18-2,10.66-2.77,15.58-5.86,10.53-6.64,15.49-16.21,14.72-28.08-.82-12.74-7.76-22.31-19.85-26.84-11.33-4.25-22.2-2.5-31.43,5.87-8.12,7.36-11.77,16.53-10,27.44,2.31,14,11,22.29,24.46,25.93a22.44,22.44,0,0,1,6,2"/><path class="cls-5" d="M341.79,586.76c-1.38,6.14-3.89,11.86-4.22,18.46-.89,17.49,17.33,33.45,35.73,30.1C392,631.91,404,613.06,396.9,593.2c-3.71-10.41-11.47-15.14-21.13-17.89-10.72-3-20.16-.19-28.49,6.94-1.62,1.39-3.33,2.67-5,4"/><path class="cls-6" d="M475.75,445.44c6.75-3.22,14-5.18,19.59-10.9,8.77-9.05,10.65-19.88,7.14-31-3.78-11.95-12.56-19.59-25.72-21.07a29.77,29.77,0,0,0-25,8.49c-2,1.87-4,3.68-6,5.5-.64.57-1.38,1-1.52,2-1.12,8.49-3.22,17.09.09,25.44,4.21,10.63,12.15,17.19,23.43,19.46,2.56.52,5.16.74,7.49,2"/><path class="cls-7" d="M291.3,397.5c-2.33-2.33-4.58-4.76-7-7-9.19-8.34-19.89-10.59-31.43-6.4-10.79,3.91-17,11.77-19.76,23.31-3.39,14,6.66,29.75,20.61,35.28,8.91,3.54,16.19.93,23.54-2.42,8.75-4,13.86-11.19,16.22-20.79,1.87-7.58-.94-14.37-1.66-21.51"/><path class="cls-8" d="M177.33,586.76c1,5.11,4,9.56,4.33,15,.78,12.17-3.37,22.2-13.42,28.83-10.41,6.86-21.94,7.39-32.85,1-12.7-7.4-16.88-18.91-14.86-31.83,1.9-12.2,10.38-22.51,25.34-25.31a27.84,27.84,0,0,1,23.44,5.83c2.4,2,4.55,4.27,7.52,5.47"/><path class="cls-9" d="M367.78,311.11c-6,3.23-13,3.8-18.61,8.35-10.92,8.81-14.15,22.63-10,35.62,3.33,10.35,11.42,15.23,20.62,18.3,10.27,3.42,19.93.39,28.41-5.88,11-8.13,12.64-19.81,9.82-31.87-2.68-11.47-10.95-18.74-22.32-21.88-2.46-.68-4.54-2-7-2.64"/><path class="cls-10" d="M558.73,586.26Q541.5,574,524.25,561.78c-6.92-4.95-13.7-10.08-21.15-14.18,2.71-14.46.84-27.18-11.33-36.78-4.79-3.78-10.76-7.37-16-7-12.81.87-24.47,5.57-30.54,18.52-2.93,6.27-2.94,12.64-2.46,19.5.67,9.6,6.67,14.72,13.51,19.41,15,10.24,33.42,4.21,41.48-6.93,1.66-2.3,3.08-4.9,6-6"/><path class="cls-11" d="M261.31,503.36c4.16,2.46,9.1,1.67,13.54,3.39,10.44,4.05,23.16,19.42,18.45,34.57a2,2,0,0,0,0,.49c-.59,15.4-12,20.59-24.06,23.74s-22.51-1.48-30.43-11.25a3.94,3.94,0,0,0-.5-.5c-8.7-7.5-6.75-17.38-4.75-26.41,2.15-9.7,8.89-16.6,18.25-20.52,3-1.24,6-2.34,9-3.51"/><path class="cls-12" d="M368.28,253.19v57.43"/><path class="cls-13" d="M260.81,445.94c-.94,5-.45,10-.48,15-.07,11.82-.05,23.64,0,35.45,0,2.17.31,4.33.48,6.49"/><path class="cls-14" d="M475.75,445.94c.94,5,.45,10,.48,15,.07,11.82,0,23.64,0,35.45,0,2.17-.31,4.33-.48,6.49"/><path class="cls-15" d="M232.81,548.31c-7,3.17-12.8,8.11-19,12.47q-18.19,12.79-36.48,25.48"/><path class="cls-16" d="M341.79,362.55q-20,14.24-40,28.44c-3.24,2.29-6.65,4.35-10,6.51"/><path class="cls-17" d="M444.26,551.3C431.57,559,420,568.37,407.78,576.79c-4.41,3-8.67,6.3-13,9.47"/><path class="cls-18" d="M292.8,551.3c16.32,11.43,32.77,22.69,48.49,35,.11.08.33,0,.5,0"/><path class="cls-19" d="M395.27,362.55q22.5,16.47,45,32.93a27.52,27.52,0,0,0,4,2"/></svg>