<svg id="Camada_1" data-name="Camada 1" xmlns="http://www.w3.org/2000/svg" xmlns:xlink="http://www.w3.org/1999/xlink" viewBox="0 0 760 760"><defs><style>.cls-1,.cls-2,.cls-3,.cls-4,.cls-5,.cls-6,.cls-7{fill:none;stroke-miterlimit:10;stroke-width:8px;}.cls-1{stroke:url(#Gradiente_sem_nome_6);}.cls-2{stroke:url(#Gradiente_sem_nome_6-2);}.cls-3{stroke:url(#Gradiente_sem_nome_6-3);}.cls-4{stroke:url(#Gradiente_sem_nome_6-4);}.cls-5{stroke:url(#Gradiente_sem_nome_6-5);}.cls-6{stroke:url(#Gradiente_sem_nome_6-6);}.cls-7{stroke:url(#Gradiente_sem_nome_6-7);}</style><linearGradient id="Gradiente_sem_nome_6" x1="87.01" y1="362.55" x2="592.07" y2="362.55" gradientUnits="userSpaceOnUse"><stop offset="0.14" stop-color="#679980"/><stop offset="0.83" stop-color="#0f1958"/></linearGradient><linearGradient id="Gradiente_sem_nome_6-2" x1="503.2" y1="420.54" x2="569.36" y2="420.54" xlink:href="#Gradiente_sem_nome_6"/><linearGradient id="Gradiente_sem_nome_6-3" x1="309.91" y1="542.22" x2="555.19" y2="542.22" xlink:href="#Gradiente_sem_nome_6"/><linearGradient id="Gradiente_sem_nome_6-4" x1="297.05" y1="421.79" x2="437.34" y2="421.79" xlink:href="#Gradiente_sem_nome_6"/><linearGradient id="Gradiente_sem_nome_6-5" x1="378.58" y1="484.47" x2="583.96" y2="484.47" xlink:href="#Gradiente_sem_nome_6"/><linearGradient id="Gradiente_sem_nome_6-6" x1="263.38" y1="325.38" x2="345.81" y2="325.38" xlink:href="#Gradiente_sem_nome_6"/><linearGradient id="Gradiente_sem_nome_6-7" x1="275.25" y1="467.18" x2="384.25" y2="467.18" xlink:href="#Gradiente_sem_nome_6"/></defs><path class="cls-1" d="M432.71,401c4.08-1.34,6.11-4.87,8.5-8,7-9.24,15.33-17,26-21.95,8.55-3.93,17.44-6.65,27-6.5a20.75,20.75,0,0,0,9-2.05c.93-.42,2-.32,2.63-1.9,4.12-10.06,13.72-15.2,20.94-22.46,15.12-15.22,32.86-27.92,44.42-46.51a110.67,110.67,0,0,0,16.14-46.41c2.74-23.63-2-45.48-13.67-65.91-15.73-27.49-39.17-45-69.95-52.42-25.63-6.19-50.28-3.1-74,8.4-10,4.83-18.69,11.37-26.92,18.58-6.56,5.74-12.69,12-19,17.92-16,15-31.84,30.13-48,44.9-14.11,12.86-27.9,26.08-42.08,38.85-6.13,5.52-11.57,11.78-18.28,16.73a27.06,27.06,0,0,0-8.59,9.88c-.25.53-.55,1.3-1,1.46-9.12,3.07-14,11.39-20.82,17.2-12.72,10.84-24.32,23-36.69,34.23-14.48,13.16-28.68,26.61-43,39.93-9.67,9-19.27,18.05-29,26.92-10.3,9.35-20.34,18.74-27.94,30.54a104.38,104.38,0,0,0-16,42.47c-3.49,24.7.15,48.09,12.54,69.9,15.82,27.88,39.45,45.74,70.49,53.34,25.54,6.26,50.34,3,73.92-8.46a114.54,114.54,0,0,0,28.06-19.87c17.73-16.59,35.63-33,53.46-49.47"/><path class="cls-2" d="M505.7,362.08c3.54,2.82,7.75,4.08,12,5.56,25.13,8.85,40.65,26.53,46.4,52.39,2.74,12.28.54,24.65-1.34,36.93-1.3,8.41-5.49,16.22-5.05,25"/><path class="cls-3" d="M551.19,486.42c.16,8.06-4.59,14.21-8.59,20.41-14.24,22.06-32.86,40-53.91,55.47-14.92,11-30.74,20.55-46.9,29.62-5.55,3.12-9.81,3.93-15.65.5-20.79-12.23-41.46-24.6-60.39-39.61-10.65-8.44-19.88-18.41-29.52-27.94-8.61-8.51-13.54-19.5-20-29.48-1.63-2.54-1.68-5.65-2.52-8.47"/><path class="cls-4" d="M433.21,415a56.94,56.94,0,0,1,0-6c.51-4.67-1.18-8-4.39-11.62-7.81-8.8-14.92-18-25.56-24a68.22,68.22,0,0,0-27.58-8.74c-7.85-.69-15.67.3-23.52,1.69A45.71,45.71,0,0,0,332.71,375c-16.64,12.14-26.57,28.53-30.36,48.5-2.73,14.43-.88,28.84,3,42.9,1.5,5.46.51,10.42-1.08,15.5"/><path class="cls-5" d="M583.68,483.92c-8.33-.59-16.84,1.48-25-1.6a2.26,2.26,0,0,0-2,.16c-3.62,4.11-7.72,3.25-12.09,1.51-1.15-.46-2.64-.07-4-.07-20.33,0-40.66.28-61-.16-6.64-.14-10.91,1.83-14.1,7.6-2.53,4.58-6,8.63-8.86,13.06a31.94,31.94,0,0,1-8.13,9c-3.94-.56-5.86-3.6-7.92-6.55-4.45-6.36-9.18-12.53-13.4-19-2.19-3.37-4.95-4.15-8.58-4s-7.36-.24-11,.11c-4.77.45-7.78-1.49-10.05-5.54-3-5.27-6.26-10.36-9.47-15.5-2-3.26-4.31-6.33-8-8"/><path class="cls-6" d="M266.25,284.18c13,13.36,25.56,27.09,38,40.91,5,5.59,10.56,10.75,15.52,16.45,5.87,6.75,12.22,13.09,18.45,19.51,1.85,1.91,2.83,4.24,4,6.52"/><path class="cls-7" d="M380,445c.08,2.5.13,5,.26,7.49a3.1,3.1,0,0,1-1,3c-8.11,5.18-11.42,14.13-16.17,21.7-3.42,5.44-6.91,7.12-12.8,6.89-8.65-.35-17.32-.09-26-.09-1,0-2.14-.32-3,.05a15.84,15.84,0,0,1-15.52-1.05c-3.07-1.85-5.46,1.32-8.5,1.14-7.31-.44-14.66-.14-22-.14"/></svg>