<svg id="Camada_1" data-name="Camada 1" xmlns="http://www.w3.org/2000/svg" xmlns:xlink="http://www.w3.org/1999/xlink" viewBox="0 0 760 760"><defs><style>.cls-1,.cls-10,.cls-11,.cls-12,.cls-13,.cls-14,.cls-15,.cls-17,.cls-18,.cls-19,.cls-2,.cls-3,.cls-4,.cls-5,.cls-6,.cls-7,.cls-8,.cls-9{fill:none;stroke-width:8px;}.cls-1,.cls-10,.cls-11,.cls-12,.cls-13,.cls-14,.cls-15,.cls-16,.cls-17,.cls-18,.cls-19,.cls-2,.cls-3,.cls-4,.cls-5,.cls-6,.cls-7,.cls-8,.cls-9{stroke-miterlimit:10;}.cls-1{stroke:url(#Gradiente_sem_nome_6);}.cls-2{stroke:url(#Gradiente_sem_nome_6-2);}.cls-3{stroke:url(#Gradiente_sem_nome_6-3);}.cls-4{stroke:url(#Gradiente_sem_nome_6-4);}.cls-5{stroke:url(#Gradiente_sem_nome_6-5);}.cls-6{stroke:url(#Gradiente_sem_nome_6-6);}.cls-7{stroke:url(#Gradiente_sem_nome_6-7);}.cls-8{stroke:url(#Gradiente_sem_nome_6-8);}.cls-9{stroke:url(#Gradiente_sem_nome_6-9);}.cls-10{stroke:url(#Gradiente_sem_nome_6-10);}.cls-11{stroke:url(#Gradiente_sem_nome_6-11);}.cls-12{stroke:url(#Gradiente_sem_nome_6-12);}.cls-13{stroke:url(#Gradiente_sem_nome_6-13);}.cls-14{stroke:url(#Gradiente_sem_nome_6-14);}.cls-15{stroke:url(#Gradiente_sem_nome_6-15);}.cls-16{fill:#0f1958;stroke:#0f1958;}.cls-17{stroke:url(#Gradiente_sem_nome_6-16);}.cls-18{stroke:url(#Gradiente_sem_nome_6-17);}.cls-19{stroke:url(#Gradiente_sem_nome_6-18);}.cls-20{font-size:94px;fill:#0d1660;font-family:NeuePlak-WideSemiBold, NeuePlak WideSemiBold;font-weight:600;}</style><linearGradient id="Gradiente_sem_nome_6" x1="112.65" y1="364.49" x2="381.02" y2="364.49" gradientUnits="userSpaceOnUse"><stop offset="0.14" stop-color="#679980"/><stop offset="0.83" stop-color="#0f1958"/></linearGradient><linearGradient id="Gradiente_sem_nome_6-2" x1="214.27" y1="364.57" x2="531.5" y2="364.57" xlink:href="#Gradiente_sem_nome_6"/><linearGradient id="Gradiente_sem_nome_6-3" x1="486.03" y1="149.85" x2="532.93" y2="149.85" xlink:href="#Gradiente_sem_nome_6"/><linearGradient id="Gradiente_sem_nome_6-4" x1="527.48" y1="217.49" x2="622.81" y2="217.49" xlink:href="#Gradiente_sem_nome_6"/><linearGradient id="Gradiente_sem_nome_6-5" x1="527.5" y1="511.24" x2="622.82" y2="511.24" xlink:href="#Gradiente_sem_nome_6"/><linearGradient id="Gradiente_sem_nome_6-6" x1="428.31" y1="142.7" x2="436.31" y2="142.7" xlink:href="#Gradiente_sem_nome_6"/><linearGradient id="Gradiente_sem_nome_6-7" x1="486.03" y1="579.14" x2="532.93" y2="579.14" xlink:href="#Gradiente_sem_nome_6"/><linearGradient id="Gradiente_sem_nome_6-8" x1="428.31" y1="586.28" x2="436.31" y2="586.28" xlink:href="#Gradiente_sem_nome_6"/><linearGradient id="Gradiente_sem_nome_6-9" x1="527.48" y1="329.08" x2="637.09" y2="329.08" xlink:href="#Gradiente_sem_nome_6"/><linearGradient id="Gradiente_sem_nome_6-10" x1="527.48" y1="423.36" x2="637.09" y2="423.36" xlink:href="#Gradiente_sem_nome_6"/><linearGradient id="Gradiente_sem_nome_6-11" x1="289.96" y1="188.9" x2="341.36" y2="188.9" xlink:href="#Gradiente_sem_nome_6"/><linearGradient id="Gradiente_sem_nome_6-12" x1="203.55" y1="253.41" x2="254.95" y2="253.41" xlink:href="#Gradiente_sem_nome_6"/><linearGradient id="Gradiente_sem_nome_6-13" x1="203.55" y1="470.86" x2="254.95" y2="470.86" xlink:href="#Gradiente_sem_nome_6"/><linearGradient id="Gradiente_sem_nome_6-14" x1="289.96" y1="540.72" x2="341.36" y2="540.72" xlink:href="#Gradiente_sem_nome_6"/><linearGradient id="Gradiente_sem_nome_6-15" x1="170.27" y1="368.19" x2="221.67" y2="368.19" xlink:href="#Gradiente_sem_nome_6"/><linearGradient id="Gradiente_sem_nome_6-16" x1="254.47" y1="364.6" x2="490.21" y2="364.6" xlink:href="#Gradiente_sem_nome_6"/><linearGradient id="Gradiente_sem_nome_6-17" x1="374.84" y1="245.75" x2="382.04" y2="245.75" xlink:href="#Gradiente_sem_nome_6"/><linearGradient id="Gradiente_sem_nome_6-18" x1="374.84" y1="483.86" x2="382.04" y2="483.86" xlink:href="#Gradiente_sem_nome_6"/></defs><path class="cls-1" d="M377.34,623h0c-11.51,27.25-53.7,19.18-53.48-10.22h0c.18-24-30-36-47.53-18.92h0c-21.48,20.94-57.24-2-45.33-29.11h0c9.7-22.06-13.42-44.28-36.38-34.95h0c-28.18,11.45-52.08-22.93-30.29-43.57h0c17.75-16.81,5.24-45.84-19.68-45.67h0c-30.6.21-39-40.33-10.64-51.39h0c23.09-9,23.09-40.43,0-49.43h0c-28.35-11.06-20-51.61,10.64-51.39h0c24.92.17,37.43-28.86,19.68-45.68h0c-21.79-20.64,2.11-55,30.29-43.56h0c23,9.32,46.08-12.9,36.38-35h0c-11.91-27.08,23.85-50,45.33-29.11h0c17.5,17.06,47.71,5,47.53-18.91h0c-.22-29.41,42-37.47,53.48-10.23h0"/><path class="cls-2" d="M527.5,197.51v334H378.77v.15c-88.64,0-160.5-75.38-160.5-166.82S289.94,198.18,378.42,198v-.47Z"/><path class="cls-3" d="M490,197.51V144.27a15.66,15.66,0,0,1,6.09-12.39l34.37-26.53"/><path class="cls-4" d="M527.48,236.94h53.25a15.64,15.64,0,0,0,12.38-6.09l26.53-34.37"/><path class="cls-5" d="M527.5,491.79h53.24a15.62,15.62,0,0,1,12.38,6.08l26.53,34.37"/><line class="cls-6" x1="432.31" y1="87.9" x2="432.31" y2="197.51"/><path class="cls-7" d="M490,531.48v53.24a15.63,15.63,0,0,0,6.09,12.38l34.37,26.53"/><line class="cls-8" x1="432.31" y1="641.09" x2="432.31" y2="531.48"/><line class="cls-9" x1="637.09" y1="329.08" x2="527.48" y2="329.08"/><line class="cls-10" x1="637.09" y1="423.36" x2="527.48" y2="423.36"/><ellipse class="cls-11" cx="315.66" cy="188.9" rx="21.7" ry="20.85"/><ellipse class="cls-12" cx="229.25" cy="253.41" rx="21.7" ry="20.85"/><ellipse class="cls-13" cx="229.25" cy="470.86" rx="21.7" ry="20.85"/><ellipse class="cls-14" cx="315.66" cy="540.72" rx="21.7" ry="20.85"/><ellipse class="cls-15" cx="195.97" cy="368.19" rx="21.7" ry="20.85"/><circle class="cls-16" cx="538.38" cy="101.06" r="13.16"/><circle class="cls-16" cx="623.94" cy="188.59" r="13.16"/><circle class="cls-16" cx="623.95" cy="540.13" r="13.16"/><circle class="cls-16" cx="432.31" cy="87.9" r="13.16"/><circle class="cls-16" cx="538.38" cy="627.93" r="13.16"/><circle class="cls-16" cx="432.31" cy="641.09" r="13.16"/><circle class="cls-16" cx="637.09" cy="329.08" r="13.16"/><circle class="cls-16" cx="637.09" cy="423.36" r="13.16"/><path class="cls-17" d="M486.21,243.75V485.23H378.42c-5.34,12.44-24.67,7.38-24.57-6.12V479c0-11-13.86-16.44-21.87-8.62a12.71,12.71,0,0,1-9,3.75c-8.26,0-15.89-8.07-11.9-17.14a12.18,12.18,0,0,0,1-4.85c0-8.22-8.92-14.84-17.8-11.24a13.68,13.68,0,0,1-5.17,1.05c-10.41,0-17.42-12.91-8.76-21.11a11.84,11.84,0,0,0,3.83-8.65,12.52,12.52,0,0,0-12.89-12.37h-.11c-14,0-17.8-18.58-4.79-23.65a12.11,12.11,0,0,0,0-22.76,11.86,11.86,0,0,1-8-11.23,12.36,12.36,0,0,1,12.89-12.43h.11c11.39,0,17.1-13.31,8.95-21a11.71,11.71,0,0,1-3.9-8.61,12.76,12.76,0,0,1,17.83-11.44,13.37,13.37,0,0,0,5,1c8.56,0,15.46-8.59,11.71-17.1a12.18,12.18,0,0,1-1.1-5c0-10,13.43-16.74,22-8.42a12.74,12.74,0,0,0,9,3.69c6.59,0,12.92-4.95,12.87-12.4v-.1c0-13.42,19.25-19.05,24.57-6.65H486.21Z"/><path class="cls-18" d="M378.46,245.79l0-.09"/><path class="cls-19" d="M378.46,483.82l0,.08"/><text class="cls-20" transform="translate(323.61 395.82)">AI</text></svg>