<svg id="Camada_1" data-name="Camada 1" xmlns="http://www.w3.org/2000/svg" xmlns:xlink="http://www.w3.org/1999/xlink" viewBox="0 0 760 760"><defs><style>.cls-1,.cls-10,.cls-3,.cls-4,.cls-5,.cls-6,.cls-7,.cls-8,.cls-9{fill:none;stroke-miterlimit:10;stroke-width:8px;}.cls-1{stroke:url(#Gradiente_sem_nome_6);}.cls-2{clip-path:url(#clip-path);}.cls-3{stroke:url(#Gradiente_sem_nome_6-2);}.cls-4{stroke:url(#Gradiente_sem_nome_6-4);}.cls-5{stroke:url(#Gradiente_sem_nome_6-5);}.cls-6{stroke:url(#Gradiente_sem_nome_6-6);}.cls-7{stroke:url(#Gradiente_sem_nome_6-7);}.cls-8{stroke:url(#Gradiente_sem_nome_6-8);}.cls-9{stroke:url(#Gradiente_sem_nome_6-9);}.cls-10{stroke:url(#Gradiente_sem_nome_6-10);}</style><linearGradient id="Gradiente_sem_nome_6" x1="360.12" y1="1116.39" x2="575.81" y2="1116.39" gradientUnits="userSpaceOnUse"><stop offset="0.14" stop-color="#679980"/><stop offset="0.83" stop-color="#0f1958"/></linearGradient><clipPath id="clip-path"><circle class="cls-1" cx="467.97" cy="1116.39" r="103.83"/></clipPath><linearGradient id="Gradiente_sem_nome_6-2" x1="295.76" y1="1068.01" x2="719.91" y2="1068.01" gradientTransform="translate(1517.56 452.38) rotate(84.06)" xlink:href="#Gradiente_sem_nome_6"/><linearGradient id="Gradiente_sem_nome_6-4" x1="177.27" y1="383.65" x2="560.54" y2="383.65" xlink:href="#Gradiente_sem_nome_6"/><linearGradient id="Gradiente_sem_nome_6-5" x1="137.97" y1="383.65" x2="599.83" y2="383.65" xlink:href="#Gradiente_sem_nome_6"/><linearGradient id="Gradiente_sem_nome_6-6" x1="333.38" y1="389.04" x2="404.43" y2="389.04" xlink:href="#Gradiente_sem_nome_6"/><linearGradient id="Gradiente_sem_nome_6-7" x1="346.41" y1="218.74" x2="391.41" y2="218.74" xlink:href="#Gradiente_sem_nome_6"/><linearGradient id="Gradiente_sem_nome_6-8" x1="346.41" y1="559.34" x2="391.41" y2="559.34" xlink:href="#Gradiente_sem_nome_6"/><linearGradient id="Gradiente_sem_nome_6-9" x1="87.15" y1="389.04" x2="310.06" y2="389.04" xlink:href="#Gradiente_sem_nome_6"/><linearGradient id="Gradiente_sem_nome_6-10" x1="427.75" y1="389.04" x2="650.67" y2="389.04" xlink:href="#Gradiente_sem_nome_6"/></defs><g class="cls-2"><ellipse class="cls-3" cx="507.83" cy="1068.01" rx="313.14" ry="206.62" transform="translate(-606.99 1462.6) rotate(-84.06)"/></g><circle class="cls-1" cx="467.97" cy="1116.39" r="103.83"/><path class="cls-4" d="M444.65,407.54H555.2a187.86,187.86,0,0,1-167.79,163V464.79a12.9,12.9,0,0,0-12.9-12.9h-11.2a12.89,12.89,0,0,0-12.9,12.9V570.55a187.86,187.86,0,0,1-167.79-163H293.16a12.89,12.89,0,0,0,12.9-12.9v-11.2a12.9,12.9,0,0,0-12.9-12.9H181.56A187.84,187.84,0,0,1,350.41,196.75V313.3a12.9,12.9,0,0,0,12.9,12.9h11.2a12.91,12.91,0,0,0,12.9-12.9V196.75A187.84,187.84,0,0,1,556.26,370.54H444.65a12.91,12.91,0,0,0-12.9,12.9v11.2A12.9,12.9,0,0,0,444.65,407.54Z"/><path class="cls-5" d="M594.74,407.54C583.44,515.66,496.26,601.21,387.41,610V464.79a12.9,12.9,0,0,0-12.9-12.9h-11.2a12.89,12.89,0,0,0-12.9,12.9V610c-108.86-8.77-196-94.32-207.34-202.44H293.16a12.89,12.89,0,0,0,12.9-12.9v-11.2a12.9,12.9,0,0,0-12.9-12.9h-151c6.43-113.17,95.75-204.16,208.2-213.22v156a12.9,12.9,0,0,0,12.9,12.9h11.2a12.91,12.91,0,0,0,12.9-12.9v-156c112.45,9.06,201.76,100.05,208.19,213.22h-151a12.91,12.91,0,0,0-12.9,12.9v11.2a12.9,12.9,0,0,0,12.9,12.9Z"/><circle class="cls-6" cx="368.91" cy="389.04" r="31.52"/><path class="cls-7" d="M387.41,124.19V313.3a12.91,12.91,0,0,1-12.9,12.9h-11.2a12.9,12.9,0,0,1-12.9-12.9V124.19a12.9,12.9,0,0,1,12.9-12.91h11.2A12.91,12.91,0,0,1,387.41,124.19Z"/><path class="cls-8" d="M387.41,464.79V653.9a12.9,12.9,0,0,1-12.9,12.9h-11.2a12.89,12.89,0,0,1-12.9-12.9V464.79a12.89,12.89,0,0,1,12.9-12.9h11.2A12.9,12.9,0,0,1,387.41,464.79Z"/><path class="cls-9" d="M306.06,383.44v11.2a12.89,12.89,0,0,1-12.9,12.9H104.05a12.9,12.9,0,0,1-12.9-12.9v-11.2a12.91,12.91,0,0,1,12.9-12.9H293.16A12.9,12.9,0,0,1,306.06,383.44Z"/><path class="cls-10" d="M646.67,383.44v11.2a12.9,12.9,0,0,1-12.91,12.9H444.65a12.9,12.9,0,0,1-12.9-12.9v-11.2a12.91,12.91,0,0,1,12.9-12.9H633.76A12.91,12.91,0,0,1,646.67,383.44Z"/></svg>