<svg id="Camada_1" data-name="Camada 1" xmlns="http://www.w3.org/2000/svg" xmlns:xlink="http://www.w3.org/1999/xlink" viewBox="0 0 760 760"><defs><style>.cls-1,.cls-3,.cls-4,.cls-6{fill:none;stroke-width:8px;}.cls-1,.cls-2,.cls-3,.cls-4,.cls-5,.cls-6{stroke-miterlimit:10;}.cls-1{stroke:url(#Gradiente_sem_nome_6);}.cls-2{fill:#0f1958;stroke:#0f1958;}.cls-2,.cls-5{stroke-width:6px;}.cls-3{stroke:url(#Gradiente_sem_nome_6-2);}.cls-4{stroke:url(#Gradiente_sem_nome_6-3);}.cls-5{fill:#679980;stroke:#679980;}.cls-6{stroke:url(#Gradiente_sem_nome_6-4);}</style><linearGradient id="Gradiente_sem_nome_6" x1="176.97" y1="159.17" x2="560.74" y2="159.17" gradientUnits="userSpaceOnUse"><stop offset="0.14" stop-color="#679980"/><stop offset="0.83" stop-color="#0f1958"/></linearGradient><linearGradient id="Gradiente_sem_nome_6-2" x1="521.35" y1="448.19" x2="655.64" y2="448.19" xlink:href="#Gradiente_sem_nome_6"/><linearGradient id="Gradiente_sem_nome_6-3" x1="97.57" y1="450.97" x2="230.67" y2="450.97" xlink:href="#Gradiente_sem_nome_6"/><linearGradient id="Gradiente_sem_nome_6-4" x1="180.42" y1="391.62" x2="557.76" y2="391.62" xlink:href="#Gradiente_sem_nome_6"/></defs><path class="cls-1" d="M179.79,198.9c104.41-104.4,273.7-104.4,378.12,0"/><path class="cls-2" d="M552.44,142.77l18.28,74.4a.93.93,0,0,1-1.15,1.11L496.75,198a.93.93,0,0,1,.17-1.82L546,192.31a.92.92,0,0,0,.85-.85l3.78-48.54A.92.92,0,0,1,552.44,142.77Z"/><path class="cls-3" d="M612.52,263.79c76.87,126.06,37,290.59-89.09,367.47"/><path class="cls-2" d="M579.28,639.17l-76.62.23a.93.93,0,0,1-.81-1.37l36.92-66a.93.93,0,0,1,1.73.6l-7.85,48.59a.91.91,0,0,0,.63,1l46.28,15.12A.92.92,0,0,1,579.28,639.17Z"/><path class="cls-4" d="M228.57,634.28C102.91,556.76,63.89,392,141.43,266.35"/><path class="cls-5" d="M88.06,284.61l68.18-34.93a.92.92,0,0,1,1.35.86l-3,75.54a.93.93,0,0,1-1.81.25l-15-46.86a.91.91,0,0,0-1-.63l-48.11,7.5A.92.92,0,0,1,88.06,284.61Z"/><path class="cls-6" d="M199.08,348.65A11.24,11.24,0,0,1,195,370a10.86,10.86,0,0,0-10.47,9.74c-.68,5.39,2.23,11.23,9.06,12.52a11.1,11.1,0,0,1,9,12.57,10.89,10.89,0,0,1-7.69,9.17c-11.79,3.8-9.43,20.43,1.75,21.85a12,12,0,0,0,2.41.06A11.23,11.23,0,0,1,211,448.73a10.86,10.86,0,0,1-5.18,7.94c-9.58,6-5,19.53,4.37,20.72a11.43,11.43,0,0,0,5.12-.54c8.57-2.79,15.64,4.69,14.7,12.15a11.11,11.11,0,0,1-3,6.26c-7,7.46-1.34,18,6.79,19a11,11,0,0,0,7.42-1.79c8.49-5.4,18.36,2.06,17.25,10.75a11.64,11.64,0,0,1-1.38,4.17c-4.42,8,1.54,15.8,8.63,16.7a10.77,10.77,0,0,0,9.4-3.58c7.59-8.1,20.7-1.46,19.38,8.94a14.29,14.29,0,0,1-.3,1.56c-2,7.66,3.54,13.25,9.66,14a10.73,10.73,0,0,0,11.07-5.8c5.6-10.21,21.12-6.22,21.09,5.43a11.24,11.24,0,0,0,22.13,2.81,11.07,11.07,0,0,1,12.38-8.36,10.92,10.92,0,0,1,9.4,8.38c3.12,12.26,20.53,10.63,22-1.12a12.86,12.86,0,0,0,.11-1.66c0-11.65,15.51-15.62,21.09-5.4h0c5.56,10.16,19.82,6.07,21.06-3.71a11.85,11.85,0,0,0-.32-4.49c-2.18-8.46,5.2-14.92,12.37-14a11,11,0,0,1,6.72,3.53c7.19,7.7,18.41,2.19,19.48-6.22a11.15,11.15,0,0,0-1.42-6.87c-4.74-8.59,2.8-17.72,11.16-16.66a11.47,11.47,0,0,1,4.72,1.75c7.95,5.08,16.39-.9,17.32-8.23a10.83,10.83,0,0,0-3.09-8.94c-7.42-7.89-.49-20.15,9.41-18.89a11.92,11.92,0,0,1,2.27.51c7.82,2.56,13.92-3.12,14.73-9.49a10.73,10.73,0,0,0-5.21-10.68,10.91,10.91,0,0,1-5.17-10.81A11.13,11.13,0,0,1,539,436.18a11.23,11.23,0,0,0,4.19-21.9,11.23,11.23,0,0,1,1.39-21.73c12.71-2.4,11.86-20.61-.52-22.18l-.87-.09a11.16,11.16,0,0,1-10.46-12.78,10.87,10.87,0,0,1,6.39-8.61c10.74-5,7.15-20.07-3-21.37a12.21,12.21,0,0,0-3.83.15c-8.32,1.6-14.2-5.64-13.32-12.56A11,11,0,0,1,523,308c8.34-6.86,3.09-18.83-5.62-19.94a11.27,11.27,0,0,0-6.32,1.1c-8.63,4.07-17.05-3.49-16-11.52a11.41,11.41,0,0,1,2.16-5.27c5.72-7.84-.21-16.94-7.8-17.9a10.9,10.9,0,0,0-8.45,2.62c-8.15,6.75-19.58-.41-18.37-9.89a12.12,12.12,0,0,1,.76-2.92c3.16-7.93-2.65-14.56-9.25-15.4a10.73,10.73,0,0,0-10.29,4.64c-6.82,9.42-21.71,3.53-20.24-8v0c.93-7.21-4.21-11.88-9.84-12.6a10.81,10.81,0,0,0-11.76,7,11.24,11.24,0,0,1-21.61-2.74c-1.62-13.12-20.63-13.15-22.29,0v0a11.16,11.16,0,0,1-12.7,9.76,10.88,10.88,0,0,1-8.91-7c-4.43-11.28-20.27-8.27-21.63,2.4a12.64,12.64,0,0,0,0,3.13,11.25,11.25,0,0,1-12.7,12.6,10.89,10.89,0,0,1-7.55-4.59c-6.47-9-19.2-4-20.35,5a11.46,11.46,0,0,0,.8,5.73c3.42,8.62-4.12,16.35-11.85,15.37a11.25,11.25,0,0,1-5.78-2.59c-7.68-6.39-17.47-.54-18.47,7.32a10.9,10.9,0,0,0,2.2,7.94c6.07,8.34-1.26,19-10.33,17.83a11.82,11.82,0,0,1-3.56-1.06c-8-3.78-15.2,2.12-16.07,9a10.78,10.78,0,0,0,4.1,9.86c8.76,7.23,2.47,21.21-8.46,19.82a7.76,7.76,0,0,1-.82-.13c-7.46-1.43-12.58,3.91-13.33,9.79A10.76,10.76,0,0,0,199.08,348.65Zm186-82.45A127.79,127.79,0,1,1,242.22,376.87,127.8,127.8,0,0,1,385.1,266.2Z"/></svg>